<svg width="1440" height="900" viewBox="0 0 1440 900" fill="none" xmlns="http://www.w3.org/2000/svg">
<g clip-path="url(#clip0_39_3420)">
<path d="M1439.04 0H-1V651.61H1439.04V0Z" fill="#E794B2"/>
<g opacity="0.15">
<path d="M792.46 336.472H723.58V382.133H792.46V336.472Z" fill="white"/>
<path d="M712.11 336.472H643.23V382.133H712.11V336.472Z" fill="white"/>
<path d="M631.75 336.472H562.87V382.133H631.75V336.472Z" fill="white"/>
<path d="M551.4 336.472H482.52V382.133H551.4V336.472Z" fill="white"/>
<path d="M471.04 336.472H402.16V382.133H471.04V336.472Z" fill="white"/>
<path d="M390.69 336.472H321.81V382.133H390.69V336.472Z" fill="white"/>
<path d="M310.33 336.472H241.45V382.133H310.33V336.472Z" fill="white"/>
<path d="M229.98 336.472H161.1V382.133H229.98V336.472Z" fill="white"/>
<path d="M149.63 336.472H80.75V382.133H149.63V336.472Z" fill="white"/>
<path d="M69.27 336.472H0.389954V382.133H69.27V336.472Z" fill="white"/>
<path d="M792.46 457.719H723.58V503.38H792.46V457.719Z" fill="white"/>
<path d="M712.11 457.719H643.23V503.38H712.11V457.719Z" fill="white"/>
<path d="M631.75 457.719H562.87V503.38H631.75V457.719Z" fill="white"/>
<path d="M551.4 457.719H482.52V503.38H551.4V457.719Z" fill="white"/>
<path d="M471.04 457.719H402.16V503.38H471.04V457.719Z" fill="white"/>
<path d="M390.69 457.719H321.81V503.38H390.69V457.719Z" fill="white"/>
<path d="M310.33 457.719H241.45V503.38H310.33V457.719Z" fill="white"/>
<path d="M229.98 457.719H161.1V503.38H229.98V457.719Z" fill="white"/>
<path d="M149.63 457.719H80.75V503.38H149.63V457.719Z" fill="white"/>
<path d="M69.27 457.719H0.389954V503.38H69.27V457.719Z" fill="white"/>
<path d="M750.07 394.731H681.19V440.391H750.07V394.731Z" fill="white"/>
<path d="M669.71 394.731H600.84V440.391H669.71V394.731Z" fill="white"/>
<path d="M589.36 394.731H520.48V440.391H589.36V394.731Z" fill="white"/>
<path d="M509.01 394.731H440.13V440.391H509.01V394.731Z" fill="white"/>
<path d="M428.65 394.731H359.77V440.391H428.65V394.731Z" fill="white"/>
<path d="M348.3 394.731H279.42V440.391H348.3V394.731Z" fill="white"/>
<path d="M267.93 394.731H199.06V440.391H267.93V394.731Z" fill="white"/>
<path d="M187.59 394.731H118.71V440.391H187.59V394.731Z" fill="white"/>
<path d="M107.23 394.731H38.35V440.391H107.23V394.731Z" fill="white"/>
<path d="M29.93 394.731H0.039978V440.391H29.93V394.731Z" fill="white"/>
<path d="M1435.05 336.472H1366.17V382.133H1435.05V336.472Z" fill="white"/>
<path d="M1354.69 336.472H1285.81V382.133H1354.69V336.472Z" fill="white"/>
<path d="M1274.34 336.472H1205.46V382.133H1274.34V336.472Z" fill="white"/>
<path d="M1193.98 336.472H1125.1V382.133H1193.98V336.472Z" fill="white"/>
<path d="M1113.63 336.472H1044.75V382.133H1113.63V336.472Z" fill="white"/>
<path d="M1033.27 336.472H964.39V382.133H1033.27V336.472Z" fill="white"/>
<path d="M952.92 336.472H884.04V382.133H952.92V336.472Z" fill="white"/>
<path d="M872.56 336.472H803.68V382.133H872.56V336.472Z" fill="white"/>
<path d="M1435.05 457.719H1366.17V503.38H1435.05V457.719Z" fill="white"/>
<path d="M1354.69 457.719H1285.81V503.38H1354.69V457.719Z" fill="white"/>
<path d="M1274.34 457.719H1205.46V503.38H1274.34V457.719Z" fill="white"/>
<path d="M1193.98 457.719H1125.1V503.38H1193.98V457.719Z" fill="white"/>
<path d="M1113.63 457.719H1044.75V503.38H1113.63V457.719Z" fill="white"/>
<path d="M1033.27 457.719H964.39V503.38H1033.27V457.719Z" fill="white"/>
<path d="M952.92 457.719H884.04V503.38H952.92V457.719Z" fill="white"/>
<path d="M872.56 457.719H803.68V503.38H872.56V457.719Z" fill="white"/>
<path d="M1435.04 394.731H1404.13V440.391H1435.04V394.731Z" fill="white"/>
<path d="M1392.65 394.731H1323.77V440.391H1392.65V394.731Z" fill="white"/>
<path d="M1312.3 394.731H1243.42V440.391H1312.3V394.731Z" fill="white"/>
<path d="M1231.94 394.731H1163.06V440.391H1231.94V394.731Z" fill="white"/>
<path d="M1151.59 394.731H1082.71V440.391H1151.59V394.731Z" fill="white"/>
<path d="M1071.23 394.731H1002.36V440.391H1071.23V394.731Z" fill="white"/>
<path d="M990.88 394.731H922V440.391H990.88V394.731Z" fill="white"/>
<path d="M910.53 394.731H841.65V440.391H910.53V394.731Z" fill="white"/>
<path d="M833.23 394.731H761.95V440.391H833.23V394.731Z" fill="white"/>
<path d="M792.46 219H723.58V264.661H792.46V219Z" fill="white"/>
<path d="M712.11 219H643.23V264.661H712.11V219Z" fill="white"/>
<path d="M631.75 219H562.87V264.661H631.75V219Z" fill="white"/>
<path d="M551.4 219H482.52V264.661H551.4V219Z" fill="white"/>
<path d="M471.04 219H402.16V264.661H471.04V219Z" fill="white"/>
<path d="M390.69 219H321.81V264.661H390.69V219Z" fill="white"/>
<path d="M310.33 219H241.45V264.661H310.33V219Z" fill="white"/>
<path d="M229.98 219H161.1V264.661H229.98V219Z" fill="white"/>
<path d="M149.63 219H80.75V264.661H149.63V219Z" fill="white"/>
<path d="M69.27 219H0.389954V264.661H69.27V219Z" fill="white"/>
<path d="M750.07 277.258H681.19V322.919H750.07V277.258Z" fill="white"/>
<path d="M669.71 277.258H600.84V322.919H669.71V277.258Z" fill="white"/>
<path d="M589.36 277.258H520.48V322.919H589.36V277.258Z" fill="white"/>
<path d="M509.01 277.258H440.13V322.919H509.01V277.258Z" fill="white"/>
<path d="M428.65 277.258H359.77V322.919H428.65V277.258Z" fill="white"/>
<path d="M348.3 277.258H279.42V322.919H348.3V277.258Z" fill="white"/>
<path d="M267.93 277.258H199.06V322.919H267.93V277.258Z" fill="white"/>
<path d="M187.59 277.258H118.71V322.919H187.59V277.258Z" fill="white"/>
<path d="M107.23 277.258H38.35V322.919H107.23V277.258Z" fill="white"/>
<path d="M29.93 277.258H0.039978V322.919H29.93V277.258Z" fill="white"/>
<path d="M1435.05 219H1366.17V264.661H1435.05V219Z" fill="white"/>
<path d="M1354.69 219H1285.81V264.661H1354.69V219Z" fill="white"/>
<path d="M1274.34 219H1205.46V264.661H1274.34V219Z" fill="white"/>
<path d="M1193.98 219H1125.1V264.661H1193.98V219Z" fill="white"/>
<path d="M1113.63 219H1044.75V264.661H1113.63V219Z" fill="white"/>
<path d="M1033.27 219H964.39V264.661H1033.27V219Z" fill="white"/>
<path d="M952.92 219H884.04V264.661H952.92V219Z" fill="white"/>
<path d="M872.56 219H803.68V264.661H872.56V219Z" fill="white"/>
<path d="M1435.04 277.258H1404.13V322.919H1435.04V277.258Z" fill="white"/>
<path d="M1392.65 277.258H1323.77V322.919H1392.65V277.258Z" fill="white"/>
<path d="M1312.3 277.258H1243.42V322.919H1312.3V277.258Z" fill="white"/>
<path d="M1231.94 277.258H1163.06V322.919H1231.94V277.258Z" fill="white"/>
<path d="M1151.59 277.258H1082.71V322.919H1151.59V277.258Z" fill="white"/>
<path d="M1071.23 277.258H1002.36V322.919H1071.23V277.258Z" fill="white"/>
<path d="M990.88 277.258H922V322.919H990.88V277.258Z" fill="white"/>
<path d="M910.53 277.258H841.65V322.919H910.53V277.258Z" fill="white"/>
<path d="M833.23 277.258H761.95V322.919H833.23V277.258Z" fill="white"/>
</g>
<g opacity="0.15">
<path d="M792.46 38.5156H723.58V82.2495H792.46V38.5156Z" fill="white"/>
<path d="M712.11 38.5156H643.23V82.2495H712.11V38.5156Z" fill="white"/>
<path d="M631.75 38.5156H562.87V82.2495H631.75V38.5156Z" fill="white"/>
<path d="M551.4 38.5156H482.52V82.2495H551.4V38.5156Z" fill="white"/>
<path d="M471.04 38.5156H402.16V82.2495H471.04V38.5156Z" fill="white"/>
<path d="M390.69 38.5156H321.81V82.2495H390.69V38.5156Z" fill="white"/>
<path d="M310.33 38.5156H241.45V82.2495H310.33V38.5156Z" fill="white"/>
<path d="M229.98 38.5156H161.1V82.2495H229.98V38.5156Z" fill="white"/>
<path d="M149.63 38.5156H80.75V82.2495H149.63V38.5156Z" fill="white"/>
<path d="M69.27 38.5156H0.389984V82.2495H69.27V38.5156Z" fill="white"/>
<path d="M792.46 154.646H723.58V198.38H792.46V154.646Z" fill="white"/>
<path d="M712.11 154.646H643.23V198.38H712.11V154.646Z" fill="white"/>
<path d="M631.75 154.646H562.87V198.38H631.75V154.646Z" fill="white"/>
<path d="M551.4 154.646H482.52V198.38H551.4V154.646Z" fill="white"/>
<path d="M471.04 154.646H402.16V198.38H471.04V154.646Z" fill="white"/>
<path d="M390.69 154.646H321.81V198.38H390.69V154.646Z" fill="white"/>
<path d="M310.33 154.646H241.45V198.38H310.33V154.646Z" fill="white"/>
<path d="M229.98 154.646H161.1V198.38H229.98V154.646Z" fill="white"/>
<path d="M149.63 154.646H80.75V198.38H149.63V154.646Z" fill="white"/>
<path d="M69.27 154.646H0.389984V198.38H69.27V154.646Z" fill="white"/>
<path d="M750.07 94.3157H681.19V138.05H750.07V94.3157Z" fill="white"/>
<path d="M669.71 94.3157H600.84V138.05H669.71V94.3157Z" fill="white"/>
<path d="M589.36 94.3157H520.48V138.05H589.36V94.3157Z" fill="white"/>
<path d="M509.01 94.3157H440.13V138.05H509.01V94.3157Z" fill="white"/>
<path d="M428.65 94.3157H359.77V138.05H428.65V94.3157Z" fill="white"/>
<path d="M348.3 94.3157H279.42V138.05H348.3V94.3157Z" fill="white"/>
<path d="M267.93 94.3157H199.06V138.05H267.93V94.3157Z" fill="white"/>
<path d="M187.59 94.3157H118.71V138.05H187.59V94.3157Z" fill="white"/>
<path d="M107.23 94.3157H38.35V138.05H107.23V94.3157Z" fill="white"/>
<path d="M29.93 94.3157H0.039978V138.05H29.93V94.3157Z" fill="white"/>
<path d="M1435.05 38.5156H1366.17V82.2495H1435.05V38.5156Z" fill="white"/>
<path d="M1354.69 38.5156H1285.81V82.2495H1354.69V38.5156Z" fill="white"/>
<path d="M1274.34 38.5156H1205.46V82.2495H1274.34V38.5156Z" fill="white"/>
<path d="M1193.98 38.5156H1125.1V82.2495H1193.98V38.5156Z" fill="white"/>
<path d="M1113.63 38.5156H1044.75V82.2495H1113.63V38.5156Z" fill="white"/>
<path d="M1033.27 38.5156H964.39V82.2495H1033.27V38.5156Z" fill="white"/>
<path d="M952.92 38.5156H884.04V82.2495H952.92V38.5156Z" fill="white"/>
<path d="M872.56 38.5156H803.68V82.2495H872.56V38.5156Z" fill="white"/>
<path d="M1435.05 154.646H1366.17V198.38H1435.05V154.646Z" fill="white"/>
<path d="M1354.69 154.646H1285.81V198.38H1354.69V154.646Z" fill="white"/>
<path d="M1274.34 154.646H1205.46V198.38H1274.34V154.646Z" fill="white"/>
<path d="M1193.98 154.646H1125.1V198.38H1193.98V154.646Z" fill="white"/>
<path d="M1113.63 154.646H1044.75V198.38H1113.63V154.646Z" fill="white"/>
<path d="M1033.27 154.646H964.39V198.38H1033.27V154.646Z" fill="white"/>
<path d="M952.92 154.646H884.04V198.38H952.92V154.646Z" fill="white"/>
<path d="M872.56 154.646H803.68V198.38H872.56V154.646Z" fill="white"/>
<path d="M1435.04 94.3157H1404.13V138.05H1435.04V94.3157Z" fill="white"/>
<path d="M1392.65 94.3157H1323.77V138.05H1392.65V94.3157Z" fill="white"/>
<path d="M1312.3 94.3157H1243.42V138.05H1312.3V94.3157Z" fill="white"/>
<path d="M1231.94 94.3157H1163.06V138.05H1231.94V94.3157Z" fill="white"/>
<path d="M1151.59 94.3157H1082.71V138.05H1151.59V94.3157Z" fill="white"/>
<path d="M1071.23 94.3157H1002.36V138.05H1071.23V94.3157Z" fill="white"/>
<path d="M990.88 94.3157H922V138.05H990.88V94.3157Z" fill="white"/>
<path d="M910.53 94.3157H841.65V138.05H910.53V94.3157Z" fill="white"/>
<path d="M833.23 94.3157H761.95V138.05H833.23V94.3157Z" fill="white"/>
<path d="M750.07 -18.2H681.19V25.5339H750.07V-18.2Z" fill="white"/>
<path d="M669.71 -18.2H600.84V25.5339H669.71V-18.2Z" fill="white"/>
<path d="M589.36 -18.2H520.48V25.5339H589.36V-18.2Z" fill="white"/>
<path d="M509.01 -18.2H440.13V25.5339H509.01V-18.2Z" fill="white"/>
<path d="M428.65 -18.2H359.77V25.5339H428.65V-18.2Z" fill="white"/>
<path d="M348.3 -18.2H279.42V25.5339H348.3V-18.2Z" fill="white"/>
<path d="M267.93 -18.2H199.06V25.5339H267.93V-18.2Z" fill="white"/>
<path d="M187.59 -18.2H118.71V25.5339H187.59V-18.2Z" fill="white"/>
<path d="M107.23 -18.2H38.35V25.5339H107.23V-18.2Z" fill="white"/>
<path d="M29.93 -18.2H0.039978V25.5339H29.93V-18.2Z" fill="white"/>
<path d="M1435.04 -18.2H1404.13V25.5339H1435.04V-18.2Z" fill="white"/>
<path d="M1392.65 -18.2H1323.77V25.5339H1392.65V-18.2Z" fill="white"/>
<path d="M1312.3 -18.2H1243.42V25.5339H1312.3V-18.2Z" fill="white"/>
<path d="M1231.94 -18.2H1163.06V25.5339H1231.94V-18.2Z" fill="white"/>
<path d="M1151.59 -18.2H1082.71V25.5339H1151.59V-18.2Z" fill="white"/>
<path d="M1071.23 -18.2H1002.36V25.5339H1071.23V-18.2Z" fill="white"/>
<path d="M990.88 -18.2H922V25.5339H990.88V-18.2Z" fill="white"/>
<path d="M910.53 -18.2H841.65V25.5339H910.53V-18.2Z" fill="white"/>
<path d="M833.23 -18.2H761.95V25.5339H833.23V-18.2Z" fill="white"/>
</g>
<path d="M82.7 361.54H78.11V371.89H82.7V361.54Z" fill="#B0741C"/>
<path d="M131.05 361.77H126.46V372.12H131.05V361.77Z" fill="#B0741C"/>
<path d="M181.47 360.07H176.88V370.42H181.47V360.07Z" fill="#B0741C"/>
<path d="M226.11 361.93H221.52V372.28H226.11V361.93Z" fill="#B0741C"/>
<path d="M255.81 357.57H73.32V361.25H255.81V357.57Z" fill="#B0741C"/>
<path d="M255.81 358.91H73.32V360.75H255.81V358.91Z" fill="#E89F32"/>
<path d="M258.56 363.89C261.034 363.89 263.04 361.884 263.04 359.41C263.04 356.936 261.034 354.93 258.56 354.93C256.086 354.93 254.08 356.936 254.08 359.41C254.08 361.884 256.086 363.89 258.56 363.89Z" fill="#B0741C"/>
<path d="M259.04 363.05C261.05 363.05 262.68 361.42 262.68 359.41C262.68 357.4 261.05 355.77 259.04 355.77C257.03 355.77 255.4 357.4 255.4 359.41C255.4 361.42 257.03 363.05 259.04 363.05Z" fill="#CF8E2D"/>
<path d="M259.62 362.2C261.161 362.2 262.41 360.951 262.41 359.41C262.41 357.869 261.161 356.62 259.62 356.62C258.079 356.62 256.83 357.869 256.83 359.41C256.83 360.951 258.079 362.2 259.62 362.2Z" fill="#E89F32"/>
<path d="M70.52 364.31C72.9942 364.31 75 362.304 75 359.83C75 357.356 72.9942 355.35 70.52 355.35C68.0458 355.35 66.04 357.356 66.04 359.83C66.04 362.304 68.0458 364.31 70.52 364.31Z" fill="#B0741C"/>
<path d="M71 363.47C73.0103 363.47 74.64 361.84 74.64 359.83C74.64 357.82 73.0103 356.19 71 356.19C68.9897 356.19 67.36 357.82 67.36 359.83C67.36 361.84 68.9897 363.47 71 363.47Z" fill="#CF8E2D"/>
<path d="M71.58 362.62C73.1209 362.62 74.37 361.371 74.37 359.83C74.37 358.289 73.1209 357.04 71.58 357.04C70.0391 357.04 68.79 358.289 68.79 359.83C68.79 361.371 70.0391 362.62 71.58 362.62Z" fill="#E89F32"/>
<path d="M80.19 374.84C81.8137 374.84 83.13 373.524 83.13 371.9C83.13 370.276 81.8137 368.96 80.19 368.96C78.5663 368.96 77.25 370.276 77.25 371.9C77.25 373.524 78.5663 374.84 80.19 374.84Z" fill="#B0741C"/>
<path d="M80.5 374.29C81.82 374.29 82.89 373.22 82.89 371.9C82.89 370.58 81.82 369.51 80.5 369.51C79.18 369.51 78.11 370.58 78.11 371.9C78.11 373.22 79.18 374.29 80.5 374.29Z" fill="#CF8E2D"/>
<path d="M82.71 371.9C82.71 372.91 81.89 373.73 80.88 373.73C79.87 373.73 79.05 372.91 79.05 371.9C79.05 370.89 79.87 370.07 80.88 370.07C81.89 370.07 82.71 370.89 82.71 371.9Z" fill="#E89F32"/>
<path d="M128.76 375.94C130.384 375.94 131.7 374.624 131.7 373C131.7 371.376 130.384 370.06 128.76 370.06C127.136 370.06 125.82 371.376 125.82 373C125.82 374.624 127.136 375.94 128.76 375.94Z" fill="#B0741C"/>
<path d="M129.07 375.39C130.39 375.39 131.46 374.32 131.46 373C131.46 371.68 130.39 370.61 129.07 370.61C127.75 370.61 126.68 371.68 126.68 373C126.68 374.32 127.75 375.39 129.07 375.39Z" fill="#CF8E2D"/>
<path d="M131.27 373C131.27 374.01 130.45 374.83 129.44 374.83C128.43 374.83 127.61 374.01 127.61 373C127.61 371.99 128.43 371.17 129.44 371.17C130.45 371.17 131.27 371.99 131.27 373Z" fill="#E89F32"/>
<path d="M179.17 375.94C180.794 375.94 182.11 374.624 182.11 373C182.11 371.376 180.794 370.06 179.17 370.06C177.546 370.06 176.23 371.376 176.23 373C176.23 374.624 177.546 375.94 179.17 375.94Z" fill="#B0741C"/>
<path d="M179.49 375.39C180.81 375.39 181.88 374.32 181.88 373C181.88 371.68 180.81 370.61 179.49 370.61C178.17 370.61 177.1 371.68 177.1 373C177.1 374.32 178.17 375.39 179.49 375.39Z" fill="#CF8E2D"/>
<path d="M181.69 373C181.69 374.01 180.87 374.83 179.86 374.83C178.85 374.83 178.03 374.01 178.03 373C178.03 371.99 178.85 371.17 179.86 371.17C180.87 371.17 181.69 371.99 181.69 373Z" fill="#E89F32"/>
<path d="M223.84 376.15C225.464 376.15 226.78 374.834 226.78 373.21C226.78 371.586 225.464 370.27 223.84 370.27C222.216 370.27 220.9 371.586 220.9 373.21C220.9 374.834 222.216 376.15 223.84 376.15Z" fill="#B0741C"/>
<path d="M224.16 375.6C225.48 375.6 226.55 374.53 226.55 373.21C226.55 371.89 225.48 370.82 224.16 370.82C222.84 370.82 221.77 371.89 221.77 373.21C221.77 374.53 222.84 375.6 224.16 375.6Z" fill="#CF8E2D"/>
<path d="M226.36 373.21C226.36 374.22 225.54 375.04 224.53 375.04C223.52 375.04 222.7 374.22 222.7 373.21C222.7 372.2 223.52 371.38 224.53 371.38C225.54 371.38 226.36 372.2 226.36 373.21Z" fill="#E89F32"/>
<path d="M113.27 439.87C119.32 453.57 131.35 457.73 141.86 453.08C152.37 448.44 154.13 438.01 148.08 424.31C147.78 423.63 146.19 419.75 145.86 419.1C151.79 421.37 159.76 426.13 163.01 420.7C165.04 417.3 159.92 411.11 152.18 406.01C141.06 398.68 130.85 385.54 128.65 384.69C126.45 383.84 106.46 393.98 103.98 395.81C101.5 397.64 111.12 435 113.28 439.87H113.27Z" fill="#C17F73"/>
<path d="M115.54 434.57C121.01 446.96 131.14 451.05 139.73 447.25C148.32 443.45 149.45 434.23 143.97 421.84C143.7 421.22 142.25 417.72 141.95 417.13C146.95 419.35 153.73 423.83 156.26 419.11C157.84 416.15 153.38 410.47 146.78 405.69C137.3 398.81 128.39 386.78 126.53 385.95C124.67 385.12 108.38 393.51 106.38 395.05C104.38 396.6 113.58 430.16 115.53 434.57H115.54Z" fill="#D99689"/>
<path d="M104 402.25L110.85 404.67L108.36 411.18L105.43 410.09C105.51 410.47 105.59 410.84 105.67 411.23L108.01 412.1L106.65 415.66C106.78 416.23 106.91 416.8 107.05 417.37L108.93 412.45L115.06 414.73L111.77 422.52L107.93 421.04C108.03 421.43 108.12 421.82 108.22 422.2L111.39 423.42L109.61 427.64C109.75 428.16 109.89 428.68 110.02 429.19L112.31 423.78L120.92 427.09L117.92 434.54L110.73 431.75C110.84 432.15 110.95 432.55 111.06 432.93L117.56 435.44L114.66 442.64C114.98 443.21 115.3 443.76 115.64 444.28L123.52 447.42L122.05 451.18C122.32 451.38 122.6 451.57 122.88 451.75L124.43 447.79L132.01 450.81L130.51 454.7C130.84 454.75 131.18 454.8 131.51 454.83L132.92 451.18L139.78 453.91C140.29 453.74 140.81 453.55 141.32 453.35L144.25 445.79L148.9 447.59C149.09 447.32 149.27 447.03 149.44 446.75L144.6 444.88L147.53 437.31L151.56 438.86C151.56 438.51 151.56 438.16 151.56 437.81L147.89 436.4L150.28 430.23C150.13 429.73 149.98 429.23 149.81 428.73L146.97 436.06L139.85 433.33L143.02 425.15L149.39 427.52C149.24 427.12 149.09 426.71 148.92 426.3L143.37 424.24L146.12 417.15L153.32 419.69L152.47 421.88C152.78 422 153.09 422.11 153.39 422.22L154.24 420.02L161.34 422.52C161.66 422.32 161.96 422.08 162.24 421.8L154.59 419.1L157.35 411.97L160.63 413.25C160.17 412.71 159.66 412.15 159.11 411.6L157.7 411.05L157.92 410.47C157.67 410.24 157.4 410.01 157.14 409.78L156.79 410.69L149.68 407.91L150.77 405.09C150.49 404.9 150.22 404.7 149.95 404.5L148.77 407.55L141.3 404.62L143.44 399.13C143.18 398.89 142.92 398.66 142.66 398.42L140.38 404.27L132.44 401.16L135.37 393.89L139.86 395.75C139.23 395.13 138.62 394.53 138.03 393.93L135.74 392.98L136.14 391.99C135.89 391.73 135.64 391.47 135.39 391.22L134.83 392.6L126.9 389.32L128.81 384.81C128.81 384.81 128.72 384.76 128.68 384.75C128.5 384.68 128.18 384.69 127.77 384.75L126 388.94L121.4 387.04C120.99 387.22 120.58 387.4 120.16 387.59L125.62 389.85L122.49 397.26L115.8 394.64L118.15 388.5C117.73 388.7 117.3 388.9 116.87 389.1L114.89 394.28L110.16 392.43C109.76 392.64 109.38 392.84 109 393.03L114.54 395.2L111.25 403.8L103.96 401.23L106.41 394.43C105.91 394.71 105.47 394.96 105.09 395.18L103.67 399.12C103.74 400.03 103.87 401.1 104.04 402.3L104 402.25ZM112.68 422.86L115.98 415.06L124.48 418.22L121.28 426.16L112.68 422.86ZM122.19 426.51L125.39 418.56L133.57 421.6L130.42 429.67L122.19 426.51ZM138.55 433.84L135.63 441.38L128.05 438.45L130.98 430.94L138.55 433.85V433.84ZM125.76 417.64L128.48 410.88L136.63 413.76L133.93 420.69L125.76 417.65V417.64ZM124.84 417.3L116.36 414.15L119.13 407.58L127.55 410.55L124.83 417.3H124.84ZM121.83 427.42L130.07 430.58L127.14 438.09L118.83 434.87L121.83 427.41V427.42ZM115.49 443.17L118.46 435.79L126.78 439.01L123.86 446.5L115.49 443.17ZM124.77 446.86L127.7 439.36L135.28 442.3L132.35 449.88L124.77 446.86ZM140.35 453.06L133.26 450.24L136.2 442.65L143.32 445.4L140.36 453.05L140.35 453.06ZM146.59 436.93L143.66 444.49L136.54 441.74L139.46 434.19L146.58 436.92L146.59 436.93ZM138.91 432.92L131.35 430.02L134.5 421.94L142.07 424.76L138.91 432.93V432.92ZM142.42 423.84L134.85 421.03L137.56 414.09L145.16 416.77L142.42 423.85V423.84ZM156.41 411.56L153.64 418.72L146.44 416.18L149.3 408.78L156.41 411.56ZM148.39 408.42L145.51 415.85L137.91 413.17L140.91 405.49L148.39 408.42ZM140 405.13L136.99 412.84L128.85 409.97L132.05 402.02L140 405.13ZM126.49 390.17L134.44 393.46L131.51 400.75L123.37 397.56L126.49 390.17ZM131.13 401.66L127.92 409.64L119.51 406.67L122.98 398.46L131.13 401.65V401.66ZM115.4 395.5L122.06 398.11L118.58 406.35L112.12 404.07L115.4 395.5ZM111.77 404.99L118.2 407.26L115.43 413.81L109.27 411.52L111.77 404.99Z" fill="#D99689"/>
<path d="M104.22 403.67L111.04 406.08L108.55 412.59L105.73 411.54C105.81 411.92 105.89 412.3 105.98 412.68L108.2 413.51L106.92 416.85C107.05 417.42 107.19 417.98 107.32 418.55L109.12 413.85L115.25 416.13L111.96 423.92L108.29 422.51C108.39 422.9 108.48 423.29 108.58 423.67L111.58 424.82L109.91 428.78C110.05 429.3 110.19 429.82 110.33 430.32L112.5 425.18L121.11 428.49L118.11 435.94L111.14 433.24C111.26 433.65 111.37 434.04 111.48 434.43L117.74 436.85L115.1 443.42C115.31 443.77 115.52 444.12 115.74 444.45L118.66 437.2L126.98 440.42L124.06 447.91L115.88 444.65C116.22 445.16 116.56 445.65 116.92 446.12L123.71 448.82L122.64 451.57C122.92 451.76 123.2 451.93 123.49 452.1L124.63 449.18L132.21 452.2L131.22 454.77C131.56 454.81 131.9 454.84 132.24 454.86L133.13 452.56L137.8 454.42C138.34 454.3 138.87 454.16 139.4 454L133.48 451.64L136.42 444.05L143.54 446.8L140.97 453.44C141.28 453.32 141.59 453.19 141.89 453.06C142 453.01 142.11 452.96 142.23 452.91L144.46 447.16L148.12 448.58C148.34 448.32 148.55 448.05 148.75 447.77L144.81 446.24L147.74 438.67L151.5 440.11C151.53 439.77 151.55 439.43 151.56 439.08L148.09 437.75L150.59 431.28C150.46 430.76 150.31 430.24 150.15 429.71L147.17 437.4L140.05 434.67L143.22 426.49L149.92 428.98C149.79 428.58 149.65 428.18 149.51 427.78L143.57 425.57L146 419.3C145.96 419.2 145.92 419.13 145.89 419.07C145.95 419.09 146 419.11 146.06 419.14L146.32 418.47L153.52 421.01L153.13 422.03C153.44 422.14 153.75 422.25 154.06 422.35L154.45 421.34L159.45 423.1C160.01 423.02 160.54 422.86 161.02 422.61L154.81 420.42L157.57 413.29L162.07 415.05C161.76 414.57 161.4 414.08 161 413.58L157.92 412.38L158.49 410.89C158.24 410.65 157.98 410.41 157.71 410.18L157 412.02L149.89 409.24L151.37 405.42C151.09 405.23 150.82 405.04 150.54 404.84L148.97 408.89L141.5 405.96L144 399.55C143.74 399.32 143.48 399.08 143.22 398.85L140.58 405.61L132.64 402.5L135.57 395.23L142.32 398.03C141.65 397.4 140.99 396.77 140.34 396.15L135.93 394.32L136.67 392.48C136.42 392.22 136.17 391.96 135.92 391.71L135.02 393.95L127.09 390.67L129.41 385.17C129.1 384.92 128.85 384.76 128.66 384.68C128.63 384.67 128.6 384.66 128.56 384.65L126.18 390.29L119.82 387.66C119.14 387.97 118.44 388.29 117.74 388.61L115.05 395.63L108.65 393.13C108.25 393.34 107.87 393.54 107.51 393.74L114.69 396.55L111.4 405.15L104.12 402.58L107.26 393.88C106.79 394.14 106.35 394.38 105.96 394.6L103.8 400.6C103.91 401.52 104.06 402.55 104.24 403.66L104.22 403.67ZM112.88 424.27L116.18 416.47L124.68 419.63L121.48 427.57L112.88 424.27ZM125.96 419.06L128.68 412.3L136.83 415.18L134.13 422.11L125.96 419.07V419.06ZM133.77 423.01L130.62 431.08L122.39 427.92L125.59 419.97L133.77 423.01ZM128.12 411.06L119.71 408.09L123.18 399.88L131.33 403.07L128.12 411.05V411.06ZM127.75 411.97L125.03 418.72L116.55 415.57L119.32 409L127.74 411.97H127.75ZM119.02 436.29L122.02 428.83L130.26 431.99L127.33 439.5L119.02 436.28V436.29ZM132.54 451.29L124.96 448.27L127.89 440.77L135.47 443.71L132.54 451.29ZM128.25 439.86L131.18 432.35L138.75 435.25L135.83 442.79L128.25 439.86ZM146.79 438.34L143.86 445.9L136.74 443.15L139.66 435.6L146.78 438.33L146.79 438.34ZM139.1 434.34L131.54 431.44L134.69 423.36L142.26 426.18L139.1 434.35V434.34ZM142.62 425.26L135.05 422.44L137.76 415.5L145.36 418.18L142.62 425.26ZM156.61 412.97L153.84 420.13L146.64 417.59L149.5 410.19L156.61 412.97ZM148.59 409.83L145.71 417.26L138.11 414.58L141.11 406.9L148.59 409.83ZM140.2 406.55L137.19 414.26L129.05 411.39L132.25 403.44L140.2 406.55ZM134.63 394.88L131.7 402.17L123.56 398.98L126.68 391.59L134.63 394.88ZM118.88 388.35L125.78 391.21L122.65 398.62L115.96 396L118.89 388.35H118.88ZM115.6 396.92L122.26 399.53L118.78 407.77L112.32 405.49L115.6 396.92ZM111.97 406.4L118.4 408.67L115.63 415.22L109.47 412.93L111.97 406.4Z" fill="#A6675B"/>
<path d="M106.12 397L106.97 394.66C106.72 394.82 106.52 394.95 106.39 395.06C106.14 395.25 106.07 395.94 106.13 397.01L106.12 397Z" fill="#C17F73"/>
<path d="M127.63 386.83L126.16 390.31L120.29 387.88C119.89 388.06 119.47 388.24 119.05 388.43L125.78 391.21L122.65 398.62L115.96 396L118.82 388.53C118.4 388.72 117.97 388.92 117.54 389.12L115.05 395.64L109.22 393.36C108.82 393.58 108.45 393.79 108.11 393.98L114.7 396.56L111.41 405.16L107.18 403.67C107.25 404.04 107.33 404.41 107.41 404.79L111.06 406.08L108.96 411.57C109.16 412.38 109.36 413.2 109.57 414.01L115.27 416.13L112.12 423.59C112.27 424.14 112.43 424.68 112.58 425.2L121.13 428.48L118.13 435.93L115.77 435.02C115.97 435.46 116.18 435.89 116.4 436.32L117.77 436.85L117.31 437.98C117.52 438.34 117.73 438.68 117.95 439.02L118.68 437.2L127 440.42L124.81 446.04C125.09 446.22 125.38 446.39 125.67 446.55L127.92 440.78L135.5 443.72L133.6 448.62C133.96 448.62 134.32 448.6 134.67 448.57L136.41 444.08L141.8 446.17C142.14 445.95 142.46 445.73 142.76 445.49L136.77 443.17L139.69 435.62L146.81 438.35L144.88 443.33C146.15 441.64 146.92 439.62 147.21 437.31L147.16 437.44L140.04 434.71L143.21 426.53L146.13 427.62C146.02 427.23 145.89 426.83 145.76 426.44L143.56 425.62L144.53 423.12C144.36 422.71 144.18 422.29 144 421.87C144 421.86 143.99 421.84 143.98 421.83L142.64 425.28L135.07 422.46L137.78 415.52L145.38 418.2L145.19 418.69C145.48 418.83 145.78 418.98 146.08 419.12L146.31 418.53L153.51 421.07L153.47 421.17C154.05 421.09 154.58 420.9 155.05 420.57L154.79 420.48L156.38 416.38C156.25 415.96 156.07 415.52 155.84 415.06L153.87 420.15L146.67 417.61L149.53 410.21L153.58 411.8C153.11 411.25 152.6 410.7 152.05 410.15L149.88 409.3L150.22 408.43C149.96 408.2 149.7 407.98 149.43 407.75L148.97 408.94L141.5 406.01L142.86 402.53C142.6 402.3 142.34 402.07 142.08 401.84L140.59 405.65L132.65 402.54L135.53 395.38C134.91 394.72 134.31 394.07 133.73 393.44L127.1 390.7L128.41 387.6C128.14 387.32 127.89 387.06 127.66 386.84L127.63 386.83ZM131.33 403.08L128.12 411.06L119.71 408.09L123.18 399.88L131.33 403.07V403.08ZM116.56 415.56L119.33 408.99L127.75 411.96L125.03 418.71L116.55 415.56H116.56ZM133.77 423.01L130.62 431.08L122.39 427.92L125.59 419.97L133.77 423.01ZM115.6 396.92L122.26 399.53L118.78 407.77L112.32 405.49L115.6 396.92ZM109.47 412.93L111.97 406.4L118.4 408.67L115.63 415.22L109.47 412.93ZM112.88 424.27L116.18 416.47L124.68 419.63L121.48 427.57L112.88 424.27ZM119.02 436.29L122.02 428.83L130.26 431.99L127.33 439.5L119.02 436.28V436.29ZM135.83 442.8L128.25 439.87L131.18 432.36L138.75 435.26L135.83 442.8ZM142.27 426.17L139.11 434.34L131.55 431.44L134.7 423.36L142.27 426.18V426.17ZM134.13 422.1L125.96 419.06L128.68 412.3L136.83 415.18L134.13 422.11V422.1ZM148.59 409.83L145.71 417.26L138.11 414.58L141.11 406.9L148.59 409.83ZM140.2 406.55L137.19 414.26L129.05 411.39L132.25 403.44L140.2 406.55ZM134.63 394.88L131.7 402.17L123.56 398.98L126.68 391.59L134.63 394.88Z" fill="#C17F73"/>
<path d="M127.05 386.3L125.96 388.89L121.88 387.2C121.47 387.37 121.04 387.55 120.61 387.74L125.58 389.8L122.45 397.21L115.76 394.59L117.92 388.95C117.49 389.15 117.07 389.35 116.64 389.56L114.85 394.23L110.65 392.58C110.25 392.79 109.88 393 109.52 393.19L114.5 395.14L111.21 403.74L106.89 402.22C106.96 402.58 107.03 402.96 107.11 403.34L110.86 404.66L108.67 410.38C108.84 411.09 109.01 411.81 109.19 412.53L115.07 414.71L111.8 422.45C111.94 422.96 112.08 423.47 112.22 423.97L112.31 423.76L120.92 427.07L117.92 434.52L115.11 433.43C115.28 433.91 115.43 434.29 115.55 434.57C115.57 434.61 115.58 434.64 115.6 434.67L117.56 435.43L116.85 437.19C117.05 437.56 117.26 437.92 117.47 438.27L118.47 435.78L126.79 439L124.2 445.64C124.48 445.83 124.76 446.01 125.04 446.18L127.71 439.35L135.29 442.29L132.85 448.6C133.2 448.61 133.55 448.61 133.9 448.6L136.2 442.65L142.99 445.28C144.06 444.4 144.94 443.37 145.61 442.22L146.95 438.76C147.21 437.61 147.34 436.37 147.33 435.06L146.96 436.02L139.84 433.29L143.01 425.11L145.65 426.09C145.52 425.69 145.37 425.29 145.22 424.88L143.36 424.19L144.14 422.18C144.09 422.07 144.04 421.96 144 421.85C143.93 421.69 143.78 421.34 143.59 420.89L142.45 423.85L134.88 421.04L137.59 414.1L145.19 416.78L144.57 418.38C144.86 418.52 145.16 418.67 145.46 418.81L146.12 417.11L153.32 419.65L152.71 421.22C153.09 421.22 153.46 421.19 153.81 421.11L154.25 419.98L155.34 420.36C155.6 420.14 155.83 419.88 156.04 419.57L154.6 419.06L156.01 415.41C155.84 415.04 155.64 414.66 155.4 414.27L153.67 418.73L146.47 416.19L149.33 408.79L151.57 409.67C150.74 408.87 149.84 408.07 148.86 407.28L148.77 407.52L141.3 404.59L142.3 402.04C142.04 401.81 141.78 401.57 141.52 401.34L140.39 404.24L132.45 401.13L134.99 394.82C134.74 394.55 134.49 394.29 134.25 394.02L131.53 400.77L123.39 397.58L126.51 390.19L133.32 393.01C132.78 392.42 132.27 391.85 131.78 391.31L126.9 389.29L127.85 387.04C127.56 386.75 127.3 386.51 127.08 386.33L127.05 386.3ZM115.4 395.5L122.06 398.11L118.58 406.35L112.12 404.07L115.4 395.5ZM116.36 414.15L119.13 407.58L127.55 410.55L124.83 417.3L116.35 414.15H116.36ZM133.58 421.6L130.43 429.67L122.2 426.51L125.4 418.56L133.58 421.6ZM109.27 411.51L111.77 404.98L118.2 407.25L115.43 413.8L109.27 411.51ZM112.68 422.86L115.98 415.06L124.48 418.22L121.28 426.16L112.68 422.86ZM118.82 434.88L121.82 427.42L130.06 430.58L127.13 438.09L118.82 434.87V434.88ZM128.05 438.45L130.98 430.94L138.55 433.85L135.63 441.39L128.05 438.46V438.45ZM146.59 436.93L143.66 444.49L136.54 441.74L139.46 434.19L146.58 436.92L146.59 436.93ZM142.07 424.76L138.91 432.93L131.35 430.03L134.5 421.95L142.07 424.77V424.76ZM133.93 420.68L125.76 417.64L128.48 410.88L136.63 413.76L133.93 420.69V420.68ZM148.39 408.42L145.51 415.85L137.91 413.17L140.91 405.49L148.39 408.42ZM140 405.13L136.99 412.84L128.85 409.97L132.05 402.02L140 405.13ZM131.13 401.66L127.92 409.64L119.51 406.67L122.98 398.46L131.13 401.65V401.66Z" fill="#D99C91"/>
<path d="M128.49 386.12L127.88 385.03C127.28 383.95 122.05 374.38 124.6 370.34C125.41 369.05 126.86 368.47 128.9 368.61C130.98 368.75 132.4 369.56 133.12 371.01C135.36 375.5 129.42 384.69 129.17 385.08L128.49 386.12ZM128.32 370.1C127.13 370.1 126.33 370.45 125.88 371.15C124.32 373.61 126.91 379.85 128.59 383.15C130.37 380.12 133.12 374.38 131.77 371.68C131.3 370.73 130.32 370.22 128.8 370.12C128.63 370.11 128.47 370.1 128.32 370.1Z" fill="#C17F73"/>
<path d="M1440.04 845.61H0.0399933V899.61H1440.04V845.61Z" fill="#6E3449"/>
<path d="M1.84001 503.27H499.63C500.24 503.27 500.73 503.76 500.73 504.37V620.67C500.73 621.28 500.24 621.77 499.63 621.77H1.84001C1.23001 621.77 0.740005 621.28 0.740005 620.67V504.36C0.740005 503.75 1.23001 503.26 1.84001 503.26V503.27Z" fill="#FFE352"/>
<path d="M500.74 503.27H0.740005V512.44H500.74V503.27Z" fill="#964562"/>
<path d="M53.3 512.45H48.48V654.12H53.3V512.45Z" fill="#964562"/>
<path d="M187 512.45H182.18V654.12H187V512.45Z" fill="#964562"/>
<path d="M356.66 512.45H351.84V654.12H356.66V512.45Z" fill="#964562"/>
<path d="M75.89 520.81H161.62C162.23 520.81 162.72 521.3 162.72 521.91V524.45C162.72 525.06 162.23 525.55 161.62 525.55H75.89C75.28 525.55 74.79 525.06 74.79 524.45V521.91C74.79 521.3 75.28 520.81 75.89 520.81Z" fill="white"/>
<path d="M471.67 520.81H385.94C385.333 520.81 384.84 521.303 384.84 521.91V524.46C384.84 525.068 385.333 525.56 385.94 525.56H471.67C472.278 525.56 472.77 525.068 472.77 524.46V521.91C472.77 521.303 472.278 520.81 471.67 520.81Z" fill="white"/>
<path d="M481.84 503.27H979.63C980.24 503.27 980.73 503.76 980.73 504.37V620.67C980.73 621.28 980.24 621.77 979.63 621.77H481.84C481.23 621.77 480.74 621.28 480.74 620.67V504.37C480.74 503.76 481.23 503.27 481.84 503.27Z" fill="#FFE352"/>
<path d="M980.74 503.27H480.74V512.44H980.74V503.27Z" fill="#964562"/>
<path d="M533.3 512.45H528.48V654.12H533.3V512.45Z" fill="#964562"/>
<path d="M667 512.45H662.18V654.12H667V512.45Z" fill="#964562"/>
<path d="M836.66 512.45H831.84V654.12H836.66V512.45Z" fill="#964562"/>
<path d="M555.89 520.81H641.62C642.23 520.81 642.72 521.3 642.72 521.91V524.45C642.72 525.06 642.23 525.55 641.62 525.55H555.89C555.28 525.55 554.79 525.06 554.79 524.45V521.91C554.79 521.3 555.28 520.81 555.89 520.81Z" fill="white"/>
<path d="M724.1 520.81H809.83C810.44 520.81 810.93 521.3 810.93 521.91V524.45C810.93 525.06 810.44 525.55 809.83 525.55H724.1C723.49 525.55 723 525.06 723 524.45V521.91C723 521.3 723.49 520.81 724.1 520.81Z" fill="white"/>
<path d="M981.67 520.81H895.94C895.332 520.81 894.84 521.303 894.84 521.91V524.46C894.84 525.068 895.332 525.56 895.94 525.56H981.67C982.277 525.56 982.77 525.068 982.77 524.46V521.91C982.77 521.303 982.277 520.81 981.67 520.81Z" fill="white"/>
<path d="M980.75 503.27H1436.04C1436.6 503.27 1437.05 503.76 1437.05 504.37V620.68C1437.05 621.29 1436.6 621.78 1436.04 621.78H980.75C980.19 621.78 979.74 621.29 979.74 620.68V504.37C979.74 503.76 980.19 503.27 980.75 503.27Z" fill="#FFE352"/>
<path d="M1437.04 503.27H979.74V512.44H1437.04V503.27Z" fill="#964562"/>
<path d="M1027.81 512.45H1023.4V654.12H1027.81V512.45Z" fill="#FFEC88"/>
<path d="M1150.1 512.45H1145.69V654.12H1150.1V512.45Z" fill="#FFEC88"/>
<path d="M1305.27 512.45H1300.86V654.12H1305.27V512.45Z" fill="#FFEC88"/>
<path d="M1048.48 520.81H1126.89C1127.45 520.81 1127.9 521.3 1127.9 521.91V524.45C1127.9 525.06 1127.45 525.55 1126.89 525.55H1048.48C1047.92 525.55 1047.47 525.06 1047.47 524.45V521.91C1047.47 521.3 1047.92 520.81 1048.48 520.81Z" fill="#FFEC88"/>
<path d="M1332.05 520.81H1410.46C1411.02 520.81 1411.47 521.3 1411.47 521.91V524.45C1411.47 525.06 1411.02 525.55 1410.46 525.55H1332.05C1331.49 525.55 1331.04 525.06 1331.04 524.45V521.91C1331.04 521.3 1331.49 520.81 1332.05 520.81Z" fill="white"/>
<path d="M1439.04 612.61H-0.959999V845.61H1439.04V612.61Z" fill="white"/>
<g opacity="0.2">
<path d="M1439.04 645.61H-0.959999V685.61H1439.04V645.61Z" fill="#B3B3B3"/>
</g>
<g opacity="0.2">
<path d="M1439.04 751.61H-0.959999V791.61H1439.04V751.61Z" fill="#B3B3B3"/>
</g>
<g clip-path="url(#clip1_39_3420)">
<path d="M1416.54 344.47C1417.44 344.57 1418.15 345.28 1418.29 346.57C1418.49 348.35 1416.85 350.78 1414.51 352.15C1414.38 352.23 1414.23 352.31 1414.08 352.38C1414.72 354.04 1415.23 355.94 1415.55 358.09C1417.35 357.73 1418.57 357.31 1419.45 356.84C1420.71 356.16 1422.96 357.06 1422.73 359.39C1422.5 361.71 1419.99 363.88 1416.13 364.87C1416.04 364.89 1415.96 364.91 1415.87 364.93C1415.75 367.09 1415.42 369.02 1414.96 370.75C1418.63 370.21 1418.96 369.17 1420.91 369.98C1422.2 370.52 1422.51 373.98 1419.78 375.64C1417.79 376.85 1415.17 377.51 1412.02 377.61C1410.19 380.59 1408.36 382.24 1408.14 382.85C1407.67 384.13 1408.48 392.72 1409.27 412.78C1410.07 432.84 1408.89 440.34 1408.77 451.01C1408.65 461.68 1403.94 464.96 1398.94 463.79C1393.94 462.62 1392.65 460.31 1393.55 454.13C1394.45 447.95 1399.24 436.04 1400.61 422.35C1401.98 408.66 1402.66 384.51 1402.68 382.94C1402.7 381.61 1402.43 379.59 1403.78 376.57C1401.39 375.74 1399.79 374.54 1399.28 373.44C1398.5 371.74 1399.61 369.36 1402.15 369.66C1403.3 369.8 1404.94 370.13 1406.75 370.42C1407.29 368.88 1407.65 367.23 1407.79 365.41C1406.01 365.28 1404.32 365.03 1402.94 364.66C1399.33 363.71 1398.82 362.03 1399.59 360.3C1400.36 358.58 1401.17 358.55 1403.82 358.87C1404.92 359 1406.15 359.05 1407.44 359.02C1407.32 358.3 1407.17 357.56 1406.99 356.79C1406.81 356.03 1406.58 355.26 1406.32 354.5C1405.66 354.56 1405.08 354.56 1404.63 354.5C1402.43 354.18 1398.22 353.55 1398.15 351.2C1398.08 348.85 1399.79 348.48 1403.27 348.39C1403.55 348.39 1403.84 348.37 1404.12 348.36C1403.43 346.02 1403.43 344.26 1405.46 343.79C1406.83 343.52 1409.02 344.57 1411.04 347.02C1412.08 346.58 1413.11 345.99 1414.14 345.21C1415.48 344.33 1416.15 344.42 1416.46 344.44C1416.49 344.44 1416.52 344.44 1416.55 344.44L1416.54 344.47Z" fill="#FE9D6A"/>
<path d="M1382.27 344.97C1381.37 345.07 1380.66 345.77 1380.51 347.06C1380.3 348.84 1381.93 351.28 1384.27 352.65C1384.4 352.73 1384.55 352.81 1384.7 352.88C1384.06 354.53 1383.53 356.43 1383.2 358.59C1381.4 358.22 1380.18 357.8 1379.31 357.32C1378.06 356.64 1375.8 357.53 1376.02 359.86C1376.24 362.19 1378.74 364.36 1382.6 365.36C1382.69 365.38 1382.77 365.4 1382.86 365.43C1382.97 367.59 1383.29 369.52 1383.75 371.26C1380.08 370.71 1379.76 369.66 1377.81 370.47C1376.51 371.01 1376.19 374.46 1378.92 376.13C1380.9 377.34 1383.52 378.02 1386.67 378.14C1388.49 381.13 1390.31 382.79 1390.53 383.4C1391 384.68 1390.15 393.27 1389.27 413.32C1388.39 433.37 1389.53 440.88 1389.61 451.55C1389.69 462.22 1394.38 465.52 1399.38 464.37C1404.38 463.22 1405.68 460.91 1404.81 454.73C1403.94 448.55 1399.2 436.62 1397.88 422.92C1396.56 409.22 1395.99 385.07 1395.97 383.5C1395.96 382.17 1396.23 380.15 1394.89 377.12C1397.28 376.31 1398.89 375.11 1399.4 374.01C1400.19 372.32 1399.09 369.93 1396.55 370.22C1395.4 370.35 1393.75 370.67 1391.95 370.96C1391.42 369.41 1391.06 367.76 1390.93 365.95C1392.71 365.83 1394.4 365.58 1395.79 365.22C1399.4 364.28 1399.92 362.6 1399.16 360.88C1398.4 359.16 1397.59 359.13 1394.94 359.44C1393.84 359.57 1392.6 359.61 1391.32 359.58C1391.45 358.86 1391.6 358.12 1391.78 357.35C1391.96 356.59 1392.2 355.83 1392.46 355.06C1393.12 355.12 1393.7 355.13 1394.15 355.06C1396.35 354.75 1400.57 354.14 1400.64 351.79C1400.71 349.44 1399.01 349.07 1395.54 348.96C1395.26 348.96 1394.97 348.94 1394.69 348.93C1395.39 346.59 1395.4 344.83 1393.37 344.36C1392 344.08 1389.81 345.13 1387.78 347.56C1386.74 347.11 1385.71 346.52 1384.69 345.74C1383.36 344.85 1382.69 344.94 1382.37 344.96C1382.34 344.96 1382.31 344.96 1382.28 344.96L1382.27 344.97Z" fill="#733228"/>
<path d="M1439.58 334.66C1435.35 333.62 1431.42 334.34 1427.96 336.24C1424.51 338.14 1421.52 341.18 1419.04 344.79C1414.06 352.01 1411.06 361.51 1410.52 369.05C1409.46 383.95 1412.72 391.92 1413.57 398.47C1414.42 405.02 1412.75 409.11 1412.75 409.11L1412.42 409.94L1421.23 412.11L1430.04 414.29L1430.12 413.39C1430.12 413.39 1430.47 408.96 1434.15 403.53C1437.84 398.1 1444.31 392.53 1450.04 378.78C1452.94 371.82 1454.51 361.96 1453.32 353.23C1452.72 348.86 1451.44 344.77 1449.21 341.47C1446.99 338.18 1443.81 335.7 1439.58 334.66ZM1439.21 336.15C1443.06 337.1 1445.88 339.3 1447.92 342.32C1449.96 345.35 1451.21 349.22 1451.78 353.42C1452.93 361.82 1451.38 371.51 1448.6 378.17C1442.97 391.68 1436.73 396.94 1432.86 402.65C1429.51 407.58 1428.91 411.28 1428.76 412.37L1421.58 410.6L1414.39 408.83C1414.75 407.8 1415.86 404.21 1415.09 398.26C1414.2 391.38 1411.01 383.79 1412.05 369.15C1412.56 361.93 1415.53 352.58 1420.31 345.65C1422.7 342.18 1425.54 339.32 1428.71 337.58C1431.88 335.84 1435.36 335.2 1439.22 336.14L1439.21 336.15Z" fill="#492941"/>
<path d="M1439.58 334.66C1436.16 333.82 1432.89 334.77 1430.03 336.82C1427.17 338.87 1424.65 342.02 1422.49 345.69C1418.18 353.05 1415.33 362.56 1414.54 370.01C1412.99 384.76 1415.22 392.45 1415.59 398.91C1415.96 405.36 1414.41 409.54 1414.41 409.54L1414.11 410.35L1421.21 412.1L1428.32 413.85L1428.42 412.98C1428.42 412.98 1428.92 408.53 1432.14 402.97C1435.36 397.4 1440.79 391.6 1446.01 377.75C1448.65 370.75 1450.37 360.96 1449.83 352.41C1449.56 348.14 1448.73 344.17 1447.1 341.01C1445.6 338.09 1443.27 335.99 1440.24 335L1440.27 334.82L1439.56 334.65L1439.58 334.66ZM1439.21 336.15C1442.16 336.88 1444.25 338.84 1445.73 341.72C1447.21 344.6 1448.03 348.38 1448.29 352.51C1448.81 360.78 1447.11 370.45 1444.56 377.21C1439.41 390.86 1434.16 396.39 1430.8 402.21C1427.89 407.24 1427.24 410.91 1427.07 411.97L1421.57 410.61L1416.06 409.26C1416.39 408.25 1417.45 404.67 1417.11 398.83C1416.72 392.1 1414.53 384.73 1416.07 370.18C1416.83 362.98 1419.65 353.58 1423.81 346.47C1425.89 342.91 1428.31 339.94 1430.91 338.07C1433.51 336.2 1436.25 335.43 1439.2 336.15H1439.21Z" fill="#492941"/>
<path d="M1439.58 334.66C1437.21 334.08 1434.92 335.41 1432.9 337.67C1430.88 339.93 1429.01 343.19 1427.32 346.96C1423.94 354.5 1421.31 364.05 1420.18 371.37C1417.94 385.91 1418.74 393.2 1418.43 399.53C1418.12 405.86 1416.75 410.16 1416.75 410.16L1416.5 410.95L1421.21 412.11L1425.93 413.27L1426.06 412.44C1426.06 412.44 1426.77 407.98 1429.33 402.2C1431.89 396.42 1435.87 390.3 1440.39 376.32C1442.67 369.28 1444.59 359.57 1444.96 351.29C1445.14 347.15 1444.94 343.37 1444.16 340.42C1443.45 337.73 1442.1 335.79 1440.09 335L1440.03 334.75L1439.58 334.64V334.66ZM1439.21 336.15C1440.82 336.55 1441.97 338.14 1442.68 340.83C1443.39 343.52 1443.61 347.18 1443.43 351.23C1443.07 359.32 1441.15 368.98 1438.93 375.86C1434.45 389.71 1430.57 395.63 1427.93 401.58C1425.49 407.08 1424.91 410.77 1424.8 411.4L1421.58 410.61L1418.35 409.82C1418.53 409.22 1419.67 405.65 1419.97 399.61C1420.28 393.09 1419.49 386.01 1421.7 371.6C1422.8 364.44 1425.42 354.97 1428.73 347.6C1430.38 343.91 1432.21 340.75 1434.05 338.69C1435.89 336.63 1437.61 335.76 1439.22 336.15H1439.21Z" fill="#492941"/>
<path d="M1436.91 334L1438.02 335.11C1437.79 335.28 1437.57 335.43 1437.36 335.67C1436.75 336.36 1436.17 337.32 1435.56 338.52C1434.35 340.93 1433.07 344.31 1431.81 348.16C1429.29 355.86 1426.85 365.44 1425.41 372.63C1422.54 386.98 1422.01 393.88 1421.07 400.11C1420.13 406.34 1418.93 410.74 1418.93 410.74L1418.73 411.5L1421.22 412.11L1423.72 412.73L1423.88 411.95C1423.88 411.95 1424.78 407.47 1426.73 401.49C1428.68 395.51 1431.3 389.12 1435.18 375.02C1437.12 367.95 1439.24 358.3 1440.45 350.28C1441.05 346.27 1441.43 342.67 1441.43 339.96C1441.43 338.62 1441.33 337.51 1441.11 336.63L1441.89 336.83L1440.7 335.63C1440.66 335.56 1440.65 335.47 1440.61 335.41C1440.51 335.26 1440.31 335.21 1440.16 335.09L1439.95 334.88L1439.92 334.92C1439.8 334.85 1439.73 334.71 1439.58 334.67L1436.92 334.01L1436.91 334ZM1439.21 336.15C1439.21 336.15 1439.24 336.15 1439.32 336.27C1439.4 336.39 1439.51 336.62 1439.6 336.96C1439.77 337.63 1439.87 338.66 1439.87 339.94C1439.87 342.5 1439.51 346.07 1438.92 350.04C1437.73 357.98 1435.61 367.6 1433.69 374.61C1429.83 388.66 1427.24 394.95 1425.27 401.01C1423.44 406.63 1422.71 410.26 1422.58 410.86L1421.58 410.61L1420.57 410.36C1420.73 409.77 1421.7 406.19 1422.59 400.33C1423.55 394.02 1424.07 387.21 1426.92 372.92C1428.34 365.79 1430.77 356.25 1433.27 348.63C1434.52 344.82 1435.79 341.49 1436.94 339.21C1437.51 338.07 1438.06 337.19 1438.52 336.68C1438.75 336.43 1438.95 336.27 1439.07 336.2C1439.2 336.13 1439.21 336.15 1439.21 336.15Z" fill="#492941"/>
<path d="M1421.21 411.29L1411.8 413.76C1411.8 413.76 1409.29 440.9 1407.64 447.06C1405.99 453.22 1404.2 459.15 1401.67 464.03C1399.13 468.91 1400.5 475.31 1405.47 476.51C1410.44 477.71 1414.58 472.64 1414.55 467.14C1414.52 461.64 1415.64 455.55 1416.98 449.31C1418.32 443.07 1428.47 417.78 1428.47 417.78L1421.22 411.29H1421.21Z" fill="#FE9D6A"/>
<path d="M1413.9 404.79L1430.69 408.84C1431.12 408.95 1431.39 409.38 1431.29 409.82L1429.51 417.2C1429.41 417.63 1428.97 417.9 1428.53 417.8L1411.74 413.75C1411.31 413.64 1411.04 413.21 1411.14 412.77L1412.92 405.39C1413.02 404.96 1413.46 404.69 1413.9 404.79Z" fill="#733228"/>
<path d="M1407.67 465.63C1409.52 466.08 1410.66 467.94 1410.21 469.8C1409.76 471.65 1407.9 472.79 1406.04 472.34C1404.18 471.89 1403.05 470.03 1403.5 468.18C1403.95 466.33 1405.81 465.19 1407.67 465.63Z" fill="#9ECCC1"/>
<path d="M1383.33 426.85H1423.83C1426.01 426.85 1427.79 428.62 1427.79 430.81V499.61C1427.79 501.79 1426.02 503.57 1423.83 503.57H1383.34C1381.16 503.57 1379.38 501.8 1379.38 499.61V430.81C1379.38 428.63 1381.15 426.85 1383.34 426.85H1383.33Z" fill="#C0B3B3"/>
<g style="mix-blend-mode:multiply" opacity="0.5">
<path d="M1413.99 426.85C1416.99 450.52 1414.2 490.92 1412.98 495.1C1411.69 499.52 1403.62 501.51 1399.09 502C1395 502.44 1386.89 501.9 1382.85 503.52C1383.01 503.54 1383.17 503.55 1383.34 503.55H1423.84C1426.03 503.55 1427.8 501.78 1427.8 499.59V430.79C1427.8 428.6 1426.04 426.83 1423.84 426.83H1414L1413.99 426.85Z" fill="#FFDEBA"/>
</g>
<path d="M1403.88 444.08C1415.03 444.08 1424.07 453.97 1424.07 466.18C1424.07 478.39 1415.03 488.28 1403.88 488.28C1392.73 488.28 1383.69 478.39 1383.69 466.18C1383.69 453.97 1392.73 444.08 1403.88 444.08Z" fill="#B06D6D"/>
</g>
<g clip-path="url(#clip2_39_3420)">
<path d="M467.458 475.649C468.642 465.682 474.459 458.71 481.49 458.71C488.532 458.71 494.338 465.672 495.522 475.649C496.112 480.624 495.3 485.276 493.002 488.676C490.711 492.065 486.925 494.24 481.49 494.24C476.055 494.24 472.269 492.065 469.978 488.676C467.68 485.276 466.868 480.624 467.458 475.649Z" fill="white" stroke="#B0741C" stroke-width="0.5"/>
<g style="mix-blend-mode:multiply" opacity="0.5">
<path d="M481.49 458.46C479.41 458.46 477.45 459.05 475.68 460.13C475.29 460.61 475.02 460.95 475.02 460.95C483.42 459.18 487.72 466.77 489.96 473.84C492.2 480.91 490.83 486.69 490.83 486.69C490.83 486.69 492.52 487.22 494.19 487.12C495.77 483.88 496.28 479.86 495.77 475.62C494.58 465.59 488.72 458.46 481.49 458.46Z" fill="#FFDEBA"/>
</g>
<g style="mix-blend-mode:multiply" opacity="0.5">
<path d="M482.15 466C482.89 466 483.48 466.6 483.48 467.33C483.48 468.06 482.88 468.66 482.15 468.66C481.42 468.66 480.82 468.06 480.82 467.33C480.82 466.6 481.42 466 482.15 466Z" fill="#FFDEBA"/>
</g>
<g style="mix-blend-mode:multiply" opacity="0.5">
<path d="M486.95 462.66C487.69 462.66 488.28 463.26 488.28 463.99C488.28 464.72 487.68 465.32 486.95 465.32C486.22 465.32 485.62 464.72 485.62 463.99C485.62 463.26 486.22 462.66 486.95 462.66Z" fill="#FFDEBA"/>
</g>
<g style="mix-blend-mode:multiply" opacity="0.5">
<path d="M482.56 468.65C483.3 468.65 483.89 469.25 483.89 469.98C483.89 470.71 483.29 471.31 482.56 471.31C481.83 471.31 481.23 470.71 481.23 469.98C481.23 469.25 481.83 468.65 482.56 468.65Z" fill="#FFDEBA"/>
</g>
<path opacity="0.42" d="M474.91 461.81C471.85 464.98 470.59 466.57 471.36 468.33C472.12 470.09 474.11 469.4 474.78 468.48C475.46 467.56 476.44 465.76 477.07 464.58C477.71 463.4 477.93 462.88 477.32 462C476.71 461.13 475.65 461.16 474.9 461.8L474.91 461.81Z" fill="#FFE384"/>
<path opacity="0.42" d="M478.85 461.9C478.21 463.02 478.4 463.89 479.07 464.13C479.74 464.37 480.29 463.88 480.48 462.78C480.66 461.68 479.39 461.09 478.85 461.9Z" fill="#FFE384"/>
<path opacity="0.42" d="M471.42 470.44C470.76 471.41 470.68 472.71 472.29 472.97C473.9 473.24 474.21 471.39 473.76 470.69C473.31 469.98 472.2 469.59 471.42 470.44Z" fill="#FFE384"/>
<path d="M501.928 474.129C503.112 464.162 508.928 457.19 515.96 457.19C523.002 457.19 528.808 464.152 529.992 474.129C530.582 479.104 529.77 483.756 527.472 487.156C525.181 490.545 521.395 492.72 515.96 492.72C510.525 492.72 506.739 490.545 504.448 487.156C502.15 483.756 501.338 479.104 501.928 474.129Z" fill="white" stroke="#B0741C" stroke-width="0.5"/>
<g style="mix-blend-mode:multiply" opacity="0.5">
<path d="M515.96 456.94C513.88 456.94 511.92 457.53 510.15 458.61C509.76 459.09 509.49 459.43 509.49 459.43C517.89 457.66 522.19 465.25 524.43 472.32C526.67 479.39 525.3 485.17 525.3 485.17C525.3 485.17 526.99 485.7 528.66 485.6C530.24 482.36 530.75 478.34 530.24 474.1C529.05 464.07 523.19 456.94 515.96 456.94Z" fill="#FFDEBA"/>
</g>
<g style="mix-blend-mode:multiply" opacity="0.5">
<path d="M518.38 464.02C519.12 464.02 519.71 464.62 519.71 465.35C519.71 466.08 519.11 466.68 518.38 466.68C517.65 466.68 517.05 466.08 517.05 465.35C517.05 464.62 517.65 464.02 518.38 464.02Z" fill="#FFDEBA"/>
</g>
<g style="mix-blend-mode:multiply" opacity="0.5">
<path d="M521.42 461.14C522.16 461.14 522.75 461.74 522.75 462.47C522.75 463.2 522.15 463.8 521.42 463.8C520.69 463.8 520.09 463.2 520.09 462.47C520.09 461.74 520.69 461.14 521.42 461.14Z" fill="#FFDEBA"/>
</g>
<g style="mix-blend-mode:multiply" opacity="0.5">
<path d="M518.79 466.67C519.53 466.67 520.12 467.27 520.12 468C520.12 468.73 519.52 469.33 518.79 469.33C518.06 469.33 517.46 468.73 517.46 468C517.46 467.27 518.06 466.67 518.79 466.67Z" fill="#FFDEBA"/>
</g>
<path opacity="0.42" d="M509.38 460.29C506.32 463.46 505.06 465.05 505.83 466.81C506.59 468.57 508.58 467.88 509.25 466.96C509.93 466.04 510.91 464.24 511.54 463.06C512.18 461.88 512.4 461.36 511.79 460.48C511.18 459.61 510.12 459.64 509.37 460.28L509.38 460.29Z" fill="#FFE384"/>
<path opacity="0.42" d="M513.32 460.37C512.68 461.49 512.87 462.36 513.54 462.6C514.21 462.84 514.76 462.35 514.95 461.25C515.13 460.15 513.86 459.56 513.32 460.37Z" fill="#FFE384"/>
<path opacity="0.42" d="M505.88 468.92C505.22 469.89 505.14 471.19 506.75 471.45C508.36 471.72 508.67 469.87 508.22 469.17C507.77 468.46 506.66 468.07 505.88 468.92Z" fill="#FFE384"/>
<path d="M535.378 474.129C536.562 464.162 542.379 457.19 549.41 457.19C556.452 457.19 562.258 464.152 563.442 474.129C564.032 479.104 563.22 483.756 560.922 487.156C558.631 490.545 554.845 492.72 549.41 492.72C543.975 492.72 540.189 490.545 537.898 487.156C535.6 483.756 534.788 479.104 535.378 474.129Z" fill="white" stroke="#B0741C" stroke-width="0.5"/>
<g style="mix-blend-mode:multiply" opacity="0.5">
<path d="M549.41 456.94C547.33 456.94 545.37 457.53 543.6 458.61C543.21 459.09 542.94 459.43 542.94 459.43C551.34 457.66 555.64 465.25 557.88 472.32C560.12 479.39 558.75 485.17 558.75 485.17C558.75 485.17 560.44 485.7 562.11 485.6C563.69 482.36 564.2 478.34 563.69 474.1C562.5 464.07 556.64 456.94 549.41 456.94Z" fill="#FFDEBA"/>
</g>
<g style="mix-blend-mode:multiply" opacity="0.5">
<path d="M551.01 462.47C551.75 462.47 552.34 463.07 552.34 463.8C552.34 464.53 551.74 465.13 551.01 465.13C550.28 465.13 549.68 464.53 549.68 463.8C549.68 463.07 550.28 462.47 551.01 462.47Z" fill="#FFDEBA"/>
</g>
<g style="mix-blend-mode:multiply" opacity="0.5">
<path d="M554.87 461.14C555.61 461.14 556.2 461.74 556.2 462.47C556.2 463.2 555.6 463.8 554.87 463.8C554.14 463.8 553.54 463.2 553.54 462.47C553.54 461.74 554.14 461.14 554.87 461.14Z" fill="#FFDEBA"/>
</g>
<g style="mix-blend-mode:multiply" opacity="0.5">
<path d="M551.42 465.12C552.16 465.12 552.75 465.72 552.75 466.45C552.75 467.18 552.15 467.78 551.42 467.78C550.69 467.78 550.09 467.18 550.09 466.45C550.09 465.72 550.69 465.12 551.42 465.12Z" fill="#FFDEBA"/>
</g>
<path opacity="0.42" d="M542.83 460.29C539.77 463.46 538.51 465.05 539.28 466.81C540.04 468.57 542.03 467.88 542.7 466.96C543.38 466.04 544.36 464.24 544.99 463.06C545.63 461.88 545.85 461.36 545.24 460.48C544.63 459.61 543.57 459.64 542.82 460.28L542.83 460.29Z" fill="#FFE384"/>
<path opacity="0.42" d="M546.77 460.37C546.13 461.49 546.32 462.36 546.99 462.6C547.66 462.84 548.21 462.35 548.4 461.25C548.58 460.15 547.31 459.56 546.77 460.37Z" fill="#FFE384"/>
<path opacity="0.42" d="M539.34 468.92C538.68 469.89 538.6 471.19 540.21 471.45C541.82 471.72 542.13 469.87 541.68 469.17C541.23 468.46 540.12 468.07 539.34 468.92Z" fill="#FFE384"/>
<path d="M570.748 474.129C571.932 464.162 577.748 457.19 584.78 457.19C591.822 457.19 597.628 464.152 598.812 474.129C599.402 479.104 598.59 483.756 596.292 487.156C594.001 490.545 590.215 492.72 584.78 492.72C579.345 492.72 575.559 490.545 573.268 487.156C570.97 483.756 570.158 479.104 570.748 474.129Z" fill="white" stroke="#AB681F" stroke-width="0.5"/>
<g style="mix-blend-mode:multiply" opacity="0.5">
<path d="M584.77 456.94C582.69 456.94 580.73 457.53 578.96 458.61C578.57 459.09 578.3 459.43 578.3 459.43C586.7 457.66 591 465.25 593.24 472.32C595.48 479.39 594.11 485.17 594.11 485.17C594.11 485.17 595.8 485.7 597.47 485.6C599.05 482.36 599.56 478.34 599.05 474.1C597.86 464.07 592 456.94 584.77 456.94Z" fill="#FFDEBA"/>
</g>
<g style="mix-blend-mode:multiply" opacity="0.5">
<path d="M583.49 462.53C584.23 462.53 584.82 463.13 584.82 463.86C584.82 464.59 584.22 465.19 583.49 465.19C582.76 465.19 582.16 464.59 582.16 463.86C582.16 463.13 582.76 462.53 583.49 462.53Z" fill="#FFDEBA"/>
</g>
<g style="mix-blend-mode:multiply" opacity="0.5">
<path d="M586.53 463.69C587.27 463.69 587.86 464.29 587.86 465.02C587.86 465.75 587.26 466.35 586.53 466.35C585.8 466.35 585.2 465.75 585.2 465.02C585.2 464.29 585.8 463.69 586.53 463.69Z" fill="#FFDEBA"/>
</g>
<g style="mix-blend-mode:multiply" opacity="0.5">
<path d="M583.9 465.18C584.64 465.18 585.23 465.78 585.23 466.51C585.23 467.24 584.63 467.84 583.9 467.84C583.17 467.84 582.57 467.24 582.57 466.51C582.57 465.78 583.17 465.18 583.9 465.18Z" fill="#FFDEBA"/>
</g>
<path opacity="0.42" d="M578.2 460.29C575.14 463.46 573.88 465.05 574.65 466.81C575.41 468.57 577.4 467.88 578.07 466.96C578.75 466.04 579.73 464.24 580.36 463.06C581 461.88 581.22 461.36 580.61 460.48C580 459.61 578.94 459.64 578.19 460.28L578.2 460.29Z" fill="#FFE384"/>
<path opacity="0.42" d="M582.14 460.37C581.5 461.49 581.69 462.36 582.36 462.6C583.03 462.84 583.58 462.35 583.77 461.25C583.95 460.15 582.68 459.56 582.14 460.37Z" fill="#FFE384"/>
<path opacity="0.42" d="M574.7 468.92C574.04 469.89 573.96 471.19 575.57 471.45C577.18 471.72 577.49 469.87 577.04 469.17C576.59 468.46 575.48 468.07 574.7 468.92Z" fill="#FFE384"/>
<path d="M465.01 481.01L469.95 500.77C470.32 502.27 471.67 503.31 473.21 503.31H490.61C492.15 503.31 493.49 502.26 493.87 500.77L498.81 481.01H465.02H465.01Z" fill="#EA886B"/>
<path d="M534.07 481.01L539.01 500.77C539.38 502.27 540.73 503.31 542.27 503.31H559.67C561.21 503.31 562.55 502.26 562.93 500.77L567.87 481.01H534.08H534.07Z" fill="#EA886B"/>
<path d="M567.64 481.01L572.58 500.77C572.95 502.27 574.3 503.31 575.84 503.31H593.24C594.78 503.31 596.12 502.26 596.5 500.77L601.44 481.01H567.65H567.64Z" fill="#EA886B"/>
<path d="M499.18 481.01L504.12 500.77C504.49 502.27 505.84 503.31 507.38 503.31H524.78C526.32 503.31 527.66 502.26 528.04 500.77L532.98 481.01H499.19H499.18Z" fill="#EA886B"/>
<path d="M494.58 481.01L491.54 481.52C491.54 481.52 489.6 492.93 488.92 495.71C488.24 498.5 487.82 501.2 481.91 501.2H470.14C470.75 502.49 472.04 503.31 473.46 503.31H490.36C492.05 503.31 493.52 502.16 493.93 500.52L498.81 481H494.59L494.58 481.01Z" fill="#D8735C"/>
<path d="M563.64 481.01L560.6 481.52C560.6 481.52 558.66 492.93 557.98 495.71C557.3 498.5 556.88 501.2 550.97 501.2H539.2C539.8 502.49 541.1 503.31 542.52 503.31H559.41C561.1 503.31 562.57 502.16 562.98 500.52L567.86 481H563.64V481.01Z" fill="#D8735C"/>
<path d="M597.21 481.01L594.17 481.52C594.17 481.52 592.23 492.93 591.55 495.71C590.87 498.5 590.45 501.2 584.54 501.2H572.77C573.38 502.49 574.67 503.31 576.09 503.31H592.99C594.68 503.31 596.15 502.16 596.56 500.52L601.44 481H597.22L597.21 481.01Z" fill="#D8735C"/>
<path d="M528.75 481.01L525.71 481.52C525.71 481.52 523.77 492.93 523.09 495.71C522.41 498.5 521.99 501.2 516.08 501.2H504.31C504.91 502.49 506.21 503.31 507.63 503.31H524.52C526.21 503.31 527.68 502.16 528.09 500.52L532.97 481H528.75V481.01Z" fill="#D8735C"/>
<path d="M464.57 478.89H604.7C605.76 478.89 606.61 479.75 606.61 480.8C606.61 481.86 605.75 482.71 604.7 482.71H464.57C463.52 482.71 462.66 481.85 462.66 480.8C462.66 479.74 463.52 478.89 464.57 478.89Z" fill="#BB4B39"/>
<g style="mix-blend-mode:multiply" opacity="0.5">
<path d="M467.66 485.62L470.64 498.62C470.81 499.34 471.44 499.85 472.18 499.85H472.62C473.23 499.85 473.73 499.35 473.73 498.74C473.73 498.69 473.73 498.64 473.73 498.6L472.03 485.56C471.94 484.85 471.32 484.32 470.61 484.33L468.65 484.37C468.09 484.38 467.64 484.85 467.65 485.41C467.65 485.48 467.65 485.55 467.68 485.62H467.66Z" fill="#FFDEBA"/>
</g>
<g style="mix-blend-mode:multiply" opacity="0.5">
<path d="M536.72 485.62L539.7 498.62C539.86 499.34 540.5 499.85 541.24 499.85H541.68C542.29 499.85 542.79 499.35 542.79 498.74C542.79 498.69 542.79 498.64 542.79 498.6L541.09 485.56C541 484.85 540.38 484.32 539.67 484.33L537.71 484.37C537.14 484.38 536.7 484.85 536.71 485.41C536.71 485.48 536.71 485.55 536.74 485.62H536.72Z" fill="#FFDEBA"/>
</g>
<g style="mix-blend-mode:multiply" opacity="0.5">
<path d="M570.29 485.62L573.27 498.62C573.43 499.34 574.07 499.85 574.81 499.85H575.25C575.86 499.85 576.36 499.35 576.36 498.74C576.36 498.69 576.36 498.64 576.36 498.6L574.66 485.56C574.57 484.85 573.95 484.32 573.24 484.33L571.28 484.37C570.71 484.38 570.27 484.85 570.28 485.41C570.28 485.48 570.28 485.55 570.31 485.62H570.29Z" fill="#FFDEBA"/>
</g>
<g style="mix-blend-mode:multiply" opacity="0.5">
<path d="M501.83 485.62L504.81 498.62C504.98 499.34 505.61 499.85 506.35 499.85H506.79C507.4 499.85 507.9 499.35 507.9 498.74C507.9 498.69 507.9 498.64 507.9 498.6L506.2 485.56C506.11 484.85 505.49 484.32 504.78 484.33L502.82 484.37C502.26 484.38 501.81 484.85 501.82 485.41C501.82 485.48 501.83 485.55 501.85 485.62H501.83Z" fill="#FFDEBA"/>
</g>
<path d="M420.87 492.19H365.24C364.633 492.19 364.14 492.682 364.14 493.29V501.89C364.14 502.497 364.633 502.99 365.24 502.99H420.87C421.478 502.99 421.97 502.497 421.97 501.89V493.29C421.97 492.682 421.478 492.19 420.87 492.19Z" fill="#FDD2A7"/>
<path d="M339 453.78C339.05 471.79 348.44 488.54 363.92 498.24H422.01C437.49 488.54 446.87 471.8 446.93 453.78H339Z" fill="#FFB35F"/>
<path d="M410.29 453.78C416.79 484.9 397.63 495.81 397.29 497.2C397.04 498.19 396.93 501.24 396.88 502.98H420.87C421.48 502.98 421.97 502.49 421.97 501.88V498.23H422.01C437.49 488.53 446.87 471.79 446.93 453.77H410.29V453.78Z" fill="#F89A50"/>
<path d="M392.96 462.34C422.761 462.34 446.92 458.458 446.92 453.67C446.92 448.882 422.761 445 392.96 445C363.159 445 339 448.882 339 453.67C339 458.458 363.159 462.34 392.96 462.34Z" fill="white"/>
<path d="M392.96 459.5C420.414 459.5 442.67 456.89 442.67 453.67C442.67 450.45 420.414 447.84 392.96 447.84C365.506 447.84 343.25 450.45 343.25 453.67C343.25 456.89 365.506 459.5 392.96 459.5Z" fill="#733228"/>
<path d="M339 453.78C339.05 471.79 348.44 488.54 363.92 498.24H364.14V501.89C364.14 502.5 364.63 502.99 365.24 502.99H367.08C367.08 501.77 367.05 500.44 366.88 499.41C366.47 496.9 366.44 496.13 357.08 487.41C347.72 478.69 345.33 469.65 344 455.47C344 455.47 342.43 454.45 342.33 454.13L339 453.78Z" fill="white"/>
</g>
<g clip-path="url(#clip3_39_3420)">
<path d="M62.64 456.83C57.11 456.99 51.63 462.08 47.47 465.31C46.51 466.06 45.47 466.93 44.46 467.89C45.39 465.88 46.33 463.88 47.25 461.86C49.03 457.98 52.53 453.96 53.05 449.68C53.1 449.28 52.65 449.06 52.31 449.12C46.2 450.29 43.15 458.74 40.69 463.54C40.13 464.63 39.64 465.78 39.21 466.95C38.64 463.45 37.93 459.97 37.3 456.58C36.07 449.97 34.53 443.72 30.36 438.3C29.98 437.8 29.14 437.92 29.13 438.63C29.07 441.33 29.92 443.8 30.71 446.36C31.84 450.01 32.57 453.81 33.31 457.55C34.2 462.04 34.69 467.05 35.84 471.73C33.53 466.18 31.06 460.67 27.24 455.98C25.73 454.13 19.59 447.89 16.72 450.38C13.87 452.86 19.94 457.55 21.5 459.04C24.93 462.33 27.75 466.66 30.84 470.29C31.52 471.09 32.15 471.93 32.77 472.78C32.17 472.3 31.57 471.84 30.96 471.43C28.1 469.48 25.05 468.22 21.7 467.44C17.31 466.42 11.65 467.44 8.34 470.65C7.81 471.16 7.92 472.12 8.58 472.48C12.01 474.37 16.35 474.13 20.15 474.45C25.19 474.88 38.42 480.85 38.6 480.82C38.67 480.9 38.74 480.99 38.81 481.07C39.05 481.34 50.51 469.43 55.28 465.75C57.83 463.78 62.85 461.57 63.6 458.07C63.73 457.46 63.32 456.8 62.65 456.82L62.64 456.83Z" fill="#687F45"/>
<path d="M28.57 473.34C28.7 473.32 28.84 473.27 28.96 473.17C30.33 471.99 30.99 469.73 31.68 468.1C32.39 466.39 32.9 464.56 32.21 462.78C32.05 462.38 31.42 462.13 31.04 462.38C27.92 464.44 26.53 468.78 27.27 472.43C26.66 471.14 26.08 469.83 25.5 468.52C26.88 466.47 27.02 463.29 27.76 461.09C28.49 458.92 29.65 455.93 28.28 453.79C28 453.35 27.39 453.1 26.95 453.52C24.07 456.23 23.48 460.1 23.39 463.91C22.9 462.9 22.4 461.9 21.87 460.92C21.87 460.83 21.87 460.73 21.83 460.63C21.83 460.62 21.83 460.61 21.82 460.59C22.95 457.82 22.53 454.29 22.9 451.31C23.22 448.73 23.35 446.25 22.42 443.79C22.23 443.28 21.58 443.28 21.21 443.54C19.16 444.98 19.13 448.03 19.12 450.29C19.12 451.71 19.11 453.14 19.2 454.55C18.32 452.25 17.4 449.96 16.37 447.72C15.16 445.11 13.94 441.29 11.16 439.98C10.41 439.63 9.81999 440.43 9.86999 441.09C10.25 446.26 12.61 451.02 15.71 455.22C14.25 453.95 12.57 452.75 10.6 452.91C10.26 452.94 9.92999 453.32 9.92999 453.65C9.90999 455.99 11.97 457.65 13.75 458.86C15.13 459.79 18.11 461.95 20.03 461.68C20.62 462.94 21.18 464.21 21.73 465.49C20.24 464.6 18.69 463.83 16.97 463.36C16 463.1 15.28 464.13 15.89 464.94C17.14 466.62 19 467.5 20.79 468.48C21.76 469.01 22.84 470.26 24 470.87C24.14 471.22 24.29 471.59 24.44 471.98C22.91 471.31 21.25 470.87 19.79 470.85C18.86 470.84 18.44 471.96 19.19 472.53C20.68 473.68 22.33 474.48 24.06 475.21C24.64 475.45 25.38 475.88 26.13 476.21C27.34 478.95 28.9 481.57 31.21 482.6C31.62 482.78 31.96 482.36 31.93 481.99C31.72 479.66 30.12 477.85 29.01 475.83C28.63 475.14 28.28 474.45 27.93 473.75C28.22 473.83 28.55 473.69 28.6 473.35L28.57 473.34Z" fill="#77A161"/>
<path d="M65.29 460.59C67.18 460.35 69.09 460.32 70.98 460.04C73 459.74 76.48 458.4 76.01 455.76C75.66 453.82 71.67 454.85 70.57 455.07C68.02 455.56 65.69 456.69 63.46 458.02C62.86 458.25 62.27 458.51 61.7 458.79C62.5 457.88 63.26 456.97 63.99 456.17C65.37 454.65 67.58 452.35 67 450.1C66.93 449.84 66.68 449.65 66.41 449.65C63.64 449.68 61.71 452.28 60.21 454.3C58.3 456.89 56.4 459.94 55.78 463.17C55 463.98 54.29 464.87 53.62 465.81C54.24 462.15 55.68 451.24 52.36 451.87C49.93 452.33 49.58 456.52 49.59 458.38C49.59 461.49 50.58 464.94 52.6 467.4C52.45 467.64 52.3 467.88 52.17 468.13C50.88 470.48 50.02 473.05 49.36 475.64C49.54 473.59 49.36 471.67 48.72 469.47C48.28 467.96 47.48 464.73 45.46 464.69C43.19 464.64 44.14 468.6 44.4 469.64C45.38 473.55 47.01 477.28 48.13 481.16C48.08 482 48.2 482.85 48.66 483.74C49.04 484.47 50.1 483.95 49.94 483.2C49.32 480.29 50.72 476.21 52.22 472.83C53.56 473.41 55.56 473.37 56.75 473.52C59.32 473.85 61.83 473.95 64.16 472.67C64.53 472.47 64.57 472.04 64.42 471.69C62.43 467.17 57.05 470.37 53.52 470.08C53.68 469.76 53.83 469.45 53.98 469.16C54.58 467.97 55.37 466.83 56.27 465.76C60.16 468.07 72.07 467.76 71.25 463.8C70.82 461.72 66.78 461.84 65.23 461.75C63.4 461.65 61.42 461.9 59.55 462.48C59.7 462.36 59.84 462.23 59.99 462.11C61.76 461.66 63.46 460.83 65.3 460.59H65.29Z" fill="#77A161"/>
<path d="M57.3 459.1C54.2 458.56 50.16 462.66 48.02 464.45C44.62 467.3 41.07 471.99 39.63 476.62C40.43 471.49 42.15 466.29 43.16 461.28C44 457.13 46.65 452.31 45.5 448.06C45.39 447.65 44.96 447.54 44.6 447.7C40.29 449.59 38.8 456.23 38.12 460.32C37.53 463.83 37.54 467.44 37.54 470.98C37.54 472.62 37.39 474.42 37.41 476.19C37 473.77 36.66 471.35 35.91 468.93C35.23 466.72 34.53 464.51 33.78 462.32C32.92 459.82 31.42 454.6 28.05 454.66C27.6 454.66 27.23 455.03 27.23 455.48C27.22 460.15 30.32 465.12 32.16 469.29C33.36 472.02 34.16 478.39 36.81 480.57C37.96 480.39 39.15 480.27 40.33 480.26C44.79 474.61 49.53 468.94 55.37 464.71C56.56 463.85 61.22 459.77 57.31 459.08L57.3 459.1Z" fill="#95C345"/>
<path d="M15.85 479.18L20.5 506.19L55.37 506.5L60.6 479.18H15.85Z" fill="#D69F84"/>
<path d="M14.68 475.55C14.68 475.55 14.24 480.35 15.99 481.22C17.73 482.09 60.89 482.09 61.33 480.78C61.77 479.47 62.64 475.55 61.33 475.11C60.02 474.67 14.68 475.55 14.68 475.55Z" fill="#E3BA9F"/>
<path d="M56.3 487.19C54.1 487.97 52.01 487.92 50.42 486.09C49.91 485.5 48.95 484.99 48.16 485.17C46.64 485.5 45.49 486.61 44.33 487.59C41.99 489.56 40.57 486.53 38.86 485.88C38.02 485.56 36.81 486.33 36.14 486.66C34.76 487.34 33.03 490.09 31.08 487.45C30.73 486.98 30.48 486.54 30.11 486.08C27.63 483 23.26 493.36 21 486.08C20.73 485.22 19.36 485.35 19.39 486.3C19.54 489.99 22.91 492.66 26.29 490.62C26.56 490.46 28.65 488.14 28.95 488.69C29.34 489.39 29.9 490.2 30.6 490.62C32.57 491.81 34.17 491.54 35.96 490.06C39.6 487.05 38.19 490.62 41.54 491.15C44 491.54 45.32 490.48 47.07 488.82C48.72 487.25 50.86 490.58 52.64 491.07C54.75 491.65 56.52 490.32 57.31 488.51C57.59 487.87 57.13 486.92 56.31 487.21L56.3 487.19Z" fill="#C77784"/>
<path d="M27.76 492.54C26.07 492.54 26.07 495.16 27.76 495.16C29.45 495.16 29.45 492.54 27.76 492.54Z" fill="#C77784"/>
<path d="M37.64 492.36C36.08 492.36 36.08 494.78 37.64 494.78C39.2 494.78 39.2 492.36 37.64 492.36Z" fill="#C77784"/>
<path d="M47.23 491.95C45.52 491.95 45.52 494.61 47.23 494.61C48.94 494.61 48.94 491.95 47.23 491.95Z" fill="#C77784"/>
<path d="M80.65 475.06C79.9 471.38 79.38 467.83 77.17 464.7C76.73 464.08 75.83 464.61 76.16 465.29C77.96 469.05 78.52 473.56 78.95 477.68C79.01 478.26 79.04 478.87 79.08 479.49C77.74 475.52 75.18 471.72 72.36 468.97C71.95 468.57 71.25 469.09 71.56 469.59C72.92 471.75 74.27 473.92 75.45 476.18C75.88 477.01 76.27 477.84 76.64 478.68C74.57 477.16 72.27 475.93 69.97 474.81C69.43 474.55 68.84 475.08 69.14 475.64C71.14 479.26 75.58 480.29 78.6 482.84C78.84 483.29 79.09 483.74 79.36 484.18C79.53 484.46 80.04 484.37 80.02 484C80.02 483.94 80.01 483.88 80 483.82C80.02 483.82 80.04 483.82 80.05 483.81C80.3 484.24 80.59 484.65 81 484.99C81.33 485.26 81.76 485.08 81.8 484.66C82.08 481.65 81.26 478.05 80.65 475.05V475.06Z" fill="#ABBF27"/>
<path d="M84.36 476.12C84.31 472.59 84.28 468.96 83.58 465.5C83.46 464.93 82.51 464.91 82.41 465.5C81.92 468.42 82.34 471.46 82.36 474.41C82.38 477.01 81.79 479.79 82.04 482.33C82.09 482.85 82.7 483.19 83.11 482.77C84.72 481.12 84.4 478.26 84.37 476.12H84.36Z" fill="#ABBF27"/>
<path d="M101.86 471.51C99.18 472.56 96.96 474.4 95.04 476.54C97.11 473.14 99.59 469.92 100.84 466.23C101.14 465.36 99.98 464.8 99.37 465.37C96.65 467.94 94.79 471.64 93.13 474.95C91.69 477.82 90.09 480.7 90.1 483.99C90.1 484.98 91.7 485.25 91.86 484.23C91.9 483.97 91.97 483.71 92.02 483.46C92.18 483.4 92.34 483.3 92.47 483.14C95.44 479.18 99.13 476.07 102.35 472.36C102.65 472.02 102.37 471.31 101.86 471.51Z" fill="#ABBF27"/>
<path d="M89.93 466.26C86.11 469.81 85 476.19 84.69 481.61C84.67 481.55 84.65 481.49 84.62 481.43C84.04 480.27 83.47 479.14 82.89 478.02C82.42 473.38 81.67 468.77 82.54 464.05C82.58 463.82 82.28 463.67 82.15 463.88C80.37 466.8 80.06 470.02 80.34 473.32C78.93 470.87 77.42 468.48 75.69 466.12C75.38 465.7 74.71 466.07 74.98 466.53C77.4 470.74 79.32 475.32 81.38 479.77C81.66 481.14 81.94 482.49 82.16 483.8C82.26 484.4 83.19 484.24 83.2 483.66C83.2 483.45 83.2 483.25 83.2 483.04C83.73 483.27 84.41 482.94 84.66 482.39C84.63 483.17 84.61 483.93 84.6 484.66C84.58 486.05 86.73 486.04 86.75 484.66C86.8 481.62 87.13 478.67 87.81 475.7C88.51 472.61 90.12 469.86 90.89 466.81C91.03 466.25 90.36 465.87 89.94 466.26H89.93Z" fill="#91A93A"/>
<path d="M97.02 468.12C94.55 469.46 92.8 472.36 91.21 474.63C89.36 477.27 88.05 480.24 87.35 483.39C87.07 484.68 89.09 485.21 89.31 483.93C89.85 480.83 91.21 478.23 92.99 475.67C94.55 473.41 97.02 471.46 97.94 468.83C98.13 468.29 97.47 467.88 97.02 468.12Z" fill="#91A93A"/>
<path d="M103.87 472.53C98.88 474.05 95.9 478.32 91.94 481.33C91.16 481.92 91.87 483.25 92.73 482.68C94.69 481.38 96.33 479.73 98.08 478.18C100.13 476.36 102.92 475.67 104.43 473.25C104.66 472.89 104.29 472.41 103.88 472.53H103.87Z" fill="#91A93A"/>
<path d="M79.1 481.45C77.86 476.95 73.66 473.7 70.6 470.39C70.32 470.09 69.86 470.4 69.95 470.77C71.07 475.34 75.64 477.94 77.64 482.07C78.04 482.9 79.34 482.31 79.1 481.45Z" fill="#91A93A"/>
<path d="M94.42 463.58C91.61 465.75 89.6 469.63 88.46 473.62C88.51 473.04 88.55 472.46 88.61 471.91C88.99 468.12 90.23 464.35 89.52 460.53C89.41 459.94 88.64 460.08 88.47 460.53C86.05 466.78 86.43 473.96 85.34 480.49C85.21 481.25 86.14 481.69 86.59 481.02C86.96 480.47 87.23 479.87 87.46 479.25C87.41 479.97 87.39 480.68 87.41 481.34C87.44 482.34 89 482.63 89.21 481.58C89.79 478.7 90.37 475.88 91.32 473.1C92.37 470.01 94.01 467.19 95.13 464.13C95.27 463.75 94.75 463.32 94.41 463.58H94.42Z" fill="#ABBF27"/>
<path d="M74.25 483.56L76.62 506.24L94.37 506.5L97.03 483.56H74.25Z" fill="#CC9C5E"/>
<path d="M73.66 480.5C73.66 480.5 73.44 484.53 74.33 485.26C75.22 485.99 97.18 485.99 97.4 484.89C97.62 483.79 98.07 480.5 97.4 480.13C96.74 479.76 73.66 480.5 73.66 480.5Z" fill="#E8BA7C"/>
</g>
<g clip-path="url(#clip4_39_3420)">
<rect width="446" height="136" transform="translate(201 127)" fill="#FFEC88"/>
<path d="M344.964 262V128H485.929V262H344.964Z" fill="#FFEC88" stroke="#9D2B25" stroke-width="2"/>
<path d="M435.266 235.52H395.627V243.934H435.266V235.52Z" fill="#BD7F5A"/>
<path d="M202 262V128H342.964V262H202Z" fill="#FFEC88" stroke="#9D2B25" stroke-width="2"/>
<path d="M292.302 235.52H252.663V243.934H292.302V235.52Z" fill="#BD7F5A"/>
<path d="M488.063 262V128H646V262H488.063Z" fill="#FFEC88" stroke="#9D2B25" stroke-width="2"/>
<path d="M545.859 242.934V236.52H588.204V242.934H545.859Z" fill="#FFC0C0" stroke="#9D2B25" stroke-width="2"/>
<path d="M589.455 235.52H545.11V243.934H589.455V235.52Z" fill="#BD7F5A"/>
</g>
<g clip-path="url(#clip5_39_3420)">
<path d="M833.95 400.35H661.98C660.334 400.35 659 401.684 659 403.33V406.23C659 407.876 660.334 409.21 661.98 409.21H833.95C835.596 409.21 836.93 407.876 836.93 406.23V403.33C836.93 401.684 835.596 400.35 833.95 400.35Z" fill="#7E4C38"/>
<path d="M784.99 377.8H757.46V401.68H784.99V377.8Z" fill="#CF5951"/>
<path d="M786.31 380.78H756.79C756.79 380.78 755.13 377.01 757.45 375.76C759.77 374.51 785.31 374.25 786.3 375.01C787.3 375.76 786.3 380.78 786.3 380.78H786.31Z" fill="#DED9C0"/>
<path d="M760.44 385.76L759.78 394.38L781.34 395.37L781.01 386.09L760.44 385.76Z" fill="#F9D893"/>
<path d="M816.01 370.21H788.48V401.63H816.01V370.21Z" fill="#B39851"/>
<path d="M817.33 373.2H787.81C787.81 373.2 786.15 369.43 788.47 368.18C790.79 366.93 816.33 366.67 817.32 367.43C818.31 368.18 817.32 373.2 817.32 373.2H817.33Z" fill="#DED9C0"/>
<path d="M791.47 378.17L793.16 388.71L813.1 386.49L812.03 378.5L791.47 378.17Z" fill="#F9D893"/>
<path d="M715.65 370.21H688.12V401.63H715.65V370.21Z" fill="#8B9686"/>
<path d="M716.97 373.2H687.45C687.45 373.2 685.79 369.43 688.11 368.18C690.44 366.92 715.98 366.67 716.97 367.42C717.96 368.17 716.97 373.19 716.97 373.19V373.2Z" fill="#DED9C0"/>
<path d="M692.14 378.01C691.67 379.35 692.8 388.71 692.8 388.71C692.8 388.71 709.14 390.01 711.14 388.01C713.14 386.01 711.67 378.51 711.67 378.51C711.67 378.51 692.61 376.68 692.14 378.01Z" fill="#F9D893"/>
<path d="M723.97 383.01L721.47 402.01H735.97L733.97 382.01L723.97 383.01Z" fill="#9F9581"/>
<path d="M724.34 378.87C724.34 378.87 721.94 383.84 723.65 384.7C725.36 385.56 734.97 384.7 734.97 384.7C734.97 384.7 735.31 379.21 733.6 378.18C731.89 377.15 724.34 378.87 724.34 378.87Z" fill="#BFC4CA"/>
<path d="M740.97 383.01L738.47 402.01H752.97L750.97 382.01L740.97 383.01Z" fill="#9F9581"/>
<path d="M741.34 378.87C741.34 378.87 738.94 383.84 740.65 384.7C742.36 385.56 751.97 384.7 751.97 384.7C751.97 384.7 752.31 379.21 750.6 378.18C748.89 377.15 741.34 378.87 741.34 378.87Z" fill="#BFC4CA"/>
</g>
<rect y="123" width="1435" height="21" fill="#6E3449"/>
</g>
<defs>
<clipPath id="clip0_39_3420">
<rect width="1441.04" height="899.61" fill="white" transform="translate(-1)"/>
</clipPath>
<clipPath id="clip1_39_3420">
<rect width="77.71" height="169.56" fill="white" transform="translate(1376 334)"/>
</clipPath>
<clipPath id="clip2_39_3420">
<rect width="367.61" height="58.32" fill="white" transform="translate(339 445)"/>
</clipPath>
<clipPath id="clip3_39_3420">
<rect width="96.49" height="68.5" fill="white" transform="translate(8 438)"/>
</clipPath>
<clipPath id="clip4_39_3420">
<rect width="446" height="136" fill="white" transform="translate(201 127)"/>
</clipPath>
<clipPath id="clip5_39_3420">
<rect width="177.93" height="42.22" fill="white" transform="translate(659 367)"/>
</clipPath>
</defs>
</svg>
