<svg width="231" height="134" viewBox="0 0 231 134" fill="none" xmlns="http://www.w3.org/2000/svg">
<g style="mix-blend-mode:multiply" opacity="0.5">
<path d="M231 94.7487C231 116.281 179.287 133.749 115.5 133.749C51.7134 133.749 0 116.324 0 94.7487C0 73.1729 51.7134 55.748 115.5 55.748C179.287 55.748 231 73.2162 231 94.7487Z" fill="#666666"/>
</g>
<path d="M205.365 98.251C205.365 115.157 165.282 128.82 115.862 128.82C66.4427 128.82 26.3195 115.157 26.3195 98.251C26.3195 81.345 66.4024 67.6818 115.862 67.6818C165.322 67.6818 205.365 81.3882 205.365 98.251Z" fill="#6B818A"/>
<path d="M230.115 86.3173C230.115 108.239 179.126 127.22 115.902 127.22C52.6793 127.22 1.24756 108.239 1.24756 86.3173C1.24756 64.3957 52.4781 46.6249 115.661 46.6249C178.844 46.6249 230.074 64.3957 230.074 86.3173H230.115Z" fill="#8AA6B2"/>
<path d="M230.034 84.631C230.034 106.899 178.884 124.929 115.822 124.929C52.7598 124.929 1.60976 106.899 1.60976 84.631C1.60976 62.3635 52.7598 44.3333 115.822 44.3333C178.884 44.3333 230.034 62.3635 230.034 84.631Z" fill="#E9F5FD"/>
<g style="mix-blend-mode:screen">
<path d="M230.034 84.631C230.034 106.899 178.884 124.929 115.822 124.929C52.7598 124.929 1.60976 106.899 1.60976 84.631C1.60976 62.3635 52.7598 44.3333 115.822 44.3333C178.884 44.3333 230.034 62.3635 230.034 84.631Z" fill="white"/>
</g>
<path opacity="0.5" d="M217.76 82.4692C217.76 101.105 172.123 116.238 115.862 116.238C59.6012 116.238 13.9244 101.105 13.9244 82.4692C13.9244 63.8336 59.561 48.7003 115.822 48.7003C172.083 48.7003 217.719 63.8336 217.719 82.4692H217.76Z" fill="#D6E1E8"/>
<path d="M206.491 81.9503C206.491 99.6347 165.885 113.946 115.822 113.946C65.7585 113.946 25.1524 99.6347 25.1524 81.9503C25.1524 64.266 65.7585 49.9542 115.822 49.9542C165.885 49.9542 206.491 64.3092 206.491 81.9503Z" fill="#BBC5CD"/>
<g style="mix-blend-mode:screen">
<path d="M205.365 82.0368C205.365 98.5969 165.282 112.044 115.862 112.044C66.4427 112.044 26.3195 98.6402 26.3195 82.0368C26.3195 65.4334 66.4024 52.0729 115.862 52.0729C165.322 52.0729 205.365 65.4767 205.365 82.0368Z" fill="white"/>
</g>
<path d="M172.083 22.8296C172.083 22.8296 177.234 21.4893 179.327 21.3163C181.42 21.1434 182.587 14.8739 185.243 14.4415C187.899 14.0091 190.152 17.5114 189.066 19.63C187.979 21.7919 188.301 23.1323 189.227 24.7321C190.152 26.3319 190.555 27.975 189.227 29.7477C187.899 31.5205 179.488 34.0283 179.488 34.0283L172.646 31.2178C172.646 31.2178 170.393 25.5969 172.083 22.7864V22.8296Z" fill="#D3C1A9"/>
<g style="mix-blend-mode:multiply">
<path d="M189.106 19.63C189.307 19.2409 189.388 18.7653 189.388 18.2897C187.738 20.3651 184.599 21.446 185.444 24.8618C185.766 26.1157 186.41 27.6291 185.404 28.71C184.277 29.8774 181.902 27.8453 180.574 28.0615C178.844 28.3641 176.429 29.9207 175.101 27.802C174.82 27.3264 174.457 26.5914 174.739 26.0293C175.222 25.078 174.498 24.17 174.135 23.3053C174.015 23.0026 173.894 22.6999 173.813 22.3973C172.807 22.6567 172.083 22.8297 172.083 22.8297C170.393 25.5969 172.646 31.2611 172.646 31.2611L179.488 34.0715C179.488 34.0715 187.899 31.5637 189.227 29.791C190.555 28.0182 190.152 26.3752 189.227 24.7754C188.301 23.1756 187.979 21.8352 189.066 19.6733L189.106 19.63Z" fill="#D3C1A9"/>
</g>
<g style="mix-blend-mode:multiply">
<path d="M189.267 24.7322C188.341 23.1324 188.019 21.792 189.106 19.6301C189.307 19.241 189.388 18.8518 189.388 18.4194C189.066 19.5436 188.623 20.711 187.939 21.2731C186.45 22.527 185.685 24.4727 186.329 26.1158C186.893 27.5426 188.784 28.2345 187.698 30.9152C188.422 30.5261 188.945 30.1369 189.227 29.791C190.555 28.0183 190.152 26.3752 189.227 24.7754L189.267 24.7322Z" fill="#CBBCA5"/>
</g>
<path d="M181.782 32.1258C181.782 32.1258 188.744 28.7532 190.796 26.4183C192.849 24.0835 193.13 21.3595 195.666 20.7109C198.201 20.0624 199.932 23.997 198.805 25.5536C197.678 27.0669 197.316 29.6612 197.839 32.2555C198.362 34.8497 198.443 37.3143 196.27 39.0871C194.096 40.8598 193.332 39.4762 190.998 39.0871C188.663 38.6979 187.939 38.6114 183.552 41.5949C183.552 41.5949 181.017 35.5416 181.782 32.169V32.1258Z" fill="#E5D5BE"/>
<g style="mix-blend-mode:multiply">
<path d="M197.839 25.1212C195.465 26.2454 194.378 27.9749 194.579 29.9639C194.74 31.9528 197.155 32.904 196.793 34.8065C196.551 36.1901 197.759 37.6602 196.27 39.0438C198.443 37.2711 198.362 34.7633 197.839 32.2122C197.316 29.618 197.678 27.0669 198.805 25.5103C199.087 25.1212 199.167 24.6024 199.167 24.0835C198.885 24.4726 198.443 24.8618 197.839 25.1644V25.1212Z" fill="#E5D5BE"/>
</g>
<path d="M145.924 24.6457C145.924 24.6457 149.063 24.0836 154.899 23.8674C160.734 23.6944 164.155 23.4782 166.288 22.4405C168.421 21.3596 168.944 20.0192 170.232 20.3651C171.52 20.711 174.135 23.2188 173.451 24.6024C172.807 25.986 172.727 27.5858 174.055 28.5371C175.343 29.4883 175.544 31.0016 175.182 31.7799C174.82 32.5582 155.824 35.8443 155.824 35.8443L145.924 24.6889V24.6457Z" fill="#C15914"/>
<g style="mix-blend-mode:multiply" opacity="0.5">
<path d="M174.015 28.5371C172.727 27.5859 172.767 25.9861 173.411 24.6024C173.652 24.0836 173.411 23.3485 172.968 22.6567C172.848 23.3053 172.687 23.9539 172.365 24.5592C171.68 25.7699 171.721 26.7211 172.002 28.0615C172.485 30.699 169.346 30.3963 167.656 30.5693C165.684 30.7855 163.752 31.1314 161.821 31.3043C160.251 31.434 158.682 31.5205 157.434 30.3963C156.629 29.7045 155.865 28.7965 154.899 28.3209C153.893 27.7588 152.726 27.4994 151.76 26.8941C150.593 26.159 149.466 25.3375 148.5 24.343C146.81 24.516 145.924 24.6889 145.924 24.6889L155.824 35.8443C155.824 35.8443 174.82 32.5582 175.182 31.78C175.544 31.0017 175.343 29.4883 174.055 28.5371H174.015Z" fill="#C15914"/>
</g>
<path d="M41.25 89.5891C41.25 89.5891 41.411 85.6545 42.4171 82.4116C43.4634 79.1688 43.4634 77.8284 42.3366 74.0235C41.25 70.2185 40.4451 67.9269 43.3829 65.3326C46.3207 62.7383 53.122 59.582 56.0598 53.4854C58.9976 47.3889 67.5293 23.3485 93.1646 13.447C106.445 8.69087 125.118 8.25849 140.813 18.895C153.048 28.3641 159.728 33.6824 159.728 33.6824C159.728 33.6824 126.044 89.8918 119.162 93.3076C112.441 95.9883 107.129 94.0859 95.8207 94.648C84.5122 95.21 41.25 89.5891 41.25 89.5891Z" fill="#E67F27"/>
<g style="mix-blend-mode:screen" opacity="0.5">
<path d="M135.34 16.9061C130.954 14.1821 126.084 12.4093 121.094 11.6743C115.138 10.8095 108.659 10.8528 102.662 11.5878C96.5451 12.3228 90.7097 14.6145 85.3976 17.9438C84.5524 18.4626 83.7073 19.0247 82.9024 19.6301C80.85 20.7975 78.9183 22.1811 77.1073 23.8242C73.928 26.7211 71.2317 30.3963 68.8171 33.9851C66.4427 37.5306 63.9878 41.1626 61.9756 44.9675C60.9293 46.9132 58.9171 52.7504 60.5671 50.8479C62.7402 48.4698 64.3098 45.8323 65.3158 44.5784C70.6683 37.79 75.9 31.9096 83.5061 27.3264C91.3134 22.6567 98.3963 20.1057 108.659 20.9704C114.816 21.4893 121.698 23.9971 127.412 26.159C132.885 28.1912 146.609 34.8498 149.265 29.1424C150.955 25.4672 137.876 18.4194 135.34 16.8628V16.9061Z" fill="#E57428"/>
</g>
<g style="mix-blend-mode:multiply" opacity="0.5">
<path d="M99.9256 14.6576C100.65 15.9115 101.213 17.2952 102.099 18.4193C102.34 16.6033 101.294 15.0035 101.093 13.2308C101.093 13.1011 101.254 12.7552 101.415 12.8416C102.461 13.3605 103.266 14.2685 104.393 14.5712C105.318 14.7873 106.284 14.9171 107.21 14.9171C109.101 14.9171 110.993 14.4847 112.482 13.2308C111.194 13.5334 109.745 13.5767 108.457 13.447C107.411 13.3605 105.64 13.1875 105.238 11.8904C105.198 11.7175 105.359 11.458 105.52 11.458C106.646 11.3283 107.652 11.8904 108.739 11.9769C110.027 12.1066 111.315 11.9336 112.522 11.5013C113.407 11.1986 114.252 10.8095 115.098 10.3338C109.101 9.98793 103.266 10.6365 98.0341 11.9769C98.5573 12.9281 99.322 13.7064 99.8854 14.6576H99.9256Z" fill="#E57428"/>
</g>
<path d="M106.606 75.5367C107.411 71.6886 108.578 67.3648 110.349 63.9922C113.89 57.3335 117.15 51.0208 122.784 46.0052C128.459 40.9464 134.737 36.3199 142.101 34.9363C145.683 34.2445 149.305 33.7689 152.846 32.9473C154.335 32.6014 155.824 32.2123 157.313 31.7799C158.883 33.0338 159.728 33.6824 159.728 33.6824C159.728 33.6824 126.044 89.8917 119.162 93.3075C112.441 95.9883 107.129 94.0858 95.8207 94.6479C84.5122 95.21 41.25 89.5891 41.25 89.5891C41.25 89.5891 41.411 85.6544 42.4171 82.4116C42.6585 81.6765 42.8195 81.0712 42.9402 80.4659C45.1134 77.396 47.9305 74.8449 50.1037 71.775C51.5122 69.8293 52.8 67.7971 54.0073 65.7217C55.3354 63.4301 56.261 60.8358 57.8305 58.7604C59.0378 57.1606 60.0439 57.8524 60.4463 59.3657C60.5671 59.8414 61.05 60.0143 61.4927 59.9711C62.539 59.9711 63.8268 57.8956 64.511 57.2471C68.5354 53.5718 72.9219 49.8966 77.6707 47.3456C79.9646 46.1349 82.2585 44.9675 84.6329 44.0163C86.2829 43.3677 90.6293 41.3787 91.9171 43.6271C92.5207 44.6648 89.7439 47.3888 89.2207 48.2968C88.3756 49.7669 88.8988 51.7991 89.0195 53.3989C89.2207 55.8202 86.8463 56.7282 86.7659 58.9334C86.7256 60.7493 86.5646 62.1762 85.6793 63.8192C85.1561 64.857 84.5122 65.8514 84.0695 66.9756C83.6268 68.0566 81.6951 70.9967 82.7415 72.1642C83.3049 72.8127 84.6329 72.856 85.3976 72.9857C86.4841 73.1586 87.5707 73.2019 88.6171 73.5045C98.5171 76.3583 104.433 85.9571 106.566 75.6232L106.606 75.5367Z" fill="#C15B16"/>
<g style="mix-blend-mode:multiply" opacity="0.4">
<path d="M106.606 75.5367C107.411 71.6886 108.578 67.3648 110.349 63.9922C113.89 57.3335 117.15 51.0208 122.784 46.0052C128.459 40.9464 134.737 36.3199 142.101 34.9363C145.683 34.2445 149.305 33.7689 152.846 32.9473C154.335 32.6014 155.824 32.2123 157.313 31.7799C158.883 33.0338 159.728 33.6824 159.728 33.6824C159.728 33.6824 126.044 89.8917 119.162 93.3075C112.441 95.9883 107.129 94.0858 95.8207 94.6479C84.5122 95.21 41.25 89.5891 41.25 89.5891C41.25 89.5891 41.411 85.6544 42.4171 82.4116C42.6585 81.6765 42.8195 81.0712 42.9402 80.4659C45.1134 77.396 47.9305 74.8449 50.1037 71.775C51.5122 69.8293 52.8 67.7971 54.0073 65.7217C55.3354 63.4301 56.261 60.8358 57.8305 58.7604C59.0378 57.1606 60.0439 57.8524 60.4463 59.3657C60.5671 59.8414 61.05 60.0143 61.4927 59.9711C62.539 59.9711 63.8268 57.8956 64.511 57.2471C68.5354 53.5718 72.9219 49.8966 77.6707 47.3456C79.9646 46.1349 82.2585 44.9675 84.6329 44.0163C86.2829 43.3677 90.6293 41.3787 91.9171 43.6271C92.5207 44.6648 89.7439 47.3888 89.2207 48.2968C88.3756 49.7669 88.8988 51.7991 89.0195 53.3989C89.2207 55.8202 86.8463 56.7282 86.7659 58.9334C86.7256 60.7493 86.5646 62.1762 85.6793 63.8192C85.1561 64.857 84.5122 65.8514 84.0695 66.9756C83.6268 68.0566 81.6951 70.9967 82.7415 72.1642C83.3049 72.8127 84.6329 72.856 85.3976 72.9857C86.4841 73.1586 87.5707 73.2019 88.6171 73.5045C98.5171 76.3583 104.433 85.9571 106.566 75.6232L106.606 75.5367Z" fill="#C15914"/>
</g>
<path d="M168.541 57.2471C168.541 57.2471 173.129 65.592 177.194 72.2507C181.259 78.9093 184.599 81.2009 180.373 86.6922C176.107 92.1834 150.834 98.2799 135.421 97.6746C120.048 97.1125 112.079 91.578 110.671 86.9948C109.262 82.4116 144.637 100.312 168.541 57.2039V57.2471Z" fill="#C15914"/>
<g style="mix-blend-mode:multiply" opacity="0.5">
<path d="M180.655 77.5689C180.655 77.5689 180.655 77.958 180.655 78.1742C180.454 82.1089 178.28 85.6112 175.021 87.3839C170.634 89.762 165.885 90.3673 161.177 91.7077C156.267 93.0913 151.317 94.6911 146.287 95.5126C144.959 95.7288 136.91 96.3342 138.962 93.0048C139.888 91.4915 142.463 90.9294 143.952 90.4538C146.407 89.6323 148.822 88.8108 151.196 87.6866C158.159 84.314 163.954 78.9093 167.334 71.4723C168.501 68.8781 169.226 66.0244 170.433 63.4301C170.674 62.9545 170.916 62.4788 171.198 62.0465C169.628 59.236 168.541 57.2903 168.541 57.2903C144.637 100.442 109.262 82.5413 110.671 87.0812C112.079 91.6645 120.048 97.1557 135.421 97.761C150.794 98.3231 176.107 92.2698 180.373 86.7786C183.271 83.0601 182.627 80.7685 180.655 77.6554V77.5689Z" fill="#C15914"/>
</g>
<path d="M95.0963 8.21521C95.0963 8.21521 108.095 14.355 115.741 1.68628C112.844 10.4204 102.34 14.8739 95.0963 8.21521Z" fill="#D2A677"/>
<path d="M100.046 9.8582C100.046 9.8582 104.674 7.95573 108.578 2.20508C107.652 6.57211 102.702 11.458 100.046 9.8582Z" fill="#7FA95F"/>
<path d="M97.7927 9.25293C97.7927 9.25293 102.099 6.87484 101.213 0C103.91 5.49122 100.61 11.0689 97.7927 9.25293Z" fill="#4B8B2D"/>
<path d="M105.157 9.85822C105.157 9.85822 109.101 6.61537 111.435 0.691772C111.918 3.67519 108.135 10.3338 105.157 9.85822Z" fill="#68B42E"/>
<path d="M104.071 9.94476C104.071 9.94476 114.293 10.2474 117.432 7.95581C114.252 11.3716 105.479 12.0634 104.071 9.94476Z" fill="#4B8B2D"/>
<path d="M102.783 10.9392C102.783 10.9392 107.411 13.8361 112.401 13.0579C107.974 15.263 103.346 14.0956 99.5232 10.55C101.576 10.9824 102.743 10.9392 102.743 10.9392H102.783Z" fill="#68B42E"/>
<path d="M96.8268 9.33936C96.8268 9.33936 100.65 14.0091 102.018 18.3761C103.709 15.6089 99.0805 10.2474 99.0805 10.2474L96.8268 9.33936Z" fill="#458B28"/>
<path d="M101.495 11.458C101.495 11.458 106.163 14.3982 110.791 13.4902C109.101 14.8306 103.427 13.4902 101.495 11.458Z" fill="#ABDB91"/>
<path d="M106.324 9.29621C106.324 9.29621 109.383 6.70193 111.194 2.03223C110.952 4.32384 108.337 8.34497 106.324 9.29621Z" fill="#ABDB91"/>
<path d="M76.5439 73.0289C76.5439 73.0289 87.6512 74.1964 94.7744 77.8283C101.898 81.4603 106.002 85.9571 105.801 88.8108C105.64 91.6645 100.811 95.7721 88.0939 96.4639C75.3768 97.1125 67.0061 97.5881 58.1122 97.6746C49.2183 97.7611 47.689 95.9451 47.689 95.9451C47.689 95.9451 65.1951 90.3241 76.5439 73.0289Z" fill="#C15914"/>
<g style="mix-blend-mode:multiply" opacity="0.5">
<path d="M96.2232 78.8229C91.8366 75.8827 86.7659 74.0234 81.6549 73.8073C81.6549 73.8073 81.6146 73.8505 81.6549 73.8505C83.9488 74.1964 86.2427 74.7152 88.4158 75.5368C91.0317 76.5312 93.4061 78.1743 95.9817 79.1688C96.1024 79.212 96.3841 78.8661 96.2634 78.7796L96.2232 78.8229Z" fill="#C15914"/>
<path d="M100.57 81.9792C100.087 81.3739 99.4024 80.8983 98.7585 80.4659C98.1146 79.9903 97.5915 79.5579 96.8268 79.2985C96.7866 79.2985 96.6659 79.4282 96.7061 79.4714C97.9939 80.2065 99.161 81.3306 100.328 82.2819C100.449 82.3684 100.65 82.1089 100.57 81.9792Z" fill="#C15914"/>
</g>
<g style="mix-blend-mode:multiply" opacity="0.5">
<path d="M103.789 84.4438C104.111 85.9571 103.99 87.5137 103.065 88.9838C102.059 90.5403 100.248 91.4483 98.6378 92.0537C96.5451 92.832 94.4122 93.3076 92.1988 93.6102C87.0073 94.302 81.7756 94.475 76.5841 94.7777C74.4512 94.9074 72.3183 95.2965 70.1451 95.4262C68.7366 95.5127 62.9415 96.0748 64.189 92.9617C65.1549 90.4971 68.2939 90.2809 69.0585 87.7731C69.2598 87.0813 69.1793 85.9571 69.5817 85.395C70.1451 84.5735 71.0707 84.3141 71.8354 83.752C73.0024 82.8872 73.4049 81.3739 74.4915 80.4659C74.9744 80.0768 75.4976 79.8173 75.9805 79.4714C77.0671 78.6499 77.0268 77.5689 77.389 76.4015C77.7915 75.2341 78.5963 74.2396 79.5622 73.4181C77.7512 73.1154 76.5439 72.9857 76.5439 72.9857C65.2354 90.2809 47.689 95.9018 47.689 95.9018C47.689 95.9018 49.178 97.7178 58.1122 97.6314C67.0061 97.5449 75.3768 97.0693 88.0939 96.4207C100.811 95.7721 105.64 91.6645 105.801 88.7676C105.882 87.5569 105.157 86.0436 103.789 84.4005V84.4438Z" fill="#C15914"/>
</g>
<path d="M179.689 29.4883C179.689 29.4883 171.922 31.1745 153.852 33.077C139.163 34.9795 125.36 40.4707 115.098 57.9388C106.606 73.1586 101.656 89.5026 119.846 92.3563C136.829 94.2587 158.44 87.4271 166.368 70.3481C170.111 59.7116 174.216 48.1671 177.194 46.9564C179.689 45.9619 183.593 43.8865 184.116 42.6758C184.639 41.4652 184.237 38.2223 183.593 36.2334C182.989 34.2444 182.627 34.4174 183.19 32.6879C183.754 31.0016 183.311 30.1368 182.627 29.4018C181.943 28.6667 181.46 28.5803 179.649 29.445L179.689 29.4883Z" fill="#DB6C21"/>
<g style="mix-blend-mode:multiply" opacity="0.4">
<path d="M183.633 36.2334C183.029 34.2444 182.667 34.4174 183.23 32.6879C183.794 31.0016 183.351 30.1368 182.667 29.4018C181.983 28.6667 181.5 28.5803 179.689 29.445C179.689 29.445 173.532 30.7854 159.446 32.4284C160.774 32.7311 162.143 33.1635 163.35 33.8121C164.074 34.2012 164.96 34.6768 165.402 35.4551C166.207 36.9252 165.121 38.4818 164.356 39.6924C163.551 40.9463 162.465 42.3299 162.143 43.8433C161.74 45.5295 162.183 47.0429 162.505 48.6859C162.948 51.1505 162.988 53.7448 162.505 56.2093C160.493 66.2838 151.88 73.4613 143.832 78.0013C139.445 80.5091 134.737 82.498 129.907 83.8384C125.802 84.9626 121.013 86.1732 116.828 85.0058C112.522 83.7951 109.262 80.2496 108.015 75.6664C108.015 75.5799 108.015 75.4935 107.974 75.4502C106.324 83.8816 108.82 90.6267 119.927 92.3995C136.91 94.302 158.521 87.4704 166.449 70.3914C170.191 59.7548 174.296 48.2103 177.274 46.9996C179.77 46.0052 183.673 43.9297 184.196 42.7191C184.72 41.5084 184.317 38.2656 183.673 36.2766L183.633 36.2334Z" fill="#C15914"/>
</g>
<path d="M40.3646 93.9128C40.3646 93.9128 38.8354 88.0757 45.0732 79.8605C51.311 71.3858 55.2146 66.1973 56.5427 62.868C57.8305 59.5819 57.9512 58.0685 59.0378 58.0685C60.1244 58.0685 60.0841 60.3602 59.9634 62.5221C67.0463 56.2958 76.3024 49.2912 83.6671 45.4863C86.2427 44.3621 87.0878 44.2756 87.9329 43.8C88.7378 43.2812 90.5085 44.3621 89.4219 46.3943C88.2951 48.4265 87.1683 50.0695 87.5707 51.5396C87.9732 53.0097 88.5366 53.2691 87.4098 54.696C86.2829 56.1661 85.9207 56.9876 86.1219 58.7604C86.2829 60.5331 85.7195 61.9167 83.7476 63.9922C82.5 65.3325 82.7012 66.0676 82.3793 67.6674C82.0976 69.2672 81.5341 70.7805 79.2 72.3371C76.8256 73.9369 76.9061 74.6719 76.2622 76.142C75.6183 77.6121 75.0951 78.7363 73.4451 79.7308C72.5598 80.2496 73.4049 81.5035 68.4951 84.0546C67.3683 84.7464 67.6098 84.8761 67.8512 85.6544C68.0927 86.3894 68.2134 87.1245 65.839 88.681C63.7866 90.1511 62.2171 92.3563 55.4561 95.0802C49.9024 97.1557 48.2524 96.7233 45.7976 96.3342C43.3024 95.945 40.7268 95.1235 40.4451 93.9128H40.3646Z" fill="#DB6C21"/>
<path d="M85.0756 53.2692C84.5524 53.8745 84.311 54.7393 83.7476 55.3446C83.2244 55.9067 82.5 56.2958 82.0573 56.9012C81.8963 57.1174 81.7354 57.6795 82.1781 57.5065C82.9024 57.2471 83.5866 56.4688 84.1098 55.8635C84.3512 55.5608 84.5927 55.2149 84.7537 54.8257C84.9549 54.3934 85.0756 53.8313 85.3171 53.3989C85.4781 53.1395 85.2366 53.0962 85.0756 53.2692Z" fill="#C15914"/>
<path d="M82.0171 60.4467C81.2927 62.0897 80.0049 63.3869 78.5963 64.3381C78.3549 64.5111 77.872 65.5055 78.5159 65.2461C80.3268 64.5543 81.8561 62.2627 82.5 60.3602C82.661 59.8846 82.1378 60.144 82.0171 60.4035V60.4467Z" fill="#C15914"/>
<path d="M79.1195 67.4945C78.6366 68.9214 77.1476 69.0511 76.2622 70.0023C76.1415 70.132 75.9403 70.6941 76.2622 70.6077C77.0671 70.4347 77.872 69.6132 78.4354 69.0079C78.8378 68.6187 79.2402 67.9701 79.2402 67.3648C79.2402 67.2351 79.039 67.3648 79.039 67.4513L79.1195 67.4945Z" fill="#C15914"/>
<path d="M74.1293 74.0235C73.8073 74.4991 73.4451 74.8882 73.0829 75.3206C72.5195 75.9692 71.8354 76.2286 71.111 76.661C70.9098 76.7907 70.3866 77.6122 70.9098 77.569C71.7146 77.4825 72.4793 76.7475 73.0427 76.1854C73.6061 75.5368 74.089 74.845 74.411 74.0667C74.5317 73.764 74.2098 73.8937 74.1293 74.0667V74.0235Z" fill="#C15914"/>
<path d="M67.811 81.3739C67.6902 81.59 67.5293 81.7198 67.328 81.8927C67.1671 82.0224 67.0866 82.1954 66.9256 82.3251C66.5634 82.5845 66.1207 82.6278 65.7585 82.8872C65.5976 83.0169 65.1549 83.6222 65.5976 83.6222C66.161 83.6222 66.7244 83.1899 67.1268 82.8007C67.489 82.4548 67.9317 81.8062 67.9719 81.2874C67.9719 81.1577 67.8512 81.2441 67.811 81.2874V81.3739Z" fill="#C15914"/>
<path d="M63.4244 86.5624C63.2634 86.9083 62.7 87.1677 62.4585 87.3839C62.0561 87.6866 61.6537 87.9028 61.211 87.9893C60.9695 88.0757 60.4866 88.8108 60.9695 88.8108C61.6537 88.8108 62.2171 88.3352 62.7402 87.9028C63.1829 87.5136 63.7463 87.0813 63.9073 86.4327C63.9878 86.0868 63.5451 86.4327 63.5049 86.5192L63.4244 86.5624Z" fill="#C15914"/>
<path d="M133.972 44.0595C133.972 44.0595 133.771 43.8866 133.65 43.9298C133.409 43.9298 133.127 44.146 132.926 44.3189C132.684 44.5351 132.523 44.7946 132.402 45.0972C132.282 45.3566 132.282 45.7458 132.563 45.8755C132.684 45.9187 132.885 45.8755 133.006 45.789C133.167 45.7025 133.248 45.5728 133.368 45.4431C133.529 45.2702 133.65 45.054 133.73 44.7945C133.811 44.7081 133.851 44.6216 133.891 44.5351C133.932 44.4054 133.972 44.2325 133.932 44.1027L133.972 44.0595Z" fill="black"/>
<path d="M137.312 47.3456C136.789 47.3456 136.024 48.686 136.789 48.686C137.312 48.686 138.077 47.3456 137.312 47.3456Z" fill="black"/>
<path d="M130.551 49.594C130.35 49.5076 130.109 49.767 129.988 49.9399C129.907 50.0697 129.827 50.2426 129.907 50.3723C129.988 50.5453 130.189 50.502 130.31 50.3723C130.471 50.2859 130.994 49.6373 130.591 49.5076L130.551 49.594Z" fill="black"/>
<path d="M129.746 55.6473C129.344 55.6473 128.78 56.6418 129.344 56.6418C129.746 56.6418 130.31 55.6473 129.746 55.6473Z" fill="black"/>
<path d="M143.711 42.6327C143.711 42.6327 143.711 42.5895 143.711 42.5462C143.711 42.5462 143.711 42.4598 143.711 42.3733C143.711 42.2868 143.671 42.1571 143.55 42.1571C143.55 42.1571 143.51 42.1571 143.47 42.1571C143.228 42.1571 142.987 42.4598 142.866 42.7192C142.785 42.8922 142.785 43.1948 143.067 43.1948C143.067 43.1948 143.148 43.1948 143.188 43.1948C143.309 43.1516 143.429 43.0219 143.51 42.9354C143.51 42.9354 143.51 42.9354 143.51 42.8922C143.51 42.8489 143.51 42.8057 143.55 42.7624L143.711 42.6327Z" fill="black"/>
<path d="M146.367 42.8922C146.126 42.8489 145.884 43.0651 145.763 43.2813C145.643 43.4975 145.482 43.8866 145.804 43.9731C146.045 44.0163 146.448 43.6272 146.448 43.3245C146.528 43.1084 146.528 42.9354 146.367 42.8922Z" fill="black"/>
<path d="M121.577 57.1174C121.577 57.1174 121.335 56.858 121.134 56.9012C121.054 56.9012 120.973 57.0309 120.973 57.1174C120.973 57.2039 120.973 57.2904 121.054 57.3768C120.933 57.6363 120.691 57.8957 120.732 58.2416C120.772 58.5443 121.134 58.674 121.376 58.501C121.657 58.2848 121.778 57.9822 121.778 57.593C121.778 57.4201 121.657 57.2471 121.577 57.0742V57.1174Z" fill="black"/>
<path d="M152.001 40.9032C152.001 40.9032 152.001 40.6438 152.001 40.5573C152.001 40.5573 151.961 40.5141 151.921 40.5141C151.639 40.3411 151.478 40.9897 151.478 41.2059C151.478 41.4653 151.76 41.4653 151.88 41.2924C151.88 41.2924 151.921 41.2059 151.961 41.1627C151.961 41.1194 152.041 41.0329 152.041 40.9897L152.001 40.9032Z" fill="black"/>
<path d="M119.202 63.3436C119.202 63.3436 119.082 63.0842 119.041 62.9545C119.041 62.6951 118.719 62.9545 118.679 63.0842C118.478 63.3869 118.357 63.8625 118.679 63.9922C118.88 64.0787 119.082 63.776 119.162 63.6463C119.162 63.5598 119.243 63.4301 119.162 63.3436H119.202Z" fill="black"/>
<path d="M116.305 74.5856C116.305 74.5856 116.063 74.6721 116.023 74.7585C116.023 74.7585 116.023 74.7585 116.023 74.845C115.862 75.0179 115.782 75.4071 116.023 75.4936C116.184 75.58 116.345 75.2774 116.385 75.1477C116.426 75.0179 116.466 74.7153 116.305 74.6288V74.5856Z" fill="black"/>
<path d="M111.315 78.0446C111.315 78.0446 111.315 78.0013 111.274 78.0013C110.832 77.6554 110.429 78.3472 110.349 78.7364C110.268 79.0823 110.389 80.0335 110.912 79.6444C111.315 79.3417 111.677 78.5634 111.355 78.0878L111.315 78.0446Z" fill="black"/>
<path d="M122.261 79.947C122.261 79.947 121.939 79.9903 121.859 80.12C121.738 80.2065 121.657 80.3362 121.617 80.4226C121.416 80.7253 121.295 81.3739 121.617 81.6765C121.939 82.0224 122.382 81.2442 122.462 80.9847C122.623 80.6821 122.744 79.9903 122.301 79.947H122.261Z" fill="black"/>
<path d="M69.0585 61.3547C69.0585 61.3547 68.978 61.225 68.8976 61.1818C68.8171 61.1386 68.6963 61.225 68.6158 61.3115C68.4951 61.398 68.4549 61.5277 68.4146 61.6574C68.3341 61.8736 68.2939 62.2195 68.5354 62.306C68.7768 62.3925 69.0585 61.9601 69.139 61.7439C69.1793 61.5709 69.139 61.4845 69.0585 61.398V61.3547Z" fill="black"/>
<path d="M59.6012 68.2728C59.6012 68.2728 59.3597 68.0999 59.239 68.0999C58.9976 68.0999 58.7963 68.316 58.6756 68.489C58.6756 68.5322 58.5951 68.6187 58.5549 68.7052C58.5549 68.7484 58.5146 68.8349 58.4744 68.8781C58.4744 68.8781 58.4744 68.9214 58.4744 68.9646C58.4744 69.0943 58.4744 69.1808 58.5951 69.2673C58.9171 69.4835 59.3195 69.0511 59.4805 68.7917C59.6012 68.6187 59.6415 68.4458 59.6012 68.2296V68.2728Z" fill="black"/>
<path d="M60.8085 70.7806C60.8085 70.7806 60.5671 70.6077 60.4061 70.6941C60.2854 70.7806 60.1244 70.9968 60.0841 71.1697C60.0439 71.2995 60.0439 71.4724 60.1646 71.5589C60.2049 71.5589 60.2451 71.5589 60.3256 71.5589C60.3256 71.5589 60.4061 71.5589 60.4463 71.5589C60.5268 71.5589 60.5671 71.4724 60.6073 71.4292C60.6476 71.4292 60.6878 71.3427 60.728 71.2995C60.8488 71.1697 60.889 70.9536 60.8085 70.7806Z" fill="black"/>
<path d="M66.161 70.0888C66.161 70.0888 65.9195 69.8727 65.7585 69.9591C65.5573 69.9591 65.2756 70.2186 65.1146 70.305C64.8732 70.5212 64.6719 70.8239 64.6317 71.1266C64.6317 71.4292 64.9537 71.4725 65.1549 71.4292C65.6378 71.3428 66.2817 70.6509 66.161 70.0456V70.0888Z" fill="black"/>
<path d="M54.8927 74.0235C54.8927 74.0235 54.6915 74.1965 54.7719 74.2397C54.8927 74.283 55.0134 74.4127 55.0939 74.4991C55.1744 74.6289 55.1744 74.8018 55.3354 74.845C55.4561 74.8883 55.6171 74.6721 55.6171 74.5856C55.6976 74.1532 55.1744 73.9803 54.8524 74.0235H54.8927Z" fill="black"/>
<path d="M54.9329 78.1311C54.9329 78.1311 54.772 78.0446 54.7317 78.0014C54.7317 78.0014 54.6915 77.9581 54.6512 77.9149C54.611 77.8284 54.6512 77.8284 54.5707 77.9149C54.611 77.9149 54.7317 77.6555 54.5707 77.6987C54.2085 77.8284 54.3293 78.6067 54.7317 78.5635C54.8524 78.5635 55.1341 78.2176 54.9329 78.1311Z" fill="black"/>
<path d="M50.3854 82.5414C50.3854 82.5414 50.2244 82.5414 50.1439 82.5414C49.9024 82.5414 49.661 82.7576 49.5 82.9738C49.339 83.19 49.2183 83.5359 49.2585 83.8385C49.2585 84.1844 49.6207 84.3141 49.8622 84.1844C50.1439 84.0115 50.3049 83.7088 50.4256 83.4494C50.5061 83.2332 50.6671 82.6711 50.3451 82.5846L50.3854 82.5414Z" fill="black"/>
<path d="M46.4012 86.1734C46.4012 86.1734 46.2805 86.2166 46.2 86.2598C46.2 86.2598 46.1598 86.2598 46.1195 86.3031C45.9183 86.476 45.7976 86.6922 45.7171 86.9517C45.6768 87.1678 45.7171 87.5137 45.9988 87.4705C46.2 87.4705 46.361 87.2111 46.4415 87.0381C46.5219 86.9084 46.7634 86.1301 46.4012 86.1734Z" fill="black"/>
<path d="M64.9134 50.9344C64.9134 50.9344 64.7927 50.8479 64.7122 50.8911C64.35 50.8047 63.9878 51.3235 63.8671 51.6262C63.7866 51.8424 63.5451 52.8368 64.028 52.7504C64.1488 52.7504 64.2293 52.6639 64.3097 52.5774C64.4305 52.4909 64.5512 52.318 64.6317 52.145C64.6317 52.1018 64.6719 52.0153 64.7122 51.9288C64.7122 51.8424 64.7927 51.7991 64.7927 51.7559C64.9134 51.4965 65.0744 51.1938 64.8732 50.9776L64.9134 50.9344Z" fill="black"/>
<path d="M60.6878 51.4101C60.6878 51.4101 60.3659 51.4533 60.2451 51.583C60.1646 51.7127 60.0841 51.8857 60.0439 52.0586C60.0037 52.2316 59.9634 52.4478 59.9634 52.6207C59.9634 52.7504 60.0439 52.8801 60.1646 52.8801C60.3256 52.8801 60.4463 52.7072 60.5268 52.5775C60.6073 52.4478 60.728 52.1883 60.728 51.9289C60.728 51.756 60.8085 51.4965 60.6476 51.3668L60.6878 51.4101Z" fill="black"/>
<path d="M69.5415 42.8488C69.5415 42.8056 69.5415 42.7624 69.5012 42.7191C69.2597 42.5894 69.0988 43.1515 69.0585 43.2812C69.0585 43.4542 68.978 43.9298 69.2597 43.8433C69.5817 43.8001 69.6622 43.065 69.5415 42.8488Z" fill="black"/>
<path d="M69.139 38.4819C68.8171 38.3522 68.5756 38.871 68.4951 39.1305C68.4549 39.3467 68.4146 39.5196 68.3744 39.7358C68.3744 39.8655 68.3341 39.9952 68.3744 40.1249C68.3744 40.2114 68.4146 40.3411 68.5354 40.3411C68.6963 40.3844 68.8975 40.1249 68.978 39.9952C69.2195 39.5629 69.2195 39.044 69.2195 38.5684C69.2195 38.5251 69.2195 38.4819 69.139 38.4819Z" fill="black"/>
<path d="M76.4232 38.0927C76.4232 38.0927 76.3024 37.79 76.1817 37.6603C76.1817 37.6603 76.1012 37.5739 76.0207 37.5739C75.9805 37.5739 75.9402 37.5739 75.9 37.5739C75.9 37.5739 75.8598 37.5739 75.8195 37.6171C75.8195 37.6171 75.8195 37.6171 75.7793 37.6171H75.6988C75.4171 37.8333 75.4976 38.3089 75.7793 38.5251C76.1012 38.7845 76.5037 38.3954 76.4232 38.0062V38.0927Z" fill="black"/>
<path d="M78.9183 35.8443C78.9183 35.6714 78.7976 35.4552 78.5963 35.5417C78.2744 35.6714 78.2341 36.1902 78.2744 36.4929C78.3549 36.9253 78.7976 36.7091 78.878 36.4064C78.9183 36.2767 78.9585 36.0605 78.878 35.8443H78.9183Z" fill="black"/>
<path d="M75.0951 34.6337C75.0951 34.6337 74.9341 34.6337 74.8537 34.7634C74.7329 34.8066 74.6927 34.9363 74.6524 35.066C74.6524 35.1093 74.6524 35.1525 74.6524 35.1525C74.6122 35.3255 74.5719 35.5417 74.6524 35.6714C74.6524 35.7579 74.7732 35.7146 74.8134 35.6714C75.0951 35.4552 75.1354 35.1093 75.1354 34.7634C75.1354 34.7201 75.1354 34.6337 75.1354 34.6337H75.0951Z" fill="black"/>
<path d="M75.0146 31.3043C75.0146 31.3043 74.9341 31.2611 74.8939 31.2611C74.411 31.2611 74.0085 32.0394 73.9683 32.515C73.928 32.6447 73.8476 32.8177 73.9683 32.9042C74.2098 33.1203 74.6122 32.515 74.6927 32.3421C74.8537 32.0826 75.0951 31.6502 74.9744 31.3043H75.0146Z" fill="black"/>
<path d="M68.7768 34.8066C68.7768 34.8066 68.6561 34.8499 68.6158 34.8931C68.3341 34.8931 68.0524 35.3687 67.9719 35.5417C67.9317 35.7146 67.8915 35.9308 68.0524 36.0605C68.2536 36.1902 68.4951 35.974 68.6158 35.8443C68.7768 35.6714 68.8975 35.412 68.978 35.1958C69.0183 34.9796 69.0183 34.7201 68.7768 34.8066Z" fill="black"/>
<path d="M89.6232 32.1691C89.4622 31.8664 89.1402 32.2123 89.0195 32.3853C89.0195 32.3853 89.0195 32.4285 88.9793 32.4717C88.8585 32.6447 88.7378 32.8176 88.6573 33.0338C88.6573 33.1203 88.6171 33.2068 88.6976 33.25C88.939 33.3797 89.2207 33.1203 89.3817 32.9474C89.5427 32.7744 89.7439 32.4285 89.6232 32.1691Z" fill="black"/>
<path d="M87.5707 28.1479V28.0614C87.2488 27.975 87.0073 28.2344 86.8866 28.5803C86.7659 28.8397 86.7659 29.2289 87.128 29.2289C87.5305 29.2289 87.8927 28.3641 87.5707 28.1912V28.1479Z" fill="black"/>
<path d="M82.5805 29.2289C82.5805 29.2289 82.339 29.2289 82.2585 29.3154C82.1378 29.3154 82.0171 29.4451 81.9366 29.5316C81.8158 29.7046 81.6951 30.0072 81.8158 30.2234C81.8963 30.4396 82.178 30.3531 82.339 30.2234C82.5402 30.0937 82.7012 29.8775 82.7817 29.6613C82.8622 29.4884 82.8622 29.2289 82.661 29.1425L82.5805 29.2289Z" fill="black"/>
<path d="M82.8622 25.5969C82.5805 25.5537 82.3793 25.8131 82.2183 26.0293C82.1378 26.159 82.0976 26.2887 82.0573 26.4185C82.0573 26.5482 82.0573 26.5914 82.178 26.6346C82.3793 26.7211 82.661 26.5914 82.7817 26.4617C82.8219 26.4617 82.8622 26.4617 82.9024 26.4617C83.1037 26.4185 83.1841 26.2023 83.1841 26.0293C83.1841 25.7699 82.9829 25.6834 82.7817 25.6834L82.8622 25.5969Z" fill="black"/>
<path d="M102.139 26.8941C102.139 26.8941 102.139 26.7212 102.059 26.6347C101.898 26.4617 101.616 26.6779 101.495 26.8076C101.334 26.9806 101.093 27.3265 101.254 27.5859C101.374 27.8021 101.535 27.8021 101.737 27.7589C102.059 27.6724 102.38 27.1968 102.22 26.8941H102.139Z" fill="black"/>
<path d="M96.9476 23.9539C96.9476 23.9539 96.8671 23.9539 96.7866 23.9539C96.7866 23.9107 96.7061 23.8675 96.6658 23.8242C96.5854 23.8242 96.4646 23.9539 96.4244 23.9972C96.3439 24.2998 96.5451 24.7322 96.8268 24.8187C97.028 24.8619 97.189 24.6025 97.189 24.4295C97.189 24.2134 97.028 24.0836 96.9073 23.9539H96.9476Z" fill="black"/>
<path d="M96.9878 21.9217C96.9878 21.9217 97.028 21.8352 96.9878 21.792C96.9878 21.792 96.9476 21.792 96.9073 21.792C96.8268 21.792 96.7866 21.8785 96.7463 21.9217C96.7463 22.0947 96.5854 22.3108 96.6658 22.4406C96.7463 22.6135 96.9073 22.6135 97.028 22.4838C97.1488 22.3973 97.189 22.2244 97.189 22.0947C97.189 21.9649 97.0683 21.8785 96.9476 21.9217H96.9878Z" fill="black"/>
<path d="M94.0098 19.3707C94.0098 19.3707 93.8488 19.3274 93.7683 19.3707C93.4463 19.4571 93.2854 19.8463 93.5268 20.1057C93.6476 20.2354 93.8488 20.1057 93.9695 20.0192C93.9695 19.976 94.0098 19.9328 94.05 19.8895C94.0902 19.8895 94.1305 19.803 94.1305 19.803C94.1707 19.6301 94.1305 19.5004 93.9695 19.4139L94.0098 19.3707Z" fill="black"/>
<path d="M99.2012 16.9925C98.9597 16.6899 98.5171 17.2952 98.4768 17.5114C98.4768 17.5979 98.4768 17.6411 98.5573 17.6411C98.6378 17.6411 98.7183 17.6411 98.7988 17.6411C98.7988 17.6411 98.8793 17.5979 98.9598 17.5114C99 17.5114 99.0805 17.5114 99.1207 17.4681C99.2415 17.3384 99.3219 17.1655 99.2012 16.9925Z" fill="black"/>
<path d="M90.2268 19.3707C90.2268 19.3707 90.3073 19.1978 90.3073 19.1113C90.3073 18.8519 90.0658 18.8519 89.8646 18.8951C89.6634 18.9816 89.4219 19.241 89.3817 19.4572C89.3817 19.5437 89.3817 19.5869 89.4219 19.5869C89.4219 19.6301 89.4219 19.6734 89.4622 19.7166C89.5829 19.8463 89.7841 19.7166 89.9451 19.6734C89.9854 19.6734 90.0658 19.5869 90.1061 19.5437C90.1463 19.5437 90.2268 19.4572 90.2268 19.3707Z" fill="black"/>
<path d="M87.128 20.3652C87.128 20.322 87.128 20.2355 87.0878 20.2355C86.8061 20.2355 86.4439 20.7976 86.8061 20.9273C87.0878 21.0138 87.4902 20.4517 87.128 20.3652Z" fill="black"/>
<path d="M121.859 19.4572C121.859 19.4572 121.617 19.3707 121.496 19.414C121.215 19.5004 120.893 19.9328 121.094 20.2355C121.174 20.3652 121.335 20.3652 121.456 20.322C121.657 20.2787 121.778 20.149 121.859 19.9761C121.899 19.8896 121.899 19.8031 121.899 19.7599C121.899 19.6302 121.899 19.5869 121.778 19.5004L121.859 19.4572Z" fill="black"/>
<path d="M125.601 16.9926C125.601 16.9926 125.4 16.7764 125.279 16.7332C125.078 16.7332 124.917 16.8629 124.837 16.9926C124.756 17.1655 124.676 17.3817 124.756 17.5547C124.877 17.7276 125.078 17.5979 125.199 17.4682C125.199 17.4682 125.239 17.3817 125.279 17.3385C125.279 17.3385 125.279 17.3385 125.279 17.3817C125.561 17.5547 125.682 17.2088 125.601 16.9493V16.9926Z" fill="black"/>
<path d="M135.582 21.6623C135.582 21.6623 135.38 21.3597 135.219 21.4029C135.018 21.4461 134.898 21.7488 134.898 21.9218C134.898 22.0947 134.978 22.3109 135.139 22.4406C135.34 22.5703 135.582 22.3974 135.662 22.1812C135.743 22.0082 135.662 21.8353 135.582 21.6623Z" fill="black"/>
<path d="M108.457 18.8951C108.457 18.8951 108.457 18.8086 108.417 18.8086H108.337C108.296 18.8086 108.256 18.8086 108.216 18.8086C108.135 18.8086 108.015 18.8086 107.934 18.8951C107.813 19.0248 107.652 19.3274 107.894 19.4139C108.095 19.5004 108.337 19.2842 108.417 19.1113C108.417 19.068 108.417 18.9815 108.417 18.9383C108.417 18.9383 108.417 18.9383 108.417 18.8951H108.457Z" fill="black"/>
<path d="M104.956 16.8629C104.795 16.5602 104.433 16.2575 104.071 16.3008C103.829 16.3008 103.507 16.3872 103.346 16.6467C103.226 16.8629 103.266 17.0358 103.507 17.1223C103.628 17.1655 103.789 17.1223 103.91 17.1223C104.151 17.0791 104.393 17.2088 104.634 17.252C104.715 17.252 104.916 17.0791 104.916 16.9493V16.8629H104.956Z" fill="black"/>
<path d="M78.5158 25.6835C78.5158 25.6835 78.2341 25.8132 78.1537 25.9429C78.1537 25.9429 78.1134 26.0294 78.0732 26.1159C77.9927 26.2456 77.9122 26.505 78.0732 26.5915C78.1537 26.5915 78.2341 26.5482 78.3146 26.4618C78.3951 26.4185 78.4756 26.2888 78.5158 26.2023C78.5158 26.1591 78.5963 26.1159 78.5963 26.0726C78.5963 25.9429 78.7171 25.7267 78.5158 25.7267V25.6835Z" fill="black"/>
<path d="M105.519 43.9731C105.519 43.9731 105.359 43.8434 105.198 43.8001C105.198 43.8001 105.198 43.7569 105.198 43.7136C105.198 43.7136 105.198 43.6704 105.198 43.6272C105.198 43.6272 105.157 43.6272 105.117 43.6272C105.037 43.4975 104.876 43.8001 104.876 43.8434C104.876 44.0596 104.876 44.2757 105.037 44.4055C105.198 44.6217 105.439 44.2757 105.519 44.1028C105.519 44.0596 105.519 43.9731 105.519 43.9298V43.9731Z" fill="black"/>
<path d="M97.7927 39.9087C97.7927 39.9087 97.7122 39.6926 97.5914 39.6493V39.6061C97.4707 39.4331 97.2695 39.3467 97.1488 39.1737C97.028 39.044 96.8268 39.3467 96.8268 39.4331C96.8268 39.6493 96.9475 39.8223 97.028 40.0385C97.1085 40.2114 97.2695 40.4276 97.4707 40.4276C97.6719 40.4276 97.8329 40.1249 97.7927 39.9087Z" fill="black"/>
<path d="M158.038 25.251C158.038 25.251 157.917 25.2078 157.877 25.251C157.877 25.251 157.837 25.251 157.796 25.251C157.676 25.251 157.555 25.3375 157.474 25.424C157.354 25.5969 157.233 26.0725 157.434 26.2455C157.595 26.4185 157.837 26.0725 157.957 25.9428C158.078 25.7699 158.199 25.4672 158.038 25.251Z" fill="black"/>
<path d="M159.326 27.975C159.326 27.975 159.245 27.9318 159.205 27.9318C159.124 27.9318 159.084 27.9318 159.004 28.0182C158.883 28.0615 158.802 28.148 158.762 28.2777C158.641 28.4939 158.883 28.5803 159.084 28.6236C159.165 28.6236 159.205 28.6236 159.285 28.6236C159.326 28.6236 159.366 28.6236 159.406 28.6236C159.527 28.6236 159.688 28.4074 159.688 28.2777C159.688 28.1047 159.487 28.0182 159.366 28.0182L159.326 27.975Z" fill="black"/>
<path d="M163.31 26.5481C163.31 26.5481 163.31 26.4184 163.31 26.3752C163.229 26.2887 163.109 26.2887 163.028 26.3752C162.867 26.4616 162.787 26.6346 162.746 26.8508C162.746 27.0237 162.746 27.1967 162.907 27.2832C163.028 27.3264 163.189 27.1534 163.269 27.067C163.35 26.9805 163.39 26.8075 163.39 26.6778L163.31 26.5481Z" fill="black"/>
<path d="M167.978 25.9861C167.978 25.9861 167.978 25.9861 167.978 25.9429C167.978 25.8996 167.978 25.8564 167.978 25.7699C167.978 25.7267 167.938 25.6834 167.898 25.6834C167.857 25.6834 167.777 25.6834 167.737 25.6834C167.656 25.6402 167.535 25.6402 167.415 25.6834C167.254 25.6834 166.972 25.8564 167.052 26.1158C167.133 26.2888 167.374 26.332 167.535 26.332C167.656 26.332 167.777 26.2888 167.857 26.159C167.898 26.2023 168.018 26.0726 168.018 25.9861H167.978Z" fill="black"/>
<path d="M82.2988 29.3587C82.2988 29.3587 82.178 29.3587 82.1378 29.4019C82.0573 29.4451 81.9366 29.6181 82.0171 29.7046C82.0171 29.7478 82.0976 29.7478 82.1378 29.7478C82.2988 29.7478 82.5402 29.3154 82.2988 29.3154V29.3587Z" fill="white"/>
<path d="M82.9024 25.5537C82.9024 25.5537 82.5 25.9861 82.7415 25.9861C82.9024 25.9861 83.1439 25.5537 82.9024 25.5537Z" fill="white"/>
<path d="M101.938 26.7211C101.938 26.7211 101.455 27.1967 101.737 27.1967C101.938 27.1967 102.22 26.7211 101.938 26.7211Z" fill="white"/>
<path d="M74.6927 31.4773C74.6927 31.4773 74.25 31.9097 74.4915 31.9097C74.6524 31.9097 74.9341 31.4773 74.6927 31.4773Z" fill="white"/>
<path d="M64.2293 51.1506C64.2293 51.1506 64.189 51.2371 64.1488 51.2803C64.1085 51.3668 63.9878 51.5398 64.0683 51.6262C64.1488 51.7127 64.3098 51.583 64.35 51.4965C64.4707 51.3668 64.5915 51.2371 64.5915 51.0209C64.5915 50.7615 64.2695 51.0209 64.2293 51.1506Z" fill="white"/>
<path d="M133.73 44.0164C133.449 44.1028 133.207 44.319 133.006 44.5785C132.885 44.7514 132.966 44.9676 133.127 44.7946C133.328 44.6217 133.529 44.492 133.73 44.319C133.811 44.2758 133.891 44.0164 133.73 44.0596V44.0164Z" fill="white"/>
<path d="M65.3561 70.3915C65.3561 70.3915 64.9537 70.7806 65.1951 70.7806C65.3561 70.7806 65.5976 70.3915 65.3561 70.3915Z" fill="white"/>
<path d="M121.537 19.4572C121.537 19.4572 121.134 19.8895 121.376 19.8895C121.537 19.8895 121.778 19.4572 121.537 19.4572Z" fill="white"/>
<path d="M111.033 77.9582C111.033 77.9582 110.791 78.0879 110.751 78.1311C110.751 78.1743 110.711 78.2608 110.711 78.3041C110.711 78.6067 111.113 78.3041 111.113 78.0879C111.113 78.0446 111.113 77.9582 111.033 77.9149V77.9582Z" fill="white"/>
<path d="M49.9829 82.5414C49.7817 82.5414 49.4598 83.0602 49.7817 83.0602C49.9829 83.0602 50.3049 82.5414 49.9829 82.5414Z" fill="white"/>
<path d="M146.287 43.238C146.287 43.238 145.965 43.5839 146.166 43.5839C146.287 43.5839 146.488 43.238 146.287 43.238Z" fill="white"/>
<path d="M157.796 25.251C157.796 25.251 157.394 25.6401 157.635 25.6401C157.796 25.6401 158.038 25.251 157.796 25.251Z" fill="white"/>
<g style="mix-blend-mode:screen">
<path d="M94.2512 14.0091C89.9049 14.9603 85.7598 17.7708 82.1378 20.3651C80.1659 21.7919 78.3146 23.3917 76.5439 25.1212C74.8939 26.7643 73.5658 28.6667 71.9963 30.3963C71.8756 30.526 71.9561 30.6557 72.0768 30.526C73.5659 29.1856 74.7732 27.4128 76.222 26.0292C78.0732 24.2132 80.0049 22.527 82.1378 21.1001C83.989 19.8462 85.9207 18.722 87.9329 17.7708C89.9451 16.8195 92.078 16.2142 94.0098 15.09C94.211 14.9603 94.8549 13.8794 94.211 14.0091H94.2512Z" fill="#E57428"/>
<path d="M142.222 23.9971C141.095 21.9649 139.043 20.6245 137.312 19.2409C135.38 17.6411 133.087 16.5602 130.833 15.6089C128.7 14.7009 126.366 13.7929 124.112 13.3173C121.577 12.7985 118.921 12.7985 116.385 12.5823C116.265 12.5823 116.023 12.8849 116.184 12.9282C118.277 13.3173 120.37 13.5335 122.422 14.0091C124.716 14.528 126.728 15.6954 128.941 16.5602C131.276 17.4682 133.61 18.8085 135.541 20.4948C136.507 21.3596 137.433 22.2676 138.439 23.0891C139.365 23.8241 139.807 24.9051 140.894 25.5104C141.457 25.8131 142.624 24.6889 142.262 24.0403L142.222 23.9971Z" fill="#E57428"/>
<path d="M147.454 28.4506C147.172 27.7156 146.528 27.2832 145.965 26.8076C145.361 26.2887 144.596 25.9428 143.872 25.7266C143.59 25.6402 142.987 26.3752 143.268 26.5914C143.912 27.0238 144.355 27.5859 144.918 28.1047C145.441 28.6236 145.844 29.3154 146.528 29.6181C146.971 29.791 147.615 28.883 147.454 28.4506Z" fill="#E57428"/>
</g>
<g style="mix-blend-mode:screen" opacity="0.5">
<path d="M124.555 47.9078C120.49 50.675 118.196 54.5664 115.58 58.7605C112.844 63.1708 111.274 68.4025 109.745 73.4182C109.665 73.6343 109.906 73.5046 109.946 73.4182C111.838 69.0511 113.045 64.1652 115.5 60.1009C116.748 57.9822 118.076 55.7338 119.565 53.7881C121.054 51.8424 122.865 50.4156 124.716 48.9022C125.118 48.5563 125.239 47.4754 124.555 47.9942V47.9078Z" fill="#DB6C21"/>
<path d="M148.299 36.1902C146.448 35.8876 144.677 36.5361 142.866 37.0117C141.015 37.4441 139.244 38.0927 137.513 38.871C134.093 40.3843 130.873 41.8976 127.976 44.4487C127.493 44.881 127.573 45.7026 128.257 45.1837C133.932 40.7302 140.773 39.2169 147.494 37.8333C147.896 37.7468 149.063 36.3632 148.299 36.2335V36.1902Z" fill="#DB6C21"/>
</g>
<g style="mix-blend-mode:screen" opacity="0.5">
<path d="M52.2366 71.775C49.5402 74.7152 47.2463 78.131 44.9524 81.4171C43.9866 82.8007 43.1817 84.4005 42.578 86.0435C41.9341 87.8595 42.0951 89.5458 41.7329 91.3618C41.7329 91.4915 41.8939 91.3618 41.9341 91.3186C42.4171 89.762 42.4573 88.119 42.9402 86.5624C43.5841 84.5735 44.6707 82.8007 45.878 81.1577C48.1317 78.131 50.3854 75.1043 52.6793 72.1209C53.0817 71.6021 52.6793 71.2562 52.2366 71.7318V71.775Z" fill="#DB6C21"/>
<path d="M59.0781 61.8303C58.0317 61.7871 57.4683 62.6518 56.9049 63.4733C55.9793 64.857 55.6976 66.6297 54.6915 67.9701C54.6512 68.0133 54.6915 68.0566 54.7317 68.0133C55.3756 67.2783 55.8585 66.327 56.261 65.4623C56.7439 64.511 57.4683 62.868 58.5951 62.7383C58.8768 62.7383 59.4402 61.8735 59.0378 61.8303H59.0781Z" fill="#DB6C21"/>
<path d="M87.5707 45.054C83.3451 45.8323 78.1939 49.5075 74.3707 51.5829C72.4793 52.6206 70.7085 53.9178 69.0183 55.3446C68.2134 56.0364 67.4488 56.8147 66.7646 57.6362C66.0805 58.4145 65.5975 59.4522 64.9134 60.144C64.7122 60.3602 64.5512 61.052 65.0341 60.7494C66.3622 59.8414 67.328 58.2416 68.4951 57.0742C70.1049 55.5608 71.9963 54.3502 73.8878 53.2692C77.8317 51.0641 83.1036 48.2968 87.1683 46.3944C87.45 46.2647 88.3354 44.9243 87.5707 45.054Z" fill="#DB6C21"/>
</g>
<g style="mix-blend-mode:multiply" opacity="0.4">
<path d="M88.3756 43.6271C89.5024 44.9242 88.2549 47.605 87.128 49.1615C84.472 52.88 80.7695 55.5175 77.7512 58.8468C77.0268 59.6251 76.1817 60.5764 75.8598 61.6573C75.5781 62.7815 75.9 63.7327 76.061 64.8137C76.3024 66.8891 75.0549 68.6619 73.8476 70.1319C72.8012 71.4291 71.6341 72.7695 70.3463 73.8504C69.6622 74.4125 68.9378 74.9314 68.2939 75.5367C67.5293 76.2717 67.1671 77.05 66.8451 78.131C65.9598 81.0279 62.9012 83.1466 60.6073 84.7031C60.1646 85.0058 55.4963 87.5569 55.4963 87.5569C55.6171 88.1189 55.4963 88.6378 55.1744 89.1134C54.1281 90.6268 52.3171 91.4483 50.7073 92.0968C49.0171 92.7454 46.9646 93.5237 45.1134 93.3075C43.5841 93.1346 42.4171 91.7077 42.0146 90.1511C41.6524 88.7675 41.572 87.2109 41.7329 85.6544C39.5598 90.7132 40.4049 93.9993 40.4049 93.9993C40.6866 95.21 43.3024 96.0315 45.7573 96.4206C48.2524 96.8098 49.9024 97.2422 55.4159 95.1667C62.2171 92.4427 63.7463 90.2376 65.7988 88.7675C68.1732 87.211 68.0524 86.4759 67.811 85.7409C67.5695 84.9626 67.3281 84.8329 68.4549 84.1411C73.3646 81.59 72.5195 80.3361 73.4049 79.8173C75.0549 78.7795 75.5781 77.6554 76.222 76.2285C76.8659 74.7584 76.8256 74.0234 79.1598 72.4236C81.5341 70.8238 82.0573 69.3104 82.339 67.7539C82.6207 66.1541 82.4598 65.419 83.7073 64.0786C85.6793 62.0032 86.2427 60.5764 86.0817 58.8468C85.9207 57.0741 86.2427 56.2526 87.3695 54.7825C88.4963 53.3124 87.9732 53.053 87.5305 51.6261C87.1281 50.156 88.2549 48.513 89.3817 46.4808C90.3073 44.7945 89.261 43.7568 88.3756 43.7568V43.6271Z" fill="#C15914"/>
</g>
<path d="M179.528 92.5293C179.528 92.5293 193.734 92.2699 195.706 77.3096C196.471 86.5193 188.663 95.2966 179.528 92.5293Z" fill="#D2A677"/>
<path d="M184.679 91.7942C184.679 91.7942 188.14 87.9893 189.428 80.9847C190.313 85.3518 187.738 92.0104 184.679 91.7942Z" fill="#7FA95F"/>
<path d="M182.385 92.2699C182.385 92.2699 185.404 88.2056 181.902 82.3252C186.49 86.1301 185.685 92.6591 182.385 92.2699Z" fill="#4B8B2D"/>
<path d="M189.348 89.5027C189.348 89.5027 191.682 84.7897 191.48 78.3473C193.09 80.8119 192.245 88.5947 189.348 89.5027Z" fill="#68B42E"/>
<path d="M188.341 90.0647C188.341 90.0647 197.759 85.7409 199.69 82.2386C198.161 86.7354 190.434 91.3619 188.341 90.0647Z" fill="#4B8B2D"/>
<path d="M187.577 91.5348C187.577 91.5348 192.929 92.0969 197.155 89.1135C193.976 93.1347 189.348 94.1291 184.478 92.6158C186.53 92.0969 187.577 91.5348 187.577 91.5348Z" fill="#68B42E"/>
<path d="M181.54 92.7456C181.54 92.7456 186.812 95.2534 189.79 98.6259C190.233 95.3399 183.955 92.5726 183.955 92.5726L181.58 92.7456H181.54Z" fill="#458B28"/>
<path d="M186.611 92.5725C186.611 92.5725 192.004 93.1779 195.867 90.2377C194.861 92.1834 189.187 93.567 186.611 92.5725Z" fill="#ABDB91"/>
<path d="M190.152 88.4217C190.152 88.4217 191.923 84.7033 191.722 79.6012C192.406 81.8063 191.561 86.649 190.152 88.4217Z" fill="#ABDB91"/>
<path d="M155.06 95.383C155.06 95.383 141.377 99.4906 135.501 85.741C137.191 94.8209 147.011 100.831 155.06 95.383Z" fill="#D2A677"/>
<path d="M149.949 96.2478C149.949 96.2478 145.643 93.6968 142.504 87.3408C142.826 91.8376 147.091 97.4153 149.949 96.2478Z" fill="#7FA95F"/>
<path d="M152.243 95.9884C152.243 95.9884 148.259 93.005 150.07 86.3031C146.689 91.3619 149.184 97.372 152.243 95.9884Z" fill="#4B8B2D"/>
<path d="M144.878 95.5128C144.878 95.5128 141.377 91.7078 139.888 85.4816C139.002 88.3353 141.86 95.5128 144.878 95.5128Z" fill="#68B42E"/>
<path d="M145.965 95.729C145.965 95.729 135.783 94.4751 133.006 91.7511C135.702 95.5993 144.315 97.6315 145.965 95.729Z" fill="#4B8B2D"/>
<path d="M147.091 96.8964C147.091 96.8964 142.101 99.0583 137.272 97.5017C141.377 100.355 146.085 99.923 150.351 96.9828C148.259 97.1126 147.091 96.8964 147.091 96.8964Z" fill="#68B42E"/>
<path d="M153.209 96.2046C153.209 96.2046 148.822 100.226 146.89 104.333C145.602 101.35 150.874 96.7235 150.874 96.7235L153.209 96.1614V96.2046Z" fill="#458B28"/>
<path d="M148.299 97.6315C148.299 97.6315 143.268 99.8366 138.801 98.2368C140.29 99.7934 146.085 99.361 148.299 97.6315Z" fill="#ABDB91"/>
<path d="M143.791 94.7345C143.791 94.7345 141.095 91.7078 139.928 86.7787C139.888 89.0703 141.94 93.4806 143.791 94.7345Z" fill="#ABDB91"/>
<path d="M168.501 95.2965C171.399 96.291 172.365 94.5615 173.612 93.1346C174.578 92.0105 175.906 89.8053 176.389 88.4649C176.389 88.4649 176.349 88.4649 176.309 88.4217C174.86 87.6002 165.523 83.752 164.96 85.4815C164.437 87.1246 163.672 90.9295 165.161 93.74C166.006 94.2588 167.173 94.9074 168.501 95.3398V95.2965Z" fill="#E8CA5C"/>
<path d="M168.501 95.2966C167.173 94.8642 166.006 94.2156 165.161 93.6968C165.241 93.8265 165.322 93.9562 165.402 94.1292C165.402 94.1292 167.374 96.9829 169.749 98.4097C170.191 98.6691 170.634 98.7556 171.037 98.7556C171.238 97.9341 171.56 96.464 171.68 95.1669C170.916 95.6425 169.99 95.8154 168.541 95.3398L168.501 95.2966Z" fill="#9E6A1E"/>
<path d="M173.612 93.1347C172.968 93.8697 172.405 94.648 171.64 95.1669C171.52 96.464 171.198 97.9773 170.996 98.7556C172.244 98.7556 173.371 97.5449 174.86 95.556C176.751 92.9617 177.717 89.373 176.389 88.465C175.906 89.8486 174.578 92.0105 173.612 93.1347Z" fill="#955913"/>
<g style="mix-blend-mode:multiply">
<path d="M167.334 94.1723C168.059 93.0914 168.823 92.1834 168.622 90.7133C168.461 89.2864 167.978 87.9893 167.133 86.8219C166.65 86.1733 166.167 85.6112 165.724 84.9626C165.282 84.9626 165 85.1356 164.92 85.395C164.396 87.0381 163.632 90.843 165.121 93.6535C165.201 93.7832 165.282 93.9129 165.362 94.0859C165.362 94.0859 165.684 94.5615 166.248 95.2533C166.65 94.9939 166.972 94.648 167.294 94.1723H167.334Z" fill="#E8CA5C"/>
</g>
<path d="M183.794 82.9737C182.587 82.109 181.782 82.5413 179.488 83.2332C177.154 83.8817 175.302 84.4438 173.089 84.7897C171.359 85.0491 171.238 85.568 171.318 85.9571C171.922 86.9949 173.491 88.5514 177.717 89.5459C182.144 90.4107 185.323 89.8486 186.209 88.5082C186.249 86.7354 185.685 84.4006 183.794 83.017V82.9737Z" fill="#FAED8D"/>
<path d="M182.868 89.8486C181.46 89.9783 179.689 89.8918 177.677 89.5027C173.451 88.5082 171.841 86.9084 171.278 85.9139C171.278 86.0004 171.278 86.0869 171.318 86.1734C171.318 86.1734 172.485 90.1945 175.987 92.9185C177.838 94.3021 179.689 95.0804 181.057 94.5615C181.661 93.74 182.627 92.1402 182.909 89.8486H182.868Z" fill="#C4903C"/>
<path d="M182.868 89.8486C182.587 92.1402 181.621 93.74 181.017 94.5615C181.178 94.5183 181.339 94.4318 181.46 94.3453C182.828 93.4373 185.927 90.7566 186.128 88.9406C186.128 88.7676 186.128 88.6379 186.128 88.465C185.645 89.2 184.478 89.6756 182.828 89.8486H182.868Z" fill="#A97623"/>
<path d="M172.807 83.0169C173.411 81.763 173.693 80.7685 173.773 79.947C173.411 82.4116 171.64 85.9571 165.684 89.5026C166.207 90.0215 166.69 90.2809 167.052 90.1079C168.622 89.3729 170.715 87.4272 172.848 83.0169H172.807Z" fill="#9E6A1E"/>
<path d="M173.733 79.9471C173.894 77.8284 172.485 77.0069 170.634 76.9204C164.96 77.3096 161.257 82.7575 161.257 82.7575C161.257 82.7575 163.793 87.6867 165.644 89.5027C171.6 85.9571 173.371 82.4116 173.733 79.9471Z" fill="#DBBA4F"/>
<g style="mix-blend-mode:multiply" opacity="0.5">
<path d="M168.743 86.9949C168.702 86.1301 168.501 85.2654 168.461 84.4006C168.461 83.4926 168.863 82.7576 169.105 81.936C169.387 80.9416 169.427 79.8606 169.306 78.7797C167.857 79.1256 166.851 80.4659 165.443 80.9848C164.638 81.2442 163.833 80.9416 163.028 80.6821C161.861 81.8063 161.217 82.8008 161.217 82.8008C161.217 82.8008 163.752 87.7299 165.604 89.5459C166.127 90.0648 166.61 90.3242 166.972 90.1513C167.495 89.8918 168.099 89.5027 168.743 88.9406C168.783 88.292 168.783 87.6867 168.743 87.0381V86.9949Z" fill="#DBBA4F"/>
</g>
<path d="M154.537 94.475C155.221 94.1723 155.824 93.6102 156.187 92.8752C157.474 90.3674 164.92 81.8927 164.92 81.8927C164.92 81.8927 159.084 78.6931 153.007 81.9792C150.834 83.1466 149.385 84.6167 148.621 86.1301C148.218 88.5082 148.621 92.3996 154.577 94.475H154.537Z" fill="#E8CA5C"/>
<path d="M148.58 86.1301C147.413 88.4217 147.695 90.8431 148.983 92.6591C150.512 94.7777 152.846 95.2533 154.537 94.4751C148.621 92.3996 148.178 88.5082 148.58 86.1301Z" fill="#9E6A1E"/>
<g style="mix-blend-mode:multiply">
<path d="M156.187 92.8752C157.474 90.3674 164.92 81.8928 164.92 81.8928C164.92 81.8928 164.598 81.7199 164.074 81.5037C163.109 81.5469 162.746 81.5901 162.505 81.5901C161.298 81.5901 160.05 82.0225 158.963 82.4981C157.917 83.017 156.991 83.4926 156.066 84.2709C155.1 85.0924 154.013 86.1734 153.249 87.2111C152.524 88.2055 152.001 89.0703 151.559 90.281C151.076 91.4916 150.915 92.832 150.512 94.0427C151.84 94.9074 153.329 94.9939 154.537 94.4318C155.221 94.1291 155.824 93.5671 156.187 92.832V92.8752Z" fill="#E8CA5C"/>
</g>
<path d="M168.541 86.3895C168.944 87.9461 167.938 91.1457 165.443 93.9994C162.948 96.8099 159.366 99.3609 156.428 99.5771C153.49 99.7933 151.599 98.7124 151.196 95.8586C150.754 93.0049 152.202 89.7189 152.202 89.7189C152.202 89.7189 152.605 95.1668 158.118 94.3021C163.672 93.4373 168.501 86.3895 168.501 86.3895H168.541Z" fill="#C4903C"/>
<path d="M163.551 93.9129C159.648 97.026 155.221 98.3664 152.605 94.7344C150.432 91.751 152.605 87.5569 156.509 84.4438C160.412 81.3306 165.121 81.1144 167.415 83.6655C170.111 86.6489 167.415 90.7997 163.551 93.9129Z" fill="#FAED8D"/>
<g style="mix-blend-mode:multiply">
<path d="M161.821 83.8817C161.056 84.7032 160.372 85.6977 159.97 86.8219C159.285 88.6811 159.124 90.7133 158.762 92.659C159.366 92.0105 160.05 91.4484 160.855 91.1025C161.821 90.6268 162.666 90.3242 163.591 89.8053C166.248 88.2055 167.133 86.7354 168.22 84.8762C168.018 84.3573 168.018 84.2709 167.455 83.6655C166.61 82.7575 165.443 82.1522 164.115 81.9792C163.43 82.6711 162.505 83.1467 161.821 83.8817Z" fill="#FAED8D"/>
</g>
<path d="M161.66 90.3675C164.276 89.1568 168.783 86.0437 169.346 78.9526C168.823 79.8606 167.898 81.1578 166.69 82.1955C164.638 83.925 162.867 85.7842 161.298 88.3785C160.09 90.281 159.688 91.189 158.883 92.1402C158.802 92.3132 158.722 92.4429 158.641 92.6158C158.923 92.2267 159.728 91.2755 161.7 90.3675H161.66Z" fill="#3E9F32"/>
<path d="M166.65 82.1954C167.857 81.1577 168.783 79.8174 169.306 78.9526C169.306 78.9094 169.306 78.8661 169.306 78.8229C167.777 79.7309 162.102 81.936 159.889 87.6002C159.165 89.935 159.205 91.0592 158.762 92.1402C159.567 91.1889 160.01 90.2809 161.177 88.3785C162.787 85.7842 164.557 83.925 166.57 82.1954H166.65Z" fill="#68B42E"/>
<g style="mix-blend-mode:screen">
<path d="M159.446 90.6268C159.889 89.5891 160.734 87.9893 161.137 86.9516C161.579 85.8274 162.263 84.8329 163.028 83.9682C164.396 82.3684 166.288 81.5468 167.777 80.12C167.777 80.12 167.777 80.12 167.737 80.12C165.805 81.2874 163.833 82.3684 162.263 84.0979C160.895 85.6545 159.688 88.0325 159.446 90.1944C159.446 90.4106 159.366 90.7998 159.446 90.6701V90.6268Z" fill="#89BD27"/>
</g>
<g style="mix-blend-mode:screen">
<path d="M161.7 82.6711C159.648 83.2764 157.394 83.8385 155.784 85.4383C154.335 86.9084 152.122 89.3297 152.524 91.7078C152.565 91.9672 153.088 91.924 153.168 91.7078C153.45 90.7133 153.571 89.8053 153.973 88.8541C154.456 87.7732 155.261 86.9084 155.985 86.0436C157.515 84.2709 159.728 83.6223 161.74 82.7576C161.861 82.7143 161.74 82.6278 161.66 82.6711H161.7Z" fill="#FAED8D"/>
<path d="M154.979 95.2533C154.295 94.5182 153.289 93.7832 153.289 92.659C153.289 92.5293 152.967 92.5725 152.927 92.659C152.605 93.3941 152.887 93.8697 153.329 94.475C153.691 94.9939 154.134 95.4262 154.738 95.5127C154.859 95.5127 155.14 95.4262 154.979 95.2965V95.2533Z" fill="#FAED8D"/>
</g>
<g style="mix-blend-mode:screen">
<path d="M182.587 88.9838C180.896 88.8973 179.246 88.8541 177.596 88.3784C175.826 87.8596 173.813 87.1678 172.284 86.0436C172.244 86.0436 172.244 86.1301 172.284 86.1733C173.693 87.4704 175.463 88.3784 177.274 88.8973C178.924 89.3729 180.937 90.0215 182.627 89.3729C182.707 89.3729 182.788 88.9838 182.627 88.9838H182.587Z" fill="#FAED8D"/>
<path d="M185.645 87.2543C185.363 87.4705 185.122 87.7731 184.84 87.9893C184.518 88.2487 183.915 88.5946 183.472 88.6379C183.351 88.6379 183.311 88.9405 183.472 88.9838C184.357 89.2 185.484 88.3784 185.766 87.4704C185.766 87.384 185.766 87.211 185.645 87.2543Z" fill="#FAED8D"/>
</g>
<path d="M164.115 85.7841C165.362 85.9571 167.455 86.4327 169.749 88.2487C172.485 90.3673 173.491 92.0969 177.033 91.5348C175.946 91.0591 174.94 89.8052 173.17 87.8163C170.554 84.9626 164.115 85.7841 164.115 85.7841Z" fill="#68B42E"/>
<path d="M170.473 84.0979C167.978 83.752 166.087 85.5247 163.39 85.8274C163.591 85.8274 163.833 85.8274 164.074 85.8274C164.074 85.8274 170.513 84.9194 173.129 87.7731C174.9 89.7188 175.866 91.016 176.993 91.4916C176.993 91.4916 177.073 91.4916 177.113 91.4916C177.113 91.4916 176.389 91.3619 175.463 89.0703C174.578 86.7354 173.129 84.487 170.433 84.0979H170.473Z" fill="#3E9F32"/>
<g style="mix-blend-mode:screen">
<path d="M170.433 88.0758C169.306 87.2975 167.978 86.4327 166.65 86.2166C166.65 86.2166 166.65 86.2166 166.65 86.2598C168.34 86.7354 169.789 87.9461 171.117 89.1135C172.083 89.9783 173.491 91.3619 174.86 90.8863C175.061 90.7998 174.739 90.7565 174.618 90.7133C173.733 90.5403 173.089 89.8918 172.284 89.4162C171.64 89.027 171.037 88.5082 170.393 88.0325L170.433 88.0758Z" fill="#89BD27"/>
</g>
</svg>
