<svg width="250" height="80" viewBox="0 0 250 80" fill="none" xmlns="http://www.w3.org/2000/svg">
<g style="mix-blend-mode:multiply" opacity="0.5">
<path d="M249.738 47.5633C249.738 65.4535 193.83 79.9668 124.869 79.9668C55.9083 79.9668 6.10352e-05 65.4894 6.10352e-05 47.5633C6.10352e-05 29.6373 55.9083 15.1599 124.869 15.1599C193.83 15.1599 249.738 29.6732 249.738 47.5633Z" fill="#666666"/>
</g>
<path d="M222.023 50.4731C222.023 64.5194 178.689 75.8713 125.261 75.8713C71.8325 75.8713 28.4547 64.5194 28.4547 50.4731C28.4547 36.4268 71.789 25.0748 125.261 25.0748C178.733 25.0748 222.023 36.4627 222.023 50.4731Z" fill="#6B818A"/>
<path d="M248.781 40.5582C248.781 58.7716 193.656 74.5422 125.304 74.5422C56.9527 74.5422 1.34897 58.7716 1.34897 40.5582C1.34897 22.3447 56.7351 7.57996 125.087 7.57996C193.438 7.57996 248.781 22.3447 248.781 40.5582Z" fill="#8AA6B2"/>
<path d="M248.694 39.1212C248.694 57.622 193.395 72.6023 125.217 72.6023C57.0396 72.6023 1.74039 57.622 1.74039 39.1212C1.74039 20.6203 57.0396 5.64001 125.217 5.64001C193.395 5.64001 248.694 20.6203 248.694 39.1212Z" fill="#E9F5FD"/>
<g style="mix-blend-mode:screen">
<path d="M248.694 39.1212C248.694 57.622 193.395 72.6023 125.217 72.6023C57.0396 72.6023 1.74039 57.622 1.74039 39.1212C1.74039 20.6203 57.0396 5.64001 125.217 5.64001C193.395 5.64001 248.694 20.6203 248.694 39.1212Z" fill="white"/>
</g>
<path opacity="0.5" d="M235.424 37.3608C235.424 52.8441 186.085 65.4174 125.217 65.4174C64.349 65.4174 15.054 52.8441 15.054 37.3608C15.054 21.8776 64.349 9.3042 125.217 9.3042C186.085 9.3042 235.424 21.8776 235.424 37.3608Z" fill="#D6E1E8"/>
<path d="M223.242 36.8939C223.242 51.5868 179.342 63.4777 125.217 63.4777C71.093 63.4777 27.193 51.5868 27.193 36.8939C27.193 22.201 71.093 10.3102 125.217 10.3102C179.342 10.3102 223.242 22.2369 223.242 36.8939Z" fill="#BBC5CD"/>
<g style="mix-blend-mode:screen">
<path d="M222.023 37.0016C222.023 50.7605 178.689 61.9329 125.261 61.9329C71.8325 61.9329 28.4547 50.7605 28.4547 37.0016C28.4547 23.2428 71.789 12.1063 125.217 12.1063C178.646 12.1063 221.98 23.2428 221.98 37.0016H222.023Z" fill="white"/>
</g>
<g style="mix-blend-mode:multiply">
<path d="M159.937 42.534L158.327 37.0376C158.327 37.0376 151.018 35.3492 139.966 34.0559C142.621 32.6549 143.491 32.1879 143.491 32.1879L141.446 27.1945C141.446 27.1945 135.877 25.9371 126.566 25.039C135.79 23.2069 144.491 21.734 151.54 21.0155L152.105 18.8601L148.494 15.8425C148.117 14.4295 147.929 13.723 147.929 13.723L142.098 11.1005C142.098 11.1005 140.097 10.9209 136.225 10.8131C142.229 8.94509 142.925 7.36444 142.925 7.36444L142.708 5.56824C139.966 6.14302 137.269 6.78965 134.484 7.25666C131.656 7.72368 128.785 8.01107 125.913 8.19069C122.998 8.37031 120.127 8.47808 117.212 8.69362C114.297 8.90917 111.425 9.30433 108.553 9.66357C102.81 10.418 97.0237 10.3821 91.2806 10.9209C88.6701 11.1724 86.1031 11.5675 83.5361 11.9986C82.7095 12.1423 81.8828 12.286 81.0126 12.3579C81.2302 12.6812 81.4912 13.0045 81.7088 13.2919C81.7088 13.2919 81.9698 13.6152 82.0568 13.7589C76.1397 14.4774 69.831 15.3755 63.1742 16.4532L62.4346 21.734L67.7426 24.8235C67.7426 24.8235 81.4912 22.4884 99.0686 20.3689C82.5354 23.0991 65.6977 27.3382 55.1687 33.9482L56.1258 39.696L59.9546 41.0611C59.9546 41.0611 66.8289 39.1572 77.1404 36.5347C80.3165 36.2473 84.3628 35.8881 89.0182 35.5648L86.7993 38.6901L87.4084 41.3844C68.8303 45.6594 51.3399 49.3596 51.3399 49.3596L49.7736 52.4849L54.3855 56.5444C54.3855 56.5444 60.4767 56.1133 70.8317 54.2093L70.9622 54.353L74.0948 57.7299L144.1 48.7848L143.143 46.1982L141.881 44.5457C148.32 44.7613 154.237 45.0846 158.849 45.4798L160.024 42.5699L159.937 42.534Z" fill="#EBEAEA"/>
</g>
<path d="M80.795 13.2559C81.5781 14.2259 82.1872 14.8725 82.1872 14.8725C82.1872 14.8725 99.2425 15.0162 110.859 13.8666C139.227 11.0645 141.228 6.28666 141.228 6.28666L140.837 3.01758C140.837 3.01758 116.689 15.3754 80.795 13.22V13.2559Z" fill="#F1B728"/>
<path d="M77.9235 9.26839C78.7501 10.6694 79.8813 12.1782 80.795 13.2559C116.689 15.4114 140.837 3.05354 140.837 3.05354C140.837 3.05354 139.966 1.83212 137.269 0C118.778 5.96338 77.9235 9.30431 77.9235 9.30431V9.26839Z" fill="#FDC935"/>
<g style="mix-blend-mode:multiply" opacity="0.5">
<path d="M117.168 9.30438C112.73 9.08883 108.249 9.12476 103.811 9.30438C99.1555 9.48399 94.6307 10.2743 90.0188 10.8132C87.9304 11.0647 85.842 11.2443 83.7971 11.6394C82.5353 11.855 81.2301 12.1064 79.9248 12.2501C80.2294 12.6094 80.4904 12.9327 80.7515 13.256C97.5457 14.2619 111.816 12.0705 122.171 9.484C120.475 9.44807 118.821 9.37622 117.168 9.30438Z" fill="#FDC935"/>
</g>
<path d="M141.446 45.0487L138.879 41.6359C92.8469 38.5105 67.6555 51.4432 67.6555 51.4432L69.3088 53.2034C95.3269 45.4798 141.489 45.0128 141.489 45.0128L141.446 45.0487Z" fill="#F9E95E"/>
<g style="mix-blend-mode:multiply">
<path d="M104.203 45.2283C106.987 43.971 109.902 42.8933 112.861 41.8515C113.252 41.7078 113.644 41.6 114.036 41.4563C83.8407 43.1447 67.6121 51.4791 67.6121 51.4791L69.2654 53.2394C77.706 50.7247 88.2351 49.0003 98.6336 47.7789C100.504 46.9527 102.332 46.0546 104.203 45.2283Z" fill="#F9E95E"/>
</g>
<path d="M69.2654 53.2393L72.398 56.6162L142.403 47.6711L141.446 45.0846C141.446 45.0846 95.2835 45.5157 69.2654 53.2753V53.2393Z" fill="#F1B728"/>
<path d="M66.0023 23.7457C66.0023 23.7457 115.732 15.3755 147.145 15.8784L146.275 12.6812C119.561 14.3696 60.6942 20.6563 60.6942 20.6563L66.0023 23.7457Z" fill="#F1B728"/>
<path d="M61.4339 15.3755L60.6942 20.6563C60.6942 20.6563 119.518 14.3696 146.275 12.6812L140.445 10.0587C140.445 10.0587 110.729 7.43626 61.4774 15.3755H61.4339Z" fill="#F9E95E"/>
<path d="M53.4282 32.9064L57.9096 35.4211C57.9096 35.4211 111.86 19.2553 150.452 17.8543L146.623 14.6211C146.623 14.6211 79.9248 16.2736 53.4717 32.9423L53.4282 32.9064Z" fill="#FDC935"/>
<g style="mix-blend-mode:multiply" opacity="0.5">
<path d="M78.3151 24.2847C76.0962 24.7517 73.7032 25.075 71.6148 25.7935C69.657 26.476 68.5257 27.8771 67.4815 29.3499C66.5679 30.6791 65.7412 32.0083 64.9146 33.3734C75.1825 30.5354 91.1066 26.0449 112.252 22.3807C101.244 21.7341 98.7206 21.77 87.1038 23.0992C84.4063 23.3866 80.9691 23.7458 78.3151 24.2487V24.2847Z" fill="#FDC935"/>
</g>
<path d="M57.9097 35.3852L58.2142 39.9835C58.2142 39.9835 119.518 23.0992 149.843 19.9379L150.409 17.7825C111.817 19.1835 57.8662 35.3493 57.8662 35.3493L57.9097 35.3852Z" fill="#F1B728"/>
<path d="M53.4282 32.9064L54.4289 38.6183L58.2141 39.9834L57.9096 35.3851L53.4282 32.9064Z" fill="#DDA019"/>
<path d="M86.3206 42.8573C86.3206 42.8573 135.92 42.4262 157.152 44.3661L158.327 41.4563C136.181 37.6124 85.1024 37.6124 85.1024 37.6124L86.3206 42.8573Z" fill="#F1B728"/>
<path d="M87.7563 33.7686L85.0588 37.5765C85.0588 37.5765 136.181 37.5765 158.283 41.4204L156.674 35.924C156.674 35.924 120.823 27.6256 87.7563 33.7327V33.7686Z" fill="#F9E95E"/>
<g style="mix-blend-mode:multiply">
<path d="M117.386 37.4687C117.212 36.858 116.951 36.6425 116.472 36.2114C115.689 35.457 114.732 34.5589 113.774 33.9841C112.774 33.3734 111.599 33.553 110.468 33.8404C107.509 34.5229 104.551 35.2414 101.636 36.0318C100.156 36.4269 98.7205 36.858 97.2412 37.2532C96.8061 37.3609 96.3711 37.5406 95.936 37.6843C101.766 37.7561 109.38 37.8998 117.516 38.2231C117.516 37.9716 117.516 37.7202 117.429 37.4687H117.386Z" fill="#F9E95E"/>
</g>
<path d="M49.6431 48.2818L54.255 51.982C54.255 51.982 104.899 40.0911 116.037 36.4987L111.904 33.9481C88.5831 39.9833 49.6431 48.2459 49.6431 48.2459V48.2818Z" fill="#F9E95E"/>
<path d="M49.643 48.2819L48.0767 51.4072L52.7321 55.4667L54.2549 51.982L49.643 48.2819Z" fill="#F1B728"/>
<path d="M54.2549 51.982L52.7321 55.4307C52.7321 55.4307 79.5768 53.5986 115.863 39.8756L116.037 36.4988C104.899 40.0912 54.2549 51.982 54.2549 51.982Z" fill="#FDC935"/>
<path d="M68.5258 36.1755C68.5258 36.1755 109.511 31.2898 135.094 34.7026L134.659 30.8587C102.158 28.2363 66.9595 31.4694 66.9595 31.4694L68.5258 36.2114V36.1755Z" fill="#FDC935"/>
<path d="M139.793 26.1168C139.793 26.1168 108.162 19.0397 70.0486 26.5838C67.4381 30.3917 66.9595 31.4335 66.9595 31.4335C66.9595 31.4335 102.158 28.2003 134.659 30.8228L139.793 26.1168Z" fill="#F9E95E"/>
<path d="M134.658 30.7869L135.093 34.6666C140.358 31.9005 141.837 31.0742 141.837 31.0742L139.792 26.0808L134.658 30.7509V30.7869Z" fill="#F1B728"/>
<g style="mix-blend-mode:screen">
<path d="M110.12 24.2846C107.292 23.7817 104.29 24.3565 101.418 24.3205C97.8938 24.3205 94.3697 24.5001 90.8455 24.7157C87.2778 24.9312 83.7971 25.2546 80.273 25.7216C78.5326 25.9371 76.7923 26.1886 75.0519 26.476C73.8337 26.6915 72.2674 27.4459 71.0057 27.2304C70.7011 27.1944 70.4836 27.7692 70.7446 27.8411C71.6583 28.0925 72.7895 27.7333 73.6597 27.5178C75.313 27.1585 77.0533 26.9789 78.7502 26.7634C82.2743 26.2963 85.755 25.973 89.2792 25.7575C96.11 25.3264 102.984 25.2546 109.859 25.1468C110.207 25.1468 110.511 24.3205 110.12 24.2487V24.2846Z" fill="#F9E95E"/>
<path d="M115.08 24.572C114.514 24.572 113.992 24.572 113.47 24.5002C112.904 24.4283 112.382 24.3206 111.86 24.4643C111.686 24.5002 111.425 25.0031 111.686 25.0031C112.252 25.039 112.774 25.2546 113.339 25.3624C113.861 25.4701 114.384 25.542 114.906 25.4342C115.254 25.3624 115.558 24.5361 115.08 24.572Z" fill="#F9E95E"/>
</g>
<g style="mix-blend-mode:screen">
<path d="M95.4138 38.5823C88.409 40.0552 81.5347 41.9951 74.4863 43.3602C70.7881 44.0786 67.0899 44.7971 63.4352 45.6952C60.1285 46.5215 56.8219 47.4555 53.5153 48.1021C53.2977 48.1381 53.1672 48.641 53.4282 48.6051C56.5608 48.2458 59.6064 47.3837 62.652 46.7011C66.3067 45.8748 69.9179 45.1204 73.6161 44.4379C77.4014 43.7194 81.0996 42.965 84.8413 41.9951C88.2785 41.1329 91.8026 40.3785 95.2398 39.4804C95.5879 39.3726 95.8489 38.5104 95.4138 38.6182V38.5823Z" fill="#F9E95E"/>
<path d="M99.8082 37.6483C98.8945 37.7201 98.1114 37.9716 97.2412 38.2231C97.0237 38.2949 96.8496 38.7979 97.1542 38.7979C98.0244 38.7979 98.8075 38.5464 99.6342 38.3308C99.8952 38.259 100.2 37.6124 99.8082 37.6483Z" fill="#F9E95E"/>
</g>
<g style="mix-blend-mode:screen">
<path d="M108.423 10.9568C100.765 11.4597 93.1079 11.9267 85.4939 12.6093C81.6652 12.9685 77.9235 13.5433 74.0947 14.0462C70.5705 14.5133 67.0464 14.9443 63.6092 15.8424C63.3917 15.8784 63.2611 16.3813 63.5222 16.3454C70.7011 15.1599 78.0105 14.1181 85.3199 13.4715C92.9339 12.7889 100.591 12.4656 108.249 11.8908C108.684 11.8908 108.945 10.8849 108.466 10.9209L108.423 10.9568Z" fill="#F9E95E"/>
<path d="M111.468 10.7412C111.033 10.7772 110.642 10.9568 110.207 10.8849C109.902 10.849 109.641 11.4597 109.946 11.5675C110.424 11.6753 110.859 11.5675 111.338 11.4597C111.642 11.3879 111.903 10.7053 111.512 10.7412H111.468Z" fill="#F9E95E"/>
</g>
<path d="M72.5721 15.3396L71.9194 16.2018L72.7026 16.4173L73.1812 15.5551L72.5721 15.3396Z" fill="#898E00"/>
<path d="M62.6957 21.2311L61.695 21.6262L61.9561 22.0933L62.8262 21.6981L62.6957 21.2311Z" fill="#898E00"/>
<path d="M68.1341 27.4459L67.1335 27.8411L67.351 28.3081L68.2212 27.9129L68.1341 27.4459Z" fill="#898E00"/>
<path d="M72.6156 25.542L72.4416 24.6439H71.8325L72.05 25.4702L72.6156 25.542Z" fill="#898E00"/>
<path d="M110.294 16.3453L109.641 17.2075L110.381 17.4231L110.903 16.525L110.294 16.3453Z" fill="#898E00"/>
<path d="M100.417 22.2009L99.4166 22.5961L99.6342 23.099L100.504 22.7039L100.417 22.2009Z" fill="#898E00"/>
<path d="M110.337 26.5117L110.163 25.6136L109.554 25.6496L109.772 26.4399L110.337 26.5117Z" fill="#898E00"/>
<path d="M92.5858 26.3323L91.8897 27.1945L92.6729 27.41L93.195 26.5119L92.5858 26.3323Z" fill="#898E00"/>
<path d="M82.7094 32.1879L81.7087 32.619L81.9262 33.086L82.7964 32.6908L82.7094 32.1879Z" fill="#898E00"/>
<path d="M107.64 37.1454L106.639 37.5405L106.856 38.0076L107.727 37.6124L107.64 37.1454Z" fill="#898E00"/>
<path d="M111.643 52.8441L110.685 53.2393L110.903 53.7063L111.773 53.3111L111.643 52.8441Z" fill="#898E00"/>
<path d="M124.477 41.4922L123.477 41.8873L123.694 42.3544L124.564 41.9592L124.477 41.4922Z" fill="#898E00"/>
<path d="M92.6293 36.4987L92.4552 35.6006L91.8461 35.6365L92.0202 36.4268L92.6293 36.4987Z" fill="#898E00"/>
<path d="M75.6176 29.314L74.965 30.1761L75.7481 30.3917L76.2267 29.4936L75.6176 29.314Z" fill="#898E00"/>
<path d="M65.7412 35.1696L64.7405 35.6006L64.9581 36.0677L65.8282 35.6725L65.7412 35.1696Z" fill="#898E00"/>
<path d="M75.6611 39.4805L75.4871 38.5824L74.878 38.6183L75.0955 39.4086L75.6611 39.4805Z" fill="#898E00"/>
<path d="M123.042 25.1827L122.346 26.0449L123.129 26.2605L123.651 25.3624L123.042 25.1827Z" fill="#898E00"/>
<path d="M113.165 31.0742L112.165 31.4694L112.382 31.9364L113.252 31.5412L113.165 31.0742Z" fill="#898E00"/>
<path d="M99.2862 41.4563L98.2855 41.8515L98.503 42.3185L99.3732 41.9233L99.2862 41.4563Z" fill="#898E00"/>
<path d="M99.9388 49.4674L98.9381 49.8626L99.1556 50.3655L100.026 49.9703L99.9388 49.4674Z" fill="#898E00"/>
<path d="M123.085 35.3493L122.911 34.4512L122.302 34.4871L122.476 35.3133L123.085 35.3493Z" fill="#898E00"/>
<path d="M76.9229 47.3479L76.7488 46.4498L76.1397 46.4858L76.3137 47.2761L76.9229 47.3479Z" fill="#898E00"/>
<path d="M143.012 6.71777L142.359 7.57995L143.143 7.79549L143.621 6.93332L143.012 6.71777Z" fill="#898E00"/>
<path d="M152.192 19.2552L151.496 20.1174L152.279 20.333L152.802 19.4349L152.192 19.2552Z" fill="#898E00"/>
<path d="M136.921 36.6066L136.268 37.4687L137.052 37.6843L137.53 36.7862L136.921 36.6066Z" fill="#898E00"/>
<path d="M133.136 22.3806L132.135 22.7758L132.353 23.2787L133.223 22.8836L133.136 22.3806Z" fill="#898E00"/>
<path d="M146.188 30.3199L146.014 29.4218L145.405 29.4577L145.623 30.248L146.188 30.3199Z" fill="#898E00"/>
<path d="M60.6072 49.2158L60.4767 48.3177L59.824 48.3537L60.0416 49.144L60.6072 49.2158Z" fill="#898E00"/>
<path d="M128.48 4.77783L127.828 5.56816L128.567 5.74778L129.002 4.95745L128.48 4.77783Z" fill="#898E00"/>
<path d="M119.431 10.1305L118.517 10.4897L118.734 10.9567L119.518 10.5616L119.431 10.1305Z" fill="#898E00"/>
<path d="M128.48 14.0821L128.35 13.2559H127.784L127.958 14.0103L128.48 14.0821Z" fill="#898E00"/>
<path d="M136.573 17.0279L136.442 16.2017L135.877 16.2376L136.051 16.9561L136.573 17.0279Z" fill="#898E00"/>
<path d="M96.1536 7.04102L95.5444 7.83134L96.2406 8.04689L96.7192 7.25656L96.1536 7.04102Z" fill="#898E00"/>
<path d="M87.1473 12.4296L86.2336 12.7888L86.4512 13.2199L87.2343 12.8607L87.1473 12.4296Z" fill="#898E00"/>
<path d="M96.1971 16.3453L96.0666 15.519L95.501 15.555L95.675 16.3094L96.1971 16.3453Z" fill="#898E00"/>
<path d="M106.117 7.32843L105.943 6.39441L105.334 6.43033L105.551 7.25658L106.117 7.32843Z" fill="#898E00"/>
<path d="M80.012 9.91495L79.8815 9.01685L79.2288 9.05277L79.4464 9.87902L80.012 9.91495Z" fill="#898E00"/>
<g style="mix-blend-mode:multiply">
<path d="M197.223 57.0473L197.963 51.4431C197.963 51.4431 191.785 47.7789 181.952 43.4321C185.041 42.8573 186.042 42.6777 186.042 42.6777L186.172 37.4328C186.172 37.4328 181.43 34.6666 173.076 31.2179C182.518 32.116 191.306 33.1938 198.224 34.487L199.66 32.619L197.528 28.7751L197.876 26.6197L193.482 22.5243C193.482 22.5243 191.654 21.7699 188.087 20.5844C194.526 20.5126 195.788 19.2193 195.788 19.2193L196.31 17.4591C193.482 17.2435 190.697 17.0639 187.869 16.7406C184.998 16.3813 182.213 15.8425 179.429 15.1958C176.644 14.5492 173.859 13.8307 171.031 13.1841C168.203 12.5375 165.332 12.1064 162.46 11.6394C156.761 10.7413 151.322 9.05285 145.71 7.93921C143.143 7.43627 140.576 7.07703 137.965 6.78964C137.138 6.68187 136.312 6.5741 135.442 6.4304C135.529 6.78964 135.616 7.14888 135.703 7.50812C135.746 7.68774 135.79 7.86736 135.877 8.04698C130.003 7.04111 123.738 6.10708 117.038 5.20898L114.122 9.95095L117.821 14.3337C117.821 14.3337 131.7 16.058 149.103 19.0397C132.483 16.9202 114.862 16.1658 102.245 19.399L100.765 25.0749L103.767 27.4459C103.767 27.4459 111.033 27.6255 121.823 28.0566C124.913 28.6673 128.872 29.4936 133.397 30.4995L130.047 32.7986L129.524 35.4929C110.294 34.2356 92.3248 32.7986 92.3248 32.7986L89.5837 35.3133L92.2378 40.4145C92.2378 40.4145 98.1549 41.7437 108.64 42.8573V43.0369L110.25 47.0963L179.733 58.4842L179.907 55.7899L179.429 53.886C185.389 55.9336 190.828 57.8735 194.961 59.562L197.311 57.1551L197.223 57.0473Z" fill="#EBEAEA"/>
</g>
<path d="M135.006 7.11292C135.355 8.26248 135.659 9.05281 135.659 9.05281C135.659 9.05281 151.627 14.0103 163.026 16.2017C190.828 21.5544 194.7 17.6746 194.7 17.6746L195.657 14.4773C195.657 14.4773 167.855 19.2911 135.006 7.11292Z" fill="#F1B728"/>
<path d="M133.962 2.58655C134.136 4.1672 134.615 5.85563 135.007 7.14889C167.855 19.3271 195.657 14.5133 195.657 14.5133C195.657 14.5133 195.353 13.1123 193.569 10.6335C173.729 11.0287 133.962 2.58655 133.962 2.58655Z" fill="#FDC935"/>
<g style="mix-blend-mode:multiply" opacity="0.5">
<path d="M170.857 13.723C166.768 12.286 162.547 11.0287 158.283 9.95098C153.846 8.80141 149.277 8.26255 144.709 7.47222C142.664 7.11298 140.619 6.71782 138.531 6.46635C137.225 6.32265 135.92 6.17896 134.658 5.92749C134.789 6.35858 134.876 6.75374 135.006 7.11298C150.408 12.8249 164.679 14.8007 175.513 15.3036C173.946 14.8007 172.424 14.2619 170.857 13.723Z" fill="#FDC935"/>
</g>
<path d="M178.819 54.1733L177.819 50.2217C135.833 34.2715 106.813 39.3008 106.813 39.3008L107.596 41.4203C135.268 41.5281 178.776 54.1374 178.776 54.1374L178.819 54.1733Z" fill="#F9E95E"/>
<g style="mix-blend-mode:multiply">
<path d="M143.752 43.791C146.884 43.3959 150.104 43.1803 153.28 43.0726C153.715 43.0726 154.107 43.0726 154.542 43.0366C125.478 36.0674 106.77 39.3005 106.77 39.3005L107.553 41.4201C116.516 41.4201 127.132 42.7852 137.4 44.6173C139.488 44.3658 141.576 44.0425 143.665 43.791H143.752Z" fill="#F9E95E"/>
</g>
<path d="M107.64 41.4203L109.163 45.4797L178.645 56.8676L178.819 54.1374C178.819 54.1374 135.268 41.4921 107.64 41.4203Z" fill="#F1B728"/>
<path d="M116.776 12.7889C116.776 12.7889 166.985 18.9678 196.266 28.344L196.788 25.0749C170.988 19.1115 113.078 8.37024 113.078 8.37024L116.776 12.753V12.7889Z" fill="#F1B728"/>
<path d="M115.993 3.66418L113.078 8.40615C113.078 8.40615 170.988 19.1474 196.788 25.1108L192.394 21.0155C192.394 21.0155 165.549 10.1305 115.993 3.66418Z" fill="#F9E95E"/>
<path d="M101.201 17.8542L104.377 21.4825C104.377 21.4825 161.764 21.5184 198.616 31.1101L196.354 27.0148C196.354 27.0148 133.005 9.69943 101.244 17.8542H101.201Z" fill="#FDC935"/>
<g style="mix-blend-mode:multiply" opacity="0.5">
<path d="M128.132 16.7765C125.87 16.561 123.477 16.2017 121.171 16.3095C119.039 16.4173 117.429 17.3872 115.819 18.5009C114.427 19.4708 113.078 20.5126 111.73 21.5544C122.52 21.8059 139.401 22.0573 160.764 24.6079C150.67 20.8719 148.32 20.2252 136.834 18.1416C134.18 17.6746 130.786 16.9921 128.089 16.7406L128.132 16.7765Z" fill="#FDC935"/>
</g>
<path d="M104.333 21.4467L102.723 25.8653C102.723 25.8653 167.333 27.3382 197.137 32.9423L198.572 31.0743C161.764 21.4826 104.333 21.4467 104.333 21.4467Z" fill="#F1B728"/>
<path d="M101.201 17.8542L99.7214 23.5302L102.723 25.8653L104.333 21.4466L101.201 17.8542Z" fill="#DDA019"/>
<path d="M127.958 36.4987C127.958 36.4987 174.73 50.1139 193.873 57.9453L196.223 55.5384C177.036 45.6593 129.002 31.2179 129.002 31.2179L127.958 36.4987Z" fill="#F1B728"/>
<path d="M133.092 28.3799L129.002 31.2179C129.002 31.2179 177.036 45.6593 196.223 55.5384L196.962 49.9343C196.962 49.9343 166.724 31.9723 133.092 28.3799Z" fill="#F9E95E"/>
<g style="mix-blend-mode:multiply">
<path d="M159.371 40.2348C159.458 39.6241 159.328 39.3367 159.067 38.7978C158.632 37.8638 158.109 36.7502 157.457 35.9239C156.761 35.0617 155.586 34.918 154.411 34.8462C151.322 34.6666 148.277 34.487 145.187 34.4151C143.621 34.4151 142.098 34.3433 140.532 34.3433C140.053 34.3433 139.618 34.3433 139.14 34.3433C144.578 36.0676 151.67 38.3667 159.197 40.9533C159.284 40.7018 159.371 40.4863 159.415 40.2348H159.371Z" fill="#F9E95E"/>
</g>
<path d="M91.237 31.2179L94.0216 36.0317C94.0216 36.0317 146.536 39.193 158.457 38.9775L155.629 35.421C131.221 34.487 91.1935 31.2538 91.1935 31.2538L91.237 31.2179Z" fill="#F9E95E"/>
<path d="M91.2371 31.2179L88.496 33.7326L91.15 38.8338L94.0216 36.0317L91.2371 31.2179Z" fill="#F1B728"/>
<path d="M94.0216 36.0317L91.1501 38.8337C91.1501 38.8337 117.125 44.6893 156.935 42.0669L158.501 38.9415C146.58 39.157 94.0651 35.9957 94.0651 35.9957L94.0216 36.0317Z" fill="#FDC935"/>
<path d="M113.992 25.1827C113.992 25.1827 154.542 32.1878 177.166 42.6058L178.341 38.8697C148.886 27.1944 114.471 20.297 114.471 20.297L113.992 25.1827Z" fill="#FDC935"/>
<path d="M185.128 35.924C185.128 35.924 158.371 20.333 119.387 16.6328C115.384 19.4708 114.471 20.2971 114.471 20.2971C114.471 20.2971 148.842 27.1945 178.341 38.8698L185.128 35.924Z" fill="#F9E95E"/>
<path d="M178.341 38.8338L177.166 42.6058C183.257 41.4922 184.998 41.1689 184.998 41.1689L185.128 35.924L178.341 38.8338Z" fill="#F1B728"/>
<g style="mix-blend-mode:screen">
<path d="M158.022 25.7934C155.586 24.5361 152.497 24.2128 149.843 23.3865C146.536 22.3807 143.143 21.5544 139.749 20.7641C136.312 19.9737 132.875 19.2912 129.394 18.7164C127.654 18.429 125.913 18.1776 124.173 17.962C122.911 17.8183 121.171 18.1057 120.04 17.5309C119.779 17.3872 119.3 17.8902 119.561 18.0339C120.344 18.5368 121.519 18.5009 122.433 18.5727C124.129 18.6805 125.826 19.0038 127.523 19.2912C131.004 19.866 134.441 20.5126 137.835 21.3029C144.448 22.8117 150.931 24.7157 157.413 26.5478C157.761 26.6556 158.371 25.9731 158.022 25.7934Z" fill="#F9E95E"/>
<path d="M162.547 27.4458C162.025 27.338 161.547 27.1225 161.024 26.9429C160.546 26.7273 160.067 26.4759 159.545 26.4399C159.371 26.4399 158.936 26.7992 159.154 26.907C159.676 27.0866 160.067 27.4458 160.546 27.6973C161.025 27.9487 161.46 28.1643 161.982 28.2002C162.33 28.2361 162.982 27.5536 162.504 27.4458H162.547Z" fill="#F9E95E"/>
</g>
<g style="mix-blend-mode:screen">
<path d="M138.27 35.0618C131.047 34.4511 123.825 34.3433 116.646 33.6249C112.861 33.2656 109.119 32.8705 105.334 32.6908C101.897 32.5112 98.416 32.4753 94.9789 32.152C94.7613 32.152 94.4132 32.5471 94.6743 32.5831C97.7634 33.1219 100.983 33.1938 104.159 33.4093C107.944 33.6608 111.643 33.9841 115.384 34.3793C119.213 34.7744 123.042 35.0977 126.914 35.2774C130.525 35.4211 134.136 35.7444 137.748 35.8521C138.139 35.8521 138.748 35.1337 138.27 35.0618Z" fill="#F9E95E"/>
<path d="M142.794 35.4211C141.924 35.2415 141.054 35.2415 140.14 35.2415C139.923 35.2415 139.531 35.6725 139.836 35.7803C140.663 35.9959 141.489 36.0318 142.359 36.0677C142.62 36.0677 143.186 35.5288 142.794 35.457V35.4211Z" fill="#F9E95E"/>
</g>
<g style="mix-blend-mode:screen">
<path d="M161.938 12.7531C154.542 11.0646 147.145 9.34028 139.705 7.83148C135.964 7.07707 132.178 6.57414 128.393 5.96343C124.869 5.38865 121.388 4.81386 117.821 4.67017C117.603 4.67017 117.255 5.06533 117.516 5.10125C124.738 5.99935 132.048 7.113 139.183 8.58588C146.623 10.0947 153.933 11.9627 161.373 13.5793C161.808 13.6871 162.46 12.8608 161.982 12.7171L161.938 12.7531Z" fill="#F9E95E"/>
<path d="M164.897 13.4356C164.462 13.3638 164.027 13.3997 163.635 13.2201C163.374 13.0764 162.852 13.6152 163.113 13.7589C163.504 14.0104 163.983 14.0463 164.462 14.0463C164.766 14.0463 165.288 13.4715 164.897 13.3997V13.4356Z" fill="#F9E95E"/>
</g>
<path d="M126.479 6.78967L125.478 7.40038L126.087 7.83147L126.957 7.14891L126.479 6.78967Z" fill="#898E00"/>
<path d="M114.732 9.5199L113.644 9.59175V10.1306L114.645 9.98691L114.732 9.5199Z" fill="#898E00"/>
<path d="M117.255 16.8843L116.167 16.9561V17.495L117.124 17.3513L117.255 16.8843Z" fill="#898E00"/>
<path d="M122.302 16.3454L122.476 15.4473L121.91 15.3036L121.736 16.1298L122.302 16.3454Z" fill="#898E00"/>
<path d="M161.503 18.3572L160.503 19.0038L161.112 19.399L161.982 18.7164L161.503 18.3572Z" fill="#898E00"/>
<path d="M149.756 21.0874L148.668 21.1952V21.6981L149.669 21.5903L149.756 21.0874Z" fill="#898E00"/>
<path d="M157.283 27.9489L157.5 27.0508L156.935 26.9071L156.761 27.7334L157.283 27.9489Z" fill="#898E00"/>
<path d="M140.706 22.7399L139.705 23.3506L140.314 23.7817L141.185 23.0991L140.706 22.7399Z" fill="#898E00"/>
<path d="M128.959 25.4701L127.871 25.5779V26.0808L128.872 25.9371L128.959 25.4701Z" fill="#898E00"/>
<path d="M150.365 37.1454L149.234 37.2532L149.277 37.792L150.234 37.6483L150.365 37.1454Z" fill="#898E00"/>
<path d="M147.624 53.0597L146.536 53.1675V53.6704L147.537 53.5267L147.624 53.0597Z" fill="#898E00"/>
<path d="M164.375 45.9828L163.287 46.0906V46.5935L164.288 46.4857L164.375 45.9828Z" fill="#898E00"/>
<path d="M136.529 32.3316L136.747 31.4335L136.138 31.2898L135.964 32.0801L136.529 32.3316Z" fill="#898E00"/>
<path d="M123.52 20.764L122.563 21.3747L123.172 21.8058L123.999 21.1233L123.52 20.764Z" fill="#898E00"/>
<path d="M111.817 23.4584L110.685 23.5661L110.729 24.105L111.686 23.9613L111.817 23.4584Z" fill="#898E00"/>
<path d="M119.343 30.3199L119.561 29.4218L118.952 29.2781L118.821 30.1043L119.343 30.3199Z" fill="#898E00"/>
<path d="M169.77 30.2839L168.769 30.8946L169.422 31.3257L170.248 30.6432L169.77 30.2839Z" fill="#898E00"/>
<path d="M158.066 33.0142L156.935 33.1219L156.978 33.6249L157.936 33.4812L158.066 33.0142Z" fill="#898E00"/>
<path d="M140.706 38.8339L139.618 38.9416V39.4446L140.619 39.3368L140.706 38.8339Z" fill="#898E00"/>
<path d="M138.009 46.5934L136.921 46.6652V47.2041L137.878 47.0604L138.009 46.5934Z" fill="#898E00"/>
<path d="M165.593 39.8397L165.81 38.9776L165.201 38.8339L165.071 39.6242L165.593 39.8397Z" fill="#898E00"/>
<path d="M117.255 38.0794L117.473 37.1813L116.864 37.0376L116.733 37.8279L117.255 38.0794Z" fill="#898E00"/>
<path d="M196.223 18.5726L195.222 19.2193L195.875 19.6504L196.701 18.9319L196.223 18.5726Z" fill="#898E00"/>
<path d="M199.617 32.9423L198.616 33.5889L199.268 33.9841L200.095 33.3015L199.617 32.9423Z" fill="#898E00"/>
<path d="M178.123 44.9408L177.123 45.5515L177.732 45.9826L178.602 45.3L178.123 44.9408Z" fill="#898E00"/>
<path d="M180.429 30.4994L179.342 30.6072V31.1101L180.299 31.0023L180.429 30.4994Z" fill="#898E00"/>
<path d="M189.392 41.6717L189.61 40.7736L189 40.6299L188.87 41.4202L189.392 41.6717Z" fill="#898E00"/>
<path d="M101.157 35.2054L101.374 34.3073L100.765 34.1636L100.635 34.9898L101.157 35.2054Z" fill="#898E00"/>
<path d="M183.344 12.6453L182.431 13.22L182.996 13.5793L183.779 12.9686L183.344 12.6453Z" fill="#898E00"/>
<path d="M172.641 15.124L171.641 15.2318V15.6988L172.554 15.5551L172.641 15.124Z" fill="#898E00"/>
<path d="M179.516 21.3748L179.733 20.5486L179.168 20.4408L179.037 21.1952L179.516 21.3748Z" fill="#898E00"/>
<path d="M185.868 26.44L186.085 25.6497L185.563 25.506L185.389 26.2604L185.868 26.44Z" fill="#898E00"/>
<path d="M152.062 5.64001L151.148 6.2148L151.714 6.60996L152.497 5.99925L152.062 5.64001Z" fill="#898E00"/>
<path d="M141.359 8.15466L140.358 8.22651V8.69352L141.272 8.58575L141.359 8.15466Z" fill="#898E00"/>
<path d="M148.233 14.4055L148.451 13.5792L147.885 13.4355L147.754 14.19L148.233 14.4055Z" fill="#898E00"/>
<path d="M161.285 8.69362L161.503 7.83144L160.894 7.68774L160.763 8.47807L161.285 8.69362Z" fill="#898E00"/>
<path d="M135.703 3.77198L135.92 2.90981L135.311 2.76611L135.18 3.55644L135.703 3.77198Z" fill="#898E00"/>
</svg>
