<svg width="486" height="314" viewBox="0 0 486 314" fill="none" xmlns="http://www.w3.org/2000/svg">
<rect width="486" height="314" fill="white"/>
<g opacity="0.3">
<g clip-path="url(#clip0_40_8140)">
<path d="M106.85 130.46C107.2 127.29 105.91 123.71 102.41 123.11C99.3 122.58 96.25 124.53 94.49 126.96C93.41 128.45 92.71 130.19 92.41 132C92.11 133.79 93.01 136.39 92.35 137.97C91.48 140.03 89.57 142.09 88.3 143.92C86.97 145.83 85.63 147.73 84.3 149.63C81.97 152.97 79.66 156.33 77.64 159.87C76.73 161.46 75.87 163.08 75.08 164.73C74.51 165.92 73.71 167.07 74.14 168.41C75.36 172.16 78.36 169.77 79.71 167.7C82.59 163.28 85.05 158.58 87.55 153.94C90.21 148.98 92.61 142.14 97.95 139.58C102.26 137.51 105.84 135.72 106.84 130.62C106.98 129.91 105.89 129.6 105.75 130.32C104.88 134.72 101.83 136.6 98.06 138.29C95.11 139.62 93.27 141.38 91.64 144.15C87.57 151.04 84.15 158.29 79.98 165.13C79.49 165.93 79.03 166.78 78.48 167.54C77.73 168.57 77.48 169.5 76.19 168.8C75.25 168.28 75.43 167.79 75.74 166.63C76.12 165.24 76.8 163.79 77.47 162.52C78.88 159.87 80.46 157.31 82.12 154.81C83.84 152.22 85.64 149.69 87.43 147.15C88.37 145.81 89.31 144.46 90.24 143.11C90.83 142.25 91.42 141.39 92.01 140.52C92.5 139.79 93.71 138.58 93.87 137.73C94.11 136.49 93.33 134.94 93.38 133.58C93.47 131.24 94.31 128.89 95.82 127.09C97.21 125.44 99.35 124.08 101.58 124.17C104.96 124.3 106.03 127.65 105.72 130.47C105.64 131.19 106.77 131.19 106.85 130.47V130.46Z" fill="#3D3D3D"/>
<path d="M96.54 129.18C95.17 130.59 94.67 132.58 95.24 134.46C95.45 135.16 96.54 134.86 96.33 134.16C95.88 132.65 95.99 130.96 97.09 129.83C97.6 129.31 97.05 128.66 96.54 129.18Z" fill="#3D3D3D"/>
<path d="M100.31 126.83C102.44 126.67 102.92 129.23 102.31 130.84C101.87 132 100.77 132.91 99.94 133.81C99.45 134.35 100.5 135.15 100.99 134.61C102.39 133.08 103.91 131.31 103.72 129.09C103.57 127.29 102.14 125.86 100.3 126.01C99.58 126.07 99.57 126.9 100.3 126.84L100.31 126.83Z" fill="#3D3D3D"/>
<path d="M89.9 122.46C87.83 121.53 85.85 120.41 83.99 119.11C83.57 118.82 83.14 118.49 82.95 118.02C82.76 117.55 82.96 116.89 83.46 116.77C83.76 116.7 84.07 116.84 84.35 116.98C86.85 118.28 89.02 120.2 90.61 122.52" fill="#C3E2DA"/>
<path d="M97.39 119.13C97.71 116.88 98.23 114.67 98.95 112.52C99.11 112.04 99.3 111.53 99.71 111.22C100.11 110.91 100.8 110.91 101.05 111.36C101.21 111.63 101.16 111.97 101.1 112.27C100.55 115.03 99.31 117.65 97.52 119.83" fill="#3D3D3D"/>
<path d="M92.75 119.27C92.15 118.3 91.67 117.28 91.32 116.21C91.24 115.97 91.17 115.71 91.28 115.46C91.39 115.21 91.76 114.98 92.05 115.06C92.23 115.11 92.32 115.26 92.39 115.39C93.04 116.63 93.27 118.05 93.05 119.49" fill="#3D3D3D"/>
<path d="M109.32 139.56C111.59 139.51 113.86 139.66 116.1 140.02C116.6 140.1 117.14 140.21 117.51 140.56C117.88 140.91 117.99 141.58 117.59 141.91C117.35 142.11 117.01 142.12 116.7 142.11C113.89 142.02 111.1 141.22 108.66 139.82" fill="#C3E2DA"/>
<path d="M104.01 145.8C104.69 147.96 105.18 150.19 105.46 152.44C105.52 152.95 105.57 153.49 105.34 153.94C105.11 154.39 104.49 154.69 104.07 154.4C103.81 154.22 103.71 153.9 103.63 153.6C102.93 150.87 102.91 147.97 103.59 145.24" fill="#3D3D3D"/>
<path d="M108.13 143.66C109.09 144.27 109.96 144.99 110.74 145.8C110.91 145.98 111.09 146.18 111.1 146.46C111.1 146.74 110.87 147.1 110.58 147.15C110.4 147.18 110.25 147.09 110.13 147C109 146.16 108.18 144.98 107.76 143.59" fill="#3D3D3D"/>
<path d="M144.62 114.93C143.65 114.19 142.33 114.47 141.64 115.27C141.53 115.33 141.43 115.42 141.36 115.56C140.45 117.22 141.81 119.36 143.74 118.96C145.67 118.56 146.16 116.11 144.63 114.93H144.62Z" fill="#3D3D3D"/>
<path d="M138.97 173.27C138.74 173.36 138.56 173.51 138.43 173.69C138.36 173.73 138.3 173.79 138.27 173.87C137.94 174.63 138.27 175.6 139.15 175.78C139.97 175.95 140.82 175.28 140.75 174.42C140.68 173.54 139.81 172.93 138.97 173.27Z" fill="#3D3D3D"/>
<path d="M119.61 188.06C119.25 188.2 118.97 188.43 118.77 188.71C118.66 188.78 118.57 188.86 118.51 188.99C118 190.18 118.51 191.68 119.88 191.97C121.16 192.24 122.48 191.19 122.38 189.86C122.27 188.5 120.91 187.54 119.61 188.07V188.06Z" fill="#C3E2DA"/>
<path d="M114.59 115.47C114.59 114.99 114.36 114.56 113.98 114.27C113.61 113.99 113.19 113.93 112.74 113.98C112.4 114.02 112.19 114.38 112.19 114.71C111.67 115.3 111.89 116.34 112.62 116.72C113.5 117.18 114.58 116.44 114.59 115.47Z" fill="#3D3D3D"/>
<path d="M110.57 156.36C108.49 159.31 106.61 162.39 105.02 165.63C104.11 167.48 103.28 168.82 101.8 170.24C100.25 171.73 98.81 173.32 97.57 175.08C94.81 178.99 91.88 185.56 93.87 190.39C94.01 190.73 94.51 190.9 94.76 190.56C97.27 187.24 99.55 183.76 101.54 180.1C103.79 175.97 105.19 171.28 107.92 167.47C109.05 165.9 110.14 164.3 111.12 162.63C111.94 161.23 113.35 159.26 113.5 157.6C113.66 155.79 111.77 155.26 110.58 156.35C110.08 156.8 110.88 157.48 111.38 157.03C112.18 157.51 112.4 158.04 112.02 158.62C111.86 158.99 111.7 159.35 111.52 159.7C111.17 160.42 110.79 161.13 110.39 161.82C109.61 163.18 108.74 164.5 107.84 165.79C107.06 166.91 106.06 167.99 105.39 169.18C104.67 170.44 104.27 172.04 103.69 173.37C101.11 179.24 97.84 184.76 93.98 189.87C94.28 189.93 94.58 189.99 94.87 190.04C93.91 187.7 94.5 184.57 95.18 182.23C96.14 178.93 97.99 175.97 100.23 173.39C101.46 171.97 103.34 170.75 104.42 169.27C105.08 168.36 105.47 167.09 105.97 166.08C107.52 162.92 109.34 159.91 111.37 157.04C111.76 156.49 110.96 155.81 110.57 156.36Z" fill="#3D3D3D"/>
<path d="M130.31 117.61C130.29 117.51 130.23 117.42 130.12 117.36C130.04 117.28 129.94 117.24 129.85 117.23C127.64 116.28 124.12 117 121.88 117.44C119.23 117.97 118.9 119.4 119.24 121.87C119.66 124.93 120.12 128.26 121.34 131.12C122.17 133.07 123.28 134.26 125.23 134.25C125.21 141.41 125.6 148.56 126.44 155.66C126.56 156.66 126.7 159.92 128.65 158.94C129.22 158.65 129.39 157.87 129.48 157.32C129.79 155.55 129.61 153.54 129.6 151.74C129.58 148.16 129.39 144.58 129.06 141.02C128.89 139.26 128.69 137.51 128.45 135.76C128.32 134.79 128.08 134.1 128.54 133.31C128.73 132.98 129.34 132.68 129.6 132.36C131.08 130.5 131.44 127.58 131.48 125.3C131.52 123 131.67 119.57 130.3 117.6L130.31 117.61ZM130.43 126.05C130.29 128.49 129.75 131.66 127.32 132.8C127.11 132.9 127.02 133.15 127.05 133.37C127.68 137.4 128.14 141.45 128.37 145.52C128.46 147 129.31 156.83 128.08 157.1C127.28 157.27 127.43 155.29 127.35 154.59C127.25 153.72 127.16 152.85 127.07 151.98C126.86 149.85 126.69 147.71 126.56 145.57C126.32 141.63 126.23 137.69 126.25 133.75C126.25 133.39 125.97 133.17 125.63 133.21C121.84 133.67 121.2 127.23 120.71 124.55C120.25 122.06 119.65 119.26 122.93 118.31C124.5 117.86 127.9 117.45 129.44 118.17C130.79 119.96 130.55 123.93 130.42 126.05H130.43Z" fill="#3D3D3D"/>
<path d="M122.43 120.72C122.43 120.72 122.43 120.74 122.43 120.75C122.31 120.85 122.23 120.99 122.24 121.18C122.51 123.97 122.77 126.77 123.04 129.56C123.09 130.1 123.94 130.01 123.97 129.49C124.09 127.37 124.34 125.22 124.33 123.1C124.33 121.92 124.11 120.94 123.14 120.22C122.79 119.96 122.37 120.34 122.42 120.72H122.43Z" fill="#3D3D3D"/>
<path d="M125.21 120.56C125.07 120.66 124.98 120.81 125.01 121.02C125.41 123.66 125.81 126.3 126.21 128.94C126.29 129.47 127.13 129.4 127.14 128.87C127.22 126.04 126.89 123.28 126.12 120.55C125.97 120.03 125.29 120.12 125.2 120.57L125.21 120.56Z" fill="#3D3D3D"/>
<path d="M127.97 120.53C127.85 120.59 127.77 120.71 127.78 120.9C127.91 122.86 128.05 124.82 128.18 126.77C128.22 127.37 129.16 127.44 129.12 126.83C129.08 126.02 129.04 125.21 128.99 124.4C129.02 124.34 129.05 124.27 129.04 124.17C128.96 123.08 128.68 122.02 128.6 120.93C128.57 120.46 128.2 120.28 127.96 120.53H127.97Z" fill="#3D3D3D"/>
</g>
<g clip-path="url(#clip1_40_8140)">
<path d="M58.22 121.07C58.27 123.34 58.52 125.6 58.97 127.82C59.07 128.32 59.2 128.85 59.57 129.2C59.93 129.56 60.61 129.63 60.92 129.23C61.11 128.98 61.1 128.64 61.08 128.33C60.87 125.52 59.95 122.77 58.44 120.4" fill="#3D3D3D"/>
<path d="M64.22 115.49C66.41 116.08 68.65 116.47 70.91 116.65C71.42 116.69 71.96 116.71 72.4 116.46C72.84 116.21 73.11 115.58 72.8 115.17C72.61 114.92 72.28 114.83 71.98 114.77C69.23 114.19 66.33 114.3 63.63 115.09" fill="#3D3D3D"/>
<path d="M62.27 119.71C62.92 120.64 63.68 121.48 64.52 122.22C64.71 122.39 64.92 122.55 65.2 122.55C65.48 122.55 65.83 122.3 65.87 122C65.89 121.82 65.79 121.68 65.7 121.56C64.81 120.47 63.6 119.7 62.19 119.34" fill="#3D3D3D"/>
<path d="M65.72 146.99C65.61 148.33 66.93 149.37 68.22 149.1C69.58 148.81 70.11 147.31 69.59 146.12C69.54 146 69.44 145.91 69.33 145.84C69.13 145.56 68.84 145.33 68.49 145.19C67.19 144.67 65.83 145.62 65.72 146.98V146.99Z" fill="#C3E2DA"/>
<path d="M73.58 186.63C74.31 186.25 74.52 185.21 74.01 184.62C74.01 184.3 73.79 183.93 73.46 183.89C73.01 183.84 72.59 183.9 72.22 184.18C71.84 184.47 71.6 184.9 71.61 185.38C71.62 186.35 72.7 187.08 73.58 186.63Z" fill="#3D3D3D"/>
<path d="M30 100.97C29.9 101.85 30.73 102.32 31.5 102.37C32.77 102.45 34.09 102.3 35.36 102.25C35.99 107.03 38.7 111.4 42.73 113.8C41.58 114.34 40.83 115.24 40.47 116.57C40.38 116.91 40.52 117.24 40.89 117.3C45.14 118 49.39 118.7 53.64 119.39C54.07 119.46 54.31 119.01 54.2 118.65C53.77 117.35 53.17 116.39 52.24 115.49C57.45 114.55 61.97 110.76 63.99 105.84C64.04 105.88 64.1 105.91 64.18 105.93C65.96 106.4 68.01 107.28 69.85 107.37C70.65 107.41 71.54 106.99 71.57 106.08C71.6 105.17 70.69 104.73 69.93 104.56C68.04 104.13 66 104.05 64.08 103.81C64.06 103.81 64.05 103.8 64.04 103.8C54.74 102.76 45.44 101.72 36.14 100.67C36.07 100.62 36 100.58 35.9 100.57C34.44 100.37 32.91 100 31.44 100C30.79 100 30.09 100.24 30 100.97ZM43.96 114.45C45.25 115.05 46.64 115.47 48.13 115.65C49.11 115.76 50.08 115.76 51.03 115.67C51.05 115.78 51.1 115.89 51.2 115.98C51.97 116.66 52.5 117.35 52.89 118.2C49.17 117.59 45.44 116.98 41.72 116.37C42.16 115.53 42.97 114.8 43.83 114.53C43.88 114.51 43.92 114.49 43.96 114.46V114.45ZM36 101.72C36.74 101.36 39.05 102.06 39.87 102.16C47.67 103.04 55.47 103.92 63.26 104.8C59.89 114.14 47.53 118.26 40.24 110.49C38.54 108.68 37.31 106.42 36.72 104.01C36.51 103.17 36.1 101.69 36.01 101.73L36 101.72Z" fill="#3D3D3D"/>
<path d="M51.8 167.23C52.14 170.14 52.06 172.31 53.98 174.89C55.44 176.85 57.46 178.15 59.97 177.99C66.05 177.6 68.24 171.21 66.83 166.11C66.92 165.77 66.7 165.34 66.33 165.25C65.11 164.95 63.9 164.75 62.7 164.64C61.74 164.46 60.76 164.41 59.72 164.55C57.93 164.61 56.16 164.86 54.38 165.33C53.29 164.52 53.47 162.85 53.39 161.49C53.01 154.92 53.84 148.32 53.31 141.75C52.98 137.68 52.1 133.38 49.09 130.4C48.06 129.38 45 126.71 43.99 129.1C42.74 132.05 47.53 134.05 48.66 135.74C51.12 139.39 50.01 146.88 49.85 150.99C49.75 153.65 47.77 165.08 51.8 167.24V167.23ZM52.49 165.9C52.49 165.9 52.49 165.9 52.48 165.9C49.31 163.31 51.34 147.35 51.31 144.63C51.28 141.79 51.39 138.29 50.11 135.66C49.77 134.96 49.41 134.47 48.88 133.92C47.87 132.88 43.31 129.14 47.02 130.4C51.63 131.96 52.01 140.59 52.12 144.41C52.25 149.15 51.9 153.89 51.98 158.62C52.01 160.3 51.57 163.82 52.5 165.89L52.49 165.9ZM53.58 171.55C53.15 170.36 53.2 169.03 53.15 167.75C57.2 169.91 61.75 169.83 65.78 167.56C66.43 172.05 63.99 177.66 58.53 176.5C56.19 176 54.38 173.77 53.57 171.56L53.58 171.55Z" fill="#3D3D3D"/>
</g>
<g clip-path="url(#clip2_40_8140)">
<path d="M55.66 37.46C55.31 34.29 56.6 30.71 60.1 30.11C63.21 29.58 66.26 31.53 68.02 33.96C69.1 35.45 69.8 37.19 70.1 39C70.4 40.79 69.5 43.39 70.16 44.97C71.03 47.03 72.94 49.09 74.21 50.92C75.54 52.83 76.88 54.73 78.21 56.63C80.54 59.97 82.85 63.33 84.87 66.87C85.78 68.46 86.64 70.08 87.43 71.73C88 72.92 88.8 74.07 88.37 75.41C87.15 79.16 84.15 76.77 82.8 74.7C79.92 70.28 77.46 65.58 74.96 60.94C72.3 55.98 69.9 49.14 64.56 46.58C60.25 44.51 56.67 42.72 55.67 37.62C55.53 36.91 56.62 36.6 56.76 37.32C57.63 41.72 60.68 43.6 64.45 45.29C67.4 46.62 69.24 48.38 70.87 51.15C74.94 58.04 78.36 65.29 82.53 72.13C83.02 72.93 83.48 73.78 84.03 74.54C84.78 75.57 85.03 76.5 86.32 75.8C87.26 75.28 87.08 74.79 86.77 73.63C86.39 72.24 85.71 70.79 85.04 69.52C83.63 66.87 82.05 64.31 80.39 61.81C78.67 59.22 76.87 56.69 75.08 54.15C74.14 52.81 73.2 51.46 72.27 50.11C71.68 49.25 71.09 48.39 70.5 47.52C70.01 46.79 68.8 45.58 68.64 44.73C68.4 43.49 69.18 41.94 69.13 40.58C69.04 38.24 68.2 35.89 66.69 34.09C65.3 32.44 63.16 31.08 60.93 31.17C57.55 31.3 56.48 34.65 56.79 37.47C56.87 38.19 55.74 38.19 55.66 37.47V37.46Z" fill="#3D3D3D"/>
<path d="M65.97 36.1799C67.34 37.5899 67.84 39.5799 67.27 41.4599C67.06 42.1599 65.97 41.8599 66.18 41.1599C66.63 39.6499 66.52 37.9599 65.42 36.8299C64.91 36.3099 65.46 35.6599 65.97 36.1799Z" fill="#3D3D3D"/>
<path d="M62.2 33.8301C60.07 33.6701 59.59 36.2301 60.2 37.8401C60.64 39.0001 61.74 39.9101 62.57 40.8101C63.06 41.3501 62.01 42.1501 61.52 41.6101C60.12 40.0801 58.6 38.3101 58.79 36.0901C58.94 34.2901 60.37 32.8601 62.21 33.0101C62.93 33.0701 62.94 33.9001 62.21 33.8401L62.2 33.8301Z" fill="#3D3D3D"/>
<path d="M85.3 28.59C84.27 32.24 86.71 33.82 88.11 36.83C89.34 39.47 87.32 43 86.4 45.55C86.32 45.76 86.46 46.09 86.67 46.18C89.94 47.58 93.33 48.66 96.6 50.07C96.93 50.21 97.82 50.23 97.92 49.84C98.44 47.79 98.28 45.42 99.02 43.43C99.92 41.04 102.23 39.7 103.97 38.01C105.79 36.24 107.43 33.89 107.11 31.21C106.59 26.88 101.75 26.14 99.3 28.8C98.93 27.05 97.83 25.53 95.87 25.17C94.12 24.85 92.71 25.69 92.02 27.06C90.31 24.77 86.66 25.67 85.35 28.43C85.33 28.46 85.32 28.5 85.31 28.53C85.31 28.55 85.29 28.56 85.29 28.57L85.3 28.59ZM86.38 28.93C87.46 26.79 90.76 25.76 91.61 28.78C91.8 29.44 92.66 29.22 92.72 28.61C93.08 24.64 96.71 26.44 97.71 27.88C98.29 28.72 98.35 29.55 98.3 30.53C98.26 31.23 99.2 31.2 99.41 30.66C100.31 28.38 103.12 27.32 105.02 29.25C106.36 30.61 106.25 32.7 105.54 34.28C104.66 36.22 102.8 37.54 101.25 38.91C100.16 39.88 98.81 40.92 98.14 42.26C97.21 44.1 96.93 46.69 96.47 48.81C94.56 48.02 92.61 47.31 90.67 46.58C90.02 46.33 89.37 46.09 88.72 45.83C87.17 45.21 87.76 45.83 87.77 45.06C87.79 44.24 88.51 43.07 88.78 42.28C89.33 40.64 90.02 38.8 89.47 37.08C88.51 34.04 85.39 32.57 86.37 28.93H86.38Z" fill="#3D3D3D"/>
<path d="M96.9 37.28L96.94 37.23C98.07 35.82 98.88 35.17 99.4 35.25C99.55 35.27 99.74 35.36 99.86 35.67C100.04 36.13 99.72 36.53 99.35 36.76C98.84 37.07 98.28 37.32 97.73 37.56C97.47 37.67 97.22 37.79 96.97 37.9C96.9 37.93 96.84 37.94 96.77 37.92C96.7 37.9 96.64 37.86 96.61 37.8C96.53 37.68 96.57 37.52 96.69 37.43L96.9 37.27V37.28Z" fill="#3D3D3D"/>
<path d="M95.85 32.5801C96.17 32.6001 96.39 32.7301 96.51 32.9601C96.86 33.6301 96.18 34.9501 95.47 36.1701C95.4 36.2901 95.35 36.3801 95.32 36.4301C95.26 36.5401 95.15 36.5901 95.07 36.5701C95.04 36.5701 95.02 36.5701 95 36.5701C94.9 36.5501 94.83 36.4701 94.81 36.3601C94.64 35.4001 94.67 34.4801 94.9 33.6401C94.98 33.3401 95.2 32.5401 95.86 32.5801H95.85Z" fill="#3D3D3D"/>
<path d="M91.59 33.6201C91.8 33.3601 92 33.3401 92.14 33.3701C92.86 33.5201 93.35 35.5001 93.4 35.7201C93.42 35.7901 93.4 35.8701 93.37 35.9301C93.33 35.9901 93.27 36.0401 93.2 36.0601C93.15 36.0701 93.1 36.0801 93.05 36.0601C93.03 36.0601 93 36.0401 92.98 36.0301C92.92 35.9901 92.88 35.9301 92.86 35.8501C92.82 35.6301 92.51 35.3901 92.21 35.1501C91.84 34.8601 91.45 34.5601 91.41 34.1701C91.39 33.9801 91.45 33.8001 91.59 33.6201Z" fill="#3D3D3D"/>
<path d="M72.6 29.4601C74.67 28.5301 76.65 27.4101 78.51 26.1101C78.93 25.8201 79.36 25.4901 79.55 25.0201C79.74 24.5501 79.54 23.8901 79.04 23.7701C78.74 23.7001 78.43 23.8401 78.15 23.9801C75.65 25.2801 73.48 27.2001 71.89 29.5201" fill="#C3E2DA"/>
<path d="M65.11 26.1301C64.79 23.8801 64.27 21.6701 63.55 19.5201C63.39 19.0401 63.2 18.5301 62.79 18.2201C62.39 17.9101 61.7 17.9101 61.45 18.3601C61.29 18.6301 61.34 18.9701 61.4 19.2701C61.95 22.0301 63.19 24.6501 64.98 26.8301" fill="#3D3D3D"/>
<path d="M69.76 26.2701C70.36 25.3001 70.84 24.2801 71.19 23.2101C71.27 22.9701 71.34 22.7101 71.23 22.4601C71.12 22.2101 70.75 21.9801 70.46 22.0601C70.28 22.1101 70.19 22.2601 70.12 22.3901C69.47 23.6301 69.24 25.0501 69.46 26.4901" fill="#3D3D3D"/>
<path d="M78.06 42.2199C79.99 42.6199 81.35 40.4799 80.44 38.8199C80.36 38.6799 80.27 38.5899 80.16 38.5299C79.46 37.7299 78.14 37.4499 77.18 38.1899C75.64 39.3699 76.14 41.8199 78.07 42.2199H78.06Z" fill="#3D3D3D"/>
<path d="M118.33 86.9499C120.26 87.3499 121.62 85.2099 120.71 83.5499C120.63 83.4099 120.54 83.3199 120.43 83.2599C119.73 82.4599 118.41 82.1799 117.45 82.9199C115.91 84.0999 116.41 86.5499 118.34 86.9499H118.33Z" fill="#3D3D3D"/>
<path d="M112.72 45.22C112.62 46.46 113.85 47.43 115.03 47.18C116.29 46.91 116.78 45.52 116.3 44.42C116.25 44.31 116.16 44.22 116.06 44.16C115.87 43.9 115.61 43.69 115.28 43.55C114.07 43.07 112.81 43.95 112.71 45.21L112.72 45.22Z" fill="#3D3D3D"/>
<path d="M90.11 58.9901C90.04 59.8501 90.89 60.5201 91.71 60.3501C92.59 60.1701 92.92 59.2001 92.59 58.4401C92.56 58.3601 92.5 58.3001 92.43 58.2601C92.3 58.0801 92.12 57.9301 91.89 57.8401C91.05 57.5001 90.18 58.1201 90.11 58.9901Z" fill="#3D3D3D"/>
<path d="M77.05 85C77.2 85.84 78.17 86.37 78.92 86.03C79.24 86.13 79.67 86.03 79.81 85.7C80 85.27 80.06 84.83 79.9 84.38C79.73 83.92 79.38 83.55 78.9 83.41C77.93 83.13 76.88 83.98 77.06 84.99L77.05 85Z" fill="#3D3D3D"/>
<path d="M51.93 63.3601C54.01 66.3101 55.89 69.3901 57.48 72.6301C58.39 74.4801 59.22 75.8201 60.7 77.2401C62.25 78.7301 63.69 80.3201 64.93 82.0801C67.69 85.9901 70.62 92.5601 68.63 97.3901C68.49 97.7301 67.99 97.9001 67.74 97.5601C65.23 94.2401 62.95 90.7601 60.96 87.1001C58.71 82.9701 57.31 78.2801 54.58 74.4701C53.45 72.9001 52.36 71.3001 51.38 69.6301C50.56 68.2301 49.15 66.2601 49 64.6001C48.84 62.7901 50.73 62.2601 51.92 63.3501C52.42 63.8001 51.62 64.4801 51.12 64.0301C50.32 64.5101 50.1 65.0401 50.48 65.6201C50.64 65.9901 50.8 66.3501 50.98 66.7001C51.33 67.4201 51.71 68.1301 52.11 68.8201C52.89 70.1801 53.76 71.5001 54.66 72.7901C55.44 73.9101 56.44 74.9901 57.11 76.1801C57.83 77.4401 58.23 79.0401 58.81 80.3701C61.39 86.2401 64.66 91.7601 68.52 96.8701C68.22 96.9301 67.92 96.9901 67.63 97.0401C68.59 94.7001 68 91.5701 67.32 89.2301C66.36 85.9301 64.51 82.9701 62.27 80.3901C61.04 78.9701 59.16 77.7501 58.08 76.2701C57.42 75.3601 57.03 74.0901 56.53 73.0801C54.98 69.9201 53.16 66.9101 51.13 64.0401C50.74 63.4901 51.54 62.8101 51.93 63.3601Z" fill="#3D3D3D"/>
<path d="M91.55 81.5499C91.32 81.7199 91.32 82.1399 91.58 82.2899C94.68 84.0699 97.42 86.2399 99.85 88.8699C99.85 88.8799 99.85 88.8899 99.85 88.9099C99.87 88.9999 99.89 89.0999 99.91 89.1899C98.66 90.3599 97.42 91.7899 96.85 93.3999C96.46 94.5099 96.66 96.0799 98.02 96.3799C99.22 96.6499 100.27 95.5999 100.73 94.6099C101.47 93.0099 101.26 91.2099 100.93 89.5199C101.12 89.3399 101.11 89.1099 101 88.9299C104.48 83.2399 109.97 79.3699 114.17 74.2699C117 70.8199 120.7 64.8499 117.6 60.4499C114.59 56.1899 110.17 59.2599 107.29 61.7999C106.22 62.7399 105.46 63.7499 104.76 64.9899C104.21 65.9699 103.75 66.9899 103.22 67.9799C103.14 68.1199 101.21 71.3199 100.94 69.3899C100.92 67.8299 101.59 64.4599 100.31 63.3199C99.19 62.3199 98.21 63.1999 97.58 64.0599C93.78 69.3199 97.39 77.2999 91.56 81.5499H91.55ZM110.19 77.1999C109.2 78.1899 108.19 79.1599 107.18 80.1299C107.1 80.0999 107.02 80.0799 106.91 80.0999C105.43 80.5399 104.51 80.0999 104.15 78.7599C104.84 78.3899 105.38 77.8099 105.49 76.9699C105.63 75.8899 104.84 74.8199 103.68 75.2299C102.53 75.6399 102.3 77.2199 102.51 78.3399C102.11 78.4199 101.7 78.4499 101.27 78.4099C100.74 78.4099 100.21 78.3499 99.67 78.3699C99.56 78.3699 99.46 78.3799 99.35 78.3899C99.11 77.9599 98.83 77.5399 98.58 77.0999C98.39 76.7999 98.22 76.4799 98.07 76.1599C98.06 75.9599 98.03 75.7799 97.99 75.6099C98.81 75.5799 99.58 75.2999 99.97 74.4699C100.48 73.3999 99.75 72.0899 98.53 72.1899C97.34 72.2899 96.88 73.3999 96.82 74.4899C96.67 74.4699 96.51 74.4599 96.33 74.4699C96.27 74.4499 96.2 74.4499 96.15 74.4699C96.28 73.3099 96.34 72.1499 96.47 70.9899C96.69 69.1099 96.8 67.1899 97.71 65.5299C98.21 64.6199 98.73 63.3699 99.86 65.1099C100.34 65.8599 99.96 68.4899 99.99 69.3899C99.99 69.4099 99.99 69.4199 100 69.4399C100 69.4599 100 69.4899 100 69.5099C100.2 71.1099 101 71.5099 102.31 70.6399C104.42 69.2399 104.89 66.1699 106.3 64.1899C108.82 60.6399 116.63 55.7899 117.72 63.3399C118.48 68.6299 113.58 73.7799 110.19 77.1699V77.1999ZM100.12 90.2899C100.22 90.8499 100.28 91.4099 100.29 91.9799C100.29 92.9199 100.17 94.5699 99.24 95.1099C97.91 94.7599 97.43 94.2299 97.81 93.5199C97.89 93.3199 97.98 93.1399 98.1 92.9599C98.33 92.5299 98.6 92.1199 98.88 91.7299C99.26 91.2099 99.67 90.7399 100.12 90.2799V90.2899ZM93.53 81.1099C94.4 79.5799 95.26 78.6499 95.74 76.8499C95.87 76.3599 95.97 75.8699 96.04 75.3699C96.3 75.4399 96.59 75.4999 96.89 75.5499C96.91 75.6299 96.92 75.7099 96.94 75.7799C97.2 76.8099 97.86 77.6299 98.37 78.5399C97.79 78.6699 97.23 78.8899 96.76 79.2899C95.66 80.2499 95.25 82.1899 96.61 83.1599C97.91 84.0899 99.5 83.0999 99.95 81.7599C100.22 80.9699 100.03 80.0699 99.77 79.3099C99.75 79.2499 99.72 79.1999 99.7 79.1399C99.9 79.1599 100.15 79.2099 100.44 79.3199C100.95 79.3199 101.46 79.3799 101.98 79.3399C102.24 79.3199 102.52 79.2799 102.8 79.2299C103.45 80.5299 104.75 81.1499 106.15 81.1199C104.55 82.6999 103.01 84.3399 101.67 86.1499C100.55 87.6699 100.83 88.0999 99.29 86.9299C99.13 86.8099 97.72 85.4699 97.57 85.3299C96.44 84.3499 95.18 83.5699 94.01 82.6599C92.89 81.7899 92.82 82.3099 93.51 81.0899L93.53 81.1099Z" fill="#C3E2DA"/>
</g>
<g clip-path="url(#clip3_40_8140)">
<path d="M57.66 214.46C57.31 211.29 58.6 207.71 62.1 207.11C65.21 206.58 68.26 208.53 70.02 210.96C71.1 212.45 71.8 214.19 72.1 216C72.4 217.79 71.5 220.39 72.16 221.97C73.03 224.03 74.94 226.09 76.21 227.92C77.54 229.83 78.88 231.73 80.21 233.63C82.54 236.97 84.85 240.33 86.87 243.87C87.78 245.46 88.64 247.08 89.43 248.73C90 249.92 90.8 251.07 90.37 252.41C89.15 256.16 86.15 253.77 84.8 251.7C81.92 247.28 79.46 242.58 76.96 237.94C74.3 232.98 71.9 226.14 66.56 223.58C62.25 221.51 58.67 219.72 57.67 214.62C57.53 213.91 58.62 213.6 58.76 214.32C59.63 218.72 62.68 220.6 66.45 222.29C69.4 223.62 71.24 225.38 72.87 228.15C76.94 235.04 80.36 242.29 84.53 249.13C85.02 249.93 85.48 250.78 86.03 251.54C86.78 252.57 87.03 253.5 88.32 252.8C89.26 252.28 89.08 251.79 88.77 250.63C88.39 249.24 87.71 247.79 87.04 246.52C85.63 243.87 84.05 241.31 82.39 238.81C80.67 236.22 78.87 233.69 77.08 231.15C76.14 229.81 75.2 228.46 74.27 227.11C73.68 226.25 73.09 225.39 72.5 224.52C72.01 223.79 70.8 222.58 70.64 221.73C70.4 220.49 71.18 218.94 71.13 217.58C71.04 215.24 70.2 212.89 68.69 211.09C67.3 209.44 65.16 208.08 62.93 208.17C59.55 208.3 58.48 211.65 58.79 214.47C58.87 215.19 57.74 215.19 57.66 214.47V214.46Z" fill="#3D3D3D"/>
<path d="M67.97 213.18C69.34 214.59 69.84 216.58 69.27 218.46C69.06 219.16 67.97 218.86 68.18 218.16C68.63 216.65 68.52 214.96 67.42 213.83C66.91 213.31 67.46 212.66 67.97 213.18Z" fill="#3D3D3D"/>
<path d="M64.2 210.83C62.07 210.67 61.59 213.23 62.2 214.84C62.64 216 63.74 216.91 64.57 217.81C65.06 218.35 64.01 219.15 63.52 218.61C62.12 217.08 60.6 215.31 60.79 213.09C60.94 211.29 62.37 209.86 64.21 210.01C64.93 210.07 64.94 210.9 64.21 210.84L64.2 210.83Z" fill="#3D3D3D"/>
<path d="M87.3 205.59C86.27 209.24 88.71 210.82 90.11 213.83C91.34 216.47 89.32 220 88.4 222.55C88.32 222.76 88.46 223.09 88.67 223.18C91.94 224.58 95.33 225.66 98.6 227.07C98.93 227.21 99.82 227.23 99.92 226.84C100.44 224.79 100.28 222.42 101.02 220.43C101.92 218.04 104.23 216.7 105.97 215.01C107.79 213.24 109.43 210.89 109.11 208.21C108.59 203.88 103.75 203.14 101.3 205.8C100.93 204.05 99.83 202.53 97.87 202.17C96.12 201.85 94.71 202.69 94.02 204.06C92.31 201.77 88.66 202.67 87.35 205.43C87.33 205.46 87.32 205.5 87.31 205.53C87.31 205.55 87.29 205.56 87.29 205.57L87.3 205.59ZM88.38 205.93C89.46 203.79 92.76 202.76 93.61 205.78C93.8 206.44 94.66 206.22 94.72 205.61C95.08 201.64 98.71 203.44 99.71 204.88C100.29 205.72 100.35 206.55 100.3 207.53C100.26 208.23 101.2 208.2 101.41 207.66C102.31 205.38 105.12 204.32 107.02 206.25C108.36 207.61 108.25 209.7 107.54 211.28C106.66 213.22 104.8 214.54 103.25 215.91C102.16 216.88 100.81 217.92 100.14 219.26C99.21 221.1 98.93 223.69 98.47 225.81C96.56 225.02 94.61 224.31 92.67 223.58C92.02 223.33 91.37 223.09 90.72 222.83C89.17 222.21 89.76 222.83 89.77 222.06C89.79 221.24 90.51 220.07 90.78 219.28C91.33 217.64 92.02 215.8 91.47 214.08C90.51 211.04 87.39 209.57 88.37 205.93H88.38Z" fill="#3D3D3D"/>
<path d="M98.9 214.28L98.94 214.23C100.07 212.82 100.88 212.17 101.4 212.25C101.55 212.27 101.74 212.36 101.86 212.67C102.04 213.13 101.72 213.53 101.35 213.76C100.84 214.07 100.28 214.32 99.73 214.56C99.47 214.67 99.22 214.79 98.97 214.9C98.9 214.93 98.84 214.94 98.77 214.92C98.7 214.9 98.64 214.86 98.61 214.8C98.53 214.68 98.57 214.52 98.69 214.43L98.9 214.27V214.28Z" fill="#3D3D3D"/>
<path d="M97.85 209.58C98.17 209.6 98.39 209.73 98.51 209.96C98.86 210.63 98.18 211.95 97.47 213.17C97.4 213.29 97.35 213.38 97.32 213.43C97.26 213.54 97.15 213.59 97.07 213.57C97.04 213.57 97.02 213.57 97 213.57C96.9 213.55 96.83 213.47 96.81 213.36C96.64 212.4 96.67 211.48 96.9 210.64C96.98 210.34 97.2 209.54 97.86 209.58H97.85Z" fill="#3D3D3D"/>
<path d="M93.59 210.62C93.8 210.36 94 210.34 94.14 210.37C94.86 210.52 95.35 212.5 95.4 212.72C95.42 212.79 95.4 212.87 95.37 212.93C95.33 212.99 95.27 213.04 95.2 213.06C95.15 213.07 95.1 213.08 95.05 213.06C95.03 213.06 95 213.04 94.98 213.03C94.92 212.99 94.88 212.93 94.86 212.85C94.82 212.63 94.51 212.39 94.21 212.15C93.84 211.86 93.45 211.56 93.41 211.17C93.39 210.98 93.45 210.8 93.59 210.62Z" fill="#3D3D3D"/>
<path d="M74.6 206.46C76.67 205.53 78.65 204.41 80.51 203.11C80.93 202.82 81.36 202.49 81.55 202.02C81.74 201.55 81.54 200.89 81.04 200.77C80.74 200.7 80.43 200.84 80.15 200.98C77.65 202.28 75.48 204.2 73.89 206.52" fill="#C3E2DA"/>
<path d="M67.11 203.13C66.79 200.88 66.27 198.67 65.55 196.52C65.39 196.04 65.2 195.53 64.79 195.22C64.39 194.91 63.7 194.91 63.45 195.36C63.29 195.63 63.34 195.97 63.4 196.27C63.95 199.03 65.19 201.65 66.98 203.83" fill="#3D3D3D"/>
<path d="M71.76 203.27C72.36 202.3 72.84 201.28 73.19 200.21C73.27 199.97 73.34 199.71 73.23 199.46C73.12 199.21 72.75 198.98 72.46 199.06C72.28 199.11 72.19 199.26 72.12 199.39C71.47 200.63 71.24 202.05 71.46 203.49" fill="#3D3D3D"/>
<path d="M80.06 219.22C81.99 219.62 83.35 217.48 82.44 215.82C82.36 215.68 82.27 215.59 82.16 215.53C81.46 214.73 80.14 214.45 79.18 215.19C77.64 216.37 78.14 218.82 80.07 219.22H80.06Z" fill="#3D3D3D"/>
<path d="M120.33 263.95C122.26 264.35 123.62 262.21 122.71 260.55C122.63 260.41 122.54 260.32 122.43 260.26C121.73 259.46 120.41 259.18 119.45 259.92C117.91 261.1 118.41 263.55 120.34 263.95H120.33Z" fill="#3D3D3D"/>
<path d="M114.72 222.22C114.62 223.46 115.85 224.43 117.03 224.18C118.29 223.91 118.78 222.52 118.3 221.42C118.25 221.31 118.16 221.22 118.06 221.16C117.87 220.9 117.61 220.69 117.28 220.55C116.07 220.07 114.81 220.95 114.71 222.21L114.72 222.22Z" fill="#3D3D3D"/>
<path d="M92.11 235.99C92.04 236.85 92.89 237.52 93.71 237.35C94.59 237.17 94.92 236.2 94.59 235.44C94.56 235.36 94.5 235.3 94.43 235.26C94.3 235.08 94.12 234.93 93.89 234.84C93.05 234.5 92.18 235.12 92.11 235.99Z" fill="#3D3D3D"/>
<path d="M79.05 262C79.2 262.84 80.17 263.37 80.92 263.03C81.24 263.13 81.67 263.03 81.81 262.7C82 262.27 82.06 261.83 81.9 261.38C81.73 260.92 81.38 260.55 80.9 260.41C79.93 260.13 78.88 260.98 79.06 261.99L79.05 262Z" fill="#3D3D3D"/>
<path d="M53.93 240.36C56.01 243.31 57.89 246.39 59.48 249.63C60.39 251.48 61.22 252.82 62.7 254.24C64.25 255.73 65.69 257.32 66.93 259.08C69.69 262.99 72.62 269.56 70.63 274.39C70.49 274.73 69.99 274.9 69.74 274.56C67.23 271.24 64.95 267.76 62.96 264.1C60.71 259.97 59.31 255.28 56.58 251.47C55.45 249.9 54.36 248.3 53.38 246.63C52.56 245.23 51.15 243.26 51 241.6C50.84 239.79 52.73 239.26 53.92 240.35C54.42 240.8 53.62 241.48 53.12 241.03C52.32 241.51 52.1 242.04 52.48 242.62C52.64 242.99 52.8 243.35 52.98 243.7C53.33 244.42 53.71 245.13 54.11 245.82C54.89 247.18 55.76 248.5 56.66 249.79C57.44 250.91 58.44 251.99 59.11 253.18C59.83 254.44 60.23 256.04 60.81 257.37C63.39 263.24 66.66 268.76 70.52 273.87C70.22 273.93 69.92 273.99 69.63 274.04C70.59 271.7 70 268.57 69.32 266.23C68.36 262.93 66.51 259.97 64.27 257.39C63.04 255.97 61.16 254.75 60.08 253.27C59.42 252.36 59.03 251.09 58.53 250.08C56.98 246.92 55.16 243.91 53.13 241.04C52.74 240.49 53.54 239.81 53.93 240.36Z" fill="#3D3D3D"/>
<path d="M93.55 258.55C93.32 258.72 93.32 259.14 93.58 259.29C96.68 261.07 99.42 263.24 101.85 265.87C101.85 265.88 101.85 265.89 101.85 265.91C101.87 266 101.89 266.1 101.91 266.19C100.66 267.36 99.42 268.79 98.85 270.4C98.46 271.51 98.66 273.08 100.02 273.38C101.22 273.65 102.27 272.6 102.73 271.61C103.47 270.01 103.26 268.21 102.93 266.52C103.12 266.34 103.11 266.11 103 265.93C106.48 260.24 111.97 256.37 116.17 251.27C119 247.82 122.7 241.85 119.6 237.45C116.59 233.19 112.17 236.26 109.29 238.8C108.22 239.74 107.46 240.75 106.76 241.99C106.21 242.97 105.75 243.99 105.22 244.98C105.14 245.12 103.21 248.32 102.94 246.39C102.92 244.83 103.59 241.46 102.31 240.32C101.19 239.32 100.21 240.2 99.58 241.06C95.78 246.32 99.39 254.3 93.56 258.55H93.55ZM112.19 254.2C111.2 255.19 110.19 256.16 109.18 257.13C109.1 257.1 109.02 257.08 108.91 257.1C107.43 257.54 106.51 257.1 106.15 255.76C106.84 255.39 107.38 254.81 107.49 253.97C107.63 252.89 106.84 251.82 105.68 252.23C104.53 252.64 104.3 254.22 104.51 255.34C104.11 255.42 103.7 255.45 103.27 255.41C102.74 255.41 102.21 255.35 101.67 255.37C101.56 255.37 101.46 255.38 101.35 255.39C101.11 254.96 100.83 254.54 100.58 254.1C100.39 253.8 100.22 253.48 100.07 253.16C100.06 252.96 100.03 252.78 99.99 252.61C100.81 252.58 101.58 252.3 101.97 251.47C102.48 250.4 101.75 249.09 100.53 249.19C99.34 249.29 98.88 250.4 98.82 251.49C98.67 251.47 98.51 251.46 98.33 251.47C98.27 251.45 98.2 251.45 98.15 251.47C98.28 250.31 98.34 249.15 98.47 247.99C98.69 246.11 98.8 244.19 99.71 242.53C100.21 241.62 100.73 240.37 101.86 242.11C102.34 242.86 101.96 245.49 101.99 246.39C101.99 246.41 101.99 246.42 102 246.44C102 246.46 102 246.49 102 246.51C102.2 248.11 103 248.51 104.31 247.64C106.42 246.24 106.89 243.17 108.3 241.19C110.82 237.64 118.63 232.79 119.72 240.34C120.48 245.63 115.58 250.78 112.19 254.17V254.2ZM102.12 267.29C102.22 267.85 102.28 268.41 102.29 268.98C102.29 269.92 102.17 271.57 101.24 272.11C99.91 271.76 99.43 271.23 99.81 270.52C99.89 270.32 99.98 270.14 100.1 269.96C100.33 269.53 100.6 269.12 100.88 268.73C101.26 268.21 101.67 267.74 102.12 267.28V267.29ZM95.53 258.11C96.4 256.58 97.26 255.65 97.74 253.85C97.87 253.36 97.97 252.87 98.04 252.37C98.3 252.44 98.59 252.5 98.89 252.55C98.91 252.63 98.92 252.71 98.94 252.78C99.2 253.81 99.86 254.63 100.37 255.54C99.79 255.67 99.23 255.89 98.76 256.29C97.66 257.25 97.25 259.19 98.61 260.16C99.91 261.09 101.5 260.1 101.95 258.76C102.22 257.97 102.03 257.07 101.77 256.31C101.75 256.25 101.72 256.2 101.7 256.14C101.9 256.16 102.15 256.21 102.44 256.32C102.95 256.32 103.46 256.38 103.98 256.34C104.24 256.32 104.52 256.28 104.8 256.23C105.45 257.53 106.75 258.15 108.15 258.12C106.55 259.7 105.01 261.34 103.67 263.15C102.55 264.67 102.83 265.1 101.29 263.93C101.13 263.81 99.72 262.47 99.57 262.33C98.44 261.35 97.18 260.57 96.01 259.66C94.89 258.79 94.82 259.31 95.51 258.09L95.53 258.11Z" fill="#C3E2DA"/>
</g>
</g>
<g opacity="0.2">
<g clip-path="url(#clip4_40_8140)">
<path d="M432.85 130.46C433.2 127.29 431.91 123.71 428.41 123.11C425.3 122.58 422.25 124.53 420.49 126.96C419.41 128.45 418.71 130.19 418.41 132C418.11 133.79 419.01 136.39 418.35 137.97C417.48 140.03 415.57 142.09 414.3 143.92C412.97 145.83 411.63 147.73 410.3 149.63C407.97 152.97 405.66 156.33 403.64 159.87C402.73 161.46 401.87 163.08 401.08 164.73C400.51 165.92 399.71 167.07 400.14 168.41C401.36 172.16 404.36 169.77 405.71 167.7C408.59 163.28 411.05 158.58 413.55 153.94C416.21 148.98 418.61 142.14 423.95 139.58C428.26 137.51 431.84 135.72 432.84 130.62C432.98 129.91 431.89 129.6 431.75 130.32C430.88 134.72 427.83 136.6 424.06 138.29C421.11 139.62 419.27 141.38 417.64 144.15C413.57 151.04 410.15 158.29 405.98 165.13C405.49 165.93 405.03 166.78 404.48 167.54C403.73 168.57 403.48 169.5 402.19 168.8C401.25 168.28 401.43 167.79 401.74 166.63C402.12 165.24 402.8 163.79 403.47 162.52C404.88 159.87 406.46 157.31 408.12 154.81C409.84 152.22 411.64 149.69 413.43 147.15C414.37 145.81 415.31 144.46 416.24 143.11C416.83 142.25 417.42 141.39 418.01 140.52C418.5 139.79 419.71 138.58 419.87 137.73C420.11 136.49 419.33 134.94 419.38 133.58C419.47 131.24 420.31 128.89 421.82 127.09C423.21 125.44 425.35 124.08 427.58 124.17C430.96 124.3 432.03 127.65 431.72 130.47C431.64 131.19 432.77 131.19 432.85 130.47V130.46Z" fill="#3D3D3D"/>
<path d="M422.54 129.18C421.17 130.59 420.67 132.58 421.24 134.46C421.45 135.16 422.54 134.86 422.33 134.16C421.88 132.65 421.99 130.96 423.09 129.83C423.6 129.31 423.05 128.66 422.54 129.18Z" fill="#3D3D3D"/>
<path d="M426.31 126.83C428.44 126.67 428.92 129.23 428.31 130.84C427.87 132 426.77 132.91 425.94 133.81C425.45 134.35 426.5 135.15 426.99 134.61C428.39 133.08 429.91 131.31 429.72 129.09C429.57 127.29 428.14 125.86 426.3 126.01C425.58 126.07 425.57 126.9 426.3 126.84L426.31 126.83Z" fill="#3D3D3D"/>
<path d="M415.9 122.46C413.83 121.53 411.85 120.41 409.99 119.11C409.57 118.82 409.14 118.49 408.95 118.02C408.76 117.55 408.96 116.89 409.46 116.77C409.76 116.7 410.07 116.84 410.35 116.98C412.85 118.28 415.02 120.2 416.61 122.52" fill="#C3E2DA"/>
<path d="M423.39 119.13C423.71 116.88 424.23 114.67 424.95 112.52C425.11 112.04 425.3 111.53 425.71 111.22C426.11 110.91 426.8 110.91 427.05 111.36C427.21 111.63 427.16 111.97 427.1 112.27C426.55 115.03 425.31 117.65 423.52 119.83" fill="#3D3D3D"/>
<path d="M418.75 119.27C418.15 118.3 417.67 117.28 417.32 116.21C417.24 115.97 417.17 115.71 417.28 115.46C417.39 115.21 417.76 114.98 418.05 115.06C418.23 115.11 418.32 115.26 418.39 115.39C419.04 116.63 419.27 118.05 419.05 119.49" fill="#3D3D3D"/>
<path d="M435.32 139.56C437.59 139.51 439.86 139.66 442.1 140.02C442.6 140.1 443.14 140.21 443.51 140.56C443.88 140.91 443.99 141.58 443.59 141.91C443.35 142.11 443.01 142.12 442.7 142.11C439.89 142.02 437.1 141.22 434.66 139.82" fill="#C3E2DA"/>
<path d="M430.01 145.8C430.69 147.96 431.18 150.19 431.46 152.44C431.52 152.95 431.57 153.49 431.34 153.94C431.11 154.39 430.49 154.69 430.07 154.4C429.81 154.22 429.71 153.9 429.63 153.6C428.93 150.87 428.91 147.97 429.59 145.24" fill="#3D3D3D"/>
<path d="M434.13 143.66C435.09 144.27 435.96 144.99 436.74 145.8C436.91 145.98 437.09 146.18 437.1 146.46C437.1 146.74 436.87 147.1 436.58 147.15C436.4 147.18 436.25 147.09 436.13 147C435 146.16 434.18 144.98 433.76 143.59" fill="#3D3D3D"/>
<path d="M470.62 114.93C469.65 114.19 468.33 114.47 467.64 115.27C467.53 115.33 467.43 115.42 467.36 115.56C466.45 117.22 467.81 119.36 469.74 118.96C471.67 118.56 472.16 116.11 470.63 114.93H470.62Z" fill="#3D3D3D"/>
<path d="M464.97 173.27C464.74 173.36 464.56 173.51 464.43 173.69C464.36 173.73 464.3 173.79 464.27 173.87C463.94 174.63 464.27 175.6 465.15 175.78C465.97 175.95 466.82 175.28 466.75 174.42C466.68 173.54 465.81 172.93 464.97 173.27Z" fill="#3D3D3D"/>
<path d="M445.61 188.06C445.25 188.2 444.97 188.43 444.77 188.71C444.66 188.78 444.57 188.86 444.51 188.99C444 190.18 444.51 191.68 445.88 191.97C447.16 192.24 448.48 191.19 448.38 189.86C448.27 188.5 446.91 187.54 445.61 188.07V188.06Z" fill="#C3E2DA"/>
<path d="M440.59 115.47C440.59 114.99 440.36 114.56 439.98 114.27C439.61 113.99 439.19 113.93 438.74 113.98C438.4 114.02 438.19 114.38 438.19 114.71C437.67 115.3 437.89 116.34 438.62 116.72C439.5 117.18 440.58 116.44 440.59 115.47Z" fill="#3D3D3D"/>
<path d="M436.57 156.36C434.49 159.31 432.61 162.39 431.02 165.63C430.11 167.48 429.28 168.82 427.8 170.24C426.25 171.73 424.81 173.32 423.57 175.08C420.81 178.99 417.88 185.56 419.87 190.39C420.01 190.73 420.51 190.9 420.76 190.56C423.27 187.24 425.55 183.76 427.54 180.1C429.79 175.97 431.19 171.28 433.92 167.47C435.05 165.9 436.14 164.3 437.12 162.63C437.94 161.23 439.35 159.26 439.5 157.6C439.66 155.79 437.77 155.26 436.58 156.35C436.08 156.8 436.88 157.48 437.38 157.03C438.18 157.51 438.4 158.04 438.02 158.62C437.86 158.99 437.7 159.35 437.52 159.7C437.17 160.42 436.79 161.13 436.39 161.82C435.61 163.18 434.74 164.5 433.84 165.79C433.06 166.91 432.06 167.99 431.39 169.18C430.67 170.44 430.27 172.04 429.69 173.37C427.11 179.24 423.84 184.76 419.98 189.87C420.28 189.93 420.58 189.99 420.87 190.04C419.91 187.7 420.5 184.57 421.18 182.23C422.14 178.93 423.99 175.97 426.23 173.39C427.46 171.97 429.34 170.75 430.42 169.27C431.08 168.36 431.47 167.09 431.97 166.08C433.52 162.92 435.34 159.91 437.37 157.04C437.76 156.49 436.96 155.81 436.57 156.36Z" fill="#3D3D3D"/>
<path d="M456.31 117.61C456.29 117.51 456.23 117.42 456.12 117.36C456.04 117.28 455.94 117.24 455.85 117.23C453.64 116.28 450.12 117 447.88 117.44C445.23 117.97 444.9 119.4 445.24 121.87C445.66 124.93 446.12 128.26 447.34 131.12C448.17 133.07 449.28 134.26 451.23 134.25C451.21 141.41 451.6 148.56 452.44 155.66C452.56 156.66 452.7 159.92 454.65 158.94C455.22 158.65 455.39 157.87 455.48 157.32C455.79 155.55 455.61 153.54 455.6 151.74C455.58 148.16 455.39 144.58 455.06 141.02C454.89 139.26 454.69 137.51 454.45 135.76C454.32 134.79 454.08 134.1 454.54 133.31C454.73 132.98 455.34 132.68 455.6 132.36C457.08 130.5 457.44 127.58 457.48 125.3C457.52 123 457.67 119.57 456.3 117.6L456.31 117.61ZM456.43 126.05C456.29 128.49 455.75 131.66 453.32 132.8C453.11 132.9 453.02 133.15 453.05 133.37C453.68 137.4 454.14 141.45 454.37 145.52C454.46 147 455.31 156.83 454.08 157.1C453.28 157.27 453.43 155.29 453.35 154.59C453.25 153.72 453.16 152.85 453.07 151.98C452.86 149.85 452.69 147.71 452.56 145.57C452.32 141.63 452.23 137.69 452.25 133.75C452.25 133.39 451.97 133.17 451.63 133.21C447.84 133.67 447.2 127.23 446.71 124.55C446.25 122.06 445.65 119.26 448.93 118.31C450.5 117.86 453.9 117.45 455.44 118.17C456.79 119.96 456.55 123.93 456.42 126.05H456.43Z" fill="#3D3D3D"/>
<path d="M448.43 120.72C448.43 120.72 448.43 120.74 448.43 120.75C448.31 120.85 448.23 120.99 448.24 121.18C448.51 123.97 448.77 126.77 449.04 129.56C449.09 130.1 449.94 130.01 449.97 129.49C450.09 127.37 450.34 125.22 450.33 123.1C450.33 121.92 450.11 120.94 449.14 120.22C448.79 119.96 448.37 120.34 448.42 120.72H448.43Z" fill="#3D3D3D"/>
<path d="M451.21 120.56C451.07 120.66 450.98 120.81 451.01 121.02C451.41 123.66 451.81 126.3 452.21 128.94C452.29 129.47 453.13 129.4 453.14 128.87C453.22 126.04 452.89 123.28 452.12 120.55C451.97 120.03 451.29 120.12 451.2 120.57L451.21 120.56Z" fill="#3D3D3D"/>
<path d="M453.97 120.53C453.85 120.59 453.77 120.71 453.78 120.9C453.91 122.86 454.05 124.82 454.18 126.77C454.22 127.37 455.16 127.44 455.12 126.83C455.08 126.02 455.04 125.21 454.99 124.4C455.02 124.34 455.05 124.27 455.04 124.17C454.96 123.08 454.68 122.02 454.6 120.93C454.57 120.46 454.2 120.28 453.96 120.53H453.97Z" fill="#3D3D3D"/>
</g>
<g clip-path="url(#clip5_40_8140)">
<path d="M384.22 121.07C384.27 123.34 384.52 125.6 384.97 127.82C385.07 128.32 385.2 128.85 385.57 129.2C385.93 129.56 386.61 129.63 386.92 129.23C387.11 128.98 387.1 128.64 387.08 128.33C386.87 125.52 385.95 122.77 384.44 120.4" fill="#3D3D3D"/>
<path d="M390.22 115.49C392.41 116.08 394.65 116.47 396.91 116.65C397.42 116.69 397.96 116.71 398.4 116.46C398.84 116.21 399.11 115.58 398.8 115.17C398.61 114.92 398.28 114.83 397.98 114.77C395.23 114.19 392.33 114.3 389.63 115.09" fill="#3D3D3D"/>
<path d="M388.27 119.71C388.92 120.64 389.68 121.48 390.52 122.22C390.71 122.39 390.92 122.55 391.2 122.55C391.48 122.55 391.83 122.3 391.87 122C391.89 121.82 391.79 121.68 391.7 121.56C390.81 120.47 389.6 119.7 388.19 119.34" fill="#3D3D3D"/>
<path d="M391.72 146.99C391.61 148.33 392.93 149.37 394.22 149.1C395.58 148.81 396.11 147.31 395.59 146.12C395.54 146 395.44 145.91 395.33 145.84C395.13 145.56 394.84 145.33 394.49 145.19C393.19 144.67 391.83 145.62 391.72 146.98V146.99Z" fill="#C3E2DA"/>
<path d="M399.58 186.63C400.31 186.25 400.52 185.21 400.01 184.62C400.01 184.3 399.79 183.93 399.46 183.89C399.01 183.84 398.59 183.9 398.22 184.18C397.84 184.47 397.6 184.9 397.61 185.38C397.62 186.35 398.7 187.08 399.58 186.63Z" fill="#3D3D3D"/>
<path d="M356 100.97C355.9 101.85 356.73 102.32 357.5 102.37C358.77 102.45 360.09 102.3 361.36 102.25C361.99 107.03 364.7 111.4 368.73 113.8C367.58 114.34 366.83 115.24 366.47 116.57C366.38 116.91 366.52 117.24 366.89 117.3C371.14 118 375.39 118.7 379.64 119.39C380.07 119.46 380.31 119.01 380.2 118.65C379.77 117.35 379.17 116.39 378.24 115.49C383.45 114.55 387.97 110.76 389.99 105.84C390.04 105.88 390.1 105.91 390.18 105.93C391.96 106.4 394.01 107.28 395.85 107.37C396.65 107.41 397.54 106.99 397.57 106.08C397.6 105.17 396.69 104.73 395.93 104.56C394.04 104.13 392 104.05 390.08 103.81C390.06 103.81 390.05 103.8 390.04 103.8C380.74 102.76 371.44 101.72 362.14 100.67C362.07 100.62 362 100.58 361.9 100.57C360.44 100.37 358.91 100 357.44 100C356.79 100 356.09 100.24 356 100.97ZM369.96 114.45C371.25 115.05 372.64 115.47 374.13 115.65C375.11 115.76 376.08 115.76 377.03 115.67C377.05 115.78 377.1 115.89 377.2 115.98C377.97 116.66 378.5 117.35 378.89 118.2C375.17 117.59 371.44 116.98 367.72 116.37C368.16 115.53 368.97 114.8 369.83 114.53C369.88 114.51 369.92 114.49 369.96 114.46V114.45ZM362 101.72C362.74 101.36 365.05 102.06 365.87 102.16C373.67 103.04 381.47 103.92 389.26 104.8C385.89 114.14 373.53 118.26 366.24 110.49C364.54 108.68 363.31 106.42 362.72 104.01C362.51 103.17 362.1 101.69 362.01 101.73L362 101.72Z" fill="#3D3D3D"/>
<path d="M377.8 167.23C378.14 170.14 378.06 172.31 379.98 174.89C381.44 176.85 383.46 178.15 385.97 177.99C392.05 177.6 394.24 171.21 392.83 166.11C392.92 165.77 392.7 165.34 392.33 165.25C391.11 164.95 389.9 164.75 388.7 164.64C387.74 164.46 386.76 164.41 385.72 164.55C383.93 164.61 382.16 164.86 380.38 165.33C379.29 164.52 379.47 162.85 379.39 161.49C379.01 154.92 379.84 148.32 379.31 141.75C378.98 137.68 378.1 133.38 375.09 130.4C374.06 129.38 371 126.71 369.99 129.1C368.74 132.05 373.53 134.05 374.66 135.74C377.12 139.39 376.01 146.88 375.85 150.99C375.75 153.65 373.77 165.08 377.8 167.24V167.23ZM378.49 165.9C378.49 165.9 378.49 165.9 378.48 165.9C375.31 163.31 377.34 147.35 377.31 144.63C377.28 141.79 377.39 138.29 376.11 135.66C375.77 134.96 375.41 134.47 374.88 133.92C373.87 132.88 369.31 129.14 373.02 130.4C377.63 131.96 378.01 140.59 378.12 144.41C378.25 149.15 377.9 153.89 377.98 158.62C378.01 160.3 377.57 163.82 378.5 165.89L378.49 165.9ZM379.58 171.55C379.15 170.36 379.2 169.03 379.15 167.75C383.2 169.91 387.75 169.83 391.78 167.56C392.43 172.05 389.99 177.66 384.53 176.5C382.19 176 380.38 173.77 379.57 171.56L379.58 171.55Z" fill="#3D3D3D"/>
</g>
<g clip-path="url(#clip6_40_8140)">
<path d="M381.66 37.46C381.31 34.29 382.6 30.71 386.1 30.11C389.21 29.58 392.26 31.53 394.02 33.96C395.1 35.45 395.8 37.19 396.1 39C396.4 40.79 395.5 43.39 396.16 44.97C397.03 47.03 398.94 49.09 400.21 50.92C401.54 52.83 402.88 54.73 404.21 56.63C406.54 59.97 408.85 63.33 410.87 66.87C411.78 68.46 412.64 70.08 413.43 71.73C414 72.92 414.8 74.07 414.37 75.41C413.15 79.16 410.15 76.77 408.8 74.7C405.92 70.28 403.46 65.58 400.96 60.94C398.3 55.98 395.9 49.14 390.56 46.58C386.25 44.51 382.67 42.72 381.67 37.62C381.53 36.91 382.62 36.6 382.76 37.32C383.63 41.72 386.68 43.6 390.45 45.29C393.4 46.62 395.24 48.38 396.87 51.15C400.94 58.04 404.36 65.29 408.53 72.13C409.02 72.93 409.48 73.78 410.03 74.54C410.78 75.57 411.03 76.5 412.32 75.8C413.26 75.28 413.08 74.79 412.77 73.63C412.39 72.24 411.71 70.79 411.04 69.52C409.63 66.87 408.05 64.31 406.39 61.81C404.67 59.22 402.87 56.69 401.08 54.15C400.14 52.81 399.2 51.46 398.27 50.11C397.68 49.25 397.09 48.39 396.5 47.52C396.01 46.79 394.8 45.58 394.64 44.73C394.4 43.49 395.18 41.94 395.13 40.58C395.04 38.24 394.2 35.89 392.69 34.09C391.3 32.44 389.16 31.08 386.93 31.17C383.55 31.3 382.48 34.65 382.79 37.47C382.87 38.19 381.74 38.19 381.66 37.47V37.46Z" fill="#3D3D3D"/>
<path d="M391.97 36.1799C393.34 37.5899 393.84 39.5799 393.27 41.4599C393.06 42.1599 391.97 41.8599 392.18 41.1599C392.63 39.6499 392.52 37.9599 391.42 36.8299C390.91 36.3099 391.46 35.6599 391.97 36.1799Z" fill="#3D3D3D"/>
<path d="M388.2 33.8301C386.07 33.6701 385.59 36.2301 386.2 37.8401C386.64 39.0001 387.74 39.9101 388.57 40.8101C389.06 41.3501 388.01 42.1501 387.52 41.6101C386.12 40.0801 384.6 38.3101 384.79 36.0901C384.94 34.2901 386.37 32.8601 388.21 33.0101C388.93 33.0701 388.94 33.9001 388.21 33.8401L388.2 33.8301Z" fill="#3D3D3D"/>
<path d="M411.3 28.59C410.27 32.24 412.71 33.82 414.11 36.83C415.34 39.47 413.32 43 412.4 45.55C412.32 45.76 412.46 46.09 412.67 46.18C415.94 47.58 419.33 48.66 422.6 50.07C422.93 50.21 423.82 50.23 423.92 49.84C424.44 47.79 424.28 45.42 425.02 43.43C425.92 41.04 428.23 39.7 429.97 38.01C431.79 36.24 433.43 33.89 433.11 31.21C432.59 26.88 427.75 26.14 425.3 28.8C424.93 27.05 423.83 25.53 421.87 25.17C420.12 24.85 418.71 25.69 418.02 27.06C416.31 24.77 412.66 25.67 411.35 28.43C411.33 28.46 411.32 28.5 411.31 28.53C411.31 28.55 411.29 28.56 411.29 28.57L411.3 28.59ZM412.38 28.93C413.46 26.79 416.76 25.76 417.61 28.78C417.8 29.44 418.66 29.22 418.72 28.61C419.08 24.64 422.71 26.44 423.71 27.88C424.29 28.72 424.35 29.55 424.3 30.53C424.26 31.23 425.2 31.2 425.41 30.66C426.31 28.38 429.12 27.32 431.02 29.25C432.36 30.61 432.25 32.7 431.54 34.28C430.66 36.22 428.8 37.54 427.25 38.91C426.16 39.88 424.81 40.92 424.14 42.26C423.21 44.1 422.93 46.69 422.47 48.81C420.56 48.02 418.61 47.31 416.67 46.58C416.02 46.33 415.37 46.09 414.72 45.83C413.17 45.21 413.76 45.83 413.77 45.06C413.79 44.24 414.51 43.07 414.78 42.28C415.33 40.64 416.02 38.8 415.47 37.08C414.51 34.04 411.39 32.57 412.37 28.93H412.38Z" fill="#3D3D3D"/>
<path d="M422.9 37.28L422.94 37.23C424.07 35.82 424.88 35.17 425.4 35.25C425.55 35.27 425.74 35.36 425.86 35.67C426.04 36.13 425.72 36.53 425.35 36.76C424.84 37.07 424.28 37.32 423.73 37.56C423.47 37.67 423.22 37.79 422.97 37.9C422.9 37.93 422.84 37.94 422.77 37.92C422.7 37.9 422.64 37.86 422.61 37.8C422.53 37.68 422.57 37.52 422.69 37.43L422.9 37.27V37.28Z" fill="#3D3D3D"/>
<path d="M421.85 32.5801C422.17 32.6001 422.39 32.7301 422.51 32.9601C422.86 33.6301 422.18 34.9501 421.47 36.1701C421.4 36.2901 421.35 36.3801 421.32 36.4301C421.26 36.5401 421.15 36.5901 421.07 36.5701C421.04 36.5701 421.02 36.5701 421 36.5701C420.9 36.5501 420.83 36.4701 420.81 36.3601C420.64 35.4001 420.67 34.4801 420.9 33.6401C420.98 33.3401 421.2 32.5401 421.86 32.5801H421.85Z" fill="#3D3D3D"/>
<path d="M417.59 33.6201C417.8 33.3601 418 33.3401 418.14 33.3701C418.86 33.5201 419.35 35.5001 419.4 35.7201C419.42 35.7901 419.4 35.8701 419.37 35.9301C419.33 35.9901 419.27 36.0401 419.2 36.0601C419.15 36.0701 419.1 36.0801 419.05 36.0601C419.03 36.0601 419 36.0401 418.98 36.0301C418.92 35.9901 418.88 35.9301 418.86 35.8501C418.82 35.6301 418.51 35.3901 418.21 35.1501C417.84 34.8601 417.45 34.5601 417.41 34.1701C417.39 33.9801 417.45 33.8001 417.59 33.6201Z" fill="#3D3D3D"/>
<path d="M398.6 29.4601C400.67 28.5301 402.65 27.4101 404.51 26.1101C404.93 25.8201 405.36 25.4901 405.55 25.0201C405.74 24.5501 405.54 23.8901 405.04 23.7701C404.74 23.7001 404.43 23.8401 404.15 23.9801C401.65 25.2801 399.48 27.2001 397.89 29.5201" fill="#C3E2DA"/>
<path d="M391.11 26.1301C390.79 23.8801 390.27 21.6701 389.55 19.5201C389.39 19.0401 389.2 18.5301 388.79 18.2201C388.39 17.9101 387.7 17.9101 387.45 18.3601C387.29 18.6301 387.34 18.9701 387.4 19.2701C387.95 22.0301 389.19 24.6501 390.98 26.8301" fill="#3D3D3D"/>
<path d="M395.76 26.2701C396.36 25.3001 396.84 24.2801 397.19 23.2101C397.27 22.9701 397.34 22.7101 397.23 22.4601C397.12 22.2101 396.75 21.9801 396.46 22.0601C396.28 22.1101 396.19 22.2601 396.12 22.3901C395.47 23.6301 395.24 25.0501 395.46 26.4901" fill="#3D3D3D"/>
<path d="M404.06 42.2199C405.99 42.6199 407.35 40.4799 406.44 38.8199C406.36 38.6799 406.27 38.5899 406.16 38.5299C405.46 37.7299 404.14 37.4499 403.18 38.1899C401.64 39.3699 402.14 41.8199 404.07 42.2199H404.06Z" fill="#3D3D3D"/>
<path d="M444.33 86.9499C446.26 87.3499 447.62 85.2099 446.71 83.5499C446.63 83.4099 446.54 83.3199 446.43 83.2599C445.73 82.4599 444.41 82.1799 443.45 82.9199C441.91 84.0999 442.41 86.5499 444.34 86.9499H444.33Z" fill="#3D3D3D"/>
<path d="M438.72 45.22C438.62 46.46 439.85 47.43 441.03 47.18C442.29 46.91 442.78 45.52 442.3 44.42C442.25 44.31 442.16 44.22 442.06 44.16C441.87 43.9 441.61 43.69 441.28 43.55C440.07 43.07 438.81 43.95 438.71 45.21L438.72 45.22Z" fill="#3D3D3D"/>
<path d="M416.11 58.9901C416.04 59.8501 416.89 60.5201 417.71 60.3501C418.59 60.1701 418.92 59.2001 418.59 58.4401C418.56 58.3601 418.5 58.3001 418.43 58.2601C418.3 58.0801 418.12 57.9301 417.89 57.8401C417.05 57.5001 416.18 58.1201 416.11 58.9901Z" fill="#3D3D3D"/>
<path d="M403.05 85C403.2 85.84 404.17 86.37 404.92 86.03C405.24 86.13 405.67 86.03 405.81 85.7C406 85.27 406.06 84.83 405.9 84.38C405.73 83.92 405.38 83.55 404.9 83.41C403.93 83.13 402.88 83.98 403.06 84.99L403.05 85Z" fill="#3D3D3D"/>
<path d="M377.93 63.3601C380.01 66.3101 381.89 69.3901 383.48 72.6301C384.39 74.4801 385.22 75.8201 386.7 77.2401C388.25 78.7301 389.69 80.3201 390.93 82.0801C393.69 85.9901 396.62 92.5601 394.63 97.3901C394.49 97.7301 393.99 97.9001 393.74 97.5601C391.23 94.2401 388.95 90.7601 386.96 87.1001C384.71 82.9701 383.31 78.2801 380.58 74.4701C379.45 72.9001 378.36 71.3001 377.38 69.6301C376.56 68.2301 375.15 66.2601 375 64.6001C374.84 62.7901 376.73 62.2601 377.92 63.3501C378.42 63.8001 377.62 64.4801 377.12 64.0301C376.32 64.5101 376.1 65.0401 376.48 65.6201C376.64 65.9901 376.8 66.3501 376.98 66.7001C377.33 67.4201 377.71 68.1301 378.11 68.8201C378.89 70.1801 379.76 71.5001 380.66 72.7901C381.44 73.9101 382.44 74.9901 383.11 76.1801C383.83 77.4401 384.23 79.0401 384.81 80.3701C387.39 86.2401 390.66 91.7601 394.52 96.8701C394.22 96.9301 393.92 96.9901 393.63 97.0401C394.59 94.7001 394 91.5701 393.32 89.2301C392.36 85.9301 390.51 82.9701 388.27 80.3901C387.04 78.9701 385.16 77.7501 384.08 76.2701C383.42 75.3601 383.03 74.0901 382.53 73.0801C380.98 69.9201 379.16 66.9101 377.13 64.0401C376.74 63.4901 377.54 62.8101 377.93 63.3601Z" fill="#3D3D3D"/>
<path d="M417.55 81.5499C417.32 81.7199 417.32 82.1399 417.58 82.2899C420.68 84.0699 423.42 86.2399 425.85 88.8699C425.85 88.8799 425.85 88.8899 425.85 88.9099C425.87 88.9999 425.89 89.0999 425.91 89.1899C424.66 90.3599 423.42 91.7899 422.85 93.3999C422.46 94.5099 422.66 96.0799 424.02 96.3799C425.22 96.6499 426.27 95.5999 426.73 94.6099C427.47 93.0099 427.26 91.2099 426.93 89.5199C427.12 89.3399 427.11 89.1099 427 88.9299C430.48 83.2399 435.97 79.3699 440.17 74.2699C443 70.8199 446.7 64.8499 443.6 60.4499C440.59 56.1899 436.17 59.2599 433.29 61.7999C432.22 62.7399 431.46 63.7499 430.76 64.9899C430.21 65.9699 429.75 66.9899 429.22 67.9799C429.14 68.1199 427.21 71.3199 426.94 69.3899C426.92 67.8299 427.59 64.4599 426.31 63.3199C425.19 62.3199 424.21 63.1999 423.58 64.0599C419.78 69.3199 423.39 77.2999 417.56 81.5499H417.55ZM436.19 77.1999C435.2 78.1899 434.19 79.1599 433.18 80.1299C433.1 80.0999 433.02 80.0799 432.91 80.0999C431.43 80.5399 430.51 80.0999 430.15 78.7599C430.84 78.3899 431.38 77.8099 431.49 76.9699C431.63 75.8899 430.84 74.8199 429.68 75.2299C428.53 75.6399 428.3 77.2199 428.51 78.3399C428.11 78.4199 427.7 78.4499 427.27 78.4099C426.74 78.4099 426.21 78.3499 425.67 78.3699C425.56 78.3699 425.46 78.3799 425.35 78.3899C425.11 77.9599 424.83 77.5399 424.58 77.0999C424.39 76.7999 424.22 76.4799 424.07 76.1599C424.06 75.9599 424.03 75.7799 423.99 75.6099C424.81 75.5799 425.58 75.2999 425.97 74.4699C426.48 73.3999 425.75 72.0899 424.53 72.1899C423.34 72.2899 422.88 73.3999 422.82 74.4899C422.67 74.4699 422.51 74.4599 422.33 74.4699C422.27 74.4499 422.2 74.4499 422.15 74.4699C422.28 73.3099 422.34 72.1499 422.47 70.9899C422.69 69.1099 422.8 67.1899 423.71 65.5299C424.21 64.6199 424.73 63.3699 425.86 65.1099C426.34 65.8599 425.96 68.4899 425.99 69.3899C425.99 69.4099 425.99 69.4199 426 69.4399C426 69.4599 426 69.4899 426 69.5099C426.2 71.1099 427 71.5099 428.31 70.6399C430.42 69.2399 430.89 66.1699 432.3 64.1899C434.82 60.6399 442.63 55.7899 443.72 63.3399C444.48 68.6299 439.58 73.7799 436.19 77.1699V77.1999ZM426.12 90.2899C426.22 90.8499 426.28 91.4099 426.29 91.9799C426.29 92.9199 426.17 94.5699 425.24 95.1099C423.91 94.7599 423.43 94.2299 423.81 93.5199C423.89 93.3199 423.98 93.1399 424.1 92.9599C424.33 92.5299 424.6 92.1199 424.88 91.7299C425.26 91.2099 425.67 90.7399 426.12 90.2799V90.2899ZM419.53 81.1099C420.4 79.5799 421.26 78.6499 421.74 76.8499C421.87 76.3599 421.97 75.8699 422.04 75.3699C422.3 75.4399 422.59 75.4999 422.89 75.5499C422.91 75.6299 422.92 75.7099 422.94 75.7799C423.2 76.8099 423.86 77.6299 424.37 78.5399C423.79 78.6699 423.23 78.8899 422.76 79.2899C421.66 80.2499 421.25 82.1899 422.61 83.1599C423.91 84.0899 425.5 83.0999 425.95 81.7599C426.22 80.9699 426.03 80.0699 425.77 79.3099C425.75 79.2499 425.72 79.1999 425.7 79.1399C425.9 79.1599 426.15 79.2099 426.44 79.3199C426.95 79.3199 427.46 79.3799 427.98 79.3399C428.24 79.3199 428.52 79.2799 428.8 79.2299C429.45 80.5299 430.75 81.1499 432.15 81.1199C430.55 82.6999 429.01 84.3399 427.67 86.1499C426.55 87.6699 426.83 88.0999 425.29 86.9299C425.13 86.8099 423.72 85.4699 423.57 85.3299C422.44 84.3499 421.18 83.5699 420.01 82.6599C418.89 81.7899 418.82 82.3099 419.51 81.0899L419.53 81.1099Z" fill="#C3E2DA"/>
</g>
<g clip-path="url(#clip7_40_8140)">
<path d="M383.66 214.46C383.31 211.29 384.6 207.71 388.1 207.11C391.21 206.58 394.26 208.53 396.02 210.96C397.1 212.45 397.8 214.19 398.1 216C398.4 217.79 397.5 220.39 398.16 221.97C399.03 224.03 400.94 226.09 402.21 227.92C403.54 229.83 404.88 231.73 406.21 233.63C408.54 236.97 410.85 240.33 412.87 243.87C413.78 245.46 414.64 247.08 415.43 248.73C416 249.92 416.8 251.07 416.37 252.41C415.15 256.16 412.15 253.77 410.8 251.7C407.92 247.28 405.46 242.58 402.96 237.94C400.3 232.98 397.9 226.14 392.56 223.58C388.25 221.51 384.67 219.72 383.67 214.62C383.53 213.91 384.62 213.6 384.76 214.32C385.63 218.72 388.68 220.6 392.45 222.29C395.4 223.62 397.24 225.38 398.87 228.15C402.94 235.04 406.36 242.29 410.53 249.13C411.02 249.93 411.48 250.78 412.03 251.54C412.78 252.57 413.03 253.5 414.32 252.8C415.26 252.28 415.08 251.79 414.77 250.63C414.39 249.24 413.71 247.79 413.04 246.52C411.63 243.87 410.05 241.31 408.39 238.81C406.67 236.22 404.87 233.69 403.08 231.15C402.14 229.81 401.2 228.46 400.27 227.11C399.68 226.25 399.09 225.39 398.5 224.52C398.01 223.79 396.8 222.58 396.64 221.73C396.4 220.49 397.18 218.94 397.13 217.58C397.04 215.24 396.2 212.89 394.69 211.09C393.3 209.44 391.16 208.08 388.93 208.17C385.55 208.3 384.48 211.65 384.79 214.47C384.87 215.19 383.74 215.19 383.66 214.47V214.46Z" fill="#3D3D3D"/>
<path d="M393.97 213.18C395.34 214.59 395.84 216.58 395.27 218.46C395.06 219.16 393.97 218.86 394.18 218.16C394.63 216.65 394.52 214.96 393.42 213.83C392.91 213.31 393.46 212.66 393.97 213.18Z" fill="#3D3D3D"/>
<path d="M390.2 210.83C388.07 210.67 387.59 213.23 388.2 214.84C388.64 216 389.74 216.91 390.57 217.81C391.06 218.35 390.01 219.15 389.52 218.61C388.12 217.08 386.6 215.31 386.79 213.09C386.94 211.29 388.37 209.86 390.21 210.01C390.93 210.07 390.94 210.9 390.21 210.84L390.2 210.83Z" fill="#3D3D3D"/>
<path d="M413.3 205.59C412.27 209.24 414.71 210.82 416.11 213.83C417.34 216.47 415.32 220 414.4 222.55C414.32 222.76 414.46 223.09 414.67 223.18C417.94 224.58 421.33 225.66 424.6 227.07C424.93 227.21 425.82 227.23 425.92 226.84C426.44 224.79 426.28 222.42 427.02 220.43C427.92 218.04 430.23 216.7 431.97 215.01C433.79 213.24 435.43 210.89 435.11 208.21C434.59 203.88 429.75 203.14 427.3 205.8C426.93 204.05 425.83 202.53 423.87 202.17C422.12 201.85 420.71 202.69 420.02 204.06C418.31 201.77 414.66 202.67 413.35 205.43C413.33 205.46 413.32 205.5 413.31 205.53C413.31 205.55 413.29 205.56 413.29 205.57L413.3 205.59ZM414.38 205.93C415.46 203.79 418.76 202.76 419.61 205.78C419.8 206.44 420.66 206.22 420.72 205.61C421.08 201.64 424.71 203.44 425.71 204.88C426.29 205.72 426.35 206.55 426.3 207.53C426.26 208.23 427.2 208.2 427.41 207.66C428.31 205.38 431.12 204.32 433.02 206.25C434.36 207.61 434.25 209.7 433.54 211.28C432.66 213.22 430.8 214.54 429.25 215.91C428.16 216.88 426.81 217.92 426.14 219.26C425.21 221.1 424.93 223.69 424.47 225.81C422.56 225.02 420.61 224.31 418.67 223.58C418.02 223.33 417.37 223.09 416.72 222.83C415.17 222.21 415.76 222.83 415.77 222.06C415.79 221.24 416.51 220.07 416.78 219.28C417.33 217.64 418.02 215.8 417.47 214.08C416.51 211.04 413.39 209.57 414.37 205.93H414.38Z" fill="#3D3D3D"/>
<path d="M424.9 214.28L424.94 214.23C426.07 212.82 426.88 212.17 427.4 212.25C427.55 212.27 427.74 212.36 427.86 212.67C428.04 213.13 427.72 213.53 427.35 213.76C426.84 214.07 426.28 214.32 425.73 214.56C425.47 214.67 425.22 214.79 424.97 214.9C424.9 214.93 424.84 214.94 424.77 214.92C424.7 214.9 424.64 214.86 424.61 214.8C424.53 214.68 424.57 214.52 424.69 214.43L424.9 214.27V214.28Z" fill="#3D3D3D"/>
<path d="M423.85 209.58C424.17 209.6 424.39 209.73 424.51 209.96C424.86 210.63 424.18 211.95 423.47 213.17C423.4 213.29 423.35 213.38 423.32 213.43C423.26 213.54 423.15 213.59 423.07 213.57C423.04 213.57 423.02 213.57 423 213.57C422.9 213.55 422.83 213.47 422.81 213.36C422.64 212.4 422.67 211.48 422.9 210.64C422.98 210.34 423.2 209.54 423.86 209.58H423.85Z" fill="#3D3D3D"/>
<path d="M419.59 210.62C419.8 210.36 420 210.34 420.14 210.37C420.86 210.52 421.35 212.5 421.4 212.72C421.42 212.79 421.4 212.87 421.37 212.93C421.33 212.99 421.27 213.04 421.2 213.06C421.15 213.07 421.1 213.08 421.05 213.06C421.03 213.06 421 213.04 420.98 213.03C420.92 212.99 420.88 212.93 420.86 212.85C420.82 212.63 420.51 212.39 420.21 212.15C419.84 211.86 419.45 211.56 419.41 211.17C419.39 210.98 419.45 210.8 419.59 210.62Z" fill="#3D3D3D"/>
<path d="M400.6 206.46C402.67 205.53 404.65 204.41 406.51 203.11C406.93 202.82 407.36 202.49 407.55 202.02C407.74 201.55 407.54 200.89 407.04 200.77C406.74 200.7 406.43 200.84 406.15 200.98C403.65 202.28 401.48 204.2 399.89 206.52" fill="#C3E2DA"/>
<path d="M393.11 203.13C392.79 200.88 392.27 198.67 391.55 196.52C391.39 196.04 391.2 195.53 390.79 195.22C390.39 194.91 389.7 194.91 389.45 195.36C389.29 195.63 389.34 195.97 389.4 196.27C389.95 199.03 391.19 201.65 392.98 203.83" fill="#3D3D3D"/>
<path d="M397.76 203.27C398.36 202.3 398.84 201.28 399.19 200.21C399.27 199.97 399.34 199.71 399.23 199.46C399.12 199.21 398.75 198.98 398.46 199.06C398.28 199.11 398.19 199.26 398.12 199.39C397.47 200.63 397.24 202.05 397.46 203.49" fill="#3D3D3D"/>
<path d="M406.06 219.22C407.99 219.62 409.35 217.48 408.44 215.82C408.36 215.68 408.27 215.59 408.16 215.53C407.46 214.73 406.14 214.45 405.18 215.19C403.64 216.37 404.14 218.82 406.07 219.22H406.06Z" fill="#3D3D3D"/>
<path d="M446.33 263.95C448.26 264.35 449.62 262.21 448.71 260.55C448.63 260.41 448.54 260.32 448.43 260.26C447.73 259.46 446.41 259.18 445.45 259.92C443.91 261.1 444.41 263.55 446.34 263.95H446.33Z" fill="#3D3D3D"/>
<path d="M440.72 222.22C440.62 223.46 441.85 224.43 443.03 224.18C444.29 223.91 444.78 222.52 444.3 221.42C444.25 221.31 444.16 221.22 444.06 221.16C443.87 220.9 443.61 220.69 443.28 220.55C442.07 220.07 440.81 220.95 440.71 222.21L440.72 222.22Z" fill="#3D3D3D"/>
<path d="M418.11 235.99C418.04 236.85 418.89 237.52 419.71 237.35C420.59 237.17 420.92 236.2 420.59 235.44C420.56 235.36 420.5 235.3 420.43 235.26C420.3 235.08 420.12 234.93 419.89 234.84C419.05 234.5 418.18 235.12 418.11 235.99Z" fill="#3D3D3D"/>
<path d="M405.05 262C405.2 262.84 406.17 263.37 406.92 263.03C407.24 263.13 407.67 263.03 407.81 262.7C408 262.27 408.06 261.83 407.9 261.38C407.73 260.92 407.38 260.55 406.9 260.41C405.93 260.13 404.88 260.98 405.06 261.99L405.05 262Z" fill="#3D3D3D"/>
<path d="M379.93 240.36C382.01 243.31 383.89 246.39 385.48 249.63C386.39 251.48 387.22 252.82 388.7 254.24C390.25 255.73 391.69 257.32 392.93 259.08C395.69 262.99 398.62 269.56 396.63 274.39C396.49 274.73 395.99 274.9 395.74 274.56C393.23 271.24 390.95 267.76 388.96 264.1C386.71 259.97 385.31 255.28 382.58 251.47C381.45 249.9 380.36 248.3 379.38 246.63C378.56 245.23 377.15 243.26 377 241.6C376.84 239.79 378.73 239.26 379.92 240.35C380.42 240.8 379.62 241.48 379.12 241.03C378.32 241.51 378.1 242.04 378.48 242.62C378.64 242.99 378.8 243.35 378.98 243.7C379.33 244.42 379.71 245.13 380.11 245.82C380.89 247.18 381.76 248.5 382.66 249.79C383.44 250.91 384.44 251.99 385.11 253.18C385.83 254.44 386.23 256.04 386.81 257.37C389.39 263.24 392.66 268.76 396.52 273.87C396.22 273.93 395.92 273.99 395.63 274.04C396.59 271.7 396 268.57 395.32 266.23C394.36 262.93 392.51 259.97 390.27 257.39C389.04 255.97 387.16 254.75 386.08 253.27C385.42 252.36 385.03 251.09 384.53 250.08C382.98 246.92 381.16 243.91 379.13 241.04C378.74 240.49 379.54 239.81 379.93 240.36Z" fill="#3D3D3D"/>
<path d="M419.55 258.55C419.32 258.72 419.32 259.14 419.58 259.29C422.68 261.07 425.42 263.24 427.85 265.87C427.85 265.88 427.85 265.89 427.85 265.91C427.87 266 427.89 266.1 427.91 266.19C426.66 267.36 425.42 268.79 424.85 270.4C424.46 271.51 424.66 273.08 426.02 273.38C427.22 273.65 428.27 272.6 428.73 271.61C429.47 270.01 429.26 268.21 428.93 266.52C429.12 266.34 429.11 266.11 429 265.93C432.48 260.24 437.97 256.37 442.17 251.27C445 247.82 448.7 241.85 445.6 237.45C442.59 233.19 438.17 236.26 435.29 238.8C434.22 239.74 433.46 240.75 432.76 241.99C432.21 242.97 431.75 243.99 431.22 244.98C431.14 245.12 429.21 248.32 428.94 246.39C428.92 244.83 429.59 241.46 428.31 240.32C427.19 239.32 426.21 240.2 425.58 241.06C421.78 246.32 425.39 254.3 419.56 258.55H419.55ZM438.19 254.2C437.2 255.19 436.19 256.16 435.18 257.13C435.1 257.1 435.02 257.08 434.91 257.1C433.43 257.54 432.51 257.1 432.15 255.76C432.84 255.39 433.38 254.81 433.49 253.97C433.63 252.89 432.84 251.82 431.68 252.23C430.53 252.64 430.3 254.22 430.51 255.34C430.11 255.42 429.7 255.45 429.27 255.41C428.74 255.41 428.21 255.35 427.67 255.37C427.56 255.37 427.46 255.38 427.35 255.39C427.11 254.96 426.83 254.54 426.58 254.1C426.39 253.8 426.22 253.48 426.07 253.16C426.06 252.96 426.03 252.78 425.99 252.61C426.81 252.58 427.58 252.3 427.97 251.47C428.48 250.4 427.75 249.09 426.53 249.19C425.34 249.29 424.88 250.4 424.82 251.49C424.67 251.47 424.51 251.46 424.33 251.47C424.27 251.45 424.2 251.45 424.15 251.47C424.28 250.31 424.34 249.15 424.47 247.99C424.69 246.11 424.8 244.19 425.71 242.53C426.21 241.62 426.73 240.37 427.86 242.11C428.34 242.86 427.96 245.49 427.99 246.39C427.99 246.41 427.99 246.42 428 246.44C428 246.46 428 246.49 428 246.51C428.2 248.11 429 248.51 430.31 247.64C432.42 246.24 432.89 243.17 434.3 241.19C436.82 237.64 444.63 232.79 445.72 240.34C446.48 245.63 441.58 250.78 438.19 254.17V254.2ZM428.12 267.29C428.22 267.85 428.28 268.41 428.29 268.98C428.29 269.92 428.17 271.57 427.24 272.11C425.91 271.76 425.43 271.23 425.81 270.52C425.89 270.32 425.98 270.14 426.1 269.96C426.33 269.53 426.6 269.12 426.88 268.73C427.26 268.21 427.67 267.74 428.12 267.28V267.29ZM421.53 258.11C422.4 256.58 423.26 255.65 423.74 253.85C423.87 253.36 423.97 252.87 424.04 252.37C424.3 252.44 424.59 252.5 424.89 252.55C424.91 252.63 424.92 252.71 424.94 252.78C425.2 253.81 425.86 254.63 426.37 255.54C425.79 255.67 425.23 255.89 424.76 256.29C423.66 257.25 423.25 259.19 424.61 260.16C425.91 261.09 427.5 260.1 427.95 258.76C428.22 257.97 428.03 257.07 427.77 256.31C427.75 256.25 427.72 256.2 427.7 256.14C427.9 256.16 428.15 256.21 428.44 256.32C428.95 256.32 429.46 256.38 429.98 256.34C430.24 256.32 430.52 256.28 430.8 256.23C431.45 257.53 432.75 258.15 434.15 258.12C432.55 259.7 431.01 261.34 429.67 263.15C428.55 264.67 428.83 265.1 427.29 263.93C427.13 263.81 425.72 262.47 425.57 262.33C424.44 261.35 423.18 260.57 422.01 259.66C420.89 258.79 420.82 259.31 421.51 258.09L421.53 258.11Z" fill="#C3E2DA"/>
</g>
</g>
<defs>
<clipPath id="clip0_40_8140">
<rect width="71.6" height="81.01" fill="white" transform="translate(74 111)"/>
</clipPath>
<clipPath id="clip1_40_8140">
<rect width="44.29" height="86.77" fill="white" transform="translate(30 100)"/>
</clipPath>
<clipPath id="clip2_40_8140">
<rect width="72" height="79.75" fill="white" transform="translate(49 18)"/>
</clipPath>
<clipPath id="clip3_40_8140">
<rect width="72" height="79.75" fill="white" transform="translate(51 195)"/>
</clipPath>
<clipPath id="clip4_40_8140">
<rect width="71.6" height="81.01" fill="white" transform="translate(400 111)"/>
</clipPath>
<clipPath id="clip5_40_8140">
<rect width="44.29" height="86.77" fill="white" transform="translate(356 100)"/>
</clipPath>
<clipPath id="clip6_40_8140">
<rect width="72" height="79.75" fill="white" transform="translate(375 18)"/>
</clipPath>
<clipPath id="clip7_40_8140">
<rect width="72" height="79.75" fill="white" transform="translate(377 195)"/>
</clipPath>
</defs>
</svg>
