<svg width="231" height="118" viewBox="0 0 231 118" fill="none" xmlns="http://www.w3.org/2000/svg">
<g style="mix-blend-mode:multiply" opacity="0.5">
<path d="M231 81.734C231 101.757 179.287 118 115.5 118C51.7134 118 0 101.757 0 81.734C0 61.7113 51.7134 45.468 115.5 45.468C179.287 45.468 231 61.7113 231 81.734Z" fill="#666666"/>
</g>
<path d="M205.365 84.9504C205.365 100.671 165.282 113.376 115.862 113.376C66.4427 113.376 26.3195 100.671 26.3195 84.9504C26.3195 69.2298 66.4024 56.5247 115.862 56.5247C165.322 56.5247 205.365 69.27 205.365 84.9504Z" fill="#6B818A"/>
<path d="M230.115 73.8536C230.115 94.2382 179.126 111.889 115.902 111.889C52.6793 111.889 1.24756 94.2382 1.24756 73.8536C1.24756 53.4691 52.478 36.9443 115.661 36.9443C178.844 36.9443 230.074 53.4691 230.074 73.8536H230.115Z" fill="#8AA6B2"/>
<path d="M230.034 72.2855C230.034 92.9917 178.884 109.758 115.822 109.758C52.7597 109.758 1.60974 92.9917 1.60974 72.2855C1.60974 51.5793 52.7597 34.8134 115.822 34.8134C178.884 34.8134 230.034 51.5793 230.034 72.2855Z" fill="#E9F5FD"/>
<g style="mix-blend-mode:screen">
<path d="M230.034 72.2855C230.034 92.9917 178.884 109.758 115.822 109.758C52.7597 109.758 1.60974 92.9917 1.60974 72.2855C1.60974 51.5793 52.7597 34.8134 115.822 34.8134C178.884 34.8134 230.034 51.5793 230.034 72.2855Z" fill="white"/>
</g>
<path opacity="0.5" d="M217.76 70.2752C217.76 87.604 172.123 101.676 115.862 101.676C59.6012 101.676 13.9244 87.6442 13.9244 70.2752C13.9244 52.9061 59.561 38.8741 115.822 38.8741C172.083 38.8741 217.719 52.9463 217.719 70.2752H217.76Z" fill="#D6E1E8"/>
<path d="M206.491 69.7927C206.491 86.2371 165.885 99.5453 115.822 99.5453C65.7585 99.5453 25.1524 86.2371 25.1524 69.7927C25.1524 53.3484 65.7585 40.0402 115.822 40.0402C165.885 40.0402 206.491 53.3886 206.491 69.7927Z" fill="#BBC5CD"/>
<g style="mix-blend-mode:screen">
<path d="M205.365 69.8731C205.365 85.2721 165.282 97.7762 115.862 97.7762C66.4427 97.7762 26.3195 85.3123 26.3195 69.8731C26.3195 54.434 66.4024 42.0103 115.862 42.0103C165.322 42.0103 205.365 54.4742 205.365 69.8731Z" fill="white"/>
</g>
<path d="M152.444 22.5101C152.444 22.5101 165.362 19.937 170.433 16.7205C175.504 13.5442 175.987 14.6297 175.987 16.5998C175.987 18.5699 165.201 23.2339 156.871 23.7967C148.54 24.3596 152.404 22.5101 152.404 22.5101H152.444Z" fill="#FFE98A"/>
<path d="M166.409 40.4019C166.409 40.4019 180.252 41.8493 183.552 50.0514C186.852 58.2535 186.128 60.9473 186.128 60.9473C186.128 60.9473 186.973 62.1937 188.341 61.671C189.71 61.1483 189.83 60.304 189.71 57.2885C189.589 54.2731 186.53 38.5926 166.207 38.271L166.449 40.3617L166.409 40.4019Z" fill="#FFE98A"/>
<path d="M157.474 37.9092C157.474 37.9092 172.365 36.3813 180.574 41.5277C188.824 46.6741 189.991 49.2473 189.991 49.2473C189.991 49.2473 191.521 49.8504 192.285 48.7648C193.05 47.6793 192.607 46.9556 190.474 44.5432C188.341 42.1308 171.922 28.0185 155.02 37.5875L157.474 37.9092Z" fill="#FFE98A"/>
<g style="mix-blend-mode:multiply">
<path d="M175.544 14.9113C175.745 15.5948 175.021 16.3989 174.095 17.002C173.049 17.6855 171.882 18.1277 170.674 18.6102C168.743 19.3339 166.851 20.0576 164.92 20.7412C163.35 21.304 161.74 21.9071 160.05 22.3092C159.326 22.47 158.239 22.7113 157.756 22.0277C157.595 21.7865 157.716 21.5051 157.957 21.2236C154.818 22.0278 152.444 22.5102 152.444 22.5102C152.444 22.5102 148.58 24.3597 156.911 23.7968C165.241 23.2339 176.027 18.5298 176.027 16.5999C176.027 15.836 175.946 15.2329 175.544 14.9113Z" fill="#FDDD93"/>
<path d="M189.67 57.3288C189.549 54.3133 186.49 38.6329 166.167 38.3113L166.409 40.402C166.409 40.402 180.252 41.8494 183.552 50.0515C186.852 58.2535 186.128 60.9474 186.128 60.9474C186.128 60.9474 186.973 62.1938 188.341 61.6711C189.71 61.1484 189.83 60.3041 189.71 57.2886L189.67 57.3288ZM188.14 59.8216C187.577 60.3041 186.973 59.7412 186.772 59.2587C186.209 57.8515 186.289 56.3237 186.007 54.9164C185.806 53.8309 185.605 52.7453 185.243 51.6999C184.559 50.1319 183.633 48.6443 182.426 47.3577C179.689 44.5432 176.027 42.6938 172.043 41.367C171.399 41.2463 170.554 41.2061 170.071 40.8845C169.507 40.5628 170.232 40.0401 170.634 39.9999C171.761 39.8793 172.968 40.0804 174.055 40.3216C174.98 40.4824 175.906 40.6432 176.751 41.0051C178.482 41.7288 179.971 42.6535 181.299 43.7793C185.605 46.9556 187.899 52.303 188.663 56.8463C188.824 57.7309 188.985 59.0979 188.14 59.8216Z" fill="#FDDD93"/>
<path d="M190.474 44.5432C188.341 42.1308 171.922 28.0185 155.02 37.5875L157.474 37.9092C157.474 37.9092 172.365 36.3813 180.574 41.5277C188.824 46.6741 189.991 49.2473 189.991 49.2473C189.991 49.2473 191.521 49.8504 192.285 48.7648C193.05 47.6793 192.607 46.9556 190.474 44.5432ZM189.991 47.9205C189.146 47.3174 188.623 46.4731 187.899 45.7896C187.054 44.9855 186.088 44.2618 185.082 43.5782C182.868 42.1308 180.615 40.6432 178.12 39.5576C176.188 38.7133 174.216 38.1504 172.123 37.7081C171.52 37.5875 170.795 37.4267 170.191 37.1453C169.266 36.8638 168.38 36.3813 169.024 35.8989C169.749 35.336 170.916 35.6978 171.761 35.8989C173.411 36.2607 174.98 36.7432 176.51 37.3463C179.77 38.6329 182.989 40.0401 185.685 42.0504C187.617 43.4978 190.072 45.4679 190.394 47.7597C190.394 47.9607 190.112 48.0009 189.991 47.9205Z" fill="#FDDD93"/>
</g>
<path d="M58.3939 74.0144C59.0378 78.3567 65.4768 81.0907 75.3768 79.8443C80.9305 79.1608 86.1622 77.3113 89.7037 75.8237L86.2829 74.9391C83.4659 76.3061 79.8037 77.6732 76.0207 78.1556C67.7305 79.201 60.6878 77.1103 61.4122 72.3257C61.6134 70.9587 62.2573 69.7927 62.9415 68.9082L61.2915 68.4659C59.8427 69.4711 57.9915 71.2804 58.3939 73.9742V74.0144Z" fill="#FFE98A"/>
<path d="M164.759 81.3721C157.313 90.7804 130.068 89.8154 118.277 86.1969C106.043 82.4577 107.813 80.8495 97.9537 79.3216C88.0939 77.7938 77.1476 83.1412 68.3341 84.1866C59.5207 85.2319 54.9329 82.5381 54.3695 77.0701C53.9671 73.1299 57.7902 69.7526 59.9634 68.1845L57.5488 67.5814C57.5488 67.5814 50.7073 69.8732 50.7073 76.3062C50.7073 82.7392 57.1866 86.9206 67.3683 86.599C77.5098 86.2773 87.9329 79.5227 97.1085 81.4928C106.284 83.4629 111.798 90.4185 132.241 91.3835C152.685 92.3082 168.863 85.4732 170.433 81.4124H164.759V81.3721Z" fill="#FFE98A"/>
<path d="M53.8463 66.2144C53.8463 66.2144 49.1378 66.2546 42.7793 67.9834C36.4207 69.7123 35.7366 71.5216 36.3 72.2453C36.3 72.2453 36.5415 72.969 37.2256 72.8886C37.9098 72.768 49.5402 68.3855 55.7781 68.7473C55.7781 68.7473 57.3073 68.9484 57.3073 68.1845C57.3073 67.4205 53.8866 66.2546 53.8866 66.2546L53.8463 66.2144Z" fill="#FFE98A"/>
<g style="mix-blend-mode:multiply">
<path d="M86.2829 74.9391C83.4659 76.3061 79.8037 77.6732 76.0207 78.1556C67.7305 79.201 60.6878 77.1103 61.4122 72.3257C61.6134 70.9587 62.2573 69.7927 62.9415 68.9082L61.2915 68.4659C59.8427 69.4711 57.9915 71.2804 58.3939 73.9742C59.0378 78.3165 65.4768 81.0505 75.3768 79.8041C80.9305 79.1206 86.1622 77.2711 89.7037 75.7835L86.2829 74.8989V74.9391ZM66.7244 79.402C64.9537 79.402 63.3037 78.7587 61.9756 77.7536C61.211 77.3515 60.5671 76.869 60.0037 76.2659C58.9171 75.1 58.3134 72.8886 59.0378 71.4814C59.2793 71.0391 59.722 70.9989 60.1244 71.3206C60.6476 71.7628 60.6073 72.8082 60.7683 73.3711C61.4122 76.0247 64.3903 77.5927 66.8451 79C67.0463 79.1206 66.9659 79.402 66.7244 79.402Z" fill="#FDDD93"/>
<path d="M164.759 81.3721C157.313 90.7804 130.068 89.8154 118.277 86.1969C106.043 82.4577 107.813 80.8495 97.9537 79.3216C88.0939 77.7938 77.1476 83.1412 68.3341 84.1866C59.5207 85.2319 54.9329 82.5381 54.3695 77.0701C53.9671 73.1299 57.7902 69.7526 59.9634 68.1845L57.5488 67.5814C57.5488 67.5814 50.7073 69.8732 50.7073 76.3062C50.7073 82.7392 57.1866 86.9206 67.3683 86.599C77.5098 86.2773 87.9329 79.5227 97.1085 81.4928C106.284 83.4629 111.798 90.4185 132.241 91.3835C152.685 92.3082 168.863 85.4732 170.433 81.4124H164.759V81.3721ZM75.0951 84.1866C75.0951 84.1866 75.0146 84.3474 74.9342 84.468C74.4512 85.0309 72.9622 85.1917 72.2378 85.3928C69.7024 86.0763 67.0061 86.3175 64.35 86.1567C59.6415 85.9154 53.7256 83.7443 52.2366 79.6031C51.8341 78.4371 51.5524 76.8691 51.7134 75.6629C51.8744 74.4165 52.1963 73.1299 52.7195 71.9237C52.9207 71.4814 54.8927 68.3855 55.8183 69.9134C56.1 70.3959 55.8183 70.9587 55.4561 71.3608C53.9268 73.0897 53.2829 75.9845 53.6854 78.1154C54.1683 80.6082 56.0195 82.7392 58.7159 83.7845C60.2451 84.3876 62.0159 84.7093 63.7061 84.9103C65.9598 85.1515 68.2134 84.9103 70.4268 84.5082C71.5939 84.3072 72.7207 84.1464 73.8878 83.9855C74.411 83.9051 75.1756 83.8649 75.0549 84.2268L75.0951 84.1866ZM146.89 90.0969C145.683 90.8206 144.113 90.7804 142.705 90.7804C140.572 90.7804 138.439 91.0216 136.346 91.0216C131.195 91.0216 126.044 90.5794 121.094 89.4536C117.472 88.6093 113.85 87.6443 110.349 86.4381C109.101 85.9959 106.646 85.3124 105.52 84.2268C104.956 83.9453 104.433 83.6639 104.191 83.2216C103.709 82.4979 105.238 82.3371 105.721 82.3773C107.733 82.6185 109.504 83.7443 111.194 84.5886C113.85 85.8752 116.828 86.7598 119.766 87.4835C122.905 88.2474 126.165 88.9309 129.424 89.2526C132.644 89.5742 135.904 89.4938 139.163 89.534C141.659 89.534 144.435 89.0515 146.85 89.6948C147.051 89.735 147.091 89.9763 146.89 90.0567V90.0969Z" fill="#FDDD93"/>
<path d="M53.8463 66.2144C53.8463 66.2144 52.639 66.2144 50.6268 66.4556C51.5122 66.536 52.3573 66.6968 52.8805 67.0989C53.5646 67.5814 52.478 68.0638 52.0354 68.1845C50.7476 68.4659 49.4195 68.5865 48.1317 68.7071C46.2 68.868 44.6305 69.3504 42.8598 70.0742C41.8134 70.4762 40.8073 70.9185 39.761 71.2803C38.9963 71.5216 38.1915 71.8834 37.3463 71.8432C36.3 71.803 36.6622 70.9989 37.3463 70.1948C36.0183 71.0793 35.9378 71.8834 36.2598 72.2855C36.2598 72.2855 36.5012 73.0092 37.1854 72.9288C37.8695 72.8082 49.5 68.4257 55.7378 68.7876C55.7378 68.7876 57.2671 68.9886 57.2671 68.2247C57.2671 67.4607 53.8463 66.2948 53.8463 66.2948V66.2144Z" fill="#FDDD93"/>
</g>
<path d="M181.339 59.8215C181.339 59.8215 182.305 58.7761 181.339 57.0071C181.339 57.0071 181.701 55.238 181.218 54.9163C181.218 54.9163 181.701 52.6246 180.735 52.3029C180.735 52.3029 183.19 50.0112 182.426 46.9957C181.701 43.9803 175.463 40.5627 164.316 45.0256C164.316 45.0256 164.477 44.9452 164.718 44.7442C152.524 49.2875 144.154 58.3339 144.154 58.3339C114.937 68.5864 79.522 51.4184 73.6463 46.4328C67.7707 41.4473 60.7683 41.5679 60.7683 41.5679C60.7683 41.5679 55.6171 41.5679 55.3756 46.4328C55.1342 51.2978 62.0963 58.173 62.0963 58.173C62.0963 58.173 60.3659 57.5699 58.072 55.3586C55.7378 53.1875 54.772 51.8205 53.4037 53.5895C53.4037 53.5895 51.311 53.1875 50.9488 55.9617C50.5866 58.7761 51.7939 60.8266 51.7939 60.8266C51.7939 60.8266 50.3451 59.5803 49.822 61.4699C49.339 63.3194 52.0354 66.0535 52.8805 66.7772C53.7256 67.5009 73.4451 78.7184 91.6756 79.8844C91.6756 79.8844 116.385 85.071 128.901 84.5483C128.901 84.5483 130.109 86.438 133.57 86.1163C133.57 86.1163 133.57 87.7648 140.773 87.3627C147.977 86.9607 151.438 85.3926 151.438 85.3926C151.438 85.3926 171.399 83.2215 177.637 78.9596C183.874 74.6978 178.602 69.1091 178.602 69.1091C178.602 69.1091 183.633 63.3998 181.299 59.7411L181.339 59.8215Z" fill="#FFECAE"/>
<g style="mix-blend-mode:multiply">
<path d="M181.339 59.8216C181.339 59.8216 182.305 58.7762 181.339 57.0071C181.339 57.0071 181.701 55.238 181.218 54.9164C181.218 54.9164 181.701 52.6246 180.735 52.303C180.735 52.303 183.19 50.0112 182.426 46.9958C182.023 45.3875 180.051 43.6587 176.59 43.0958C178.804 43.7793 181.741 45.2669 180.172 47.4783C180.051 47.6391 179.81 47.5989 179.729 47.438C178.643 44.6236 173.572 44.9855 170.916 45.5484C168.018 46.1917 165.161 47.1968 162.545 48.403C157.273 50.8154 152.605 54.1123 148.902 58.1329C147.816 59.3391 147.051 60.7463 146.005 61.9525C145.522 62.5154 144.556 63.8422 143.55 63.1989C142.624 62.5958 143.188 60.7865 143.51 59.9824C143.791 59.2587 144.154 58.5752 144.596 57.9319C144.315 58.2133 144.154 58.3741 144.154 58.3741C140.33 59.7009 136.427 60.5855 132.483 61.0679C132.201 61.0679 131.96 61.1484 131.678 61.1484C131.517 61.1484 131.356 61.1484 131.235 61.1886C130.994 61.1886 130.752 61.2288 130.511 61.269C130.35 61.269 130.189 61.269 129.988 61.3092C129.746 61.3092 129.545 61.3092 129.304 61.3494C129.102 61.3494 128.901 61.3494 128.74 61.3896C128.539 61.3896 128.338 61.3896 128.137 61.3896C127.935 61.3896 127.734 61.3896 127.493 61.3896C127.291 61.3896 127.131 61.3896 126.929 61.3896C126.688 61.3896 126.487 61.3896 126.245 61.3896C126.084 61.3896 125.883 61.3896 125.722 61.3896C125.48 61.3896 125.239 61.3896 124.998 61.3896C101.213 61.671 78.3146 50.2123 73.6866 46.2721C67.811 41.2865 60.8085 41.4071 60.8085 41.4071C60.8085 41.4071 55.6573 41.4071 55.4159 46.2721C55.2549 49.2071 57.7098 52.8257 59.722 55.2783C60.2049 55.8813 60.6476 56.404 61.05 56.8061C61.0903 56.8463 61.1707 56.9267 61.211 56.9669C61.211 56.9669 61.211 56.9669 61.2512 57.0071C61.2915 57.0473 61.3317 57.0875 61.372 57.1277C61.372 57.1277 61.4122 57.1679 61.4524 57.2081C61.4524 57.2081 61.4927 57.2886 61.5329 57.2886L61.6134 57.369C61.6134 57.369 61.6134 57.369 61.6537 57.4092C61.9354 57.6906 62.0963 57.8917 62.0963 57.8917C62.0963 57.8917 60.3659 57.2886 58.072 55.0772C55.7378 52.9061 54.772 51.5391 53.4037 53.3081C53.4037 53.3081 51.311 52.9061 50.9488 55.6803C50.5866 58.4947 51.7939 60.5453 51.7939 60.5453C51.7939 60.5453 50.3451 59.2989 49.822 61.1886C49.339 63.038 52.0354 65.7721 52.8805 66.4958C53.7256 67.2195 73.4451 78.437 91.6756 79.603C91.6756 79.603 116.385 84.7896 128.901 84.2669C128.901 84.2669 130.109 86.1566 133.57 85.835C133.57 85.835 133.57 87.4834 140.773 87.0813C147.977 86.6793 151.438 85.1112 151.438 85.1112C151.438 85.1112 171.399 82.9401 177.637 78.6783C183.874 74.4164 178.602 68.8277 178.602 68.8277C178.602 68.8277 183.633 63.1185 181.299 59.4597L181.339 59.8216ZM167.737 48.7648C170.071 47.1566 179.166 46.1514 177.274 50.6143C177.194 50.7752 176.993 50.8154 176.872 50.6947C174.82 48.9659 172.123 49.0463 169.467 49.0463C168.944 49.0463 168.421 49.0865 167.898 49.1267C167.696 49.1267 167.535 48.8855 167.737 48.7648ZM155.06 58.0525C157.917 54.3133 162.102 50.6545 167.535 50.0112C167.535 50.0112 167.535 50.0112 167.576 50.0112C169.427 49.6494 171.359 49.6092 173.129 50.2525C174.98 50.8958 176.107 52.8659 174.779 54.2329C174.699 54.3133 174.538 54.3133 174.417 54.2329C171.68 51.9009 167.616 52.2628 164.276 53.3484C160.976 54.4339 157.917 56.1628 155.422 58.2937C155.221 58.4545 154.899 58.2535 155.02 58.0525H155.06ZM154.818 60.7865C156.388 58.0525 159.889 55.6401 163.31 54.7154C163.35 54.7154 163.43 54.7154 163.471 54.7154C164.759 54.2329 166.167 53.9514 167.535 53.9514C169.065 53.9514 171.238 54.0721 171.922 55.4391C171.962 55.5597 171.922 55.7205 171.761 55.7607C168.702 56.203 165.604 56.2834 162.666 57.2886C159.97 58.2133 157.515 59.5803 155.181 61.0679C154.979 61.1886 154.738 60.9473 154.859 60.7865H154.818ZM118.116 62.9174C119.162 62.7164 123.267 63.0783 123.67 63.0783C125.843 62.9978 127.976 62.7968 130.109 62.5154C131.92 62.2741 133.61 61.9123 135.34 61.4298C136.306 61.1886 138.68 60.0628 139.606 60.9473C140.652 61.8721 138.318 62.9576 137.473 63.2793C134.576 64.4453 131.356 64.9277 128.217 65.0082C125.32 65.0484 121.537 65.4906 118.881 64.204C118.639 64.0834 117.23 63.0783 118.076 62.9174H118.116ZM108.015 65.0082C110.188 65.0484 112.361 65.6917 114.534 65.9731C117.11 66.335 119.726 66.6164 122.301 66.6164C127.251 66.6164 133.972 65.9731 139.365 65.169C139.646 65.1288 137.393 66.0535 137.151 66.1339C137.031 66.1339 136.91 66.2143 136.749 66.2143C141.135 65.3298 145.522 64.3648 149.828 63.2793C158.038 61.269 166.69 59.7411 173.813 55.4793C174.779 54.9164 177.435 52.8659 178.643 53.9917C181.379 56.5649 166.207 61.1886 164.074 61.8319C160.493 62.9174 156.871 63.8824 153.168 64.7669C147.293 66.1741 141.337 67.2597 135.34 68.1442C132.402 68.5865 129.505 68.9484 126.567 69.3504C124.112 69.6721 117.512 70.0741 119.001 69.0288C120.209 68.7071 123.871 68.5463 125.521 68.3051C127.976 67.9432 130.43 67.5009 132.845 66.9783C125.641 67.9834 116.104 68.9886 109.302 66.1741C109.182 66.1339 109.182 66.0535 109.182 65.9731C108.739 65.8123 108.296 65.6112 107.854 65.4102C107.652 65.2896 107.733 65.0082 107.974 65.0082H108.015ZM69.8232 53.0267C68.7366 52.102 67.7305 51.0968 66.9256 50.0112C66.2012 49.0061 65.839 47.9205 67.65 48.4432C69.4207 48.9659 71.1915 50.2525 72.5598 51.338C76.9866 54.7958 80.9707 58.6556 85.7195 61.8319C86.8866 62.5958 88.0537 63.3999 89.3817 63.9628C90.5085 64.4855 94.3317 66.1741 92.7622 65.8525C92.4402 66.0937 91.4744 65.7319 90.8707 65.571C89.9854 65.3298 89.1403 64.9679 88.2951 64.6463C81.4537 61.8319 75.1354 57.6504 69.8232 53.0669V53.0267ZM85.5585 66.2947C83.8683 66.2947 80.9707 65.4906 79.361 65.0886C77.3488 64.5659 75.3768 63.7618 73.4049 63.038C71.5537 62.3545 69.5415 61.8319 67.972 60.7865C66.9256 60.0628 65.8793 58.3741 68.1732 58.4947C70.5073 58.6154 72.3988 59.902 74.2098 61.0679C75.9 62.1937 77.872 62.9978 79.8037 63.7216C80.6085 64.0432 81.4537 64.3246 82.2585 64.6463C82.9427 64.8875 84.311 65.8123 84.9951 65.8123C84.9951 65.8123 85.5988 66.2947 85.5585 66.2947ZM88.6976 60.8669C88.6976 60.8669 88.8183 60.4648 89.0195 60.5855C96.5049 65.0886 105.841 66.0535 114.413 68.104C114.615 68.1442 114.655 68.4659 114.413 68.5061C110.51 69.069 106.043 68.6267 102.22 67.702C100.368 67.2597 98.6378 66.6164 96.9878 65.8927C93.8488 64.9277 90.589 63.1989 88.6976 60.8669ZM114.293 71.9236C116.466 71.7628 118.599 71.9638 120.772 71.9236C123.106 71.9236 125.48 71.6824 127.774 71.4813C132.684 71.0391 137.594 70.5968 142.463 69.9133C147.172 69.2298 151.84 68.3855 156.428 67.3803C160.291 66.536 163.913 64.9679 167.938 64.6865C168.139 64.6865 168.26 64.9277 168.099 65.0484C166.65 66.2545 164.437 66.8978 162.626 67.6216C160.493 68.4257 158.36 69.1896 156.106 69.7927C151.398 71.0391 146.609 72.004 141.699 72.6473C137.352 73.2504 132.966 73.9339 128.539 74.2556C124.595 74.537 120.53 74.4968 116.748 73.371C115.782 73.17 114.896 72.8484 114.132 72.2855C113.971 72.1649 114.132 71.9236 114.293 71.9236ZM60.0037 46.5133C58.9976 48.202 60.5268 50.0112 59.8427 51.6597C56.8244 50.0112 55.6976 45.6288 58.6756 43.4174C62.2171 40.804 67.972 43.4174 70.9098 45.3875C75.7793 48.604 79.7232 51.9813 85.1159 54.5143C88.2146 55.9618 91.4342 57.1679 94.7744 58.2133C96.4244 58.736 98.1146 59.2587 99.7646 59.8216C100.771 60.1834 103.668 60.7865 104.03 61.6308C104.151 61.8721 97.9134 61.47 97.4305 61.3896C95.0159 60.9473 92.6817 60.2638 90.4281 59.3793C85.9207 57.6102 81.8159 55.238 77.9122 52.6649C75.9403 51.3783 74.0085 50.0112 72.0768 48.6442C70.1451 47.237 68.0927 45.7896 65.5573 45.2267C63.5451 44.7844 61.05 44.704 59.9634 46.5133H60.0037ZM61.9354 47.8803C61.9354 47.8803 61.9354 47.8803 61.9756 47.8803C63.2634 47.4783 65.5573 50.7752 66.2415 51.4587C68.9781 54.3937 72.1573 57.3288 75.8195 59.6205C76.9866 60.2236 78.1939 60.8267 79.361 61.47C79.6427 61.6308 79.361 61.9525 79.1195 61.8319C76.9866 60.9473 74.6524 60.1834 72.6402 59.1783C68.8171 57.2081 64.8329 54.836 62.4988 51.4185C62.0963 50.8154 60.6878 48.3628 61.9756 47.8803H61.9354ZM55.6171 54.9566C56.6634 55.238 57.4683 56.2834 58.1927 57.0473C61.1305 59.0978 64.35 60.9071 67.811 62.3143C72.0768 64.1236 76.5439 65.2494 81.0915 66.3752C86.0817 67.5813 90.9512 68.8679 96.1427 69.3906C100.771 69.8731 105.479 70.1143 110.148 70.1143C110.47 70.1143 110.47 70.4762 110.148 70.5164C102.26 71.6422 96.4244 70.7174 89.6232 69.7927C88.4561 69.6319 87.289 69.471 86.1622 69.2298C86.1622 69.2298 86.0817 69.2298 86.0415 69.2298C78.1939 68.0236 69.7427 66.6968 62.9817 62.837C60.7281 61.5504 58.4342 60.1834 56.5427 58.535C55.8585 57.9319 54.45 56.7257 54.772 55.7607C54.772 55.7607 54.772 55.6803 54.7317 55.6401C54.611 55.1576 55.0537 54.7154 55.6573 54.8762L55.6171 54.9566ZM73.0427 69.27C75.0549 70.3958 77.2683 71.2803 79.3207 72.4061C79.5622 72.5267 79.4012 72.8484 79.1195 72.7679C76.5037 72.0442 73.8476 71.1597 71.4732 69.9535C71.4329 69.9535 71.3524 69.9535 71.3122 69.9535C69.9841 69.27 68.0524 68.3453 68.0122 66.8576C68.0122 66.737 68.1732 66.6164 68.3342 66.6566C70.1451 67.2195 71.4732 68.4257 73.0427 69.3102V69.27ZM70.9902 74.537C69.3402 74.1752 67.7707 73.6525 66.2817 72.969C63.2232 71.8834 60.2854 70.637 57.5085 69.069C55.2146 67.7824 51.311 65.6917 51.2305 63.038C51.2305 62.8772 51.3915 62.837 51.5524 62.837C51.5927 62.837 51.6329 62.837 51.6732 62.837C51.7537 62.7968 51.8342 62.7566 51.9146 62.837C52.5988 63.2391 53.0415 63.8422 53.6049 64.4051C54.2488 65.0082 54.8927 65.571 55.6171 66.1339C57.1061 67.2597 58.7159 68.2648 60.3659 69.2298C62.3378 70.436 64.35 71.602 66.5232 72.5669C68.0524 73.1298 69.5817 73.6123 71.1512 74.0947C71.4329 74.1752 71.3524 74.5772 71.0305 74.4968L70.9902 74.537ZM95.8207 79.8442C92.4 79.4422 89.0195 78.4772 85.7598 77.5927C82.822 76.7886 80.4878 76.3865 77.6305 75.3813C72.4793 73.5721 68.8171 71.6422 64.7524 69.6721C62.0561 68.104 59.5207 66.2947 57.1866 64.5257C54.9732 62.837 52.5183 60.8669 51.9146 58.2937C51.7939 57.8112 51.7134 56.4442 52.639 56.4844C53.4842 56.5246 54.1683 57.6504 54.5707 58.1329C55.2549 59.0174 55.8585 59.9824 56.6232 60.8669C58.3134 62.7968 60.2451 64.6061 62.3378 66.2143C64.6317 67.9834 67.1268 69.5514 69.7829 70.9185C71.7951 71.6824 73.6463 72.6875 75.6585 73.4112C81.3732 75.502 87.289 76.869 93.1646 78.4772C94.0098 78.7185 96.3439 78.9999 96.9073 79.6834C96.9878 79.804 97.0281 79.8442 96.9878 79.9246C96.9073 80.0855 96.1427 79.9246 95.7805 79.9246L95.8207 79.8442ZM92.8829 74.8587C90.2671 74.336 87.6512 73.6927 85.1561 72.8886C85.1561 72.969 85.0354 73.0494 84.8744 73.0092C81.6146 71.9236 78.2744 70.9185 75.3366 69.27C75.1354 69.1494 75.2561 68.8277 75.5378 68.9081C78.3549 69.7123 81.0915 70.5164 84.0293 70.9587C89.3817 71.7628 94.6134 72.9288 99.8451 74.2154C101.817 74.6978 103.87 74.8587 105.841 75.3411C106.767 75.5824 111.556 76.9494 108.176 77.1906C106.002 77.3515 103.87 76.869 101.817 76.5473C98.839 76.1051 95.9012 75.4618 92.9232 74.8587H92.8829ZM128.056 82.8597C126.446 83.1814 124.796 83.2618 123.187 83.2618C120.128 83.4226 116.989 83.0205 114.011 82.6587C111.234 82.337 108.417 81.8947 105.761 81.1308C104.956 80.9298 104.151 80.7288 103.387 80.3669C103.346 80.3669 103.306 80.3669 103.266 80.3267C103.024 80.2463 103.145 79.9246 103.387 79.9246C107.572 80.0453 111.556 81.0504 115.661 81.4927C119.766 81.935 123.911 81.9752 128.016 82.4174C128.257 82.4174 128.378 82.7793 128.096 82.8195L128.056 82.8597ZM117.552 80.1659C114.252 80.0051 110.63 79.9246 107.733 78.4772C107.491 78.3566 107.652 78.035 107.934 78.1154C111.717 78.7185 115.782 78.1154 119.605 77.9545C123.428 77.7535 127.251 77.4721 131.074 77.1102C135.541 76.7082 140.049 76.2659 144.476 75.703C148.057 75.0999 151.639 74.4968 155.181 73.7731C155.462 73.7329 155.623 74.0143 155.382 74.135C151.84 75.8236 148.138 77.271 144.234 78.236C140.21 79.2411 136.105 79.7638 131.92 80.0051C127.13 80.2865 122.341 80.3267 117.593 80.1257L117.552 80.1659ZM148.5 84.2267C146.448 84.7494 144.395 85.2721 142.302 85.7143C141.498 85.8752 140.532 86.1164 139.646 86.0762C138.359 86.2772 137.031 86.3576 135.904 85.7143C135.743 85.6339 135.743 85.3927 135.944 85.3525C143.751 83.4628 151.559 80.97 158.641 77.5525C162.022 75.904 165.121 73.9741 168.3 72.0442C170.554 70.637 172.807 69.2298 174.739 67.5411C174.739 67.5009 174.739 67.4205 174.779 67.3401C175.705 66.4958 176.51 65.5308 177.556 64.7669C177.757 64.6061 178.079 64.7669 177.959 65.0082C178.482 65.9731 177.757 67.1391 177.154 67.9432C176.268 69.1494 175.262 70.2752 174.135 71.3205C170.795 74.336 166.771 76.9092 162.545 78.9999C158.118 81.171 153.41 82.8999 148.54 84.1865L148.5 84.2267ZM174.82 78.7587C172.324 80.0051 169.628 80.7288 166.851 81.3721C165.161 81.7741 162.907 82.6185 161.177 81.935C160.976 81.8545 161.056 81.6133 161.217 81.5731C164.879 80.3267 168.743 79.4824 172.163 77.7937C173.33 77.2308 174.578 76.7081 175.504 75.904C175.987 75.502 176.349 75.0195 176.47 74.4566C176.63 73.7731 176.228 73.0494 176.389 72.4061C176.51 71.9236 176.791 71.5618 177.154 71.1999C177.234 71.1195 177.355 71.0391 177.476 71.1195C181.259 73.3308 177.596 77.3917 174.82 78.7989V78.7587ZM179.689 61.3494C178.562 63.802 175.705 65.169 173.612 67.0185C172.163 68.3051 169.829 69.5514 168.22 70.6772C164.235 73.4917 159.889 75.904 155.261 77.9143C150.432 80.0051 145.522 81.935 140.371 83.302C138.6 83.7844 136.829 84.3473 134.978 84.7092C133.57 84.9906 132 85.2319 130.632 84.669C130.43 84.5886 130.511 84.3473 130.712 84.3071C135.179 83.302 139.767 82.5783 144.033 81.0906C148.138 79.6432 152.082 77.7535 155.905 75.7834C161.177 73.0896 166.811 70.2752 171.399 66.7772C173.572 65.1288 175.665 62.9576 177.435 60.9875C177.878 60.4649 178.723 58.9772 179.609 59.0576C179.77 59.0576 179.85 59.138 179.89 59.2587C180.091 60.0226 180.011 60.7463 179.689 61.4298V61.3494Z" fill="#FDDD93"/>
</g>
<path d="M73.6463 46.5133C79.5219 51.4989 114.937 68.6669 144.154 58.4143C144.154 58.4143 152.484 49.3277 164.718 44.8246C165.926 43.9401 169.427 41.0855 168.139 38.2308C166.73 35.1752 165.322 35.0143 165 35.0143H164.96C164.96 35.0143 164.96 35.0143 165 35.0143C165.604 35.0143 171.399 34.7329 172.767 33.7679C174.216 32.7226 173.371 31.3958 172.646 30.8731C172.646 30.8731 175.705 30.1494 174.98 29.0236C174.256 27.8978 170.594 26.6514 162.988 27.2545C162.988 27.2545 164.316 27.1339 164.316 24.8824C164.316 22.6308 160.533 23.7566 158.32 23.5154C148.178 23.636 138.962 30.3906 136.145 33.0844C133.328 35.7782 131.598 39.5174 123.911 39.7185C116.184 39.9195 112.522 35.7782 112.522 35.7782C105.56 35.6576 99.3219 33.9288 89.5024 32.0391C79.7232 30.1896 68.4549 32.6824 68.4549 32.6824C67.6098 32.8432 66.8451 32.9236 66.161 32.9638C63.3841 33.7277 57.589 35.4968 53.7658 38.271C48.6146 42.0102 49.8622 46.4731 51.7939 45.6288C53.7658 44.7844 58.1524 38.6731 61.8549 37.8288C61.8549 37.8288 60.5268 39.4772 62.2171 39.9999C62.2171 39.9999 60.728 40.7236 60.728 41.6483C60.728 41.6483 67.7305 41.5277 73.6061 46.5133H73.6463Z" fill="#FFE98A"/>
<g style="mix-blend-mode:multiply">
<path d="M174.98 28.9834C174.256 27.8576 170.594 26.6112 162.988 27.2143C162.988 27.2143 164.316 27.0937 164.316 24.8421C164.316 23.3545 162.666 23.3143 160.895 23.4349C160.855 23.4751 160.774 23.5153 160.694 23.5555C160.694 23.5555 160.654 23.5555 160.613 23.5555C160.976 23.6761 161.298 23.837 161.539 24.0782C162.223 24.6813 161.499 25.4452 160.774 25.6865C159.406 26.1689 157.756 26.2091 156.267 26.37C153.41 26.6514 150.472 26.7318 147.655 27.2143C147.373 27.2545 147.252 26.9731 147.454 26.8122C150.472 25.0834 153.933 24.0782 157.474 23.5153C147.615 23.9174 138.801 30.4308 136.065 33.0442C133.248 35.738 131.517 39.4772 123.83 39.6782C116.104 39.8792 112.441 35.738 112.441 35.738C105.479 35.6174 99.2415 33.8885 89.4219 31.9988C79.6427 30.1493 68.3744 32.6421 68.3744 32.6421C67.7305 32.7627 67.1268 32.8432 66.5634 32.8834C67.1268 32.8834 67.65 32.8834 68.1329 33.1246C68.2939 33.205 68.2939 33.406 68.1329 33.4865C64.6719 35.2153 60.889 36.3009 57.6293 38.3112C54.5707 40.2009 51.8744 42.4122 50.6671 45.5081C50.9488 45.7493 51.3512 45.7896 51.7537 45.6287C53.7256 44.7844 58.1122 38.6731 61.8146 37.8287C61.8146 37.8287 60.4866 39.4772 62.1768 39.9999C62.1768 39.9999 60.6878 40.7236 60.6878 41.6483C60.6878 41.6483 67.6902 41.5277 73.5659 46.5133C79.4415 51.4988 114.856 68.6669 144.073 58.4143C144.073 58.4143 152.404 49.3277 164.638 44.8246C165.845 43.9401 169.346 41.0854 168.059 38.2308C166.65 35.1751 165.241 35.0143 164.92 35.0143H164.879C164.879 35.0143 164.879 35.0143 164.92 35.0143C165.523 35.0143 171.318 34.7328 172.687 33.7679C174.135 32.7225 173.29 31.3957 172.566 30.8731C172.566 30.8731 175.624 30.1493 174.9 29.0236L174.98 28.9834ZM141.9 30.0287C142.302 29.6669 142.745 29.3854 143.188 29.1844C143.188 29.1844 143.188 29.1442 143.268 29.104C144.355 28.5813 145.763 28.2194 146.971 28.7019C147.091 28.7421 147.051 28.903 146.971 28.9432C145.522 29.7473 143.711 29.9081 142.061 30.27C141.9 30.27 141.779 30.1493 141.9 30.0287ZM137.956 32.8432C140.693 30.8328 144.677 30.5112 148.138 29.9483C152.283 29.2648 156.388 28.4205 160.573 27.7772C160.573 27.7772 160.654 27.7772 160.694 27.737C161.177 27.6566 161.66 27.6164 162.143 27.5761C162.384 27.5761 162.626 27.4957 162.867 27.4555C162.907 27.4555 162.988 27.4555 163.028 27.4555C164.074 27.3751 165.08 27.3349 166.087 27.3751C167.455 27.4555 169.387 27.5761 170.151 28.7019C170.232 28.8225 170.151 28.9834 169.99 29.0236C167.374 29.506 164.678 29.4658 162.062 29.7071C159.004 29.9885 155.945 30.3504 152.967 30.9535C150.311 31.4761 147.735 32.1597 145.12 32.7225C142.785 33.2452 140.451 33.5669 138.037 33.205C137.876 33.205 137.795 32.9638 137.916 32.8432H137.956ZM137.433 40.7236C137.433 40.7236 137.513 40.6834 137.554 40.6834C140.974 41.005 143.952 40.4019 147.252 39.5978C148.943 39.1957 150.754 38.3514 152.605 37.4669C153.088 37.2256 153.933 37.3865 153.772 38.3112C153.571 39.4772 152.243 40.2009 151.518 40.5627C150.23 41.206 148.862 41.6885 147.494 41.8895C145.643 42.171 143.751 42.2514 141.86 42.0504C140.411 41.8895 138.801 41.8091 137.433 41.1658C137.272 41.0854 137.312 40.7638 137.433 40.7638V40.7236ZM126.326 42.7741C128.298 43.0153 130.27 43.4576 132.282 43.6184C134.012 43.7792 135.783 43.739 137.513 43.6988C140.451 43.6184 143.389 43.538 146.327 43.2164C150.713 42.7741 155.865 41.6081 158.199 38.1906C158.44 37.4267 158.883 36.8638 159.607 37.7081C160.332 38.5926 159.165 40.2813 158.521 40.9648C156.71 43.0555 153.168 43.8597 150.311 44.3421C145.643 45.1462 140.854 45.2267 136.105 44.9854C133.771 44.8648 131.437 44.704 129.143 44.3019C128.016 44.1009 126.688 43.9803 126.044 43.0555C125.923 42.8947 126.124 42.7339 126.326 42.7339V42.7741ZM115.741 39.3968C116.667 39.3566 117.874 39.2359 118.679 39.7184C118.84 39.839 118.84 40.0401 118.639 40.1205C115.701 41.1256 112.562 41.3267 109.504 41.8493C107.25 42.2514 104.634 42.6937 102.622 41.4875C102.421 41.3669 102.461 41.1658 102.662 41.1256C105.922 40.0401 109.544 39.9194 113.045 39.7184C113.93 39.5978 114.856 39.4772 115.741 39.3968ZM105.198 35.939C107.17 36.0597 113.126 36.5421 112.321 37.5875C111.717 38.3514 108.296 38.5122 107.33 38.6731C105.52 38.9947 103.709 39.3566 101.898 39.5978C100.771 39.7586 94.6537 40.8442 96.7463 38.271C98.3963 36.2205 101.938 35.939 104.634 35.939C104.715 35.939 104.916 35.939 105.198 35.939ZM74.7732 33.0442C75.8195 32.0792 77.6305 31.9184 79.0793 31.7576C81.4537 31.4761 83.828 31.4761 86.2024 31.7576C90.3476 32.2803 94.6537 33.4462 97.9939 35.6174C98.1951 35.738 98.1146 35.9792 97.8732 36.0194C94.05 36.1401 90.589 35.0545 86.9268 34.2906C83.1439 33.5267 79.3207 33.2854 75.4573 33.3658C75.4171 33.406 75.3366 33.4462 75.2159 33.4462C75.0951 33.4462 75.0146 33.4463 74.8939 33.3658C74.6927 33.3256 74.6524 33.1246 74.7732 33.004V33.0442ZM63.1829 38.8741C63.1024 38.8741 63.0219 38.9545 62.9415 38.9947C62.8207 39.0349 62.7 38.9947 62.6597 38.9545C62.4988 38.9545 62.378 38.8339 62.4183 38.6731C63.5451 36.1401 67.7305 35.537 70.5073 35.3359C74.9744 35.0143 79.7634 35.8586 83.7476 37.5071C83.9488 37.5875 83.8683 37.9091 83.6268 37.9091C76.7451 37.4669 69.6219 36.0194 63.2232 38.8741H63.1829ZM63.5049 40.8844C63.5049 40.8844 63.3439 40.6834 63.4244 40.603C63.4244 40.603 63.4244 40.5627 63.4646 40.5225C63.4646 40.4823 63.4646 40.4421 63.5451 40.4019C63.7061 40.2009 63.8671 40.0803 64.1488 39.9597C64.2695 39.9194 64.3902 39.9597 64.4305 39.9999C69.7829 37.8689 75.8195 37.9895 81.5341 38.7937C84.9549 39.2761 88.2951 39.9999 91.6354 40.6834C93.9293 41.1658 96.3036 41.4473 98.5171 42.0504C102.944 42.8947 107.25 44.4225 111.194 46.3122C113.85 47.5586 116.385 48.9256 119.041 50.1318C121.094 51.0164 123.146 51.8607 125.199 52.7452C126.607 53.1875 128.016 53.5895 129.505 53.9112C131.115 54.2328 132.724 54.5545 134.294 55.037C134.495 55.0772 134.535 55.3988 134.294 55.439C127.09 56.3236 120.048 53.3885 114.615 49.7298C113.407 48.8854 112.2 48.0411 110.872 47.3978C107.974 45.9504 104.835 44.9452 101.616 44.1411C98.1549 43.2566 94.5329 42.5731 90.9915 42.0906C84.15 41.1658 77.6707 40.5627 70.789 41.3669C68.3744 41.6483 65.7585 41.8896 63.5049 40.9246V40.8844ZM134.093 57.7308C129.183 58.4545 121.255 58.4143 118.559 54.0318C118.438 53.8308 118.679 53.67 118.88 53.7504C121.577 54.7957 124.313 55.7607 127.251 56.2432C129.545 56.5648 131.839 56.806 134.093 57.3287C134.294 57.3689 134.334 57.6906 134.093 57.7308ZM102.059 56.4844C97.35 55.8411 89.5024 55.5597 87.6915 50.9359C87.611 50.7349 87.8524 50.6143 88.0536 50.6947C89.9049 51.4586 91.6756 52.3834 93.6476 52.9463C93.8085 52.9865 93.8488 53.1071 93.8085 53.2277C96.5854 54.2731 99.4427 55.0772 102.22 56.0823C102.22 56.0823 102.26 56.0823 102.3 56.0823C102.582 56.203 102.34 56.4844 102.099 56.4442L102.059 56.4844ZM91.7159 50.8555C94.8951 49.7298 99.2012 51.137 100.972 53.5895C101.093 53.7504 100.891 53.9514 100.69 53.9112C99.5634 53.5493 98.3963 53.2277 97.2695 52.8658C97.189 52.9462 97.0683 52.9865 96.9476 52.9463C95.2573 52.2627 93.4463 51.8205 91.7159 51.2978C91.4744 51.2174 91.4744 50.9761 91.7159 50.8957V50.8555ZM106.485 58.2937C106.485 58.2937 106.083 58.2937 106.083 58.1329C105.52 51.7803 98.2756 49.8504 91.8768 49.1267C88.3354 48.8854 84.7939 49.4483 81.2927 49.0462C81.0915 49.0462 81.0512 48.7246 81.2524 48.6844C84.5524 47.4782 88.2951 47.1566 91.8768 47.3978C94.8549 47.5988 98.0341 48.0411 100.771 49.1669C104.513 50.6545 110.59 54.5143 106.566 58.2937H106.485ZM116.023 58.2937C115.701 59.2586 115.943 60.1432 114.534 60.0225C112.643 59.8617 112.723 56.6854 112.361 55.4792C111.113 51.2576 108.457 49.6091 103.789 48.0009C99.0402 46.3524 93.4463 45.6287 88.2951 45.1865C85.0756 44.905 81.8561 44.905 78.6366 45.0658C77.9524 45.0658 70.3866 45.2669 72.6402 44.2215C74.8536 43.1761 77.1878 43.1761 80.2463 43.1761C83.6671 43.1761 86.9671 43.7792 90.3878 43.8999C93.6073 44.0607 96.7866 44.3823 99.9658 44.905C103.588 45.5081 107.33 46.8349 110.429 48.5638C114.132 50.6143 117.432 54.2329 116.063 58.3339L116.023 58.2937ZM139.526 58.5751C139.526 58.5751 139.526 58.8566 139.365 59.0576C138.6 60.0225 135.501 60.1432 134.254 60.304C132.201 60.5854 130.149 60.6658 128.056 60.7865C124.957 60.9473 120.812 61.4298 118.196 59.6205C118.116 59.5803 118.116 59.4597 118.116 59.4194C118.961 57.7308 122.824 58.5751 124.394 58.7761C127.573 59.1782 130.833 59.0576 134.012 58.7761C135.179 58.6555 136.306 58.6153 137.473 58.5349C138.157 58.4545 139.365 58.1329 139.485 58.6153L139.526 58.5751ZM152.766 49.6091C151.518 50.4133 150.19 51.2576 148.741 51.7803C147.373 52.2627 146.005 52.4638 144.516 52.5844C140.854 52.8256 137.272 52.7854 133.65 52.1823C130.028 51.5792 126.527 50.5741 123.106 49.4081C120.933 48.6844 118.156 48.2421 116.506 46.7947C116.345 46.6339 116.506 46.3926 116.748 46.4328C118.8 46.7947 120.732 47.438 122.704 48.0411C122.865 48.0813 122.905 48.2019 122.865 48.3225C127.01 49.4081 131.276 50.1318 135.582 50.5741C141.216 51.137 147.212 51.0566 152.524 49.2473C152.806 49.1669 152.927 49.4885 152.726 49.6091H152.766ZM165.04 40.3617C164.437 42.0102 163.149 43.1761 161.579 44.2215C159.809 45.4277 157.957 46.3524 155.824 47.0359C153.933 47.6792 151.88 48.4432 149.828 48.4834C149.546 48.5236 149.265 48.604 148.943 48.6442C143.63 49.4081 137.835 49.2875 132.563 48.5236C127.855 47.8401 122.301 47.237 118.357 44.7442C117.673 44.3019 115.58 43.0957 116.788 42.2916C117.673 41.7287 119.162 42.5731 119.927 42.9349C121.094 43.4978 122.221 43.9803 123.509 44.3421C124.756 44.6638 125.963 45.2267 127.211 45.5483C131.034 46.5133 135.139 46.7947 139.123 47.0359C142.785 47.237 146.367 47.1968 149.949 46.3926C152.806 45.7493 155.543 44.8246 158.199 43.7792C158.561 43.538 158.963 43.2566 159.326 43.0153C160.613 42.0906 161.941 40.9648 162.746 39.6782C162.746 39.6782 162.746 39.638 162.746 39.5978C163.149 38.7133 163.229 37.7081 163.672 36.8638C163.712 36.7834 163.913 36.7432 163.994 36.7834C165.241 37.5875 165.402 39.1555 164.96 40.4019L165.04 40.3617ZM164.074 33.6875C161.459 34.0091 158.843 34.572 156.227 35.0143C153.651 35.4566 151.116 35.8586 148.54 36.2607C145.804 36.703 143.107 37.105 140.371 37.5473C138.077 37.9493 135.823 38.3112 133.489 38.3916C133.248 38.3916 133.127 38.2308 133.328 38.1102C135.099 37.306 137.111 36.703 139.123 36.1803C141.377 35.6174 143.63 35.0545 145.924 34.6122C148.5 34.1298 151.116 33.7277 153.691 33.2452C154.899 33.004 156.066 32.803 157.273 32.6019C157.273 32.6019 157.354 32.6019 157.394 32.6019C160.05 32.2401 162.706 31.7576 165.402 31.5968C166.57 31.5164 167.737 31.4761 168.863 31.5164C169.346 31.5164 169.95 31.5566 170.232 31.7978C171.52 32.8432 164.799 33.6071 164.034 33.7277L164.074 33.6875Z" fill="#FDDD93"/>
</g>
<path d="M89.5427 31.9989C99.322 33.8886 105.6 35.6174 112.562 35.738C112.562 35.738 116.224 39.8793 123.951 39.6782C131.678 39.4772 133.368 35.738 136.185 33.0442C139.002 30.3504 148.178 23.5958 158.36 23.4752C158.36 23.4752 156.911 21.1834 151.881 21.1834C151.881 21.1834 153.329 19.937 151.156 17.7659C148.943 15.5947 142.101 15.0721 136.467 17.3638C136.467 17.3638 139.405 12.9813 148.339 12.3782C157.273 11.7752 158.36 13.6246 159.728 12.4989C161.056 11.3329 158.159 9.28237 152.766 9.60402C147.373 9.92567 135.139 12.4989 128.298 19.4545C128.298 19.4545 121.295 14.7906 107.049 16.7607C107.049 16.7607 95.1366 9.96588 86.9671 9.28237C78.7976 8.59887 77.8317 10.6896 79.1195 11.4937C79.1195 11.4937 79.4415 11.7752 81.7756 11.5741C84.1098 11.3731 94.372 11.7752 98.6781 18.4494C98.6781 18.4494 93.7683 14.5896 87.5305 15.4339C81.2927 16.2782 77.2281 19.0525 74.1695 23.2339C74.1695 23.2339 67.6902 22.6308 65.2354 24.6009C62.7805 26.571 64.3902 27.8174 66.2012 27.938C66.2012 27.938 64.1085 29.3051 63.9878 30.5514C63.8671 31.7978 64.8329 32.6422 67.7707 32.6422C67.7707 32.6422 67.1671 32.7628 66.2012 33.0442C66.8854 33.004 67.65 32.8834 68.4951 32.7628C68.4951 32.7628 79.7634 30.27 89.5427 32.1195V31.9989Z" fill="#FFECAE"/>
<g style="mix-blend-mode:multiply">
<path d="M157.273 9.92563C157.273 9.92563 157.354 10.2473 157.354 10.4483C157.354 11.6947 155.301 11.2524 154.376 11.2122C151.237 11.0112 148.017 11.0916 144.959 11.8555C140.009 13.1019 136.266 15.9566 132.161 18.4091C131.276 18.9318 130.028 19.8163 128.861 19.7359C128.499 19.7359 128.338 19.5751 128.257 19.3339C128.257 19.3339 128.257 19.3339 128.217 19.3741C128.217 19.3741 121.215 14.7102 106.968 16.6803C106.968 16.6803 100.288 12.8607 93.4866 10.6493C94.0902 10.8906 94.6537 11.172 95.2171 11.4535C97.7524 12.7401 99.9659 14.3081 102.3 15.8359C103.709 16.7607 105.238 17.4844 106.727 18.3287C107.612 18.8112 108.659 19.173 109.423 19.8566C109.584 19.9772 109.463 20.2184 109.262 20.2184C106.043 20.138 103.226 18.5298 100.73 16.8813C97.9537 15.072 95.2976 12.9411 92.078 11.6947C90.1061 10.9308 88.0939 10.5287 85.9207 10.5287C84.3512 10.5287 82.661 10.8102 81.1317 10.6493C80.4073 10.5689 79.522 10.2875 79.1598 9.84521C78.3549 10.3679 78.5159 10.971 79.0793 11.373C79.0793 11.373 79.4012 11.6545 81.7354 11.4535C84.0695 11.2524 94.3317 11.6545 98.6378 18.3287C98.6378 18.3287 93.7281 14.4689 87.4902 15.3133C81.2524 16.1576 77.1878 18.9318 74.1293 23.1133C74.1293 23.1133 67.65 22.5102 65.1951 24.4803C62.7403 26.4504 64.35 27.6968 66.161 27.8174C66.161 27.8174 64.0683 29.1844 63.9476 30.4308C63.8268 31.6772 64.7927 32.5215 67.7305 32.5215C67.7305 32.5215 67.1268 32.6421 66.161 32.9236C66.8451 32.8834 67.6098 32.7627 68.4549 32.6421C68.4549 32.6421 79.7232 30.1493 89.5024 31.9988C99.2817 33.8885 105.56 35.6174 112.522 35.738C112.522 35.738 116.184 39.8792 123.911 39.6782C131.638 39.4772 133.328 35.738 136.145 33.0442C138.962 30.3504 148.138 23.5957 158.32 23.4751C158.32 23.4751 156.871 21.1834 151.84 21.1834C151.84 21.1834 153.289 19.937 151.116 17.7658C148.902 15.5947 142.061 15.072 136.427 17.3638C136.427 17.3638 139.365 12.9813 148.299 12.3782C157.233 11.7751 158.32 13.6246 159.688 12.4988C160.573 11.7349 159.607 10.6091 157.313 9.96583L157.273 9.92563ZM112.844 16.8813C115.259 16.238 117.874 16.5999 120.289 17.0823C122.583 17.5246 124.998 17.9669 126.929 19.173C127.05 19.2535 127.09 19.3339 127.01 19.4545C126.084 20.9823 123.509 20.4999 121.979 20.0978C118.921 19.2937 115.983 18.1277 112.924 17.3236C112.884 17.3236 112.844 17.3236 112.804 17.2432C112.643 17.1627 112.643 16.9215 112.844 16.8411V16.8813ZM134.012 24.8019C131.799 25.5658 129.143 26.37 126.728 25.7267C126.527 25.6462 126.487 25.4452 126.648 25.3246C127.332 24.8823 128.096 24.5607 128.861 24.2792C129.666 23.8772 130.471 23.4349 131.235 23.0328C133.328 21.9875 135.461 20.9823 137.674 20.1782C140.371 19.173 145.643 17.404 147.373 20.5803C147.454 20.7411 147.333 20.9019 147.091 20.9019C143.832 20.4194 140.693 22.3493 137.795 23.2741C137.634 23.3143 137.433 23.3947 137.272 23.4349C136.185 23.9174 135.099 24.3596 134.012 24.7617V24.8019ZM137.232 25.4854C136.95 26.3298 136.226 26.9731 135.582 27.6566C134.696 28.5411 133.69 29.8679 132.121 29.7875C131.276 29.7473 128.982 29.3452 129.143 28.3401C129.102 27.8576 130.31 27.3349 130.712 27.1339C132.604 26.2091 134.857 25.4452 136.99 25.2442C137.151 25.2442 137.272 25.405 137.232 25.4854ZM130.35 33.3256C129.263 33.5267 128.579 32.6421 128.056 31.9586C127.211 30.9535 126.567 29.8679 125.722 28.8627C124.313 27.2143 122.905 25.4854 121.134 24.1184C118.8 22.3493 115.701 21.4246 113.246 19.7761C113.045 19.6555 113.246 19.3339 113.488 19.4143C115.138 19.9772 116.989 20.1782 118.559 20.8617C121.094 21.9473 123.227 23.7968 125.118 25.5658C125.802 26.2091 132.684 32.9236 130.39 33.3256H130.35ZM112.844 29.6669C115.218 29.5865 117.432 30.471 119.685 30.8328C121.134 31.0741 122.663 30.8731 124.112 31.1947C124.877 31.3555 127.332 32.8834 125.32 33.1648C124.152 33.3256 122.543 32.8029 121.335 32.7627C118.8 32.6019 116.748 32.3607 114.534 31.1947C114.091 30.9535 112.321 30.3906 112.361 29.8679C112.361 29.7473 112.522 29.6669 112.763 29.6669H112.844ZM108.578 25.8875C108.578 25.8875 108.659 25.6462 108.82 25.6462C109.262 24.9225 113.005 26.1287 113.327 26.2091C115.46 26.772 117.593 27.3751 119.685 28.0184C120.772 28.3401 122.341 28.6215 122.985 29.506C123.106 29.6669 122.905 29.8277 122.704 29.8277C119.444 29.3452 116.144 28.9834 112.965 28.2596C111.315 27.8978 109.222 27.3751 108.578 25.8875ZM116.909 33.406C117.713 33.1246 118.518 33.4865 119.323 33.6875C120.329 33.9287 121.335 33.9689 122.382 33.9689C124.032 33.9287 125.682 33.7679 127.332 33.9689C127.533 33.9689 127.694 34.2102 127.493 34.3308C125.078 36.0999 121.738 35.8586 119.041 34.773C118.921 34.773 116.506 33.6071 116.868 33.4865C116.868 33.4865 116.909 33.4865 116.949 33.4865L116.909 33.406ZM122.341 21.9473C121.013 21.7462 119.806 20.8617 118.72 20.2184C118.599 20.138 118.599 19.9772 118.679 19.8968C118.679 19.7761 118.8 19.6555 119.001 19.6555C120.048 19.8163 121.134 19.9772 122.14 20.2586C122.704 20.4194 123.83 20.6607 123.871 21.304C123.871 21.9473 122.905 21.9875 122.341 21.9071V21.9473ZM103.185 20.5401C103.185 20.5401 103.266 20.3792 103.306 20.339C103.99 19.5349 106.445 20.6607 107.21 20.8617C109.141 21.4648 111.033 22.0277 113.005 22.4298C114.293 22.7112 115.621 22.9122 116.828 23.3947C117.432 23.6359 118.076 23.9576 118.518 24.4401C118.921 24.8823 119.001 25.2844 118.277 25.606C117.552 25.9277 116.707 25.4854 116.023 25.2844C112.361 24.1988 108.377 24.5205 105.157 22.3493C104.674 22.0277 102.944 21.2638 103.145 20.5401H103.185ZM101.817 28.5411C101.817 28.5411 101.817 28.9432 101.576 28.9029C100.167 28.5009 98.9598 27.8174 97.672 27.2143C96.1829 26.571 94.5329 26.0885 92.9232 25.5658C91.2329 25.0432 89.5427 24.6411 87.772 24.3596C86.8866 24.239 85.9207 24.3596 85.0756 24.1586C84.9951 24.1586 84.9146 24.0782 84.9146 23.9978C84.8342 23.9174 84.7939 23.7968 84.9146 23.7163C86.9268 22.1483 90.75 22.8318 93.1244 23.3143C96.8671 24.1184 99.4829 25.9277 101.817 28.5009V28.5411ZM84.5122 22.0679C83.1439 22.7112 81.6549 23.5957 80.0854 22.9524C79.8841 23.1535 79.5622 22.872 79.7634 22.671C83.0232 19.2535 88.8988 19.3741 93.2854 20.9421C93.5671 21.0627 93.4866 21.3844 93.1646 21.3442C90.3073 20.9019 87.1281 20.8215 84.5122 22.0679ZM76.9463 20.4596C78.7976 18.3689 81.8159 17.2029 84.7134 16.6401C88.8988 15.8359 95.7402 15.8761 98.1549 19.5349C98.2354 19.6957 98.0744 19.8968 97.8732 19.8566C94.0902 18.57 89.9451 17.4442 85.8805 18.4091C82.5 19.2133 79.8842 21.1432 77.1073 22.8318C77.1073 22.9122 77.1073 23.0328 76.9463 23.0328C74.7329 23.3143 76.3024 21.1834 76.9463 20.4596ZM65.1146 26.8524C64.5512 26.1689 64.9134 25.4452 65.4768 24.9225C67.1671 23.073 70.8695 23.6359 73.2841 23.7566C77.0671 23.9174 81.4939 23.837 84.7134 25.8473C84.9146 25.9679 84.8342 26.2091 84.5927 26.2493C79.5622 26.4504 74.089 25.606 69.2195 26.9731C68.0927 27.2947 66 27.938 65.1146 26.8926V26.8524ZM103.709 33.6071C99.8451 33.0844 96.3037 31.7978 92.561 30.9133C89.9854 30.27 87.3695 29.9483 84.7134 29.6669C80.3268 29.4256 75.9 29.6669 71.7146 30.7524C70.1451 31.1545 67.2073 32.1596 65.7183 31.1143C63.8671 29.8277 66.0805 28.5813 67.4085 27.9782C67.4488 27.9782 67.5293 27.9782 67.5695 27.9782C70.8293 26.4102 75.2159 26.5308 78.7573 26.6514C80.3671 26.6916 81.9366 26.8926 83.4659 27.1741C90.6695 27.8978 97.4707 30.4308 103.87 33.2452C104.151 33.3658 103.95 33.6473 103.668 33.6071H103.709ZM152.444 22.5102C152.645 22.5906 152.565 22.8318 152.404 22.872C149.184 23.6761 145.844 24.3596 143.067 26.0081C140.17 27.7772 137.674 30.2298 135.34 32.5215C133.73 34.0895 132 35.6174 130.028 36.8236C128.539 37.7483 126.768 38.5926 124.917 38.5122C114.776 39.839 107.33 28.0988 101.978 22.3091C101.696 22.1885 101.978 21.8267 102.22 21.9473C104.393 22.9926 105.922 24.6411 107.491 26.2895C109.222 28.0988 111.154 29.6669 113.126 31.2751C115.098 32.8834 116.949 34.7731 119.283 36.0596C120.852 36.904 122.502 37.306 124.193 37.1854C125.32 36.904 126.406 36.5823 127.372 36.0194C128.861 35.0947 130.229 34.0091 131.517 32.9236C133.891 30.873 135.904 28.5813 138.439 26.6514C140.572 25.0834 142.906 23.6359 145.602 22.872C147.776 22.2689 150.311 21.7462 152.484 22.5504L152.444 22.5102ZM137.393 17.2834C140.733 16.2782 145.039 15.5947 148.178 17.3638C148.42 17.4844 148.259 17.806 147.977 17.7256C142.182 16.6401 136.87 19.0122 132 21.4246C129.988 22.4298 125.802 25.5658 123.75 23.2339C123.509 23.1937 123.468 22.872 123.75 22.8318C126.285 22.47 128.378 21.1432 130.551 20.0174C132.684 18.9318 135.018 17.9669 137.393 17.2432V17.2834Z" fill="#FDDD93"/>
</g>
<path d="M105.318 93.7957L112.924 94.3184L113.166 91.6246L104.956 91.1019L105.318 93.7957Z" fill="#F39B99"/>
<path d="M107.049 88.0061L104.956 91.102L113.166 91.6247L112.039 87.8855L107.049 88.0061Z" fill="#EF7E8A"/>
<path d="M47.9707 75.4617L41.8537 74.1349L37.6281 78.6782L43.8256 80.4473L47.9707 75.4617Z" fill="#F39B99"/>
<path d="M37.6281 78.6782L37.7488 82.136L43.7451 83.5834L43.8256 80.4473L37.6281 78.6782Z" fill="#F5ACA2"/>
<path d="M47.9707 75.4617L43.8256 80.4472L43.7451 83.5833L48.3329 78.638L47.9707 75.4617Z" fill="#EF7E8A"/>
<path d="M90.7098 46.9556L83.9488 45.4277L79.2402 50.5339L86.122 52.4638L90.7098 46.9556Z" fill="#F39B99"/>
<path d="M79.2402 50.5339L79.361 54.3133L86.0415 55.9618L86.122 52.4638L79.2402 50.5339Z" fill="#F5ACA2"/>
<path d="M90.7098 46.9556L86.1219 52.4638L86.0415 55.9618L91.1524 50.4535L90.7098 46.9556Z" fill="#EF7E8A"/>
<path d="M41.2902 59.0979L41.25 62.3948L44.6305 66.134L50.3451 62.5958L50.6268 60.3845L45.5159 63.7216L41.2902 59.0979Z" fill="#F39B99"/>
<path d="M41.2902 59.0979L45.5158 63.7216L50.6268 60.3845L45.5963 56.4041L41.2902 59.0979Z" fill="#F39B99"/>
<path d="M41.2902 59.0979L41.25 62.3948L44.6305 66.134L45.5159 63.7216L41.2902 59.0979Z" fill="#F5ACA2"/>
<path d="M45.5159 63.7216L44.6305 66.134L50.3451 62.5959L50.6268 60.3845L45.5159 63.7216Z" fill="#EF7E8A"/>
<path d="M183.029 69.5112L182.989 72.7679L186.37 76.5071L192.084 72.969L192.406 70.7576L187.295 74.0947L183.029 69.5112Z" fill="#F39B99"/>
<path d="M183.029 69.5112L187.295 74.0947L192.406 70.7576L187.335 66.8174L183.029 69.5112Z" fill="#F39B99"/>
<path d="M183.029 69.5112L182.989 72.7679L186.37 76.5071L187.295 74.0947L183.029 69.5112Z" fill="#F5ACA2"/>
<path d="M187.295 74.0947L186.37 76.5071L192.084 72.9689L192.406 70.7576L187.295 74.0947Z" fill="#EF7E8A"/>
<path d="M171.962 37.3865L171.922 39.5576L174.176 42.0504L177.959 39.7184L178.12 38.2308L174.779 40.4421L171.962 37.3865Z" fill="#F39B99"/>
<path d="M171.962 37.3865L174.779 40.4422L178.12 38.2308L174.779 35.6174L171.962 37.3865Z" fill="#F39B99"/>
<path d="M171.962 37.3865L171.922 39.5576L174.176 42.0504L174.779 40.4421L171.962 37.3865Z" fill="#F5ACA2"/>
<path d="M174.779 40.4422L174.176 42.0504L177.959 39.7185L178.12 38.2308L174.779 40.4422Z" fill="#EF7E8A"/>
<path d="M89.6634 71.9637L89.6232 75.3411L93.1244 79.2009L99 75.5823L99.3219 73.2905L94.05 76.7081L89.6634 71.9637Z" fill="#F39B99"/>
<path d="M89.6634 71.9638L94.05 76.7081L99.3219 73.2906L94.0902 69.1896L89.6634 71.9638Z" fill="#F39B99"/>
<path d="M89.6634 71.9637L89.6232 75.3411L93.1244 79.2009L94.05 76.7081L89.6634 71.9637Z" fill="#F5ACA2"/>
<path d="M94.05 76.7081L93.1244 79.2008L99 75.5823L99.322 73.2905L94.05 76.7081Z" fill="#EF7E8A"/>
<path d="M127.654 56.2432L127.372 59.339L130.27 63.0782L135.984 60.0225L136.427 57.9318L131.356 60.8267L127.654 56.2432Z" fill="#F39B99"/>
<path d="M127.654 56.2432L131.356 60.8267L136.427 57.9319L131.92 53.9113L127.654 56.2432Z" fill="#F39B99"/>
<path d="M127.654 56.2432L127.372 59.339L130.27 63.0782L131.356 60.8267L127.654 56.2432Z" fill="#F5ACA2"/>
<path d="M131.356 60.8267L130.27 63.0783L135.984 60.0226L136.427 57.9319L131.356 60.8267Z" fill="#EF7E8A"/>
<path d="M142.343 40.2412L142.302 42.8144L144.959 45.7495L149.426 42.935L149.667 41.2062L145.683 43.8196L142.343 40.2412Z" fill="#F39B99"/>
<path d="M142.343 40.2412L145.683 43.8195L149.667 41.2061L145.683 38.1102L142.343 40.2412Z" fill="#F39B99"/>
<path d="M142.343 40.2412L142.302 42.8144L144.959 45.7495L145.683 43.8196L142.343 40.2412Z" fill="#F5ACA2"/>
<path d="M145.683 43.8196L144.959 45.7495L149.426 42.935L149.667 41.2062L145.683 43.8196Z" fill="#EF7E8A"/>
<path d="M93.5671 25.2443V28.3803L90.3476 31.9185L84.9146 28.5412L84.6329 26.4102L89.5024 29.6267L93.5671 25.2443Z" fill="#F39B99"/>
<path d="M93.5671 25.2442L89.5024 29.6267L84.6329 26.4102L89.4622 22.671L93.5671 25.2442Z" fill="#F39B99"/>
<path d="M93.5671 25.2443V28.3803L90.3476 31.9185L89.5024 29.6267L93.5671 25.2443Z" fill="#F5ACA2"/>
<path d="M89.5024 29.6268L90.3476 31.9185L84.9146 28.5412L84.6329 26.4103L89.5024 29.6268Z" fill="#EF7E8A"/>
<path d="M113.488 12.0164C113.488 12.0164 113.971 10.4885 113.166 9.16173L111.637 11.2927C111.637 11.2927 110.429 9.00091 108.296 8.51843L109.262 10.2473C109.262 10.2473 100.932 10.3277 99.4829 12.338C97.9939 14.3483 99 25.2844 99 25.2844C99 25.2844 109.705 22.9122 114.172 22.671C118.639 22.3896 116.385 19.2133 115.741 17.9669C115.741 17.9669 117.271 18.6504 117.713 19.3741C117.713 19.3741 119.685 16.1174 115.902 14.1071C115.902 14.1071 118.518 14.4689 119.404 14.9514C119.404 14.9514 117.593 11.7751 113.528 12.0566L113.488 12.0164Z" fill="#68B42E"/>
<path d="M115.862 14.1071C115.862 14.1071 118.478 14.469 119.363 14.9514C119.363 14.9514 117.552 11.7752 113.488 12.0566C111.516 12.5793 109.504 13.1824 107.773 14.1473C106.083 15.1525 104.554 16.3989 103.226 17.7659C101.254 19.8566 99.5232 22.3494 98.9195 25.0432C98.9195 25.2442 98.9195 25.3648 98.9195 25.3648C98.9195 25.3648 109.624 22.9927 114.091 22.7514C118.559 22.47 116.305 19.2937 115.661 18.0473C115.661 18.0473 117.19 18.7308 117.633 19.4545C117.633 19.4545 119.605 16.1978 115.822 14.1875L115.862 14.1071Z" fill="#3E9F32"/>
<g style="mix-blend-mode:screen">
<path d="M102.179 11.5741C102.179 11.5741 99.6841 11.7752 99.3219 13.5442C98.9597 15.3133 98.9597 22.9525 99 23.0329C99.0805 23.1535 99.4427 12.9412 102.179 11.5339V11.5741Z" fill="#89BD27"/>
</g>
<path d="M119.202 6.10611C119.202 6.10611 117.713 4.29683 117.834 3.13085C117.834 3.13085 113.488 6.30714 116.788 11.2927C116.788 11.2927 116.627 16.3587 125.44 17.8061L124.152 16.1979C124.152 16.1979 127.573 17.0824 130.35 16.5597L128.378 15.0319C128.378 15.0319 132.684 16.2783 134.012 15.2329C135.3 14.1876 138.318 5.54322 139.807 4.89992C139.807 4.89992 130.511 -0.286675 124.394 2.769L124.313 0.959717C124.313 0.959717 119.565 2.1257 119.243 6.0659L119.202 6.10611Z" fill="#68B42E"/>
<path d="M127.452 6.46793C123.629 7.51329 119.685 8.8803 116.707 11.2525C116.707 11.2525 116.707 11.2927 116.748 11.3329C116.748 11.3329 116.587 16.3989 125.4 17.8463L124.112 16.238C124.112 16.238 127.533 17.1226 130.31 16.5999L128.338 15.0721C128.338 15.0721 132.644 16.3184 133.972 15.2731C135.22 14.2679 138.117 6.14628 139.606 5.02051C135.501 5.10092 131.437 5.34216 127.452 6.42772V6.46793Z" fill="#3E9F32"/>
<g style="mix-blend-mode:screen">
<path d="M117.512 3.69373C117.512 3.69373 114.252 6.82981 116.788 10.5288C116.788 10.5288 115.902 6.66898 117.713 4.61847L117.512 3.73393V3.69373Z" fill="#89BD27"/>
</g>
<path d="M77.8317 40.402L76.4232 41.6484L77.5902 42.2113L78.7171 40.8845L77.8317 40.402Z" fill="#898E00"/>
<path d="M59.8427 47.4783L58.1122 47.8803L58.3134 48.7247L59.8427 48.3226V47.4783Z" fill="#898E00"/>
<path d="M74.089 57.1277L74.1695 55.5999L73.1634 55.4792L73.2037 56.8865L74.089 57.1277Z" fill="#898E00"/>
<path d="M137.634 51.8206L136.266 53.0669L137.393 53.6298L138.519 52.303L137.634 51.8206Z" fill="#898E00"/>
<path d="M119.685 58.8969L117.955 59.2989L118.116 60.1835L119.645 59.7412L119.685 58.8969Z" fill="#898E00"/>
<path d="M133.932 68.5464L133.972 67.0185L133.006 66.9381V68.3051L133.932 68.5464Z" fill="#898E00"/>
<path d="M105.64 63.601L104.272 64.8473L105.399 65.4102L106.526 64.0834L105.64 63.601Z" fill="#898E00"/>
<path d="M87.6915 70.6772L85.961 71.0793L86.1219 71.9236L87.6915 71.5216V70.6772Z" fill="#898E00"/>
<path d="M101.938 80.3268L102.018 78.7989L101.012 78.7185V80.0855L101.938 80.3268Z" fill="#898E00"/>
<path d="M77.4695 64.0834L76.1012 65.3298L77.228 65.8927L78.3951 64.5659L77.4695 64.0834Z" fill="#898E00"/>
<path d="M59.5207 71.1597L57.7902 71.5617L57.9915 72.4061L59.5207 72.004V71.1597Z" fill="#898E00"/>
<path d="M73.7671 80.8092L73.8476 79.2813L72.8415 79.2009L72.8817 80.5679L73.7671 80.8092Z" fill="#898E00"/>
<path d="M154.657 69.6721L153.289 70.9185L154.416 71.4412L155.583 70.1546L154.657 69.6721Z" fill="#898E00"/>
<path d="M136.709 76.7484L134.978 77.1505L135.179 77.9948L136.709 77.5525V76.7484Z" fill="#898E00"/>
<path d="M150.955 86.3576L151.035 84.87L150.029 84.7494V86.1164L150.955 86.3576Z" fill="#898E00"/>
<path d="M189.79 60.6257L188.382 61.8721L189.549 62.435L190.676 61.1082L189.79 60.6257Z" fill="#898E00"/>
<path d="M171.841 67.702L170.111 68.1041L170.272 68.9484L171.801 68.5464L171.841 67.702Z" fill="#898E00"/>
<path d="M186.088 77.3515L186.128 75.8236L185.122 75.703L185.162 77.1102L186.088 77.3515Z" fill="#898E00"/>
<path d="M170.916 37.5875L169.628 38.7133L170.674 39.236L171.721 38.0298L170.916 37.5875Z" fill="#898E00"/>
<path d="M154.496 44.0607L152.927 44.4225L153.088 45.1864L154.496 44.7844V44.0607Z" fill="#898E00"/>
<path d="M167.535 52.8659L167.576 51.4587L166.65 51.3783L166.69 52.6247L167.535 52.8659Z" fill="#898E00"/>
<path d="M118.518 32.9639L117.271 34.0896L118.277 34.5721L119.323 33.4061L118.518 32.9639Z" fill="#898E00"/>
<path d="M102.139 39.3969L100.529 39.7587L100.69 40.5628L102.099 40.1608L102.139 39.3969Z" fill="#898E00"/>
<path d="M115.138 48.202L115.178 46.835L114.252 46.7144L114.293 47.9607L115.138 48.202Z" fill="#898E00"/>
<path d="M138.037 19.2535L136.628 20.4999L137.795 21.0226L138.922 19.736L138.037 19.2535Z" fill="#898E00"/>
<path d="M120.048 26.3298L118.317 26.7319L118.518 27.5762L120.048 27.134V26.3298Z" fill="#898E00"/>
<path d="M134.294 35.9391L134.374 34.4514L133.368 34.3308L133.409 35.6978L134.294 35.9391Z" fill="#898E00"/>
<path d="M95.4183 16.7607L94.0098 18.0071L95.1768 18.5298L96.3037 17.2432L95.4183 16.7607Z" fill="#898E00"/>
<path d="M77.4695 23.837L75.739 24.2391L75.9 25.0834L77.4293 24.6412L77.4695 23.837Z" fill="#898E00"/>
<path d="M91.7159 33.4463L91.7561 31.9586L90.7902 31.838V33.205L91.7159 33.4463Z" fill="#898E00"/>
<path d="M80.85 34.4515C79.8439 34.4515 79.039 34.8535 78.3951 35.4164C78.3549 35.4566 78.3146 35.537 78.3951 35.5772C78.3951 35.6576 78.3549 35.7783 78.3951 35.8587C78.4354 36.1401 78.9183 36.1803 79.1598 36.0597C79.361 35.9793 79.5219 35.8989 79.7232 35.7783C79.9646 35.6174 80.2866 35.5772 80.5683 35.537C81.011 35.4566 81.4134 35.4164 81.6146 35.0143C81.7756 34.6123 81.3732 34.4113 80.9305 34.4113L80.85 34.4515Z" fill="#FFFBDC"/>
<path d="M87.3293 39.3566C88.2951 39.2762 89.0598 38.7536 89.6232 38.0701C89.6634 38.0298 89.6232 37.9494 89.6232 37.9092C89.6232 37.8288 89.6232 37.7484 89.6232 37.6278C89.5024 37.3463 89.0597 37.3865 88.8183 37.5072C88.6171 37.5876 88.4963 37.7082 88.3354 37.869C88.1341 38.0701 87.8122 38.1103 87.5305 38.1907C87.128 38.3113 86.6854 38.3917 86.6049 38.834C86.4841 39.2762 86.9671 39.3969 87.3695 39.3566H87.3293Z" fill="#FFFBDC"/>
<path d="M87.611 33.0844C87.5305 33.7277 87.8524 34.2906 88.3354 34.7731C88.3354 34.7731 88.4159 34.8133 88.4561 34.7731C88.5366 34.7731 88.6171 34.8133 88.6976 34.7731C88.939 34.7731 89.0195 34.4515 88.939 34.2906C88.8988 34.17 88.8183 34.0494 88.6976 33.9288C88.5768 33.768 88.5768 33.5669 88.5366 33.3659C88.5366 33.0845 88.4963 32.803 88.1341 32.6422C87.7719 32.4814 87.5707 32.7628 87.5305 33.0442L87.611 33.0844Z" fill="#FFFBDC"/>
<path d="M81.9366 42.0504C82.7012 41.97 83.2646 41.5679 83.7073 41.0855C83.7073 41.0855 83.7073 41.005 83.7073 40.9648C83.7073 40.8844 83.7073 40.804 83.7073 40.7638C83.6268 40.5628 83.2646 40.5628 83.1037 40.6834C82.9427 40.7638 82.8219 40.8442 82.7012 40.9648C82.5402 41.0855 82.2988 41.1659 82.0976 41.2061C81.7756 41.2865 81.4537 41.3669 81.3732 41.6885C81.2927 42.0102 81.6549 42.1308 81.9768 42.0906L81.9366 42.0504Z" fill="#FFFBDC"/>
<path d="M70.2658 24.8422C69.2598 24.8422 68.4549 25.2443 67.811 25.8072C67.7707 25.8474 67.7707 25.9278 67.811 25.968C67.811 26.0484 67.7707 26.1288 67.811 26.2494C67.8512 26.5309 68.3341 26.5711 68.5756 26.4505C68.7768 26.37 68.9378 26.2896 69.139 26.169C69.3805 26.0082 69.7024 26.0082 69.9841 25.9278C70.4268 25.8474 70.8293 25.8072 71.0305 25.4051C71.1915 25.003 70.7488 24.802 70.3463 24.802L70.2658 24.8422Z" fill="#FFFBDC"/>
<path d="M76.7451 29.7072C77.711 29.6268 78.4756 29.1041 79.039 28.4608C79.0793 28.4206 79.0793 28.3402 79.039 28.3C79.039 28.2196 79.039 28.0989 79.039 28.0185C78.9585 27.7371 78.4756 27.7773 78.2744 27.8979C78.0732 27.9783 77.9524 28.0989 77.7915 28.2598C77.5902 28.4608 77.2683 28.501 76.9866 28.5814C76.5841 28.702 76.1415 28.7824 76.061 29.2247C75.9402 29.667 76.4232 29.7876 76.8256 29.7474L76.7451 29.7072Z" fill="#FFFBDC"/>
<path d="M77.0268 23.435C76.9463 24.0783 77.2683 24.6412 77.7512 25.1236C77.7512 25.1236 77.8317 25.1639 77.8719 25.1236C77.9524 25.1236 78.0329 25.1639 78.1134 25.1639C78.3951 25.1639 78.4354 24.8422 78.3549 24.6814C78.3146 24.5608 78.2341 24.4401 78.1134 24.3195C77.9927 24.1587 77.9927 23.9175 77.9524 23.7566C77.9524 23.4752 77.9122 23.1938 77.55 23.0329C77.1878 22.8721 76.9866 23.1535 76.9463 23.435H77.0268Z" fill="#FFFBDC"/>
<path d="M71.3524 32.401C72.1171 32.3206 72.6805 31.9185 73.1232 31.436C73.1232 31.436 73.1232 31.3556 73.1232 31.3154C73.1232 31.235 73.1232 31.1948 73.1232 31.1144C73.0427 30.9134 72.6805 30.9134 72.5195 31.034C72.3585 31.1144 72.2378 31.1948 72.1171 31.3154C71.9561 31.436 71.7146 31.5165 71.4732 31.5567C71.1512 31.6371 70.8293 31.7175 70.7488 32.0391C70.6683 32.3608 71.0305 32.4814 71.3524 32.4412V32.401Z" fill="#FFFBDC"/>
<path d="M59.239 51.6196C58.2329 51.6196 57.4281 52.0216 56.7842 52.5845C56.7439 52.6247 56.7439 52.7051 56.7842 52.7453C56.7842 52.8257 56.7439 52.9061 56.7842 53.0268C56.8244 53.3082 57.3073 53.3484 57.5488 53.2278C57.75 53.1474 57.911 53.067 58.1122 52.9464C58.3537 52.7855 58.6756 52.7453 58.9573 52.7051C59.4 52.6247 59.8427 52.5845 60.0037 52.1824C60.2049 51.7402 59.7622 51.5793 59.3195 51.5793L59.239 51.6196Z" fill="#FFFBDC"/>
<path d="M65.7183 56.5246C66.6841 56.4442 67.4488 55.9215 68.0122 55.238C68.0122 55.1978 68.0122 55.1174 68.0122 55.0772C68.0122 54.9968 68.0122 54.8762 68.0122 54.7958C67.9317 54.5143 67.4488 54.5545 67.2476 54.6751C67.0463 54.7555 66.8854 54.8762 66.7646 55.037C66.5634 55.1978 66.2415 55.2782 65.9598 55.3586C65.5573 55.4793 65.1146 55.5597 65.0341 56.0019C64.9134 56.4442 65.3963 56.5648 65.7988 56.5246H65.7183Z" fill="#FFFBDC"/>
<path d="M66 50.2525C65.9195 50.8958 66.2415 51.4587 66.7244 51.9412C66.7646 51.9412 66.8451 51.9814 66.8451 51.9412C66.9256 51.9412 67.0061 51.9814 67.0866 51.9814C67.3281 51.9814 67.4085 51.6597 67.328 51.4989C67.2878 51.3783 67.2073 51.2577 67.0866 51.137C66.9659 50.9762 66.9659 50.7752 66.9256 50.5741C66.9256 50.2927 66.8854 50.0113 66.5232 49.8504C66.161 49.6896 65.9598 49.9711 65.9195 50.2525H66Z" fill="#FFFBDC"/>
<path d="M60.3256 59.2185C61.0903 59.1381 61.6537 58.736 62.0964 58.2535C62.0964 58.2133 62.0964 58.1731 62.0964 58.1329C62.0964 58.0525 62.0964 57.9721 62.0964 57.9319C62.0159 57.7309 61.6537 57.7309 61.4927 57.8515C61.3317 57.9319 61.2512 58.0123 61.1305 58.1329C60.9695 58.2937 60.7281 58.334 60.5268 58.3742C60.2049 58.4546 59.8829 58.535 59.8024 58.8566C59.722 59.1783 60.0842 59.2989 60.4061 59.2587L60.3256 59.2185Z" fill="#FFFBDC"/>
<path d="M89.0195 41.769C88.3354 41.769 87.8122 42.0103 87.3695 42.4123C87.3695 42.4123 87.3293 42.4928 87.3695 42.533C87.3695 42.5732 87.3695 42.6536 87.3695 42.734C87.3695 42.935 87.7317 42.935 87.8927 42.8948C88.0134 42.8546 88.1341 42.7742 88.2549 42.6938C88.4159 42.5732 88.6171 42.5732 88.8183 42.533C89.1 42.4928 89.3817 42.4525 89.5024 42.1711C89.6232 41.8897 89.3415 41.769 89.0598 41.769H89.0195Z" fill="#FFFBDC"/>
<path d="M93.4061 45.0659C94.05 44.9855 94.5732 44.6639 94.9354 44.2216C94.9354 44.2216 94.9354 44.1412 94.9354 44.101C94.9354 44.0608 94.9354 43.9804 94.9354 43.9C94.8549 43.6989 94.5732 43.7391 94.4122 43.8195C94.2915 43.9 94.1707 43.9804 94.0902 44.0608C93.9293 44.1814 93.728 44.2216 93.5268 44.302C93.2451 44.3824 92.9634 44.4628 92.8829 44.7443C92.8024 45.0257 93.1244 45.1061 93.4061 45.1061V45.0659Z" fill="#FFFBDC"/>
<path d="M93.6073 40.8041C93.5671 41.2464 93.7683 41.6082 94.0902 41.9299H94.1707C94.211 41.9299 94.2915 41.9299 94.3317 41.9299C94.4927 41.9299 94.5329 41.7288 94.4927 41.6082C94.4927 41.5278 94.4122 41.4474 94.3317 41.367C94.2512 41.2464 94.2512 41.1257 94.211 40.9649C94.211 40.7639 94.211 40.5629 93.9293 40.4825C93.6878 40.402 93.5671 40.5629 93.5268 40.7639L93.6073 40.8041Z" fill="#FFFBDC"/>
<path d="M89.7841 46.8752C90.3073 46.835 90.6695 46.5536 90.9915 46.1917V46.1113C90.9915 46.0711 90.9915 46.0309 90.9915 45.9505C90.9512 45.7897 90.7098 45.8299 90.589 45.8701C90.5085 45.9103 90.4281 45.9907 90.3476 46.0711C90.2268 46.1515 90.0659 46.1917 89.9049 46.2319C89.7037 46.2721 89.4622 46.3525 89.4219 46.5536C89.3817 46.7948 89.6232 46.835 89.8244 46.835L89.7841 46.8752Z" fill="#FFFBDC"/>
<path d="M132.765 57.6504C131.759 57.6504 130.954 58.0525 130.31 58.6154C130.27 58.6556 130.229 58.736 130.31 58.7762C130.31 58.8566 130.27 58.937 130.31 59.0577C130.35 59.3391 130.833 59.3793 131.074 59.2587C131.276 59.1783 131.437 59.0979 131.638 58.9772C131.879 58.8164 132.201 58.8164 132.483 58.736C132.926 58.6556 133.368 58.6154 133.529 58.2133C133.69 57.8113 133.248 57.6102 132.845 57.6102L132.765 57.6504Z" fill="#FFFBDC"/>
<path d="M139.284 62.5155C140.25 62.4351 141.015 61.9124 141.578 61.2289C141.618 61.1887 141.618 61.1082 141.578 61.068C141.578 60.9876 141.578 60.9072 141.578 60.7866C141.498 60.5052 141.015 60.5454 140.773 60.666C140.572 60.7464 140.451 60.867 140.29 61.0278C140.089 61.2289 139.767 61.2691 139.485 61.3495C139.083 61.4701 138.64 61.5505 138.56 61.9928C138.439 62.4351 138.922 62.5557 139.324 62.5155H139.284Z" fill="#FFFBDC"/>
<path d="M139.526 56.2433C139.445 56.8866 139.767 57.4495 140.25 57.9319C140.29 57.9319 140.33 57.9721 140.371 57.9319C140.451 57.9319 140.532 57.9721 140.612 57.9319C140.854 57.9319 140.934 57.6103 140.854 57.4495C140.813 57.3288 140.733 57.2082 140.612 57.0876C140.491 56.9268 140.491 56.7257 140.451 56.5247C140.451 56.2433 140.411 55.9618 140.049 55.801C139.687 55.6804 139.485 55.9216 139.445 56.2031L139.526 56.2433Z" fill="#FFFBDC"/>
<path d="M133.891 65.2092C134.656 65.1288 135.22 64.7267 135.662 64.2443C135.662 64.2443 135.662 64.1639 135.662 64.1236C135.662 64.0432 135.662 64.003 135.662 63.9226C135.582 63.7216 135.22 63.7216 135.059 63.8422C134.898 63.9226 134.777 64.003 134.696 64.1236C134.535 64.2845 134.294 64.3247 134.052 64.3649C133.73 64.4453 133.409 64.5257 133.328 64.8474C133.248 65.169 133.61 65.2896 133.932 65.2494L133.891 65.2092Z" fill="#FFFBDC"/>
<path d="M106.606 66.6968C105.52 66.6968 104.634 67.0988 103.91 67.7421C103.87 67.7823 103.829 67.8628 103.91 67.903C103.87 67.9834 103.87 68.104 103.91 68.2246C103.95 68.5463 104.473 68.5463 104.755 68.4659C104.956 68.3854 105.157 68.2648 105.359 68.1442C105.64 67.9834 105.962 67.9432 106.284 67.903C106.767 67.8225 107.21 67.7823 107.411 67.3401C107.612 66.8978 107.129 66.6968 106.687 66.6968H106.606Z" fill="#FFFBDC"/>
<path d="M113.689 72.0443C114.776 71.9236 115.58 71.401 116.184 70.6772C116.224 70.637 116.224 70.5566 116.184 70.5164C116.184 70.436 116.184 70.3154 116.184 70.1948C116.063 69.8731 115.58 69.9535 115.339 70.0742C115.138 70.1948 114.977 70.3154 114.816 70.4762C114.574 70.6772 114.252 70.7577 113.93 70.8381C113.488 70.9587 113.005 71.0793 112.884 71.5216C112.763 72.0041 113.287 72.1247 113.729 72.0845L113.689 72.0443Z" fill="#FFFBDC"/>
<path d="M113.971 65.2092C113.89 65.9329 114.252 66.536 114.776 67.0185C114.816 67.0185 114.896 67.0587 114.937 67.0185C115.017 67.0185 115.098 67.0587 115.218 67.0587C115.5 67.0587 115.54 66.6968 115.5 66.536C115.46 66.3752 115.339 66.2545 115.259 66.1339C115.138 65.9329 115.138 65.7319 115.098 65.5308C115.098 65.2092 115.057 64.9277 114.655 64.7669C114.252 64.6061 114.051 64.9277 114.011 65.2092H113.971Z" fill="#FFFBDC"/>
<path d="M107.813 74.9793C108.659 74.8989 109.262 74.4566 109.745 73.8937C109.745 73.8535 109.745 73.8133 109.745 73.7731C109.745 73.6927 109.745 73.6123 109.745 73.5319C109.665 73.2906 109.262 73.3308 109.061 73.4113C108.9 73.4917 108.779 73.6123 108.659 73.6927C108.498 73.8535 108.216 73.8937 107.974 73.9741C107.612 74.0948 107.25 74.1752 107.17 74.4968C107.089 74.8587 107.451 74.9793 107.813 74.9391V74.9793Z" fill="#FFFBDC"/>
<path d="M78.3951 72.004C77.389 72.004 76.5841 72.4061 75.9402 72.969C75.9 73.0092 75.9 73.0896 75.9402 73.1298C75.9402 73.2102 75.9 73.2906 75.9402 73.4112C75.9805 73.6927 76.4634 73.7329 76.7049 73.6123C76.9061 73.5319 77.0671 73.4515 77.2683 73.3308C77.5098 73.17 77.8317 73.17 78.1134 73.1298C78.5561 73.0494 78.9988 73.0092 79.1598 72.6071C79.3207 72.2051 78.9183 72.004 78.4756 72.004H78.3951Z" fill="#FFFBDC"/>
<path d="M84.9146 76.8691C85.8805 76.7886 86.6451 76.266 87.2085 75.6227C87.2488 75.5825 87.2488 75.502 87.2085 75.4618C87.2085 75.3814 87.2085 75.301 87.2085 75.1804C87.128 74.899 86.6451 74.9392 86.4439 75.0598C86.2427 75.1402 86.0817 75.2608 85.961 75.4216C85.7598 75.5825 85.4378 75.6629 85.1561 75.7433C84.7537 75.8639 84.311 75.9443 84.2305 76.3866C84.1098 76.8288 84.5927 76.9495 84.9951 76.9093L84.9146 76.8691Z" fill="#FFFBDC"/>
<path d="M85.1561 70.5969C85.0756 71.2402 85.3976 71.8031 85.8805 72.2855C85.8805 72.2855 85.961 72.3257 86.0012 72.2855C86.0817 72.2855 86.1622 72.3257 86.2427 72.3257C86.5244 72.3257 86.5646 72.0041 86.4841 71.8433C86.4439 71.7226 86.3634 71.602 86.2427 71.4814C86.1219 71.3206 86.1219 71.0793 86.0817 70.9185C86.0415 70.6371 86.0415 70.3556 85.6793 70.1948C85.3171 70.0742 85.1158 70.3154 85.1158 70.5969H85.1561Z" fill="#FFFBDC"/>
<path d="M79.522 79.5629C80.2866 79.4824 80.85 79.0804 81.2927 78.5979C81.2927 78.5577 81.2927 78.5175 81.2927 78.4773C81.2927 78.3969 81.2927 78.3567 81.2927 78.2763C81.2122 78.0752 80.85 78.0752 80.689 78.1958C80.528 78.2763 80.4476 78.3567 80.3268 78.4773C80.1659 78.6381 79.9244 78.6783 79.7232 78.7185C79.4012 78.7989 79.0793 78.8794 78.9988 79.201C78.9183 79.5629 79.2805 79.6433 79.6024 79.6031L79.522 79.5629Z" fill="#FFFBDC"/>
<path d="M146.81 36.5824C145.965 36.5824 145.24 36.904 144.677 37.4267C144.637 37.4267 144.637 37.5071 144.677 37.5473C144.677 37.6278 144.637 37.7082 144.677 37.7886C144.717 38.0298 145.12 38.07 145.321 37.9896C145.482 37.9092 145.643 37.8288 145.804 37.7484C146.005 37.6278 146.287 37.5876 146.528 37.5473C146.89 37.5071 147.293 37.4669 147.413 37.1051C147.574 36.7432 147.172 36.5824 146.85 36.5824H146.81Z" fill="#FFFBDC"/>
<path d="M152.404 40.8041C153.249 40.7237 153.893 40.2814 154.376 39.7186C154.376 39.6784 154.376 39.5979 154.376 39.5979C154.376 39.5175 154.376 39.4371 154.376 39.3567C154.295 39.1155 153.893 39.1557 153.691 39.2361C153.53 39.3165 153.41 39.4371 153.249 39.5577C153.088 39.7186 152.806 39.7588 152.565 39.8392C152.202 39.9598 151.84 40.0402 151.76 40.4021C151.679 40.7639 152.082 40.8845 152.444 40.8443L152.404 40.8041Z" fill="#FFFBDC"/>
<path d="M152.645 35.3762C152.565 35.9391 152.846 36.4216 153.289 36.8237C153.289 36.8237 153.37 36.8237 153.41 36.8237C153.49 36.8237 153.53 36.8639 153.611 36.8237C153.852 36.8237 153.893 36.5422 153.812 36.4216C153.772 36.301 153.691 36.2206 153.611 36.0999C153.49 35.9391 153.49 35.7783 153.49 35.6175C153.49 35.3762 153.49 35.135 153.128 35.0144C152.806 34.8938 152.645 35.135 152.605 35.3762H152.645Z" fill="#FFFBDC"/>
<path d="M147.735 43.136C148.379 43.0556 148.902 42.7339 149.265 42.2917C149.265 42.2917 149.265 42.2113 149.265 42.1711C149.265 42.1309 149.265 42.0504 149.265 41.97C149.184 41.769 148.902 41.8092 148.741 41.8896C148.621 41.97 148.5 42.0504 148.42 42.1308C148.259 42.2515 148.057 42.2917 147.896 42.3319C147.615 42.4123 147.333 42.4927 147.252 42.7742C147.172 43.0556 147.494 43.136 147.776 43.0958L147.735 43.136Z" fill="#FFFBDC"/>
<path d="M120.45 43.9401C119.444 43.9401 118.639 44.3422 117.995 44.9051C117.955 44.9453 117.955 45.0257 117.995 45.0659C117.995 45.1463 117.955 45.2267 117.995 45.3473C118.035 45.6288 118.518 45.6288 118.76 45.5484C118.961 45.4679 119.122 45.3875 119.323 45.2669C119.565 45.1061 119.887 45.1061 120.168 45.0257C120.611 44.9453 121.054 44.9051 121.215 44.503C121.376 44.1009 120.933 43.8999 120.53 43.8999L120.45 43.9401Z" fill="#FFFBDC"/>
<path d="M126.929 48.8453C127.895 48.7648 128.66 48.2422 129.223 47.5989C129.223 47.5587 129.223 47.4782 129.223 47.438C129.223 47.3576 129.223 47.2772 129.223 47.1566C129.143 46.8751 128.66 46.9154 128.418 47.036C128.217 47.1164 128.056 47.237 127.935 47.3978C127.734 47.5989 127.412 47.6391 127.13 47.7195C126.728 47.8401 126.285 47.9205 126.205 48.3628C126.084 48.805 126.567 48.9257 126.97 48.8855L126.929 48.8453Z" fill="#FFFBDC"/>
<path d="M127.211 42.5329C127.13 43.1762 127.452 43.7391 127.935 44.2216C127.935 44.2216 128.016 44.2618 128.056 44.2216C128.137 44.2216 128.217 44.2618 128.298 44.2618C128.579 44.2618 128.62 43.9401 128.539 43.7793C128.499 43.6587 128.418 43.538 128.298 43.4174C128.177 43.2566 128.177 43.0556 128.137 42.8545C128.137 42.5731 128.096 42.2917 127.734 42.1308C127.372 41.97 127.171 42.2514 127.171 42.5329H127.211Z" fill="#FFFBDC"/>
<path d="M121.537 51.539C122.301 51.4586 122.865 51.0566 123.307 50.5741C123.307 50.5741 123.307 50.4937 123.307 50.4535C123.307 50.3731 123.307 50.2927 123.307 50.2525C123.227 50.0514 122.865 50.0514 122.704 50.172C122.543 50.2525 122.422 50.3329 122.341 50.4535C122.18 50.6143 121.939 50.6545 121.698 50.6947C121.376 50.7751 121.054 50.8555 120.973 51.1772C120.893 51.4988 121.255 51.6195 121.577 51.5793L121.537 51.539Z" fill="#FFFBDC"/>
<path d="M104.755 36.4617C103.749 36.4617 102.944 36.8638 102.3 37.4267C102.26 37.4669 102.26 37.5473 102.3 37.5875C102.3 37.6679 102.26 37.7483 102.3 37.8689C102.34 38.1504 102.823 38.1906 103.065 38.07C103.266 37.9895 103.427 37.9091 103.628 37.7885C103.87 37.6277 104.191 37.6277 104.473 37.5473C104.916 37.4669 105.318 37.4267 105.52 37.0246C105.721 36.6225 105.278 36.4215 104.835 36.4215L104.755 36.4617Z" fill="#FFFBDC"/>
<path d="M111.274 41.3669C112.24 41.2864 113.005 40.7638 113.568 40.1205C113.568 40.0803 113.568 39.9998 113.568 39.9596C113.568 39.8792 113.568 39.7586 113.568 39.6782C113.488 39.3968 113.005 39.437 112.804 39.5576C112.602 39.638 112.441 39.7586 112.321 39.9194C112.12 40.1205 111.798 40.1607 111.516 40.2411C111.113 40.3617 110.671 40.4421 110.59 40.8844C110.47 41.3267 110.952 41.4473 111.355 41.4071L111.274 41.3669Z" fill="#FFFBDC"/>
<path d="M111.516 35.0545C111.435 35.6978 111.757 36.2607 112.24 36.7432C112.24 36.7432 112.321 36.7834 112.361 36.7432C112.441 36.7432 112.522 36.7834 112.602 36.7432C112.844 36.7432 112.924 36.4216 112.844 36.2607C112.804 36.1401 112.723 36.0195 112.602 35.8989C112.482 35.738 112.482 35.537 112.441 35.336C112.401 35.0545 112.401 34.7731 112.039 34.6123C111.677 34.4514 111.476 34.7329 111.435 35.0143L111.516 35.0545Z" fill="#FFFBDC"/>
<path d="M105.882 44.0608C106.646 43.9804 107.21 43.5783 107.652 43.0958C107.652 43.0958 107.652 43.0154 107.652 42.9752C107.652 42.8948 107.652 42.8546 107.652 42.7742C107.572 42.5731 107.21 42.5731 107.049 42.6938C106.888 42.7742 106.807 42.8546 106.687 42.9752C106.526 43.136 106.284 43.1762 106.083 43.2164C105.761 43.2969 105.439 43.3773 105.359 43.6989C105.278 44.0206 105.64 44.1412 105.962 44.101L105.882 44.0608Z" fill="#FFFBDC"/>
<path d="M137.835 25.0432C136.87 25.0432 136.024 25.4453 135.38 26.0082C135.34 26.0484 135.34 26.1288 135.38 26.169C135.34 26.2494 135.34 26.3298 135.38 26.4504C135.421 26.7319 135.904 26.7721 136.145 26.6515C136.346 26.571 136.507 26.4906 136.709 26.37C136.95 26.2092 137.272 26.2092 137.554 26.169C137.996 26.0886 138.439 26.0484 138.6 25.6463C138.761 25.2442 138.318 25.0432 137.916 25.0432H137.835Z" fill="#FFFBDC"/>
<path d="M144.315 29.9082C145.28 29.8277 146.045 29.3051 146.609 28.6216C146.649 28.5814 146.649 28.5009 146.609 28.4607C146.609 28.3803 146.609 28.2597 146.609 28.1793C146.528 27.8979 146.045 27.9381 145.804 28.0587C145.602 28.1391 145.482 28.2597 145.321 28.4205C145.12 28.6216 144.798 28.6618 144.516 28.7422C144.113 28.8628 143.671 28.9432 143.59 29.3855C143.47 29.8277 143.952 29.9484 144.355 29.9082H144.315Z" fill="#FFFBDC"/>
<path d="M144.596 23.636C144.516 24.2793 144.838 24.8421 145.321 25.3246C145.361 25.3246 145.441 25.3648 145.482 25.3246C145.562 25.3246 145.643 25.3648 145.723 25.3246C146.005 25.3246 146.045 25.003 145.965 24.8421C145.924 24.7215 145.844 24.6009 145.763 24.4803C145.643 24.3195 145.643 24.1184 145.602 23.9174C145.602 23.636 145.602 23.3545 145.2 23.1937C144.838 23.0329 144.637 23.3143 144.596 23.5958V23.636Z" fill="#FFFBDC"/>
<path d="M138.922 32.6421C139.687 32.5617 140.25 32.1596 140.693 31.6772C140.693 31.637 140.693 31.5968 140.693 31.5566C140.693 31.4761 140.693 31.4359 140.693 31.3555C140.612 31.1545 140.25 31.1947 140.089 31.2751C139.928 31.3555 139.807 31.4359 139.687 31.5566C139.526 31.7174 139.284 31.7576 139.083 31.7978C138.761 31.8782 138.439 31.9586 138.359 32.2803C138.278 32.6019 138.64 32.6823 138.962 32.6823L138.922 32.6421Z" fill="#FFFBDC"/>
<path d="M151.8 49.3278C150.794 49.3278 149.989 49.7299 149.345 50.2928C149.305 50.333 149.305 50.4134 149.345 50.4536C149.345 50.534 149.305 50.6144 149.345 50.735C149.385 51.0165 149.868 51.0567 150.11 50.9361C150.311 50.8556 150.472 50.7752 150.673 50.6546C150.915 50.4938 151.237 50.4938 151.518 50.4134C151.961 50.333 152.404 50.2928 152.565 49.8907C152.726 49.4886 152.283 49.2876 151.88 49.2876L151.8 49.3278Z" fill="#FFFBDC"/>
<path d="M158.279 54.2329C159.245 54.1525 160.01 53.6299 160.573 52.9866C160.613 52.9464 160.573 52.8659 160.573 52.8257C160.573 52.7453 160.573 52.6247 160.573 52.5443C160.493 52.2628 160.01 52.3031 159.809 52.4237C159.607 52.5041 159.446 52.6247 159.326 52.7855C159.124 52.9866 158.802 53.0268 158.521 53.1072C158.118 53.2278 157.676 53.3082 157.595 53.7505C157.474 54.1927 157.957 54.3134 158.36 54.2732L158.279 54.2329Z" fill="#FFFBDC"/>
<path d="M158.521 47.9608C158.44 48.6041 158.762 49.167 159.245 49.6495C159.245 49.6495 159.326 49.6897 159.366 49.6495C159.446 49.6495 159.527 49.6897 159.607 49.6495C159.849 49.6495 159.929 49.3278 159.849 49.167C159.809 49.0464 159.728 48.9257 159.607 48.8051C159.487 48.6443 159.487 48.4031 159.446 48.2422C159.446 47.9608 159.406 47.6793 159.044 47.5185C158.682 47.3577 158.48 47.6391 158.44 47.9206L158.521 47.9608Z" fill="#FFFBDC"/>
<path d="M152.887 56.9267C153.651 56.8463 154.215 56.4443 154.657 55.9618C154.657 55.9618 154.657 55.8814 154.657 55.8412C154.657 55.7608 154.657 55.7206 154.657 55.6401C154.577 55.4391 154.215 55.4391 154.054 55.5597C153.893 55.6401 153.812 55.7206 153.691 55.8412C153.53 56.002 153.289 56.0422 153.048 56.0824C152.726 56.1628 152.404 56.2432 152.323 56.5649C152.243 56.8865 152.605 57.0072 152.927 56.967L152.887 56.9267Z" fill="#FFFBDC"/>
<path d="M137.996 77.6731C136.99 77.6731 136.185 78.0752 135.541 78.6381C135.501 78.6783 135.501 78.7587 135.541 78.7989C135.541 78.8793 135.501 78.9597 135.541 79.0804C135.582 79.3618 136.065 79.402 136.306 79.2814C136.507 79.201 136.668 79.1206 136.869 78.9999C137.111 78.8391 137.433 78.7989 137.715 78.7587C138.157 78.6783 138.56 78.6381 138.761 78.236C138.922 77.834 138.52 77.6329 138.077 77.6329L137.996 77.6731Z" fill="#FFFBDC"/>
<path d="M144.476 82.5381C145.441 82.4577 146.206 81.935 146.77 81.2917C146.81 81.2515 146.81 81.1711 146.77 81.1309C146.77 81.0505 146.77 80.9701 146.77 80.8495C146.689 80.568 146.206 80.6082 146.005 80.7288C145.804 80.8093 145.643 80.9299 145.522 81.0907C145.321 81.2917 144.999 81.3319 144.717 81.4123C144.315 81.533 143.872 81.6134 143.791 82.0556C143.671 82.4979 144.154 82.6185 144.556 82.5783L144.476 82.5381Z" fill="#FFFBDC"/>
<path d="M144.757 76.266C144.677 76.9093 144.999 77.4721 145.482 77.9546C145.522 77.9546 145.562 77.9948 145.602 77.9546C145.683 77.9546 145.763 77.9948 145.844 77.9546C146.126 77.9546 146.166 77.633 146.085 77.4722C146.045 77.3515 145.965 77.2309 145.844 77.1103C145.723 76.9495 145.723 76.7484 145.683 76.5474C145.683 76.266 145.643 75.9845 145.28 75.8237C144.918 75.6629 144.717 75.9443 144.677 76.2258L144.757 76.266Z" fill="#FFFBDC"/>
<path d="M139.123 85.2722C139.888 85.1918 140.451 84.7897 140.894 84.3073C140.894 84.267 140.894 84.2268 140.894 84.1866C140.894 84.1062 140.894 84.066 140.894 83.9856C140.813 83.7846 140.451 83.7846 140.29 83.9052C140.129 83.9856 140.009 84.066 139.928 84.1866C139.767 84.3073 139.526 84.3877 139.284 84.4279C138.962 84.5083 138.64 84.5887 138.56 84.9104C138.479 85.232 138.841 85.3526 139.163 85.3124L139.123 85.2722Z" fill="#FFFBDC"/>
<path d="M160.291 63.8824C159.285 63.8824 158.48 64.2845 157.837 64.8474C157.796 64.8876 157.796 64.968 157.837 65.0082C157.837 65.0886 157.796 65.169 157.837 65.2897C157.877 65.5711 158.36 65.6113 158.601 65.5309C158.802 65.4505 158.963 65.3701 159.165 65.2495C159.406 65.0886 159.728 65.0886 160.01 65.0082C160.412 64.9278 160.855 64.8876 161.056 64.4855C161.217 64.0433 160.815 63.8824 160.372 63.8824H160.291Z" fill="#FFFBDC"/>
<path d="M166.811 68.7474C167.777 68.667 168.541 68.1443 169.065 67.4608C169.105 67.4206 169.105 67.3402 169.065 67.3C169.065 67.2196 169.065 67.0989 169.065 67.0185C168.984 66.7371 168.501 66.7773 168.3 66.8979C168.099 66.9783 167.938 67.0989 167.817 67.2598C167.616 67.4608 167.294 67.501 167.012 67.5814C166.61 67.702 166.167 67.7824 166.087 68.2247C165.966 68.667 166.449 68.7876 166.851 68.7474H166.811Z" fill="#FFFBDC"/>
<path d="M167.052 62.4752C166.972 63.1185 167.294 63.6814 167.777 64.1639C167.777 64.1639 167.857 64.2041 167.898 64.1639C167.978 64.1639 168.059 64.2041 168.139 64.1639C168.38 64.1639 168.461 63.8422 168.38 63.6814C168.34 63.5608 168.26 63.4401 168.179 63.3195C168.059 63.1587 168.059 62.9577 168.018 62.7566C168.018 62.4752 167.978 62.1938 167.616 62.0329C167.254 61.8721 167.052 62.1535 167.012 62.435L167.052 62.4752Z" fill="#FFFBDC"/>
<path d="M161.418 71.4814C162.183 71.401 162.746 70.999 163.189 70.5165C163.189 70.5165 163.189 70.4361 163.189 70.3959C163.189 70.3155 163.189 70.2752 163.189 70.1948C163.109 69.9938 162.746 69.9938 162.585 70.1144C162.424 70.1948 162.304 70.2752 162.223 70.3959C162.062 70.5567 161.821 70.5969 161.579 70.6371C161.257 70.7175 160.935 70.7979 160.855 71.1196C160.774 71.4412 161.137 71.5618 161.459 71.5216L161.418 71.4814Z" fill="#FFFBDC"/>
</svg>
