<svg width="175" height="39" viewBox="0 0 175 39" fill="none" xmlns="http://www.w3.org/2000/svg">
<g clip-path="url(#clip0_40_8314)">
<path d="M167.678 5.21957C137.838 -0.0839803 107.732 -0.699696 77.5924 0.545729C56.3428 0.797612 35.1267 1.62323 13.9939 3.82022C6.33807 4.63184 3.16898 10.9849 4.55337 15.7567C-3.18586 19.9408 -0.817387 32.6189 9.92413 31.6814C11.7755 31.5274 13.627 31.3875 15.4784 31.2476C16.1122 35.0258 19.3647 38.4262 25.2692 38.4682C53.2572 38.6501 81.2285 38.8321 109.216 39C112.035 39.014 114.254 38.2443 115.872 37.0269C125.612 36.747 135.353 36.4112 145.094 36.0054C152.233 35.6975 156.336 29.3304 154.951 24.4467C159.221 23.677 163.474 22.8095 167.694 21.8299C177.051 19.6329 177.885 7.03873 167.694 5.21957H167.678Z" fill="#9C84B9"/>
</g>
<defs>
<clipPath id="clip0_40_8314">
<rect width="175" height="39" fill="white"/>
</clipPath>
</defs>
</svg>
